<?xml version="1.0" encoding="UTF-8"?>
<svg id="Layer_2" data-name="Layer 2" xmlns="http://www.w3.org/2000/svg" viewBox="0 0 341.94 58.13">
  <defs>
    <style>
      .cls-1 {
        fill: #fff;
      }
    </style>
  </defs>
  <g id="Layer_1-2" data-name="Layer 1">
    <g>
      <path class="cls-1" d="M0,17.62l2.84-3.39c1.81,1.45,3.84,2.21,5.97,2.21,1.37,0,2.11-.47,2.11-1.26v-.05c0-.76-.61-1.18-3.1-1.76-3.92-.89-6.95-2-6.95-5.79v-.05C.87,4.1,3.58,1.63,8,1.63c3.13,0,5.58,.84,7.58,2.45l-2.55,3.6c-1.68-1.18-3.52-1.81-5.16-1.81-1.24,0-1.84,.53-1.84,1.18v.05c0,.84,.63,1.21,3.18,1.79,4.24,.92,6.87,2.29,6.87,5.73v.05c0,3.76-2.97,6-7.44,6-3.26,0-6.37-1.03-8.63-3.05Z"/>
      <path class="cls-1" d="M18.87,15.94v-5.79h-1.68V6.13h1.68V2.53h5v3.6h3.31v4.02h-3.31v4.81c0,1,.45,1.42,1.37,1.42,.66,0,1.29-.18,1.89-.47v3.92c-.89,.5-2.08,.82-3.47,.82-3,0-4.79-1.32-4.79-4.71Z"/>
      <path class="cls-1" d="M32.21,4.39L28.79,.39h3.31l2.26,2,2.26-2h3.31l-3.42,4h-4.31Zm6.95,1.47v4.5c-.45-.05-.76-.08-1.13-.08-2.03,0-3.42,1.03-3.42,3.52v6.55h-5V6.1h4.76v1.71c1.03-1.29,2.68-1.95,4.79-1.95Z"/>
      <path class="cls-1" d="M40.41,13.31v-.05c0-4.16,2.97-7.44,7.18-7.44,4.92,0,7.18,3.6,7.18,7.79,0,.32,0,.68-.03,1.03h-9.52c.39,1.55,1.53,2.34,3.08,2.34,1.18,0,2.13-.45,3.16-1.45l2.76,2.29c-1.37,1.74-3.34,2.89-6.18,2.89-4.47,0-7.63-2.97-7.63-7.39Zm9.68-1.24c-.18-1.58-1.1-2.58-2.47-2.58s-2.21,1.03-2.47,2.58h4.95Z"/>
      <path class="cls-1" d="M57.02,1.16h5V20.36h-5V1.16Z"/>
      <path class="cls-1" d="M69.8,18.62v1.74h-5V1.16h5v6.87c.97-1.18,2.18-2.21,4.31-2.21,3.39,0,6.31,2.81,6.31,7.37v.05c0,4.63-2.92,7.44-6.29,7.44-2.16,0-3.42-.97-4.34-2.05Zm5.71-5.37v-.05c0-1.87-1.29-3.21-2.92-3.21s-2.89,1.34-2.89,3.21v.05c0,1.89,1.29,3.24,2.89,3.24s2.92-1.31,2.92-3.24Z"/>
      <path class="cls-1" d="M81.88,16.28v-.05c0-2.95,2.24-4.47,5.58-4.47,1.32,0,2.6,.26,3.42,.55v-.24c0-1.47-.92-2.31-2.84-2.31-1.5,0-2.66,.29-3.92,.79l-1.03-3.53c1.6-.66,3.31-1.1,5.76-1.1s4.29,.6,5.42,1.74c1.08,1.05,1.53,2.53,1.53,4.52v8.18h-4.95v-1.47c-.97,1.08-2.31,1.79-4.18,1.79-2.71,0-4.79-1.55-4.79-4.39Zm9.05-1.08v-.66c-.5-.21-1.21-.37-1.95-.37-1.45,0-2.29,.71-2.29,1.76v.05c0,.97,.74,1.55,1.76,1.55,1.45,0,2.47-.92,2.47-2.34Z"/>
      <path class="cls-1" d="M105.64,6.13h5v1.89c.97-1.18,2.18-2.21,4.31-2.21,3.39,0,6.31,2.81,6.31,7.37v.05c0,4.63-2.92,7.44-6.29,7.44-2.16,0-3.42-.97-4.34-2.05v5.95h-5V6.13Zm10.71,7.13v-.05c0-1.87-1.29-3.21-2.92-3.21s-2.89,1.34-2.89,3.21v.05c0,1.89,1.29,3.24,2.89,3.24s2.92-1.31,2.92-3.24Z"/>
      <path class="cls-1" d="M123.43,6.13h5v2.87c.82-1.95,2.13-3.21,4.5-3.1v5.26h-.42c-2.6,0-4.08,1.5-4.08,4.79v4.42h-5V6.13Z"/>
      <path class="cls-1" d="M133.85,13.31v-.05c0-4.05,3.31-7.44,7.89-7.44s7.84,3.34,7.84,7.39v.05c0,4.05-3.31,7.44-7.89,7.44s-7.84-3.34-7.84-7.39Zm10.86,0v-.05c0-1.74-1.26-3.21-3.02-3.21s-2.97,1.45-2.97,3.16v.05c0,1.74,1.26,3.21,3.02,3.21s2.97-1.45,2.97-3.16Z"/>
      <path class="cls-1" d="M158.97,1.16h5V10.89l3.87-4.76h5.66l-4.95,5.71,5.08,8.52h-5.5l-2.87-4.84-1.29,1.5v3.34h-5V1.16Z"/>
      <path class="cls-1" d="M173.87,16.28v-.05c0-2.95,2.24-4.47,5.58-4.47,1.32,0,2.6,.26,3.42,.55v-.24c0-1.47-.92-2.31-2.84-2.31-1.5,0-2.66,.29-3.92,.79l-1.03-3.53c1.6-.66,3.31-1.1,5.76-1.1s4.29,.6,5.42,1.74c1.08,1.05,1.53,2.53,1.53,4.52v8.18h-4.95v-1.47c-.97,1.08-2.31,1.79-4.18,1.79-2.71,0-4.79-1.55-4.79-4.39Zm9.05-1.08v-.66c-.5-.21-1.21-.37-1.95-.37-1.45,0-2.29,.71-2.29,1.76v.05c0,.97,.74,1.55,1.76,1.55,1.45,0,2.47-.92,2.47-2.34Z"/>
      <path class="cls-1" d="M189.84,17.07l6.58-6.97h-6.34v-3.97h12.97v3.29l-6.6,6.97h6.6v3.97h-13.21v-3.29Zm1.24-16.49h3.21l2.21,1.6,2.21-1.6h3.16l-3.37,4.34h-4.05l-3.37-4.34Z"/>
      <path class="cls-1" d="M204.62,13.31v-.05c0-4.63,2.89-7.44,6.26-7.44,2.16,0,3.42,.97,4.37,2.05V1.16h5V20.36h-5v-1.89c-.97,1.18-2.21,2.21-4.34,2.21-3.37,0-6.29-2.81-6.29-7.37Zm10.71-.05v-.05c0-1.87-1.29-3.21-2.89-3.21s-2.92,1.32-2.92,3.21v.05c0,1.89,1.32,3.24,2.92,3.24s2.89-1.34,2.89-3.24Z"/>
      <path class="cls-1" d="M222.36,13.31v-.05c0-4.16,2.97-7.44,7.18-7.44,4.92,0,7.18,3.6,7.18,7.79,0,.32,0,.68-.03,1.03h-9.52c.39,1.55,1.53,2.34,3.08,2.34,1.18,0,2.13-.45,3.16-1.45l2.76,2.29c-1.37,1.74-3.34,2.89-6.18,2.89-4.47,0-7.63-2.97-7.63-7.39Zm9.68-1.24c-.18-1.58-1.1-2.58-2.47-2.58s-2.21,1.03-2.47,2.58h4.95Zm-1.71-12.07l4.66,1.5-3.87,3.37h-3.52l2.74-4.87Z"/>
      <path class="cls-1" d="M238.86,1.16h5v6.92c.92-1.18,2.24-2.26,4.26-2.26,3.03,0,4.84,2,4.84,5.23v9.31h-5v-7.71c0-1.55-.82-2.39-2-2.39s-2.1,.84-2.1,2.39v7.71h-5V1.16Z"/>
      <path class="cls-1" d="M254.96,13.31v-.05c0-4.05,3.31-7.44,7.89-7.44s7.84,3.34,7.84,7.39v.05c0,4.05-3.31,7.44-7.89,7.44s-7.84-3.34-7.84-7.39Zm10.86,0v-.05c0-1.74-1.26-3.21-3.02-3.21s-2.97,1.45-2.97,3.16v.05c0,1.74,1.26,3.21,3.02,3.21s2.97-1.45,2.97-3.16Z"/>
      <path class="cls-1" d="M280.08,6.13h5v1.89c.97-1.18,2.18-2.21,4.31-2.21,3.39,0,6.31,2.81,6.31,7.37v.05c0,4.63-2.92,7.44-6.29,7.44-2.16,0-3.42-.97-4.34-2.05v5.95h-5V6.13Zm10.71,7.13v-.05c0-1.87-1.29-3.21-2.92-3.21s-2.89,1.34-2.89,3.21v.05c0,1.89,1.29,3.24,2.89,3.24s2.92-1.31,2.92-3.24Z"/>
      <path class="cls-1" d="M297.29,13.31v-.05c0-4.05,3.31-7.44,7.89-7.44s7.84,3.34,7.84,7.39v.05c0,4.05-3.31,7.44-7.89,7.44s-7.84-3.34-7.84-7.39Zm10.86,0v-.05c0-1.74-1.26-3.21-3.02-3.21s-2.97,1.45-2.97,3.16v.05c0,1.74,1.26,3.21,3.02,3.21s2.97-1.45,2.97-3.16Z"/>
      <path class="cls-1" d="M314.61,13.31v-.05c0-4.63,2.89-7.44,6.26-7.44,2.16,0,3.42,.97,4.37,2.05V1.16h5V20.36h-5v-1.89c-.97,1.18-2.21,2.21-4.34,2.21-3.37,0-6.29-2.81-6.29-7.37Zm10.71-.05v-.05c0-1.87-1.29-3.21-2.89-3.21s-2.92,1.32-2.92,3.21v.05c0,1.89,1.32,3.24,2.92,3.24s2.89-1.34,2.89-3.24Z"/>
      <path class="cls-1" d="M1.11,39.69H6.1v1.89c.97-1.18,2.18-2.21,4.31-2.21,3.39,0,6.31,2.81,6.31,7.37v.05c0,4.63-2.92,7.44-6.29,7.44-2.16,0-3.42-.97-4.34-2.05v5.95H1.11v-18.44Zm10.71,7.13v-.05c0-1.87-1.29-3.21-2.92-3.21s-2.89,1.34-2.89,3.21v.05c0,1.89,1.29,3.24,2.89,3.24s2.92-1.31,2.92-3.24Z"/>
      <path class="cls-1" d="M18.89,39.69h5v2.87c.82-1.95,2.13-3.21,4.5-3.1v5.26h-.42c-2.6,0-4.08,1.5-4.08,4.79v4.42h-5v-14.23Z"/>
      <path class="cls-1" d="M29.31,46.87v-.05c0-4.05,3.31-7.44,7.89-7.44s7.84,3.34,7.84,7.39v.05c0,4.05-3.31,7.44-7.89,7.44s-7.84-3.34-7.84-7.39Zm10.86,0v-.05c0-1.74-1.26-3.21-3.02-3.21s-2.97,1.45-2.97,3.16v.05c0,1.74,1.26,3.21,3.02,3.21s2.97-1.45,2.97-3.16Z"/>
      <path class="cls-1" d="M47.91,43.69h-1.66v-3.92h1.66v-.32c0-1.63,.37-2.84,1.21-3.68s2.03-1.24,3.71-1.24c1.53,0,2.47,.16,3.26,.39v3.52c-.58-.18-1.16-.29-1.87-.29-.92,0-1.42,.42-1.42,1.34v.34h3.26v3.84h-3.18v10.23h-4.97v-10.23Z"/>
      <path class="cls-1" d="M56.81,46.87v-.05c0-4.16,2.97-7.44,7.18-7.44,4.92,0,7.18,3.6,7.18,7.79,0,.32,0,.68-.03,1.03h-9.52c.39,1.55,1.53,2.34,3.08,2.34,1.18,0,2.13-.45,3.16-1.45l2.76,2.29c-1.37,1.74-3.34,2.89-6.18,2.89-4.47,0-7.63-2.97-7.63-7.39Zm9.68-1.24c-.18-1.58-1.1-2.58-2.47-2.58s-2.21,1.03-2.47,2.58h4.95Z"/>
      <path class="cls-1" d="M72.22,52.13l1.87-3.03c1.63,1.08,3.42,1.63,4.89,1.63,.87,0,1.26-.26,1.26-.76v-.05c0-.55-.79-.79-2.29-1.21-2.82-.74-5.05-1.68-5.05-4.55v-.05c0-3.03,2.42-4.71,5.71-4.71,2.08,0,4.24,.6,5.87,1.66l-1.71,3.16c-1.47-.82-3.08-1.32-4.21-1.32-.76,0-1.16,.29-1.16,.68v.05c0,.55,.82,.82,2.32,1.26,2.81,.79,5.05,1.76,5.05,4.52v.05c0,3.13-2.34,4.76-5.81,4.76-2.39,0-4.76-.68-6.73-2.1Z"/>
      <path class="cls-1" d="M86.83,34.72h5.21v3.68h-5.21v-3.68Zm.11,4.97h5v14.23h-5v-14.23Z"/>
      <path class="cls-1" d="M94.14,46.87v-.05c0-4.05,3.31-7.44,7.89-7.44s7.84,3.34,7.84,7.39v.05c0,4.05-3.31,7.44-7.89,7.44s-7.84-3.34-7.84-7.39Zm10.86,0v-.05c0-1.74-1.26-3.21-3.02-3.21s-2.97,1.45-2.97,3.16v.05c0,1.74,1.26,3.21,3.02,3.21s2.97-1.45,2.97-3.16Z"/>
      <path class="cls-1" d="M111.98,39.69h5v2c.92-1.18,2.24-2.31,4.26-2.31,3.03,0,4.84,2,4.84,5.23v9.31h-5v-7.71c0-1.55-.82-2.39-2-2.39s-2.1,.84-2.1,2.39v7.71h-5v-14.23Z"/>
      <path class="cls-1" d="M127.95,49.85v-.05c0-2.95,2.24-4.47,5.58-4.47,1.32,0,2.6,.26,3.42,.55v-.24c0-1.47-.92-2.31-2.84-2.31-1.5,0-2.66,.29-3.92,.79l-1.03-3.53c1.6-.66,3.31-1.1,5.76-1.1s4.29,.6,5.42,1.74c1.08,1.05,1.53,2.53,1.53,4.52v8.18h-4.95v-1.47c-.97,1.08-2.31,1.79-4.18,1.79-2.71,0-4.79-1.55-4.79-4.39Zm9.05-1.08v-.66c-.5-.21-1.21-.37-1.95-.37-1.45,0-2.29,.71-2.29,1.76v.05c0,.97,.74,1.55,1.76,1.55,1.45,0,2.47-.92,2.47-2.34Zm-1.26-15.21l4.66,1.5-3.87,3.37h-3.52l2.74-4.87Z"/>
      <path class="cls-1" d="M144.53,34.72h5v19.2h-5v-19.2Z"/>
      <path class="cls-1" d="M152.32,39.69h5v2c.92-1.18,2.24-2.31,4.26-2.31,3.03,0,4.84,2,4.84,5.23v9.31h-5v-7.71c0-1.55-.82-2.39-2-2.39s-2.1,.84-2.1,2.39v7.71h-5v-14.23Z"/>
      <path class="cls-1" d="M169.1,39.69h5v14.23h-5v-14.23Zm3.21-6.08l4.66,1.5-3.87,3.37h-3.53l2.74-4.87Z"/>
      <path class="cls-1" d="M176.89,39.69h5v1.95c.92-1.18,2.24-2.26,4.24-2.26,1.89,0,3.34,.84,4.1,2.31,1.24-1.42,2.68-2.31,4.76-2.31,3.03,0,4.87,1.89,4.87,5.21v9.34h-5v-7.73c0-1.55-.76-2.37-1.95-2.37s-2.05,.82-2.05,2.37v7.73h-5v-7.73c0-1.55-.76-2.37-1.95-2.37s-2.03,.82-2.03,2.37v7.73h-5v-14.23Z"/>
      <path class="cls-1" d="M209.2,46.87v-.05c0-4.63,2.89-7.44,6.26-7.44,2.16,0,3.42,.97,4.37,2.05v-6.71h5v19.2h-5v-1.89c-.97,1.18-2.21,2.21-4.34,2.21-3.37,0-6.29-2.81-6.29-7.37Zm10.71-.05v-.05c0-1.87-1.29-3.21-2.89-3.21s-2.92,1.32-2.92,3.21v.05c0,1.89,1.32,3.24,2.92,3.24s2.89-1.34,2.89-3.24Z"/>
      <path class="cls-1" d="M226.94,46.87v-.05c0-4.05,3.31-7.44,7.89-7.44s7.84,3.34,7.84,7.39v.05c0,4.05-3.31,7.44-7.89,7.44s-7.84-3.34-7.84-7.39Zm10.86,0v-.05c0-1.74-1.26-3.21-3.02-3.21s-2.97,1.45-2.97,3.16v.05c0,1.74,1.26,3.21,3.02,3.21s2.97-1.45,2.97-3.16Z"/>
      <path class="cls-1" d="M244.78,34.72h5v6.92c.92-1.18,2.24-2.26,4.26-2.26,3.03,0,4.84,2,4.84,5.23v9.31h-5v-7.71c0-1.55-.82-2.39-2-2.39s-2.1,.84-2.1,2.39v7.71h-5v-19.2Z"/>
      <path class="cls-1" d="M261.56,34.72h5v19.2h-5v-19.2Z"/>
      <path class="cls-1" d="M268.77,46.87v-.05c0-4.16,2.97-7.44,7.18-7.44,4.92,0,7.18,3.6,7.18,7.79,0,.32,0,.68-.03,1.03h-9.52c.39,1.55,1.53,2.34,3.08,2.34,1.18,0,2.13-.45,3.16-1.45l2.76,2.29c-1.37,1.74-3.34,2.89-6.18,2.89-4.47,0-7.63-2.97-7.63-7.39Zm9.68-1.24c-.18-1.58-1.1-2.58-2.47-2.58s-2.21,1.03-2.47,2.58h4.95Z"/>
      <path class="cls-1" d="M284.74,46.87v-.05c0-4.63,2.89-7.44,6.26-7.44,2.16,0,3.42,.97,4.37,2.05v-6.71h5v19.2h-5v-1.89c-.97,1.18-2.21,2.21-4.34,2.21-3.37,0-6.29-2.81-6.29-7.37Zm10.71-.05v-.05c0-1.87-1.29-3.21-2.89-3.21s-2.92,1.32-2.92,3.21v.05c0,1.89,1.32,3.24,2.92,3.24s2.89-1.34,2.89-3.24Z"/>
      <path class="cls-1" d="M302.48,46.87v-.05c0-4.16,2.97-7.44,7.18-7.44,4.92,0,7.18,3.6,7.18,7.79,0,.32,0,.68-.03,1.03h-9.52c.39,1.55,1.53,2.34,3.08,2.34,1.18,0,2.13-.45,3.16-1.45l2.76,2.29c-1.37,1.74-3.34,2.89-6.18,2.89-4.47,0-7.63-2.97-7.63-7.39Zm9.68-1.24c-.18-1.58-1.1-2.58-2.47-2.58s-2.21,1.03-2.47,2.58h4.95Z"/>
      <path class="cls-1" d="M318.97,39.69h5v1.95c.92-1.18,2.24-2.26,4.24-2.26,1.89,0,3.34,.84,4.1,2.31,1.24-1.42,2.68-2.31,4.76-2.31,3.03,0,4.87,1.89,4.87,5.21v9.34h-5v-7.73c0-1.55-.76-2.37-1.95-2.37s-2.05,.82-2.05,2.37v7.73h-5v-7.73c0-1.55-.76-2.37-1.95-2.37s-2.03,.82-2.03,2.37v7.73h-5v-14.23Z"/>
    </g>
  </g>
</svg>