<?xml version="1.0" encoding="UTF-8"?>
<svg id="Layer_2" data-name="Layer 2" xmlns="http://www.w3.org/2000/svg" viewBox="0 0 342.04 56.63">
  <defs>
    <style>
      .cls-1 {
        fill: #fff;
      }
    </style>
  </defs>
  <g id="Layer_1-2" data-name="Layer 1">
    <g>
      <path class="cls-1" d="M.28,1.84H4.92l7.38,9.48V1.84h4.92V19.78h-4.35L5.2,9.94v9.84H.28V1.84Z"/>
      <path class="cls-1" d="M19.55,12.91v-.05c0-4.05,2.89-7.25,6.99-7.25,4.79,0,6.99,3.51,6.99,7.58,0,.31,0,.67-.03,1h-9.27c.38,1.51,1.49,2.28,3,2.28,1.15,0,2.08-.44,3.07-1.41l2.69,2.23c-1.33,1.69-3.25,2.82-6.02,2.82-4.36,0-7.43-2.9-7.43-7.2Zm9.43-1.2c-.18-1.54-1.08-2.51-2.41-2.51s-2.15,1-2.41,2.51h4.82Z"/>
      <path class="cls-1" d="M33.64,23.77v-3.23c.21,.03,.44,.03,.64,.03,.95,0,1.43-.41,1.43-1.61V5.92h4.87v13.25c0,3.51-1.79,4.79-4.94,4.79-.77,0-1.41-.1-2-.18Zm1.97-22.7h5.07v3.59h-5.07V1.08Z"/>
      <path class="cls-1" d="M43.35,5.92h4.87v1.9c.9-1.15,2.18-2.2,4.12-2.2,1.84,0,3.25,.82,4,2.25,1.2-1.38,2.61-2.25,4.64-2.25,2.95,0,4.74,1.84,4.74,5.07v9.09h-4.87v-7.53c0-1.51-.74-2.31-1.9-2.31s-2,.79-2,2.31v7.53h-4.87v-7.53c0-1.51-.74-2.31-1.9-2.31s-1.97,.79-1.97,2.31v7.53h-4.87V5.92Z"/>
      <path class="cls-1" d="M67.66,12.91v-.05c0-3.95,3.23-7.25,7.69-7.25s7.63,3.25,7.63,7.2v.05c0,3.95-3.23,7.25-7.69,7.25s-7.63-3.25-7.63-7.2Zm10.58,0v-.05c0-1.69-1.23-3.13-2.95-3.13s-2.9,1.41-2.9,3.07v.05c0,1.69,1.23,3.13,2.95,3.13s2.9-1.41,2.9-3.07Z"/>
      <path class="cls-1" d="M84.52,12.91v-.05c0-4.51,2.82-7.25,6.1-7.25,2.1,0,3.33,.95,4.25,2V1.08h4.87V19.78h-4.87v-1.84c-.95,1.15-2.15,2.15-4.23,2.15-3.28,0-6.12-2.74-6.12-7.17Zm10.43-.05v-.05c0-1.82-1.26-3.13-2.82-3.13s-2.84,1.28-2.84,3.13v.05c0,1.84,1.28,3.15,2.84,3.15s2.82-1.31,2.82-3.15Z"/>
      <path class="cls-1" d="M101.78,12.91v-.05c0-4.05,2.89-7.25,6.99-7.25,4.79,0,6.99,3.51,6.99,7.58,0,.31,0,.67-.03,1h-9.27c.38,1.51,1.49,2.28,3,2.28,1.15,0,2.08-.44,3.07-1.41l2.69,2.23c-1.33,1.69-3.25,2.82-6.02,2.82-4.36,0-7.43-2.9-7.43-7.2Zm9.43-1.2c-.18-1.54-1.08-2.51-2.41-2.51s-2.15,1-2.41,2.51h4.82Z"/>
      <path class="cls-1" d="M117.85,5.92h4.87v2.79c.79-1.9,2.08-3.13,4.38-3.02v5.12h-.41c-2.54,0-3.97,1.46-3.97,4.66v4.3h-4.87V5.92Z"/>
      <path class="cls-1" d="M128.81,5.92h4.87v1.95c.9-1.15,2.18-2.25,4.15-2.25,2.95,0,4.71,1.95,4.71,5.1v9.07h-4.87v-7.51c0-1.51-.79-2.33-1.95-2.33s-2.05,.82-2.05,2.33v7.51h-4.87V5.92Z"/>
      <path class="cls-1" d="M159.43,14.06h-10.09c.41,1.41,1.61,2.23,3.41,2.23,1.36,0,2.25-.38,3.2-1.2l2.56,2.66c-1.33,1.49-3.28,2.25-5.92,2.25-4.94,0-8.15-3.05-8.15-7.2s3.25-7.15,7.63-7.15c4.1,0,7.43,2.61,7.43,7.2,0,.36-.05,.82-.08,1.2Zm-9.56-9.84l-3.33-3.89h3.23l2.2,1.95,2.2-1.95h3.23l-3.33,3.89h-4.2Zm-.62,7.28h5.69c-.26-1.46-1.33-2.38-2.84-2.38s-2.56,.92-2.84,2.38Z"/>
      <path class="cls-1" d="M159.53,23.77v-3.23c.21,.03,.44,.03,.64,.03,.95,0,1.43-.41,1.43-1.61V5.92h4.87v13.25c0,3.51-1.79,4.79-4.94,4.79-.77,0-1.41-.1-2-.18Zm1.97-22.7h5.07v3.59h-5.07V1.08Z"/>
      <path class="cls-1" d="M168.19,18.04l1.82-2.95c1.59,1.05,3.33,1.59,4.77,1.59,.84,0,1.23-.26,1.23-.74v-.05c0-.54-.77-.77-2.23-1.18-2.74-.72-4.92-1.64-4.92-4.43v-.05c0-2.95,2.36-4.59,5.56-4.59,2.02,0,4.12,.59,5.71,1.61l-1.67,3.07c-1.43-.79-3-1.28-4.1-1.28-.74,0-1.13,.28-1.13,.67v.05c0,.54,.79,.79,2.25,1.23,2.74,.77,4.92,1.72,4.92,4.41v.05c0,3.05-2.28,4.64-5.66,4.64-2.33,0-4.64-.67-6.56-2.05Zm1.13-17.52h3.12l2.15,1.56,2.15-1.56h3.07l-3.28,4.23h-3.95l-3.28-4.23Z"/>
      <path class="cls-1" d="M182.51,5.92h4.87v13.86h-4.87V5.92Zm3.12-5.92l4.54,1.46-3.77,3.28h-3.43l2.66-4.74Z"/>
      <path class="cls-1" d="M196.14,18.04l1.82-2.95c1.59,1.05,3.33,1.59,4.77,1.59,.84,0,1.23-.26,1.23-.74v-.05c0-.54-.77-.77-2.23-1.18-2.74-.72-4.92-1.64-4.92-4.43v-.05c0-2.95,2.36-4.59,5.56-4.59,2.02,0,4.12,.59,5.71,1.61l-1.67,3.07c-1.43-.79-3-1.28-4.1-1.28-.74,0-1.13,.28-1.13,.67v.05c0,.54,.79,.79,2.25,1.23,2.74,.77,4.92,1.72,4.92,4.41v.05c0,3.05-2.28,4.64-5.66,4.64-2.33,0-4.64-.67-6.56-2.05Z"/>
      <path class="cls-1" d="M210.95,15.47v-5.64h-1.64v-3.92h1.64V2.41h4.87v3.51h3.23v3.92h-3.23v4.69c0,.97,.44,1.38,1.33,1.38,.64,0,1.26-.18,1.84-.46v3.82c-.87,.49-2.02,.79-3.38,.79-2.92,0-4.66-1.28-4.66-4.59Z"/>
      <path class="cls-1" d="M223.94,4.23l-3.33-3.89h3.23l2.2,1.95,2.2-1.95h3.23l-3.33,3.89h-4.2Zm6.76,1.44v4.38c-.44-.05-.74-.08-1.1-.08-1.97,0-3.33,1-3.33,3.43v6.38h-4.87V5.89h4.64v1.67c1-1.26,2.61-1.9,4.66-1.9Z"/>
      <path class="cls-1" d="M231.93,12.91v-.05c0-4.05,2.89-7.25,6.99-7.25,4.79,0,6.99,3.51,6.99,7.58,0,.31,0,.67-.03,1h-9.27c.38,1.51,1.49,2.28,3,2.28,1.15,0,2.08-.44,3.07-1.41l2.69,2.23c-1.33,1.69-3.25,2.82-6.02,2.82-4.36,0-7.43-2.9-7.43-7.2Zm9.43-1.2c-.18-1.54-1.08-2.51-2.41-2.51s-2.15,1-2.41,2.51h4.82Z"/>
      <path class="cls-1" d="M248.09,1.08h4.87V19.78h-4.87V1.08Z"/>
      <path class="cls-1" d="M255.68,5.92h4.87v1.95c.9-1.15,2.18-2.25,4.15-2.25,2.95,0,4.71,1.95,4.71,5.1v9.07h-4.87v-7.51c0-1.51-.79-2.33-1.95-2.33s-2.05,.82-2.05,2.33v7.51h-4.87V5.92Z"/>
      <path class="cls-1" d="M271.92,1.08h5.07v3.59h-5.07V1.08Zm.1,4.84h4.87v13.86h-4.87V5.92Z"/>
      <path class="cls-1" d="M279.04,12.91v-.05c0-3.92,3.05-7.22,7.43-7.22,2.84,0,4.74,1.23,5.92,3.1l-3.3,2.46c-.67-.92-1.41-1.46-2.59-1.46-1.56,0-2.72,1.38-2.72,3.07v.05c0,1.79,1.13,3.15,2.77,3.15,1.15,0,1.9-.54,2.67-1.43l3.25,2.36c-1.28,1.9-3.13,3.18-6.17,3.18-4.18,0-7.25-3.28-7.25-7.2Z"/>
      <path class="cls-1" d="M293.24,12.91v-.05c0-4.05,2.89-7.25,6.99-7.25,4.79,0,6.99,3.51,6.99,7.58,0,.31,0,.67-.03,1h-9.27c.38,1.51,1.49,2.28,3,2.28,1.15,0,2.08-.44,3.07-1.41l2.69,2.23c-1.33,1.69-3.25,2.82-6.02,2.82-4.36,0-7.43-2.9-7.43-7.2Zm9.43-1.2c-.18-1.54-1.08-2.51-2.41-2.51s-2.15,1-2.41,2.51h4.82Z"/>
      <path class="cls-1" d="M315.7,15.81v-.05c0-2.87,2.18-4.35,5.43-4.35,1.28,0,2.54,.26,3.33,.54v-.23c0-1.43-.9-2.25-2.77-2.25-1.46,0-2.59,.28-3.82,.77l-1-3.43c1.56-.64,3.23-1.08,5.61-1.08s4.18,.59,5.28,1.69c1.05,1.02,1.49,2.46,1.49,4.41v7.97h-4.82v-1.43c-.95,1.05-2.25,1.74-4.07,1.74-2.64,0-4.66-1.51-4.66-4.28Zm8.81-1.05v-.64c-.49-.2-1.18-.36-1.9-.36-1.41,0-2.23,.69-2.23,1.72v.05c0,.95,.72,1.51,1.72,1.51,1.41,0,2.41-.9,2.41-2.28Z"/>
      <path class="cls-1" d="M0,38.59H4.87v1.95c.9-1.15,2.18-2.25,4.15-2.25,2.95,0,4.71,1.95,4.71,5.1v9.07h-4.87v-7.51c0-1.51-.79-2.33-1.95-2.33s-2.05,.82-2.05,2.33v7.51H0v-13.86Z"/>
      <path class="cls-1" d="M15.68,45.59v-.05c0-4.05,2.89-7.25,6.99-7.25,4.79,0,6.99,3.51,6.99,7.58,0,.31,0,.67-.03,1h-9.27c.38,1.51,1.49,2.28,3,2.28,1.15,0,2.08-.44,3.07-1.41l2.69,2.23c-1.33,1.69-3.25,2.82-6.02,2.82-4.36,0-7.43-2.9-7.43-7.2Zm9.43-1.2c-.18-1.54-1.08-2.51-2.41-2.51s-2.15,1-2.41,2.51h4.82Z"/>
      <path class="cls-1" d="M29.77,56.45v-3.23c.21,.03,.44,.03,.64,.03,.95,0,1.43-.41,1.43-1.61v-13.04h4.87v13.25c0,3.51-1.79,4.79-4.94,4.79-.77,0-1.41-.1-2-.18Zm1.97-22.7h5.07v3.59h-5.07v-3.59Z"/>
      <path class="cls-1" d="M38.43,38.59h5.12l2.67,8.1,2.66-8.1h5.05l-5.53,13.96h-4.43l-5.53-13.96Z"/>
      <path class="cls-1" d="M69.86,46.74h-10.09c.41,1.41,1.61,2.23,3.41,2.23,1.36,0,2.25-.38,3.2-1.2l2.56,2.66c-1.33,1.49-3.28,2.25-5.92,2.25-4.94,0-8.15-3.05-8.15-7.2s3.25-7.15,7.63-7.15c4.1,0,7.43,2.61,7.43,7.2,0,.36-.05,.82-.08,1.2Zm-9.56-9.84l-3.33-3.89h3.23l2.2,1.95,2.2-1.95h3.23l-3.33,3.89h-4.2Zm-.62,7.28h5.69c-.26-1.46-1.33-2.38-2.84-2.38s-2.56,.92-2.84,2.38Z"/>
      <path class="cls-1" d="M72.78,48.15v-5.64h-1.64v-3.92h1.64v-3.51h4.87v3.51h3.23v3.92h-3.23v4.69c0,.97,.44,1.38,1.33,1.38,.64,0,1.26-.18,1.84-.46v3.82c-.87,.49-2.02,.79-3.38,.79-2.92,0-4.66-1.28-4.66-4.59Z"/>
      <path class="cls-1" d="M81.93,50.71l1.82-2.95c1.59,1.05,3.33,1.59,4.77,1.59,.84,0,1.23-.26,1.23-.74v-.05c0-.54-.77-.77-2.23-1.18-2.74-.72-4.92-1.64-4.92-4.43v-.05c0-2.95,2.36-4.59,5.56-4.59,2.02,0,4.12,.59,5.71,1.61l-1.67,3.07c-1.43-.79-3-1.28-4.1-1.28-.74,0-1.13,.28-1.13,.67v.05c0,.54,.79,.79,2.25,1.23,2.74,.77,4.92,1.72,4.92,4.41v.05c0,3.05-2.28,4.64-5.66,4.64-2.33,0-4.64-.67-6.56-2.05Zm1.13-17.52h3.12l2.15,1.56,2.15-1.56h3.07l-3.28,4.23h-3.95l-3.28-4.23Z"/>
      <path class="cls-1" d="M96.25,38.59h4.87v13.86h-4.87v-13.86Zm3.12-5.92l4.54,1.46-3.77,3.28h-3.43l2.66-4.74Z"/>
      <path class="cls-1" d="M109.88,38.59h5.12l2.67,8.1,2.66-8.1h5.05l-5.53,13.96h-4.43l-5.53-13.96Z"/>
      <path class="cls-1" d="M126.58,55.43l1.51-3.41c.77,.46,1.59,.74,2.13,.74,.49,0,.82-.13,1.13-.56l-5.43-13.6h5.1l2.77,8.35,2.61-8.35h5l-5.07,13.53c-1.2,3.23-2.51,4.51-5.28,4.51-1.72,0-3.18-.49-4.46-1.2Zm7.51-22.75l4.54,1.46-3.77,3.28h-3.43l2.66-4.74Z"/>
      <path class="cls-1" d="M147.85,50.76v1.69h-4.87v-18.7h4.87v6.69c.95-1.15,2.13-2.15,4.2-2.15,3.3,0,6.15,2.74,6.15,7.17v.05c0,4.51-2.84,7.25-6.12,7.25-2.1,0-3.33-.95-4.23-2Zm5.56-5.23v-.05c0-1.82-1.25-3.13-2.84-3.13s-2.82,1.31-2.82,3.13v.05c0,1.84,1.25,3.15,2.82,3.15s2.84-1.28,2.84-3.15Z"/>
      <path class="cls-1" d="M174.67,46.74h-10.09c.41,1.41,1.61,2.23,3.41,2.23,1.36,0,2.25-.38,3.2-1.2l2.56,2.66c-1.33,1.49-3.28,2.25-5.92,2.25-4.94,0-8.15-3.05-8.15-7.2s3.25-7.15,7.63-7.15c4.1,0,7.43,2.61,7.43,7.2,0,.36-.05,.82-.08,1.2Zm-9.56-9.84l-3.33-3.89h3.23l2.2,1.95,2.2-1.95h3.23l-3.33,3.89h-4.2Zm-.62,7.28h5.69c-.26-1.46-1.33-2.38-2.84-2.38s-2.56,.92-2.84,2.38Z"/>
      <path class="cls-1" d="M176.75,38.59h4.87v2.79c.79-1.9,2.08-3.13,4.38-3.02v5.12h-.41c-2.54,0-3.97,1.46-3.97,4.66v4.3h-4.87v-13.86Z"/>
      <path class="cls-1" d="M194.32,49.25l6.4-6.79h-6.17v-3.87h12.63v3.2l-6.43,6.79h6.43v3.87h-12.86v-3.2Z"/>
      <path class="cls-1" d="M214.1,50.76v1.69h-4.87v-18.7h4.87v6.69c.95-1.15,2.13-2.15,4.2-2.15,3.3,0,6.15,2.74,6.15,7.17v.05c0,4.51-2.84,7.25-6.12,7.25-2.1,0-3.33-.95-4.23-2Zm5.56-5.23v-.05c0-1.82-1.25-3.13-2.84-3.13s-2.82,1.31-2.82,3.13v.05c0,1.84,1.25,3.15,2.82,3.15s2.84-1.28,2.84-3.15Z"/>
      <path class="cls-1" d="M226.55,38.59h4.87v2.79c.79-1.9,2.08-3.13,4.38-3.02v5.12h-.41c-2.54,0-3.97,1.46-3.97,4.66v4.3h-4.87v-13.86Z"/>
      <path class="cls-1" d="M236.18,48.48v-.05c0-2.87,2.18-4.35,5.43-4.35,1.28,0,2.54,.26,3.33,.54v-.23c0-1.43-.9-2.25-2.77-2.25-1.46,0-2.59,.28-3.82,.77l-1-3.43c1.56-.64,3.23-1.08,5.61-1.08s4.18,.59,5.28,1.69c1.05,1.02,1.49,2.46,1.49,4.41v7.97h-4.82v-1.43c-.95,1.05-2.25,1.74-4.07,1.74-2.64,0-4.66-1.51-4.66-4.28Zm8.81-1.05v-.64c-.49-.2-1.18-.36-1.9-.36-1.41,0-2.23,.69-2.23,1.72v.05c0,.95,.72,1.51,1.72,1.51,1.41,0,2.41-.9,2.41-2.28Z"/>
      <path class="cls-1" d="M252.22,38.59h4.87v1.95c.9-1.15,2.18-2.25,4.15-2.25,2.95,0,4.71,1.95,4.71,5.1v9.07h-4.87v-7.51c0-1.51-.79-2.33-1.95-2.33s-2.05,.82-2.05,2.33v7.51h-4.87v-13.86Z"/>
      <path class="cls-1" d="M268.56,38.59h4.87v13.86h-4.87v-13.86Zm3.12-5.92l4.54,1.46-3.77,3.28h-3.43l2.66-4.74Z"/>
      <path class="cls-1" d="M282.19,38.59h5.12l2.67,8.1,2.66-8.1h5.05l-5.53,13.96h-4.43l-5.53-13.96Z"/>
      <path class="cls-1" d="M320.26,46.51l3.23,2.92c-1.74,2.18-4.41,3.38-7.71,3.38-5.69,0-9.86-3.87-9.86-9.33s4.18-9.33,9.86-9.33c3.3,0,5.97,1.2,7.71,3.38l-3.23,2.92c-1.13-1.36-2.51-2.1-4.23-2.1-2.95,0-5,2.05-5,5.12s2.05,5.12,5,5.12c1.72,0,3.1-.74,4.23-2.1Zm-6.66-13.48l-3.33-3.89h3.23l2.2,1.95,2.2-1.95h3.23l-3.33,3.89h-4.2Z"/>
      <path class="cls-1" d="M325.54,34.52h8.48c2.74,0,4.64,.72,5.84,1.95,1.05,1.02,1.59,2.41,1.59,4.18v.05c0,2.74-1.46,4.56-3.69,5.51l4.28,6.25h-5.74l-3.61-5.43h-2.18v5.43h-4.97v-17.93Zm8.25,8.61c1.69,0,2.66-.82,2.66-2.13v-.05c0-1.41-1.02-2.13-2.69-2.13h-3.25v4.3h3.28Z"/>
    </g>
  </g>
</svg>