<?xml version="1.0" encoding="UTF-8"?>
<svg id="Layer_2" data-name="Layer 2" xmlns="http://www.w3.org/2000/svg" viewBox="0 0 325.4 86.25">
  <defs>
    <style>
      .cls-1 {
        fill: #fff;
      }
    </style>
  </defs>
  <g id="Layer_1-2" data-name="Layer 1">
    <g>
      <path class="cls-1" d="M1.03,1.95H5.93l7.8,10.02V1.95h5.2V20.9h-4.6L6.23,10.5v10.39H1.03V1.95Z"/>
      <path class="cls-1" d="M21.39,13.64v-.05c0-4.28,3.06-7.66,7.39-7.66,5.06,0,7.39,3.71,7.39,8.01,0,.33,0,.7-.03,1.06h-9.8c.41,1.6,1.57,2.41,3.17,2.41,1.22,0,2.19-.46,3.25-1.49l2.84,2.35c-1.41,1.79-3.44,2.98-6.36,2.98-4.6,0-7.85-3.06-7.85-7.61Zm9.96-1.27c-.19-1.62-1.14-2.65-2.54-2.65s-2.27,1.06-2.54,2.65h5.09Z"/>
      <path class="cls-1" d="M36.28,25.12v-3.41c.22,.03,.46,.03,.68,.03,1,0,1.52-.43,1.52-1.71V6.25h5.14v14c0,3.71-1.89,5.06-5.22,5.06-.81,0-1.49-.11-2.11-.19ZM38.37,1.14h5.36v3.79h-5.36V1.14Z"/>
      <path class="cls-1" d="M46.54,6.25h5.14v2c.95-1.22,2.3-2.33,4.36-2.33,1.95,0,3.44,.87,4.22,2.38,1.27-1.46,2.76-2.38,4.9-2.38,3.11,0,5.01,1.95,5.01,5.36v9.61h-5.14v-7.96c0-1.6-.79-2.44-2-2.44s-2.11,.84-2.11,2.44v7.96h-5.14v-7.96c0-1.6-.79-2.44-2-2.44s-2.08,.84-2.08,2.44v7.96h-5.14V6.25Z"/>
      <path class="cls-1" d="M72.23,13.64v-.05c0-4.17,3.41-7.66,8.12-7.66s8.07,3.44,8.07,7.61v.05c0,4.17-3.41,7.66-8.12,7.66s-8.07-3.44-8.07-7.61Zm11.18,0v-.05c0-1.79-1.3-3.3-3.11-3.3s-3.06,1.49-3.06,3.25v.05c0,1.79,1.3,3.3,3.11,3.3s3.06-1.49,3.06-3.25Z"/>
      <path class="cls-1" d="M90.05,13.64v-.05c0-4.76,2.98-7.66,6.44-7.66,2.22,0,3.52,1,4.49,2.11V1.14h5.14V20.9h-5.14v-1.95c-1,1.22-2.27,2.27-4.47,2.27-3.46,0-6.47-2.9-6.47-7.58Zm11.02-.05v-.05c0-1.92-1.33-3.3-2.98-3.3s-3,1.35-3,3.3v.05c0,1.95,1.35,3.33,3,3.33s2.98-1.38,2.98-3.33Z"/>
      <path class="cls-1" d="M108.3,13.64v-.05c0-4.28,3.06-7.66,7.39-7.66,5.06,0,7.39,3.71,7.39,8.01,0,.33,0,.7-.03,1.06h-9.8c.41,1.6,1.57,2.41,3.17,2.41,1.22,0,2.19-.46,3.25-1.49l2.84,2.35c-1.41,1.79-3.44,2.98-6.36,2.98-4.6,0-7.85-3.06-7.85-7.61Zm9.96-1.27c-.19-1.62-1.14-2.65-2.54-2.65s-2.27,1.06-2.54,2.65h5.09Z"/>
      <path class="cls-1" d="M125.27,6.25h5.14v2.95c.84-2,2.19-3.3,4.63-3.19v5.41h-.43c-2.68,0-4.2,1.54-4.2,4.93v4.55h-5.14V6.25Z"/>
      <path class="cls-1" d="M136.86,6.25h5.14v2.06c.95-1.22,2.3-2.38,4.39-2.38,3.11,0,4.98,2.06,4.98,5.39v9.58h-5.14v-7.93c0-1.6-.84-2.46-2.06-2.46s-2.17,.87-2.17,2.46v7.93h-5.14V6.25Z"/>
      <path class="cls-1" d="M169.21,14.86h-10.67c.43,1.49,1.71,2.35,3.6,2.35,1.43,0,2.38-.41,3.38-1.27l2.71,2.82c-1.41,1.57-3.46,2.38-6.25,2.38-5.22,0-8.61-3.22-8.61-7.61s3.44-7.55,8.07-7.55c4.33,0,7.85,2.76,7.85,7.61,0,.38-.05,.87-.08,1.27Zm-10.1-10.39l-3.52-4.12h3.41l2.33,2.06,2.33-2.06h3.41l-3.52,4.12h-4.44Zm-.65,7.69h6.01c-.27-1.54-1.41-2.52-3-2.52s-2.71,.97-3,2.52Z"/>
      <path class="cls-1" d="M169.32,25.12v-3.41c.22,.03,.46,.03,.68,.03,1,0,1.52-.43,1.52-1.71V6.25h5.14v14c0,3.71-1.89,5.06-5.22,5.06-.81,0-1.49-.11-2.11-.19Zm2.08-23.98h5.36v3.79h-5.36V1.14Z"/>
      <path class="cls-1" d="M178.47,19.06l1.92-3.11c1.68,1.11,3.52,1.68,5.04,1.68,.89,0,1.3-.27,1.3-.79v-.05c0-.57-.81-.81-2.35-1.25-2.9-.76-5.2-1.73-5.2-4.68v-.05c0-3.11,2.49-4.85,5.87-4.85,2.14,0,4.36,.62,6.04,1.71l-1.76,3.25c-1.52-.84-3.17-1.35-4.33-1.35-.78,0-1.19,.3-1.19,.7v.05c0,.57,.84,.84,2.38,1.3,2.9,.81,5.2,1.81,5.2,4.66v.05c0,3.22-2.41,4.9-5.98,4.9-2.46,0-4.9-.7-6.93-2.17Zm1.19-18.52h3.3l2.27,1.65,2.27-1.65h3.25l-3.46,4.47h-4.17l-3.46-4.47Z"/>
      <path class="cls-1" d="M193.61,6.25h5.14v14.64h-5.14V6.25Zm3.3-6.25l4.79,1.54-3.98,3.46h-3.63l2.82-5.01Z"/>
      <path class="cls-1" d="M208.01,19.06l1.92-3.11c1.68,1.11,3.52,1.68,5.04,1.68,.89,0,1.3-.27,1.3-.79v-.05c0-.57-.81-.81-2.35-1.25-2.9-.76-5.2-1.73-5.2-4.68v-.05c0-3.11,2.49-4.85,5.87-4.85,2.14,0,4.36,.62,6.04,1.71l-1.76,3.25c-1.52-.84-3.17-1.35-4.33-1.35-.78,0-1.19,.3-1.19,.7v.05c0,.57,.84,.84,2.38,1.3,2.9,.81,5.2,1.81,5.2,4.66v.05c0,3.22-2.41,4.9-5.98,4.9-2.46,0-4.9-.7-6.93-2.17Z"/>
      <path class="cls-1" d="M223.66,16.35v-5.96h-1.73V6.25h1.73V2.54h5.14v3.71h3.41v4.14h-3.41v4.95c0,1.03,.46,1.46,1.41,1.46,.68,0,1.33-.19,1.95-.49v4.03c-.92,.51-2.14,.84-3.57,.84-3.09,0-4.93-1.35-4.93-4.85Z"/>
      <path class="cls-1" d="M237.39,4.47l-3.52-4.12h3.41l2.33,2.06,2.33-2.06h3.41l-3.52,4.12h-4.44Zm7.15,1.52v4.63c-.46-.05-.79-.08-1.16-.08-2.08,0-3.52,1.06-3.52,3.63v6.74h-5.14V6.23h4.9v1.76c1.06-1.33,2.76-2,4.93-2Z"/>
      <path class="cls-1" d="M245.83,13.64v-.05c0-4.28,3.06-7.66,7.39-7.66,5.06,0,7.39,3.71,7.39,8.01,0,.33,0,.7-.03,1.06h-9.8c.41,1.6,1.57,2.41,3.17,2.41,1.22,0,2.19-.46,3.25-1.49l2.84,2.35c-1.41,1.79-3.44,2.98-6.36,2.98-4.6,0-7.85-3.06-7.85-7.61Zm9.96-1.27c-.19-1.62-1.14-2.65-2.54-2.65s-2.27,1.06-2.54,2.65h5.09Z"/>
      <path class="cls-1" d="M262.92,1.14h5.14V20.9h-5.14V1.14Z"/>
      <path class="cls-1" d="M270.93,6.25h5.14v2.06c.95-1.22,2.3-2.38,4.39-2.38,3.11,0,4.98,2.06,4.98,5.39v9.58h-5.14v-7.93c0-1.6-.84-2.46-2.06-2.46s-2.17,.87-2.17,2.46v7.93h-5.14V6.25Z"/>
      <path class="cls-1" d="M288.1,1.14h5.36v3.79h-5.36V1.14Zm.11,5.12h5.14v14.64h-5.14V6.25Z"/>
      <path class="cls-1" d="M295.62,13.64v-.05c0-4.14,3.22-7.63,7.85-7.63,3,0,5.01,1.3,6.25,3.28l-3.49,2.6c-.7-.97-1.49-1.54-2.73-1.54-1.65,0-2.87,1.46-2.87,3.25v.05c0,1.89,1.19,3.33,2.92,3.33,1.22,0,2-.57,2.82-1.52l3.44,2.49c-1.35,2-3.3,3.36-6.52,3.36-4.41,0-7.66-3.46-7.66-7.61Z"/>
      <path class="cls-1" d="M310.62,13.64v-.05c0-4.28,3.06-7.66,7.39-7.66,5.06,0,7.39,3.71,7.39,8.01,0,.33,0,.7-.03,1.06h-9.8c.41,1.6,1.57,2.41,3.17,2.41,1.22,0,2.19-.46,3.25-1.49l2.84,2.35c-1.41,1.79-3.44,2.98-6.36,2.98-4.6,0-7.85-3.06-7.85-7.61Zm9.96-1.27c-.19-1.62-1.14-2.65-2.54-2.65s-2.27,1.06-2.54,2.65h5.09Z"/>
      <path class="cls-1" d="M0,49.19v-.05c0-3.03,2.3-4.6,5.74-4.6,1.35,0,2.68,.27,3.52,.57v-.24c0-1.52-.95-2.38-2.92-2.38-1.54,0-2.73,.3-4.03,.81l-1.06-3.63c1.65-.68,3.41-1.14,5.93-1.14s4.41,.62,5.58,1.79c1.11,1.08,1.57,2.6,1.57,4.66v8.42h-5.09v-1.52c-1,1.11-2.38,1.84-4.3,1.84-2.79,0-4.93-1.6-4.93-4.52Zm9.31-1.11v-.68c-.51-.22-1.25-.38-2-.38-1.49,0-2.35,.73-2.35,1.81v.05c0,1,.76,1.6,1.81,1.6,1.49,0,2.54-.95,2.54-2.41Z"/>
      <path class="cls-1" d="M24.45,38.74h5.14v2.06c.95-1.22,2.3-2.38,4.39-2.38,3.11,0,4.98,2.06,4.98,5.39v9.58h-5.14v-7.93c0-1.6-.84-2.46-2.06-2.46s-2.17,.87-2.17,2.46v7.93h-5.14v-14.64Z"/>
      <path class="cls-1" d="M41.02,46.13v-.05c0-4.28,3.06-7.66,7.39-7.66,5.06,0,7.39,3.71,7.39,8.01,0,.33,0,.7-.03,1.06h-9.8c.41,1.6,1.57,2.41,3.17,2.41,1.22,0,2.19-.46,3.25-1.49l2.84,2.35c-1.41,1.79-3.44,2.98-6.36,2.98-4.6,0-7.85-3.06-7.85-7.61Zm9.96-1.27c-.19-1.62-1.14-2.65-2.54-2.65s-2.27,1.06-2.54,2.65h5.09Z"/>
      <path class="cls-1" d="M55.91,57.61v-3.41c.22,.03,.46,.03,.68,.03,1,0,1.52-.43,1.52-1.71v-13.78h5.14v14c0,3.71-1.89,5.06-5.22,5.06-.81,0-1.49-.11-2.11-.19Zm2.08-23.98h5.36v3.79h-5.36v-3.79Z"/>
      <path class="cls-1" d="M65.06,38.74h5.41l2.82,8.55,2.81-8.55h5.33l-5.85,14.75h-4.68l-5.85-14.75Z"/>
      <path class="cls-1" d="M98.28,47.35h-10.67c.43,1.49,1.71,2.35,3.6,2.35,1.43,0,2.38-.41,3.38-1.27l2.71,2.82c-1.41,1.57-3.46,2.38-6.25,2.38-5.22,0-8.61-3.22-8.61-7.61s3.44-7.55,8.07-7.55c4.33,0,7.85,2.76,7.85,7.61,0,.38-.05,.87-.08,1.27Zm-10.1-10.39l-3.52-4.12h3.41l2.33,2.06,2.33-2.06h3.41l-3.52,4.12h-4.44Zm-.65,7.69h6.01c-.27-1.54-1.41-2.52-3-2.52s-2.71,.97-3,2.52Z"/>
      <path class="cls-1" d="M101.37,48.84v-5.96h-1.73v-4.14h1.73v-3.71h5.14v3.71h3.41v4.14h-3.41v4.95c0,1.03,.46,1.46,1.41,1.46,.68,0,1.33-.19,1.95-.49v4.03c-.92,.51-2.14,.84-3.57,.84-3.09,0-4.93-1.35-4.93-4.85Z"/>
      <path class="cls-1" d="M111.03,51.55l1.92-3.11c1.68,1.11,3.52,1.68,5.04,1.68,.89,0,1.3-.27,1.3-.79v-.05c0-.57-.81-.81-2.35-1.25-2.9-.76-5.2-1.73-5.2-4.68v-.05c0-3.11,2.49-4.85,5.87-4.85,2.14,0,4.36,.62,6.04,1.71l-1.76,3.25c-1.52-.84-3.17-1.35-4.33-1.35-.78,0-1.19,.3-1.19,.7v.05c0,.57,.84,.84,2.38,1.3,2.9,.81,5.2,1.81,5.2,4.66v.05c0,3.22-2.41,4.9-5.98,4.9-2.46,0-4.9-.7-6.93-2.17Zm1.19-18.51h3.3l2.27,1.65,2.27-1.65h3.25l-3.46,4.47h-4.17l-3.46-4.47Z"/>
      <path class="cls-1" d="M126.17,38.74h5.14v14.64h-5.14v-14.64Zm3.3-6.25l4.79,1.54-3.98,3.46h-3.63l2.82-5.01Z"/>
      <path class="cls-1" d="M140.57,38.74h5.41l2.82,8.55,2.81-8.55h5.33l-5.85,14.75h-4.68l-5.85-14.75Z"/>
      <path class="cls-1" d="M158.22,56.53l1.6-3.6c.81,.49,1.68,.79,2.25,.79,.51,0,.87-.14,1.19-.6l-5.74-14.37h5.39l2.92,8.82,2.76-8.82h5.28l-5.36,14.29c-1.27,3.41-2.65,4.76-5.58,4.76-1.81,0-3.36-.51-4.71-1.27Zm7.93-24.04l4.79,1.54-3.98,3.46h-3.63l2.82-5.01Z"/>
      <path class="cls-1" d="M180.69,51.6v1.79h-5.14v-19.76h5.14v7.07c1-1.22,2.25-2.27,4.44-2.27,3.49,0,6.5,2.9,6.5,7.58v.05c0,4.76-3,7.66-6.47,7.66-2.22,0-3.52-1-4.47-2.11Zm5.87-5.52v-.05c0-1.92-1.33-3.3-3-3.3s-2.98,1.38-2.98,3.3v.05c0,1.95,1.33,3.33,2.98,3.33s3-1.35,3-3.33Z"/>
      <path class="cls-1" d="M209.04,47.35h-10.67c.43,1.49,1.71,2.35,3.6,2.35,1.43,0,2.38-.41,3.38-1.27l2.71,2.82c-1.41,1.57-3.46,2.38-6.25,2.38-5.22,0-8.61-3.22-8.61-7.61s3.44-7.55,8.07-7.55c4.33,0,7.85,2.76,7.85,7.61,0,.38-.05,.87-.08,1.27Zm-10.1-10.39l-3.52-4.12h3.41l2.33,2.06,2.33-2.06h3.41l-3.52,4.12h-4.44Zm-.65,7.69h6.01c-.27-1.54-1.41-2.52-3-2.52s-2.71,.97-3,2.52Z"/>
      <path class="cls-1" d="M211.23,38.74h5.14v2.95c.84-2,2.19-3.3,4.63-3.19v5.41h-.43c-2.68,0-4.2,1.54-4.2,4.93v4.55h-5.14v-14.64Z"/>
      <path class="cls-1" d="M.22,82.49l6.77-7.17H.46v-4.09H13.81v3.38l-6.79,7.17h6.79v4.09H.22v-3.38Z"/>
      <path class="cls-1" d="M21.12,84.09v1.79h-5.14v-19.76h5.14v7.07c1-1.22,2.25-2.27,4.44-2.27,3.49,0,6.5,2.9,6.5,7.58v.05c0,4.76-3,7.66-6.47,7.66-2.22,0-3.52-1-4.47-2.11Zm5.87-5.52v-.05c0-1.92-1.33-3.3-3-3.3s-2.98,1.38-2.98,3.3v.05c0,1.95,1.33,3.33,2.98,3.33s3-1.35,3-3.33Z"/>
      <path class="cls-1" d="M34.28,71.23h5.14v2.95c.84-2,2.19-3.3,4.63-3.19v5.41h-.43c-2.68,0-4.2,1.54-4.2,4.93v4.55h-5.14v-14.64Z"/>
      <path class="cls-1" d="M44.46,81.68v-.05c0-3.03,2.3-4.6,5.74-4.6,1.35,0,2.68,.27,3.52,.57v-.24c0-1.52-.95-2.38-2.92-2.38-1.54,0-2.73,.3-4.03,.81l-1.06-3.63c1.65-.68,3.41-1.14,5.93-1.14s4.41,.62,5.58,1.79c1.11,1.08,1.57,2.6,1.57,4.66v8.42h-5.09v-1.52c-1,1.11-2.38,1.84-4.3,1.84-2.79,0-4.93-1.6-4.93-4.52Zm9.31-1.11v-.68c-.51-.22-1.25-.38-2-.38-1.49,0-2.35,.73-2.35,1.81v.05c0,1,.76,1.6,1.81,1.6,1.49,0,2.54-.95,2.54-2.41Z"/>
      <path class="cls-1" d="M61.41,71.23h5.14v2.06c.95-1.22,2.3-2.38,4.39-2.38,3.11,0,4.98,2.06,4.98,5.39v9.58h-5.14v-7.93c0-1.6-.84-2.46-2.06-2.46s-2.17,.87-2.17,2.46v7.93h-5.14v-14.64Z"/>
      <path class="cls-1" d="M78.68,71.23h5.14v14.64h-5.14v-14.64Zm3.3-6.25l4.79,1.54-3.98,3.46h-3.63l2.82-5.01Z"/>
      <path class="cls-1" d="M93.08,71.23h5.41l2.82,8.55,2.81-8.55h5.33l-5.85,14.75h-4.68l-5.85-14.75Z"/>
      <path class="cls-1" d="M133.31,79.6l3.41,3.09c-1.84,2.3-4.65,3.57-8.15,3.57-6.01,0-10.42-4.09-10.42-9.85s4.41-9.85,10.42-9.85c3.49,0,6.31,1.27,8.15,3.57l-3.41,3.09c-1.19-1.43-2.65-2.22-4.47-2.22-3.11,0-5.28,2.17-5.28,5.41s2.17,5.41,5.28,5.41c1.81,0,3.28-.79,4.47-2.22Zm-7.04-14.24l-3.52-4.11h3.41l2.33,2.06,2.33-2.06h3.41l-3.52,4.11h-4.44Z"/>
      <path class="cls-1" d="M138.89,66.93h8.96c2.9,0,4.9,.76,6.17,2.06,1.11,1.08,1.68,2.54,1.68,4.41v.05c0,2.9-1.54,4.82-3.9,5.82l4.52,6.6h-6.06l-3.82-5.74h-2.3v5.74h-5.25v-18.95Zm8.72,9.09c1.79,0,2.82-.87,2.82-2.25v-.05c0-1.49-1.08-2.25-2.84-2.25h-3.44v4.55h3.46Z"/>
    </g>
  </g>
</svg>