<?xml version="1.0" encoding="UTF-8"?>
<svg id="Layer_2" data-name="Layer 2" xmlns="http://www.w3.org/2000/svg" viewBox="0 0 246.05 76.22">
  <defs>
    <style>
      .cls-1 {
        fill: #fff;
      }
    </style>
  </defs>
  <g id="Layer_1-2" data-name="Layer 1">
    <g>
      <path class="cls-1" d="M0,16.02l2.58-3.08c1.65,1.32,3.49,2.01,5.43,2.01,1.24,0,1.91-.43,1.91-1.15v-.05c0-.69-.55-1.08-2.82-1.6-3.56-.81-6.31-1.82-6.31-5.26v-.05C.79,3.73,3.25,1.48,7.27,1.48c2.85,0,5.07,.77,6.89,2.22l-2.32,3.28c-1.53-1.08-3.2-1.65-4.69-1.65-1.12,0-1.67,.48-1.67,1.08v.05c0,.76,.57,1.1,2.89,1.63,3.85,.84,6.24,2.08,6.24,5.21v.05c0,3.42-2.7,5.45-6.77,5.45-2.96,0-5.79-.93-7.84-2.77Z"/>
      <path class="cls-1" d="M17.15,14.49v-5.26h-1.53v-3.66h1.53V2.3h4.54v3.28h3.01v3.66h-3.01v4.38c0,.91,.41,1.29,1.24,1.29,.6,0,1.17-.17,1.72-.43v3.56c-.81,.46-1.89,.74-3.16,.74-2.73,0-4.35-1.2-4.35-4.28Z"/>
      <path class="cls-1" d="M29.27,3.99L26.17,.36h3.01l2.06,1.82,2.06-1.82h3.01l-3.11,3.63h-3.92Zm6.31,1.34v4.09c-.41-.05-.69-.07-1.03-.07-1.84,0-3.11,.93-3.11,3.2v5.95h-4.54V5.55h4.33v1.55c.93-1.17,2.44-1.77,4.35-1.77Z"/>
      <path class="cls-1" d="M36.74,12.1v-.05c0-3.78,2.7-6.77,6.53-6.77,4.47,0,6.53,3.28,6.53,7.08,0,.29,0,.62-.02,.93h-8.66c.36,1.41,1.39,2.13,2.8,2.13,1.08,0,1.94-.41,2.87-1.32l2.51,2.08c-1.24,1.58-3.04,2.63-5.62,2.63-4.06,0-6.93-2.7-6.93-6.72Zm8.8-1.12c-.17-1.43-1-2.34-2.25-2.34s-2.01,.93-2.25,2.34h4.5Z"/>
      <path class="cls-1" d="M51.83,1.05h4.54V18.51h-4.54V1.05Z"/>
      <path class="cls-1" d="M63.45,16.93v1.58h-4.54V1.05h4.54V7.29c.88-1.08,1.98-2.01,3.92-2.01,3.08,0,5.74,2.56,5.74,6.7v.05c0,4.21-2.65,6.77-5.71,6.77-1.96,0-3.11-.88-3.95-1.87Zm5.19-4.88v-.05c0-1.7-1.17-2.92-2.65-2.92s-2.63,1.22-2.63,2.92v.05c0,1.72,1.17,2.94,2.63,2.94s2.65-1.2,2.65-2.94Z"/>
      <path class="cls-1" d="M74.43,14.8v-.05c0-2.68,2.03-4.06,5.07-4.06,1.2,0,2.37,.24,3.11,.5v-.22c0-1.34-.84-2.1-2.58-2.1-1.36,0-2.42,.26-3.56,.72l-.93-3.2c1.46-.6,3.01-1,5.24-1s3.9,.55,4.93,1.58c.98,.96,1.39,2.3,1.39,4.11v7.44h-4.5v-1.34c-.88,.98-2.1,1.63-3.8,1.63-2.46,0-4.35-1.41-4.35-3.99Zm8.23-.98v-.6c-.45-.19-1.1-.33-1.77-.33-1.31,0-2.08,.65-2.08,1.6v.05c0,.88,.67,1.41,1.6,1.41,1.32,0,2.25-.84,2.25-2.13Z"/>
      <path class="cls-1" d="M96.03,5.57h4.54v1.72c.88-1.08,1.98-2.01,3.92-2.01,3.08,0,5.74,2.56,5.74,6.7v.05c0,4.21-2.65,6.77-5.71,6.77-1.96,0-3.11-.88-3.95-1.87v5.4h-4.54V5.57Zm9.73,6.48v-.05c0-1.7-1.17-2.92-2.65-2.92s-2.63,1.22-2.63,2.92v.05c0,1.72,1.17,2.94,2.63,2.94s2.65-1.2,2.65-2.94Z"/>
      <path class="cls-1" d="M112.19,5.57h4.54v2.61c.74-1.77,1.94-2.92,4.09-2.82v4.78h-.38c-2.37,0-3.71,1.36-3.71,4.35v4.02h-4.54V5.57Z"/>
      <path class="cls-1" d="M121.67,12.1v-.05c0-3.68,3.01-6.77,7.17-6.77s7.13,3.04,7.13,6.72v.05c0,3.68-3.01,6.77-7.17,6.77s-7.12-3.04-7.12-6.72Zm9.88,0v-.05c0-1.58-1.15-2.92-2.75-2.92s-2.7,1.32-2.7,2.87v.05c0,1.58,1.15,2.92,2.75,2.92s2.7-1.31,2.7-2.87Z"/>
      <path class="cls-1" d="M144.51,1.05h4.54V9.9l3.51-4.33h5.14l-4.5,5.19,4.62,7.75h-5l-2.61-4.4-1.17,1.36v3.04h-4.54V1.05Z"/>
      <path class="cls-1" d="M158.04,14.8v-.05c0-2.68,2.03-4.06,5.07-4.06,1.2,0,2.37,.24,3.11,.5v-.22c0-1.34-.84-2.1-2.58-2.1-1.36,0-2.42,.26-3.56,.72l-.93-3.2c1.46-.6,3.01-1,5.24-1s3.9,.55,4.93,1.58c.98,.96,1.39,2.3,1.39,4.11v7.44h-4.5v-1.34c-.88,.98-2.1,1.63-3.8,1.63-2.46,0-4.35-1.41-4.35-3.99Zm8.22-.98v-.6c-.45-.19-1.1-.33-1.77-.33-1.31,0-2.08,.65-2.08,1.6v.05c0,.88,.67,1.41,1.6,1.41,1.31,0,2.25-.84,2.25-2.13Z"/>
      <path class="cls-1" d="M172.56,15.52l5.98-6.34h-5.76v-3.61h11.79v2.99l-6,6.34h6v3.61h-12v-2.99Zm1.12-14.99h2.92l2.01,1.46,2.01-1.46h2.87l-3.06,3.95h-3.68l-3.06-3.95Z"/>
      <path class="cls-1" d="M186,12.1v-.05c0-4.21,2.63-6.77,5.69-6.77,1.96,0,3.11,.88,3.97,1.87V1.05h4.54V18.51h-4.54v-1.72c-.88,1.08-2.01,2.01-3.95,2.01-3.06,0-5.71-2.56-5.71-6.7Zm9.73-.05v-.05c0-1.7-1.17-2.92-2.63-2.92s-2.65,1.2-2.65,2.92v.05c0,1.72,1.2,2.94,2.65,2.94s2.63-1.22,2.63-2.94Z"/>
      <path class="cls-1" d="M202.12,12.1v-.05c0-3.78,2.7-6.77,6.53-6.77,4.47,0,6.53,3.28,6.53,7.08,0,.29,0,.62-.02,.93h-8.66c.36,1.41,1.39,2.13,2.8,2.13,1.08,0,1.94-.41,2.87-1.32l2.51,2.08c-1.24,1.58-3.04,2.63-5.62,2.63-4.07,0-6.93-2.7-6.93-6.72Zm8.8-1.12c-.17-1.43-1-2.34-2.25-2.34s-2.01,.93-2.25,2.34h4.5Zm-1.55-10.97l4.23,1.36-3.52,3.06h-3.2l2.49-4.42Z"/>
      <path class="cls-1" d="M217.12,1.05h4.54V7.34c.84-1.08,2.03-2.06,3.87-2.06,2.75,0,4.4,1.82,4.4,4.76v8.46h-4.54v-7.01c0-1.41-.74-2.18-1.82-2.18s-1.91,.77-1.91,2.18v7.01h-4.54V1.05Z"/>
      <path class="cls-1" d="M231.75,12.1v-.05c0-3.68,3.01-6.77,7.17-6.77s7.13,3.04,7.13,6.72v.05c0,3.68-3.01,6.77-7.17,6.77s-7.12-3.04-7.12-6.72Zm9.88,0v-.05c0-1.58-1.15-2.92-2.75-2.92s-2.7,1.32-2.7,2.87v.05c0,1.58,1.15,2.92,2.75,2.92s2.7-1.31,2.7-2.87Z"/>
      <path class="cls-1" d="M1,34.27H5.55v1.72c.88-1.08,1.98-2.01,3.92-2.01,3.08,0,5.74,2.56,5.74,6.7v.05c0,4.21-2.65,6.77-5.71,6.77-1.96,0-3.11-.88-3.95-1.87v5.4H1v-16.76Zm9.73,6.48v-.05c0-1.7-1.17-2.92-2.65-2.92s-2.63,1.22-2.63,2.92v.05c0,1.72,1.17,2.94,2.63,2.94s2.65-1.2,2.65-2.94Z"/>
      <path class="cls-1" d="M16.65,40.8v-.05c0-3.68,3.01-6.77,7.17-6.77s7.12,3.04,7.12,6.72v.05c0,3.68-3.01,6.77-7.17,6.77s-7.13-3.04-7.13-6.72Zm9.88,0v-.05c0-1.58-1.15-2.92-2.75-2.92s-2.7,1.32-2.7,2.87v.05c0,1.58,1.15,2.92,2.75,2.92s2.7-1.31,2.7-2.87Z"/>
      <path class="cls-1" d="M32.38,40.8v-.05c0-4.21,2.63-6.77,5.69-6.77,1.96,0,3.11,.88,3.97,1.87v-6.1h4.54v17.46h-4.54v-1.72c-.88,1.08-2.01,2.01-3.94,2.01-3.06,0-5.71-2.56-5.71-6.7Zm9.73-.05v-.05c0-1.7-1.17-2.92-2.63-2.92s-2.65,1.2-2.65,2.92v.05c0,1.72,1.2,2.94,2.65,2.94s2.63-1.22,2.63-2.94Z"/>
      <path class="cls-1" d="M55.65,34.27h4.54v1.72c.88-1.08,1.98-2.01,3.92-2.01,3.08,0,5.74,2.56,5.74,6.7v.05c0,4.21-2.65,6.77-5.71,6.77-1.96,0-3.11-.88-3.95-1.87v5.4h-4.54v-16.76Zm9.73,6.48v-.05c0-1.7-1.17-2.92-2.65-2.92s-2.63,1.22-2.63,2.92v.05c0,1.72,1.17,2.94,2.63,2.94s2.65-1.2,2.65-2.94Z"/>
      <path class="cls-1" d="M71.82,34.27h4.54v2.61c.74-1.77,1.94-2.92,4.09-2.82v4.78h-.38c-2.37,0-3.71,1.36-3.71,4.35v4.02h-4.54v-12.94Z"/>
      <path class="cls-1" d="M81.29,40.8v-.05c0-3.68,3.01-6.77,7.17-6.77s7.12,3.04,7.12,6.72v.05c0,3.68-3.01,6.77-7.17,6.77s-7.13-3.04-7.13-6.72Zm9.88,0v-.05c0-1.58-1.15-2.92-2.75-2.92s-2.7,1.32-2.7,2.87v.05c0,1.58,1.15,2.92,2.75,2.92s2.7-1.31,2.7-2.87Z"/>
      <path class="cls-1" d="M98.2,37.91h-1.51v-3.56h1.51v-.29c0-1.48,.33-2.58,1.1-3.35,.79-.79,1.84-1.12,3.37-1.12,1.39,0,2.25,.14,2.97,.36v3.2c-.53-.17-1.05-.26-1.7-.26-.84,0-1.29,.38-1.29,1.22v.31h2.96v3.49h-2.89v9.3h-4.52v-9.3Z"/>
      <path class="cls-1" d="M106.29,40.8v-.05c0-3.78,2.7-6.77,6.53-6.77,4.47,0,6.53,3.28,6.53,7.08,0,.29,0,.62-.02,.93h-8.66c.36,1.41,1.39,2.13,2.8,2.13,1.08,0,1.94-.41,2.87-1.32l2.51,2.08c-1.24,1.58-3.04,2.63-5.62,2.63-4.06,0-6.93-2.7-6.93-6.72Zm8.8-1.12c-.17-1.43-1-2.34-2.25-2.34s-2.01,.93-2.25,2.34h4.5Z"/>
      <path class="cls-1" d="M120.3,45.58l1.7-2.75c1.48,.98,3.11,1.48,4.45,1.48,.79,0,1.15-.24,1.15-.69v-.05c0-.5-.72-.72-2.08-1.1-2.56-.67-4.59-1.53-4.59-4.14v-.05c0-2.75,2.2-4.28,5.19-4.28,1.89,0,3.85,.55,5.33,1.51l-1.55,2.87c-1.34-.74-2.8-1.2-3.83-1.2-.69,0-1.05,.26-1.05,.62v.05c0,.5,.74,.74,2.1,1.15,2.56,.72,4.59,1.6,4.59,4.11v.05c0,2.85-2.13,4.33-5.28,4.33-2.18,0-4.33-.62-6.12-1.91Z"/>
      <path class="cls-1" d="M133.58,29.75h4.73v3.35h-4.73v-3.35Zm.1,4.52h4.54v12.94h-4.54v-12.94Z"/>
      <path class="cls-1" d="M140.23,40.8v-.05c0-3.68,3.01-6.77,7.17-6.77s7.13,3.04,7.13,6.72v.05c0,3.68-3.01,6.77-7.17,6.77s-7.12-3.04-7.12-6.72Zm9.88,0v-.05c0-1.58-1.15-2.92-2.75-2.92s-2.7,1.32-2.7,2.87v.05c0,1.58,1.15,2.92,2.75,2.92s2.7-1.31,2.7-2.87Z"/>
      <path class="cls-1" d="M156.44,34.27h4.54v1.82c.84-1.08,2.03-2.1,3.87-2.1,2.75,0,4.4,1.82,4.4,4.76v8.46h-4.54v-7.01c0-1.41-.74-2.18-1.82-2.18s-1.91,.76-1.91,2.18v7.01h-4.54v-12.94Z"/>
      <path class="cls-1" d="M170.96,43.5v-.05c0-2.68,2.03-4.06,5.07-4.06,1.2,0,2.37,.24,3.11,.5v-.22c0-1.34-.84-2.1-2.58-2.1-1.36,0-2.42,.26-3.56,.72l-.93-3.2c1.46-.6,3.01-1,5.24-1s3.9,.55,4.93,1.58c.98,.96,1.39,2.3,1.39,4.11v7.44h-4.5v-1.34c-.88,.98-2.1,1.63-3.8,1.63-2.46,0-4.35-1.41-4.35-3.99Zm8.22-.98v-.6c-.45-.19-1.1-.33-1.77-.33-1.31,0-2.08,.65-2.08,1.6v.05c0,.88,.67,1.41,1.6,1.41,1.31,0,2.25-.84,2.25-2.13Zm-1.15-13.82l4.23,1.36-3.51,3.06h-3.2l2.49-4.42Z"/>
      <path class="cls-1" d="M186.03,29.75h4.54v17.46h-4.54V29.75Z"/>
      <path class="cls-1" d="M193.1,34.27h4.54v1.82c.84-1.08,2.03-2.1,3.87-2.1,2.75,0,4.4,1.82,4.4,4.76v8.46h-4.54v-7.01c0-1.41-.74-2.18-1.82-2.18s-1.91,.76-1.91,2.18v7.01h-4.54v-12.94Z"/>
      <path class="cls-1" d="M208.36,34.27h4.54v12.94h-4.54v-12.94Zm2.92-5.52l4.23,1.36-3.51,3.06h-3.2l2.49-4.42Z"/>
      <path class="cls-1" d="M215.44,34.27h4.54v1.77c.84-1.08,2.03-2.06,3.85-2.06,1.72,0,3.04,.77,3.73,2.1,1.12-1.29,2.44-2.1,4.33-2.1,2.75,0,4.42,1.72,4.42,4.73v8.49h-4.54v-7.03c0-1.41-.69-2.15-1.77-2.15s-1.87,.74-1.87,2.15v7.03h-4.54v-7.03c0-1.41-.69-2.15-1.77-2.15s-1.84,.74-1.84,2.15v7.03h-4.54v-12.94Z"/>
      <path class="cls-1" d="M.53,69.5v-.05c0-4.21,2.63-6.77,5.69-6.77,1.96,0,3.11,.88,3.97,1.87v-6.1h4.54v17.46h-4.54v-1.72c-.88,1.08-2.01,2.01-3.94,2.01-3.06,0-5.71-2.56-5.71-6.7Zm9.73-.05v-.05c0-1.7-1.17-2.92-2.63-2.92s-2.65,1.2-2.65,2.92v.05c0,1.72,1.2,2.94,2.65,2.94s2.63-1.22,2.63-2.94Z"/>
      <path class="cls-1" d="M16.65,69.5v-.05c0-3.68,3.01-6.77,7.17-6.77s7.12,3.04,7.12,6.72v.05c0,3.68-3.01,6.77-7.17,6.77s-7.13-3.04-7.13-6.72Zm9.88,0v-.05c0-1.58-1.15-2.92-2.75-2.92s-2.7,1.32-2.7,2.87v.05c0,1.58,1.15,2.92,2.75,2.92s2.7-1.31,2.7-2.87Z"/>
      <path class="cls-1" d="M32.86,58.45h4.54v6.29c.84-1.08,2.03-2.06,3.87-2.06,2.75,0,4.4,1.82,4.4,4.76v8.46h-4.54v-7.01c0-1.41-.74-2.18-1.82-2.18s-1.91,.77-1.91,2.18v7.01h-4.54v-17.46Z"/>
      <path class="cls-1" d="M48.12,58.45h4.54v17.46h-4.54v-17.46Z"/>
      <path class="cls-1" d="M54.67,69.5v-.05c0-3.78,2.7-6.77,6.53-6.77,4.47,0,6.53,3.28,6.53,7.08,0,.29,0,.62-.02,.93h-8.66c.36,1.41,1.39,2.13,2.8,2.13,1.08,0,1.94-.41,2.87-1.32l2.51,2.08c-1.24,1.58-3.04,2.63-5.62,2.63-4.06,0-6.93-2.7-6.93-6.72Zm8.8-1.12c-.17-1.43-1-2.34-2.25-2.34s-2.01,.93-2.25,2.34h4.5Z"/>
      <path class="cls-1" d="M69.19,69.5v-.05c0-4.21,2.63-6.77,5.69-6.77,1.96,0,3.11,.88,3.97,1.87v-6.1h4.54v17.46h-4.54v-1.72c-.88,1.08-2.01,2.01-3.94,2.01-3.06,0-5.71-2.56-5.71-6.7Zm9.73-.05v-.05c0-1.7-1.17-2.92-2.63-2.92s-2.65,1.2-2.65,2.92v.05c0,1.72,1.2,2.94,2.65,2.94s2.63-1.22,2.63-2.94Z"/>
      <path class="cls-1" d="M85.31,69.5v-.05c0-3.78,2.7-6.77,6.53-6.77,4.47,0,6.53,3.28,6.53,7.08,0,.29,0,.62-.02,.93h-8.66c.36,1.41,1.39,2.13,2.8,2.13,1.08,0,1.94-.41,2.87-1.32l2.51,2.08c-1.24,1.58-3.04,2.63-5.62,2.63-4.06,0-6.93-2.7-6.93-6.72Zm8.8-1.12c-.17-1.43-1-2.34-2.25-2.34s-2.01,.93-2.25,2.34h4.5Z"/>
      <path class="cls-1" d="M100.31,62.97h4.54v1.77c.84-1.08,2.03-2.06,3.85-2.06,1.72,0,3.04,.77,3.73,2.1,1.12-1.29,2.44-2.1,4.33-2.1,2.75,0,4.42,1.72,4.42,4.73v8.49h-4.54v-7.03c0-1.41-.69-2.15-1.77-2.15s-1.86,.74-1.86,2.15v7.03h-4.54v-7.03c0-1.41-.69-2.15-1.77-2.15s-1.84,.74-1.84,2.15v7.03h-4.54v-12.94Z"/>
    </g>
  </g>
</svg>