<?xml version="1.0" encoding="UTF-8"?>
<svg id="Layer_2" data-name="Layer 2" xmlns="http://www.w3.org/2000/svg" viewBox="0 0 338.81 28.41">
  <defs>
    <style>
      .cls-1 {
        fill: #fff;
      }
    </style>
  </defs>
  <g id="Layer_1-2" data-name="Layer 1">
    <g>
      <path class="cls-1" d="M0,3.81H5.56V23.77H0V3.81Z"/>
      <path class="cls-1" d="M22.2,21.89v1.88h-5.42V2.96h5.42v7.44c1.05-1.28,2.37-2.39,4.67-2.39,3.68,0,6.84,3.05,6.84,7.98v.06c0,5.02-3.16,8.07-6.81,8.07-2.34,0-3.71-1.05-4.7-2.22Zm6.19-5.81v-.06c0-2.02-1.4-3.48-3.16-3.48s-3.14,1.45-3.14,3.48v.06c0,2.05,1.4,3.51,3.14,3.51s3.16-1.43,3.16-3.51Z"/>
      <path class="cls-1" d="M35.42,16.13v-.06c0-4.5,3.22-8.07,7.78-8.07,5.33,0,7.78,3.9,7.78,8.44,0,.34,0,.74-.03,1.11h-10.32c.43,1.68,1.65,2.54,3.33,2.54,1.28,0,2.31-.48,3.42-1.57l2.99,2.48c-1.48,1.88-3.62,3.14-6.7,3.14-4.85,0-8.27-3.22-8.27-8.01Zm10.49-1.34c-.2-1.71-1.2-2.79-2.68-2.79s-2.39,1.11-2.68,2.79h5.36Z"/>
      <path class="cls-1" d="M52.32,20.2l7.13-7.55h-6.87v-4.3h14.05v3.56l-7.15,7.55h7.15v4.3h-14.31v-3.56Z"/>
      <path class="cls-1" d="M76.26,20.2l7.13-7.55h-6.87v-4.3h14.05v3.56l-7.15,7.55h7.15v4.3h-14.31v-3.56Z"/>
      <path class="cls-1" d="M98.26,21.89v1.88h-5.42V2.96h5.42v7.44c1.05-1.28,2.37-2.39,4.67-2.39,3.68,0,6.84,3.05,6.84,7.98v.06c0,5.02-3.16,8.07-6.81,8.07-2.34,0-3.71-1.05-4.7-2.22Zm6.19-5.81v-.06c0-2.02-1.4-3.48-3.16-3.48s-3.14,1.45-3.14,3.48v.06c0,2.05,1.4,3.51,3.14,3.51s3.16-1.43,3.16-3.51Z"/>
      <path class="cls-1" d="M112.11,8.35h5.42v3.11c.88-2.11,2.31-3.48,4.87-3.36v5.7h-.46c-2.82,0-4.42,1.62-4.42,5.19v4.79h-5.42V8.35Z"/>
      <path class="cls-1" d="M123.39,16.13v-.06c0-4.39,3.59-8.07,8.55-8.07s8.49,3.62,8.49,8.01v.06c0,4.39-3.59,8.07-8.55,8.07s-8.49-3.62-8.49-8.01Zm11.77,0v-.06c0-1.88-1.37-3.48-3.28-3.48s-3.22,1.57-3.22,3.42v.06c0,1.88,1.37,3.48,3.28,3.48s3.22-1.57,3.22-3.42Z"/>
      <path class="cls-1" d="M140.52,28.21v-3.59c.23,.03,.48,.03,.71,.03,1.05,0,1.6-.46,1.6-1.8V8.35h5.42v14.74c0,3.9-2,5.33-5.5,5.33-.86,0-1.57-.11-2.22-.2Zm2.2-25.25h5.64v3.99h-5.64V2.96Z"/>
      <path class="cls-1" d="M151.32,8.35h5.42v2.17c1-1.28,2.42-2.51,4.62-2.51,3.28,0,5.24,2.17,5.24,5.67v10.09h-5.42V15.42c0-1.68-.88-2.59-2.17-2.59s-2.28,.91-2.28,2.59v8.35h-5.42V8.35Z"/>
      <path class="cls-1" d="M169.5,8.35h5.42v15.42h-5.42V8.35Zm3.48-6.58l5.04,1.62-4.19,3.65h-3.82l2.96-5.27Z"/>
      <path class="cls-1" d="M177.94,2.96h5.42v7.5c1-1.28,2.42-2.45,4.62-2.45,3.28,0,5.24,2.17,5.24,5.67v10.09h-5.42V15.42c0-1.68-.88-2.59-2.17-2.59s-2.28,.91-2.28,2.59v8.35h-5.42V2.96Z"/>
      <path class="cls-1" d="M195.38,16.13v-.06c0-4.39,3.59-8.07,8.55-8.07s8.49,3.62,8.49,8.01v.06c0,4.39-3.59,8.07-8.55,8.07s-8.49-3.62-8.49-8.01Zm11.77,0v-.06c0-1.88-1.37-3.48-3.28-3.48s-3.22,1.57-3.22,3.42v.06c0,1.88,1.37,3.48,3.28,3.48s3.22-1.57,3.22-3.42Z"/>
      <path class="cls-1" d="M222.6,8.35h5.42v2.05c1.05-1.28,2.37-2.39,4.67-2.39,3.68,0,6.84,3.05,6.84,7.98v.06c0,5.02-3.16,8.07-6.81,8.07-2.34,0-3.71-1.05-4.7-2.22v6.44h-5.42V8.35Zm11.6,7.72v-.06c0-2.02-1.4-3.48-3.16-3.48s-3.14,1.45-3.14,3.48v.06c0,2.05,1.4,3.51,3.14,3.51s3.16-1.43,3.16-3.51Z"/>
      <path class="cls-1" d="M241.86,8.35h5.42v3.11c.88-2.11,2.31-3.48,4.87-3.36v5.7h-.46c-2.82,0-4.42,1.62-4.42,5.19v4.79h-5.42V8.35Z"/>
      <path class="cls-1" d="M270.1,8.44v15.33h-4.22v-1.82c-.59,.67-1.29,1.17-2.11,1.52-.82,.35-1.7,.53-2.65,.53-2.01,0-3.61-.58-4.79-1.74-1.18-1.16-1.77-2.88-1.77-5.16V8.44h4.45v8.01c0,2.47,1.04,3.7,3.11,3.7,1.06,0,1.92-.35,2.56-1.04,.65-.69,.97-1.72,.97-3.09v-7.58h4.45Zm-10.3-2.54c-.67-.66-1.01-1.48-1.01-2.45s.34-1.79,1.01-2.45c.67-.67,1.51-1,2.49-1s1.85,.33,2.54,1,1.03,1.48,1.03,2.45-.34,1.79-1.03,2.45c-.68,.67-1.53,1-2.54,1s-1.82-.33-2.49-1Zm3.73-1.21c.33-.33,.5-.75,.5-1.24s-.17-.91-.5-1.24c-.33-.33-.75-.5-1.24-.5s-.88,.17-1.21,.5c-.33,.33-.5,.75-.5,1.24s.16,.91,.48,1.24,.73,.5,1.23,.5,.91-.17,1.24-.5Z"/>
      <path class="cls-1" d="M273.64,2.96h5.42V13.51l4.19-5.16h6.13l-5.36,6.19,5.5,9.24h-5.96l-3.11-5.24-1.4,1.62v3.62h-5.42V2.96Z"/>
      <path class="cls-1" d="M289.77,19.35v-.06c0-3.19,2.42-4.85,6.04-4.85,1.43,0,2.82,.29,3.71,.6v-.26c0-1.6-1-2.51-3.08-2.51-1.62,0-2.88,.31-4.25,.85l-1.11-3.82c1.74-.71,3.59-1.2,6.24-1.2s4.65,.66,5.87,1.88c1.17,1.14,1.65,2.74,1.65,4.9v8.86h-5.36v-1.6c-1.05,1.17-2.51,1.94-4.53,1.94-2.94,0-5.19-1.68-5.19-4.76Zm9.8-1.17v-.71c-.54-.23-1.31-.4-2.11-.4-1.57,0-2.48,.77-2.48,1.91v.06c0,1.05,.8,1.68,1.91,1.68,1.57,0,2.68-1,2.68-2.54Z"/>
      <path class="cls-1" d="M307.06,20.2l7.13-7.55h-6.87v-4.3h14.05v3.56l-7.15,7.55h7.15v4.3h-14.31v-3.56Z"/>
      <path class="cls-1" d="M323.54,18.44V8.35h5.42v8.35c0,1.68,.88,2.59,2.2,2.59s2.25-.91,2.25-2.59V8.35h5.42v15.42h-5.42v-2.11c-1,1.28-2.42,2.45-4.62,2.45-3.28,0-5.24-2.17-5.24-5.67Z"/>
    </g>
  </g>
</svg>