<?xml version="1.0" encoding="UTF-8"?><svg id="Layer_2" xmlns="http://www.w3.org/2000/svg" viewBox="0 0 325 307.38"><defs><style>.cls-1{fill:#fff;}.cls-2{fill:#40434e;}</style></defs><g id="Layer_1-2"><path class="cls-1" d="M7.78,51.32c-4.3,0-7.78,3.48-7.78,7.78v240.5c0,4.3,3.48,7.78,7.78,7.78H317.22c4.3,0,7.78-3.48,7.78-7.78V59.1c0-4.3-3.48-7.78-7.78-7.78h-108.61c-2.51,0-4.87-1.21-6.33-3.26L170.31,3.26c-3.1-4.35-9.56-4.35-12.67,0l-31.96,44.8c-1.46,2.05-3.82,3.26-6.33,3.26H7.78Z"/><path class="cls-2" d="M252.14,139.45c-.21,0-.38-.07-.53-.21-.14-.15-.21-.32-.21-.52s.07-.37,.21-.5c.15-.14,.33-.21,.53-.21s.39,.07,.52,.21c.14,.13,.21,.3,.21,.5s-.07,.37-.21,.52c-.13,.14-.3,.21-.52,.21Zm-.39-3.01l-.2-6.86h1.18l-.21,6.86h-.77Zm-3.76,2.94v-2.21l.1-1.48-.14-1.48v-5.21h.99v10.39h-.95Zm-2.77-.81c.52,0,.99-.12,1.4-.35,.42-.24,.75-.58,.98-1.01,.24-.44,.36-.94,.36-1.51s-.12-1.08-.36-1.51c-.23-.43-.56-.76-.98-.99-.41-.24-.88-.36-1.4-.36s-.98,.12-1.39,.36c-.41,.23-.74,.56-.98,.99-.24,.43-.36,.93-.36,1.51s.12,1.07,.36,1.51c.24,.43,.57,.77,.98,1.01,.41,.23,.87,.35,1.39,.35Zm-.07,.88c-.7,0-1.33-.16-1.89-.48-.55-.32-.98-.76-1.3-1.32-.32-.57-.48-1.22-.48-1.96s.16-1.4,.48-1.96c.32-.56,.75-.99,1.3-1.3,.56-.32,1.19-.48,1.89-.48,.64,0,1.22,.14,1.72,.43,.51,.29,.92,.71,1.22,1.27,.31,.55,.46,1.23,.46,2.03s-.15,1.47-.45,2.03c-.3,.56-.7,.99-1.22,1.29-.5,.29-1.08,.43-1.74,.43Zm-8.37-.07v-7.35h.95v2l-.1-.35c.21-.56,.55-.98,1.04-1.27,.49-.3,1.09-.45,1.81-.45v.97h-.11s-.07-.01-.11-.01c-.77,0-1.38,.24-1.82,.71-.44,.47-.66,1.13-.66,2v3.75h-.99Zm-5.33,.07c-.77,0-1.44-.16-2.02-.48-.58-.33-1.03-.77-1.36-1.33-.33-.57-.49-1.22-.49-1.95s.15-1.37,.46-1.93c.32-.56,.75-1,1.29-1.32,.55-.33,1.17-.49,1.85-.49s1.3,.16,1.83,.48c.54,.31,.97,.75,1.27,1.32,.31,.56,.46,1.21,.46,1.95,0,.05,0,.1-.01,.15v.15h-6.4v-.74h5.87l-.39,.29c0-.53-.12-1-.35-1.41-.22-.42-.53-.75-.92-.98-.39-.23-.84-.35-1.36-.35s-.96,.12-1.36,.35c-.4,.23-.71,.56-.94,.98-.22,.42-.34,.9-.34,1.44v.15c0,.56,.12,1.05,.36,1.48,.25,.42,.6,.75,1.04,.99,.45,.23,.96,.35,1.53,.35,.45,0,.86-.08,1.25-.24,.39-.16,.73-.4,1.01-.73l.56,.64c-.33,.39-.74,.69-1.23,.9-.49,.21-1.02,.31-1.61,.31Zm-8.61-.07l-3.26-7.35h1.04l3,6.82h-.49l3.04-6.82h.98l-3.28,7.35h-1.02Zm-7.08,.07c-.77,0-1.44-.16-2.02-.48-.58-.33-1.03-.77-1.36-1.33-.33-.57-.49-1.22-.49-1.95s.15-1.37,.46-1.93c.32-.56,.75-1,1.29-1.32,.55-.33,1.17-.49,1.85-.49s1.3,.16,1.83,.48c.54,.31,.97,.75,1.27,1.32,.31,.56,.46,1.21,.46,1.95,0,.05,0,.1-.01,.15v.15h-6.4v-.74h5.87l-.39,.29c0-.53-.12-1-.35-1.41-.22-.42-.53-.75-.92-.98-.39-.23-.84-.35-1.36-.35s-.96,.12-1.36,.35c-.4,.23-.71,.56-.94,.98-.22,.42-.34,.9-.34,1.44v.15c0,.56,.12,1.05,.36,1.48,.25,.42,.6,.75,1.04,.99,.45,.23,.96,.35,1.53,.35,.45,0,.86-.08,1.25-.24,.39-.16,.73-.4,1.01-.73l.56,.64c-.33,.39-.74,.69-1.23,.9-.49,.21-1.02,.31-1.61,.31Zm-6.88-.07v-10.39h.99v10.39h-.99Zm-5.33,.07c-.77,0-1.44-.16-2.02-.48-.58-.33-1.03-.77-1.36-1.33-.33-.57-.49-1.22-.49-1.95s.15-1.37,.46-1.93c.32-.56,.75-1,1.29-1.32,.55-.33,1.17-.49,1.85-.49s1.3,.16,1.83,.48c.54,.31,.97,.75,1.27,1.32,.31,.56,.46,1.21,.46,1.95,0,.05,0,.1-.01,.15v.15h-6.4v-.74h5.87l-.39,.29c0-.53-.12-1-.35-1.41-.22-.42-.53-.75-.92-.98-.39-.23-.84-.35-1.36-.35s-.96,.12-1.36,.35c-.4,.23-.71,.56-.94,.98-.22,.42-.34,.9-.34,1.44v.15c0,.56,.12,1.05,.36,1.48,.25,.42,.6,.75,1.04,.99,.45,.23,.96,.35,1.53,.35,.45,0,.86-.08,1.25-.24,.39-.16,.73-.4,1.01-.73l.56,.64c-.33,.39-.74,.69-1.23,.9-.49,.21-1.02,.31-1.61,.31Zm-9.65-1.23c.54,0,1.02-.11,1.44-.34,.42-.23,.75-.55,.99-.95,.24-.41,.36-.88,.36-1.41s-.12-1-.36-1.4c-.24-.4-.57-.71-.99-.94-.42-.23-.9-.35-1.44-.35s-1.01,.12-1.44,.35c-.42,.22-.75,.54-.99,.94-.23,.4-.35,.87-.35,1.4s.12,1,.35,1.41c.24,.4,.57,.72,.99,.95,.43,.22,.91,.34,1.44,.34Zm-.1,.88c-.7,0-1.33-.15-1.89-.45-.56-.31-1-.73-1.33-1.27-.32-.54-.48-1.16-.48-1.86s.16-1.32,.48-1.85c.33-.54,.77-.96,1.33-1.26,.56-.3,1.19-.45,1.89-.45,.65,0,1.24,.14,1.76,.41s.94,.67,1.25,1.2c.31,.53,.46,1.18,.46,1.95s-.15,1.41-.46,1.95c-.31,.53-.72,.94-1.25,1.22-.52,.28-1.11,.42-1.76,.42Zm.18,3.07c-.67,0-1.32-.1-1.93-.29-.62-.2-1.12-.48-1.5-.84l.5-.76c.35,.31,.77,.55,1.27,.73,.51,.19,1.05,.28,1.62,.28,.93,0,1.62-.22,2.06-.66,.44-.43,.66-1.1,.66-2.02v-1.83l.14-1.26-.1-1.26v-2.23h.95v6.45c0,1.27-.31,2.2-.94,2.79-.62,.6-1.53,.9-2.74,.9Zm-11.66-2.72c-.61,0-1.18-.08-1.72-.25-.54-.18-.97-.4-1.27-.66l.45-.78c.3,.22,.68,.42,1.15,.59,.47,.16,.96,.24,1.47,.24,.7,0,1.2-.11,1.51-.32,.31-.22,.46-.52,.46-.88,0-.27-.09-.48-.27-.63-.17-.16-.39-.28-.67-.35-.28-.08-.59-.15-.94-.21-.35-.06-.69-.12-1.04-.2-.34-.07-.64-.18-.92-.32-.28-.15-.51-.35-.69-.6-.17-.25-.25-.59-.25-1.01s.11-.76,.34-1.08c.22-.32,.55-.56,.98-.74,.44-.19,.97-.28,1.6-.28,.48,0,.95,.07,1.43,.2,.48,.12,.87,.28,1.18,.49l-.43,.8c-.33-.22-.68-.38-1.05-.48-.37-.1-.75-.15-1.12-.15-.66,0-1.15,.12-1.47,.35-.31,.22-.46,.51-.46,.87,0,.28,.08,.5,.25,.66,.18,.16,.41,.28,.69,.38,.29,.08,.6,.15,.94,.21,.35,.06,.69,.13,1.02,.21,.35,.07,.66,.18,.94,.32,.29,.13,.52,.32,.69,.57,.18,.24,.27,.56,.27,.97,0,.43-.12,.8-.36,1.12-.23,.31-.58,.55-1.04,.73-.45,.17-.99,.25-1.64,.25Zm-7.3,0c-.77,0-1.44-.16-2.02-.48-.58-.33-1.03-.77-1.36-1.33-.33-.57-.49-1.22-.49-1.95s.15-1.37,.46-1.93c.32-.56,.75-1,1.29-1.32,.55-.33,1.17-.49,1.85-.49s1.3,.16,1.83,.48c.54,.31,.97,.75,1.27,1.32,.31,.56,.46,1.21,.46,1.95,0,.05,0,.1-.01,.15v.15h-6.4v-.74h5.87l-.39,.29c0-.53-.12-1-.35-1.41-.22-.42-.53-.75-.92-.98-.39-.23-.84-.35-1.36-.35s-.96,.12-1.36,.35c-.4,.23-.71,.56-.94,.98-.22,.42-.34,.9-.34,1.44v.15c0,.56,.12,1.05,.36,1.48,.25,.42,.6,.75,1.04,.99,.45,.23,.96,.35,1.53,.35,.45,0,.86-.08,1.25-.24,.39-.16,.73-.4,1.01-.73l.56,.64c-.33,.39-.74,.69-1.23,.9-.49,.21-1.02,.31-1.61,.31Zm-6.39-9.04c-.21,0-.38-.07-.52-.21s-.21-.31-.21-.5,.07-.36,.21-.49c.14-.14,.31-.21,.52-.21s.38,.07,.52,.2c.14,.13,.21,.29,.21,.49s-.07,.38-.21,.52c-.13,.14-.3,.21-.52,.21Zm-1.67,11.76c-.3,0-.58-.04-.85-.13-.28-.07-.51-.19-.7-.35l.35-.76c.3,.25,.68,.38,1.15,.38,.39,0,.69-.12,.9-.35,.21-.23,.32-.58,.32-1.04v-7.9h.99v7.9c0,.68-.19,1.22-.56,1.62-.36,.41-.9,.62-1.6,.62Zm-5.74-9.31v-.83h4.55v.83h-4.55Zm3.47,6.59c-.69,0-1.22-.19-1.6-.56-.37-.37-.56-.9-.56-1.58v-6.9h.99v6.85c0,.43,.11,.76,.32,.99,.22,.23,.54,.35,.95,.35,.44,0,.8-.13,1.09-.38l.35,.71c-.2,.18-.43,.31-.71,.39-.27,.08-.55,.13-.84,.13Zm-7.65,0c-.77,0-1.44-.16-2.02-.48-.58-.33-1.03-.77-1.36-1.33-.33-.57-.49-1.22-.49-1.95s.15-1.37,.46-1.93c.32-.56,.75-1,1.29-1.32,.55-.33,1.17-.49,1.85-.49s1.3,.16,1.83,.48c.54,.31,.97,.75,1.27,1.32,.31,.56,.46,1.21,.46,1.95,0,.05,0,.1-.01,.15v.15h-6.4v-.74h5.87l-.39,.29c0-.53-.12-1-.35-1.41-.22-.42-.53-.75-.92-.98-.39-.23-.84-.35-1.36-.35s-.96,.12-1.36,.35c-.4,.23-.71,.56-.94,.98-.22,.42-.34,.9-.34,1.44v.15c0,.56,.12,1.05,.36,1.48,.25,.42,.6,.75,1.04,.99,.45,.23,.96,.35,1.53,.35,.45,0,.86-.08,1.25-.24,.39-.16,.73-.4,1.01-.73l.56,.64c-.33,.39-.74,.69-1.23,.9-.49,.21-1.02,.31-1.61,.31Zm-8.83-7.49c.6,0,1.12,.12,1.57,.35,.46,.22,.81,.57,1.06,1.04,.26,.47,.39,1.05,.39,1.76v4.27h-.99v-4.17c0-.77-.2-1.36-.59-1.75-.38-.4-.92-.6-1.62-.6-.52,0-.98,.11-1.37,.32-.38,.21-.68,.51-.9,.91-.21,.39-.31,.87-.31,1.43v3.86h-.99v-7.35h.95v2.02l-.15-.38c.23-.53,.61-.95,1.12-1.25,.51-.31,1.12-.46,1.83-.46Zm-11.14,7.42v-2.21l.1-1.48-.14-1.48v-5.21h.99v10.39h-.95Zm-2.77-.81c.52,0,.99-.12,1.4-.35,.42-.24,.75-.58,.98-1.01,.24-.44,.36-.94,.36-1.51s-.12-1.08-.36-1.51c-.23-.43-.56-.76-.98-.99-.41-.24-.88-.36-1.4-.36s-.98,.12-1.39,.36c-.41,.23-.74,.56-.98,.99-.24,.43-.36,.93-.36,1.51s.12,1.07,.36,1.51c.24,.43,.57,.77,.98,1.01,.41,.23,.87,.35,1.39,.35Zm-.07,.88c-.7,0-1.33-.16-1.89-.48-.55-.32-.98-.76-1.3-1.32-.32-.57-.48-1.22-.48-1.96s.16-1.4,.48-1.96c.32-.56,.75-.99,1.3-1.3,.56-.32,1.19-.48,1.89-.48,.64,0,1.22,.14,1.72,.43,.51,.29,.92,.71,1.22,1.27,.31,.55,.46,1.23,.46,2.03s-.15,1.47-.45,2.03c-.3,.56-.7,.99-1.22,1.29-.5,.29-1.08,.43-1.74,.43Zm-6.19-9.04c-.21,0-.38-.07-.52-.21s-.21-.31-.21-.5,.07-.36,.21-.49c.14-.14,.31-.21,.52-.21s.38,.07,.52,.2c.14,.13,.21,.29,.21,.49s-.07,.38-.21,.52c-.13,.14-.3,.21-.52,.21Zm-1.67,11.76c-.3,0-.58-.04-.85-.13-.28-.07-.51-.19-.7-.35l.35-.76c.3,.25,.68,.38,1.15,.38,.39,0,.69-.12,.9-.35,.21-.23,.32-.58,.32-1.04v-7.9h.99v7.9c0,.68-.19,1.22-.56,1.62-.36,.41-.9,.62-1.6,.62Zm-2.16-11.76c-.21,0-.38-.07-.52-.21s-.21-.31-.21-.5,.07-.36,.21-.49c.14-.14,.31-.21,.52-.21s.38,.07,.52,.2c.14,.13,.21,.29,.21,.49s-.07,.38-.21,.52c-.13,.14-.3,.21-.52,.21Zm-.5,8.97v-7.35h.99v7.35h-.99Zm-6.84-6.52v-.83h4.55v.83h-4.55Zm3.47,6.59c-.69,0-1.22-.19-1.6-.56-.37-.37-.56-.9-.56-1.58v-6.9h.99v6.85c0,.43,.11,.76,.32,.99,.22,.23,.54,.35,.95,.35,.44,0,.8-.13,1.09-.38l.35,.71c-.2,.18-.43,.31-.71,.39-.27,.08-.55,.13-.84,.13Zm-8.97-6.59v-.83h4.55v.83h-4.55Zm3.47,6.59c-.69,0-1.22-.19-1.6-.56-.37-.37-.56-.9-.56-1.58v-6.9h.99v6.85c0,.43,.11,.76,.32,.99,.22,.23,.54,.35,.95,.35,.44,0,.8-.13,1.09-.38l.35,.71c-.2,.18-.43,.31-.71,.39-.27,.08-.55,.13-.84,.13Zm-7.19,0c-.61,0-1.18-.08-1.72-.25-.54-.18-.97-.4-1.27-.66l.45-.78c.3,.22,.68,.42,1.15,.59,.47,.16,.96,.24,1.47,.24,.7,0,1.2-.11,1.51-.32,.31-.22,.46-.52,.46-.88,0-.27-.09-.48-.27-.63-.17-.16-.39-.28-.67-.35-.28-.08-.59-.15-.94-.21-.35-.06-.69-.12-1.04-.2-.34-.07-.64-.18-.92-.32-.28-.15-.51-.35-.69-.6-.17-.25-.25-.59-.25-1.01s.11-.76,.34-1.08c.22-.32,.55-.56,.98-.74,.44-.19,.97-.28,1.6-.28,.48,0,.95,.07,1.43,.2,.48,.12,.87,.28,1.18,.49l-.43,.8c-.33-.22-.68-.38-1.05-.48-.37-.1-.75-.15-1.12-.15-.66,0-1.15,.12-1.47,.35-.31,.22-.46,.51-.46,.87,0,.28,.08,.5,.25,.66,.18,.16,.41,.28,.69,.38,.29,.08,.6,.15,.94,.21,.35,.06,.69,.13,1.02,.21,.35,.07,.66,.18,.94,.32,.29,.13,.52,.32,.69,.57,.18,.24,.27,.56,.27,.97,0,.43-.12,.8-.36,1.12-.23,.31-.58,.55-1.04,.73-.45,.17-.99,.25-1.64,.25Zm-7.57-.07v-7.35h.95v2l-.1-.35c.21-.56,.55-.98,1.04-1.27,.49-.3,1.09-.45,1.81-.45v.97h-.11s-.07-.01-.11-.01c-.77,0-1.38,.24-1.82,.71-.44,.47-.66,1.13-.66,2v3.75h-.99Zm-5.33,.07c-.77,0-1.44-.16-2.02-.48-.58-.33-1.03-.77-1.36-1.33-.33-.57-.49-1.22-.49-1.95s.15-1.37,.46-1.93c.32-.56,.75-1,1.29-1.32,.55-.33,1.17-.49,1.85-.49s1.3,.16,1.83,.48c.54,.31,.97,.75,1.27,1.32,.31,.56,.46,1.21,.46,1.95,0,.05,0,.1-.01,.15v.15h-6.4v-.74h5.87l-.39,.29c0-.53-.12-1-.35-1.41-.22-.42-.53-.75-.92-.98-.39-.23-.84-.35-1.36-.35s-.96,.12-1.36,.35c-.4,.23-.71,.56-.94,.98-.22,.42-.34,.9-.34,1.44v.15c0,.56,.12,1.05,.36,1.48,.25,.42,.6,.75,1.04,.99,.45,.23,.96,.35,1.53,.35,.45,0,.86-.08,1.25-.24,.39-.16,.73-.4,1.01-.73l.56,.64c-.33,.39-.74,.69-1.23,.9-.49,.21-1.02,.31-1.61,.31Zm-5.53-.07l-3.07-3.82,.64-.77,3.64,4.59h-1.22Zm-5.7,0v-10.39h.99v10.39h-.99Zm.78-1.9l.03-1.27,4.58-4.17h1.22l-3.23,3.09-.56,.48-2.03,1.88Zm-9.78,1.97c-.77,0-1.44-.16-2.02-.48-.58-.33-1.03-.77-1.36-1.33-.33-.57-.49-1.22-.49-1.95s.15-1.37,.46-1.93c.32-.56,.75-1,1.29-1.32,.55-.33,1.17-.49,1.85-.49s1.3,.16,1.83,.48c.54,.31,.97,.75,1.27,1.32,.31,.56,.46,1.21,.46,1.95,0,.05,0,.1-.01,.15v.15h-6.4v-.74h5.87l-.39,.29c0-.53-.12-1-.35-1.41-.22-.42-.53-.75-.92-.98-.39-.23-.84-.35-1.36-.35s-.96,.12-1.36,.35c-.4,.23-.71,.56-.94,.98-.22,.42-.34,.9-.34,1.44v.15c0,.56,.12,1.05,.36,1.48,.25,.42,.6,.75,1.04,.99,.45,.23,.96,.35,1.53,.35,.45,0,.86-.08,1.25-.24,.39-.16,.73-.4,1.01-.73l.56,.64c-.33,.39-.74,.69-1.23,.9-.49,.21-1.02,.31-1.61,.31Zm-5.53-.07l-3.07-3.82,.64-.77,3.64,4.59h-1.22Zm-5.7,0v-10.39h.99v10.39h-.99Zm.78-1.9l.03-1.27,4.58-4.17h1.22l-3.23,3.09-.56,.48-2.03,1.88Zm-3.49,1.9l-3.07-3.82,.64-.77,3.64,4.59h-1.22Zm-5.7,0v-10.39h.99v10.39h-.99Zm.78-1.9l.03-1.27,4.58-4.17h1.22l-3.23,3.09-.56,.48-2.03,1.88Zm-7.15,1.97c-.63,0-1.17-.12-1.64-.35-.47-.23-.83-.58-1.09-1.05-.25-.47-.38-1.05-.38-1.75v-4.27h.99v4.16c0,.78,.19,1.38,.57,1.78,.39,.39,.94,.59,1.64,.59,.51,0,.96-.1,1.33-.31,.38-.21,.67-.52,.87-.92,.21-.4,.31-.88,.31-1.44v-3.85h.99v7.35h-.95v-2.02l.15,.36c-.23,.54-.6,.97-1.09,1.27-.49,.3-1.05,.45-1.71,.45Zm-8.66-.07v-7.35h.95v2l-.1-.35c.21-.56,.55-.98,1.04-1.27,.49-.3,1.09-.45,1.81-.45v.97h-.11s-.07-.01-.11-.01c-.77,0-1.38,.24-1.82,.71-.44,.47-.66,1.13-.66,2v3.75h-.99Zm-3.72,0v-2.21l.1-1.48-.14-1.48v-5.21h.99v10.39h-.95Zm-2.77-.81c.52,0,.99-.12,1.4-.35,.42-.24,.75-.58,.98-1.01,.24-.44,.36-.94,.36-1.51s-.12-1.08-.36-1.51c-.23-.43-.56-.76-.98-.99-.41-.24-.88-.36-1.4-.36s-.98,.12-1.39,.36c-.41,.23-.74,.56-.98,.99-.24,.43-.36,.93-.36,1.51s.12,1.07,.36,1.51c.24,.43,.57,.77,.98,1.01,.41,.23,.87,.35,1.39,.35Zm-.07,.88c-.7,0-1.33-.16-1.89-.48-.55-.32-.98-.76-1.3-1.32-.32-.57-.48-1.22-.48-1.96s.16-1.4,.48-1.96c.32-.56,.75-.99,1.3-1.3,.56-.32,1.19-.48,1.89-.48,.64,0,1.22,.14,1.72,.43,.51,.29,.92,.71,1.22,1.27,.31,.55,.46,1.23,.46,2.03s-.15,1.47-.45,2.03c-.3,.56-.7,.99-1.22,1.29-.5,.29-1.08,.43-1.74,.43Zm215.8-19c-.77,0-1.44-.16-2.02-.48-.58-.33-1.03-.77-1.36-1.33-.33-.57-.49-1.22-.49-1.95s.15-1.37,.46-1.93c.32-.56,.75-1,1.29-1.32,.55-.33,1.17-.49,1.85-.49s1.3,.16,1.83,.48c.54,.31,.97,.75,1.27,1.32,.31,.56,.46,1.21,.46,1.95,0,.05,0,.1-.01,.15v.15h-6.4v-.74h5.87l-.39,.29c0-.53-.12-1-.35-1.41-.22-.42-.53-.75-.92-.98-.39-.23-.84-.35-1.36-.35s-.96,.12-1.36,.35c-.4,.23-.71,.56-.94,.98-.22,.42-.34,.9-.34,1.44v.15c0,.56,.12,1.05,.36,1.48,.25,.42,.6,.75,1.04,.99,.45,.23,.96,.35,1.53,.35,.45,0,.86-.08,1.25-.24,.39-.16,.73-.4,1.01-.73l.56,.64c-.33,.39-.74,.69-1.23,.9-.49,.21-1.02,.31-1.61,.31Zm-6.84-.07v-2.21l.1-1.48-.14-1.48v-5.21h.99v10.39h-.95Zm-2.77-.81c.52,0,.99-.12,1.4-.35,.42-.24,.75-.58,.98-1.01,.24-.44,.36-.94,.36-1.51s-.12-1.08-.36-1.51c-.23-.43-.56-.76-.98-.99-.41-.24-.88-.36-1.4-.36s-.98,.12-1.39,.36c-.41,.23-.74,.56-.98,.99-.24,.43-.36,.93-.36,1.51s.12,1.07,.36,1.51c.24,.43,.57,.77,.98,1.01,.41,.23,.87,.35,1.39,.35Zm-.07,.88c-.7,0-1.33-.16-1.89-.48-.55-.32-.98-.76-1.3-1.32-.32-.57-.48-1.22-.48-1.96s.16-1.4,.48-1.96c.32-.56,.75-.99,1.3-1.3,.56-.32,1.19-.48,1.89-.48,.64,0,1.22,.14,1.72,.43,.51,.29,.92,.71,1.22,1.27,.31,.55,.46,1.23,.46,2.03s-.15,1.47-.45,2.03c-.3,.56-.7,.99-1.22,1.29-.5,.29-1.08,.43-1.74,.43Zm-11.45,0c-.61,0-1.18-.08-1.72-.25-.54-.18-.97-.4-1.27-.66l.45-.78c.3,.22,.68,.42,1.15,.59,.47,.16,.96,.24,1.47,.24,.7,0,1.2-.11,1.51-.32,.31-.22,.46-.52,.46-.88,0-.27-.09-.48-.27-.63-.17-.16-.39-.28-.67-.35-.28-.08-.59-.15-.94-.21s-.69-.12-1.04-.2c-.34-.07-.64-.18-.92-.32-.28-.15-.51-.35-.69-.6-.17-.25-.25-.59-.25-1.01s.11-.76,.34-1.08c.22-.32,.55-.56,.98-.74,.44-.19,.97-.28,1.6-.28,.48,0,.95,.07,1.43,.2,.48,.12,.87,.28,1.18,.49l-.43,.8c-.33-.22-.68-.38-1.05-.48-.37-.1-.75-.15-1.12-.15-.66,0-1.15,.12-1.47,.35-.31,.22-.46,.51-.46,.87,0,.28,.08,.5,.25,.66,.18,.16,.41,.28,.69,.38,.29,.08,.6,.15,.94,.21,.35,.06,.69,.13,1.02,.21,.35,.07,.66,.18,.94,.32,.29,.13,.52,.32,.69,.57,.18,.24,.27,.56,.27,.97,0,.43-.12,.8-.36,1.12-.23,.31-.58,.55-1.04,.73-.45,.17-.99,.25-1.64,.25Zm-4.47-.07l-3.07-3.82,.64-.77,3.64,4.59h-1.22Zm-5.7,0v-10.39h.99v10.39h-.99Zm.78-1.9l.03-1.27,4.58-4.17h1.22l-3.23,3.09-.56,.48-2.03,1.88Zm-6.49-5.52c.6,0,1.12,.12,1.57,.35,.46,.22,.81,.57,1.06,1.04,.26,.47,.39,1.05,.39,1.76v4.27h-.99v-4.17c0-.77-.2-1.36-.59-1.75-.38-.4-.92-.6-1.62-.6-.52,0-.98,.11-1.37,.32-.38,.21-.68,.51-.9,.91-.21,.39-.31,.87-.31,1.43v3.86h-.99v-7.35h.95v2.02l-.15-.38c.23-.53,.61-.95,1.12-1.25,.51-.31,1.12-.46,1.83-.46Zm-9.94,7.49c-.55,0-1.03-.09-1.44-.27-.4-.19-.71-.44-.92-.76-.21-.33-.32-.7-.32-1.12,0-.38,.09-.73,.27-1.04,.19-.32,.49-.57,.9-.76,.42-.2,.98-.29,1.68-.29h2.53v.74h-2.51c-.71,0-1.2,.13-1.48,.38-.27,.25-.41,.56-.41,.94,0,.42,.16,.76,.49,1.01,.33,.25,.78,.38,1.37,.38s1.04-.13,1.44-.38c.41-.26,.71-.63,.9-1.12l.22,.69c-.19,.49-.51,.87-.98,1.16-.46,.29-1.04,.43-1.74,.43Zm2.53-.07v-1.62l-.04-.27v-2.72c0-.63-.18-1.11-.53-1.44-.35-.34-.86-.5-1.55-.5-.48,0-.93,.08-1.36,.24-.43,.16-.79,.37-1.09,.63l-.45-.74c.37-.32,.82-.56,1.34-.73,.52-.18,1.07-.27,1.65-.27,.95,0,1.68,.24,2.2,.71,.52,.47,.78,1.18,.78,2.14v4.56h-.95Zm-8.33,0v-2.21l.1-1.48-.14-1.48v-5.21h.99v10.39h-.95Zm-2.77-.81c.52,0,.99-.12,1.4-.35,.42-.24,.75-.58,.98-1.01,.24-.44,.36-.94,.36-1.51s-.12-1.08-.36-1.51c-.23-.43-.56-.76-.98-.99-.41-.24-.88-.36-1.4-.36s-.98,.12-1.39,.36c-.41,.23-.74,.56-.98,.99-.24,.43-.36,.93-.36,1.51s.12,1.07,.36,1.51c.24,.43,.57,.77,.98,1.01,.41,.23,.87,.35,1.39,.35Zm-.07,.88c-.7,0-1.33-.16-1.89-.48-.55-.32-.98-.76-1.3-1.32-.32-.57-.48-1.22-.48-1.96s.16-1.4,.48-1.96c.32-.56,.75-.99,1.3-1.3,.56-.32,1.19-.48,1.89-.48,.64,0,1.22,.14,1.72,.43,.51,.29,.92,.71,1.22,1.27,.31,.55,.46,1.23,.46,2.03s-.15,1.47-.45,2.03c-.3,.56-.7,.99-1.22,1.29-.5,.29-1.08,.43-1.74,.43Zm-8.63-7.49c.6,0,1.12,.12,1.57,.35,.46,.22,.81,.57,1.06,1.04,.26,.47,.39,1.05,.39,1.76v4.27h-.99v-4.17c0-.77-.2-1.36-.59-1.75-.38-.4-.92-.6-1.62-.6-.52,0-.98,.11-1.37,.32-.38,.21-.68,.51-.9,.91-.21,.39-.31,.87-.31,1.43v3.86h-.99v-7.35h.95v2.02l-.15-.38c.23-.53,.61-.95,1.12-1.25,.51-.31,1.12-.46,1.83-.46Zm-9.53,6.61c.53,0,1-.12,1.41-.35,.41-.24,.73-.58,.97-1.01,.24-.44,.36-.94,.36-1.51s-.12-1.08-.36-1.51c-.23-.43-.56-.76-.97-.99-.41-.24-.88-.36-1.4-.36s-.99,.12-1.4,.36c-.41,.23-.74,.56-.98,.99-.24,.43-.36,.93-.36,1.51s.12,1.07,.36,1.51c.24,.43,.57,.77,.98,1.01,.41,.23,.87,.35,1.39,.35Zm0,.88c-.71,0-1.35-.16-1.92-.48-.56-.33-1-.77-1.33-1.33-.33-.57-.49-1.22-.49-1.95s.16-1.39,.49-1.95c.33-.56,.77-1,1.33-1.32,.56-.32,1.2-.48,1.92-.48s1.37,.16,1.93,.48c.57,.32,1.01,.76,1.33,1.32,.33,.56,.49,1.21,.49,1.95s-.16,1.38-.49,1.95c-.32,.56-.76,1-1.33,1.33-.57,.32-1.21,.48-1.93,.48Zm-13.5-6.59v-.83h4.55v.83h-4.55Zm3.47,6.59c-.69,0-1.22-.19-1.6-.56-.37-.37-.56-.9-.56-1.58v-6.9h.99v6.85c0,.43,.11,.76,.32,.99,.22,.23,.54,.35,.95,.35,.44,0,.8-.13,1.09-.38l.35,.71c-.2,.18-.43,.31-.71,.39-.27,.08-.55,.13-.84,.13Zm-7.65,0c-.77,0-1.44-.16-2.02-.48-.58-.33-1.03-.77-1.36-1.33-.33-.57-.49-1.22-.49-1.95s.15-1.37,.46-1.93c.32-.56,.75-1,1.29-1.32,.55-.33,1.17-.49,1.85-.49s1.3,.16,1.83,.48c.54,.31,.97,.75,1.27,1.32,.31,.56,.46,1.21,.46,1.95,0,.05,0,.1-.01,.15v.15h-6.4v-.74h5.87l-.39,.29c0-.53-.12-1-.35-1.41-.22-.42-.53-.75-.92-.98-.39-.23-.84-.35-1.36-.35s-.96,.12-1.36,.35c-.4,.23-.71,.56-.94,.98-.22,.42-.34,.9-.34,1.44v.15c0,.56,.12,1.05,.36,1.48,.25,.42,.6,.75,1.04,.99,.45,.23,.96,.35,1.53,.35,.45,0,.86-.08,1.25-.24,.39-.16,.73-.4,1.01-.73l.56,.64c-.33,.39-.74,.69-1.23,.9-.49,.21-1.02,.31-1.61,.31Zm-8.83-7.49c.6,0,1.12,.12,1.57,.35,.46,.22,.81,.57,1.06,1.04,.26,.47,.39,1.05,.39,1.76v4.27h-.99v-4.17c0-.77-.2-1.36-.59-1.75-.38-.4-.92-.6-1.62-.6-.52,0-.98,.11-1.37,.32-.38,.21-.68,.51-.9,.91-.21,.39-.31,.87-.31,1.43v3.86h-.99v-10.39h.99v5.05l-.2-.38c.23-.53,.61-.95,1.12-1.25,.51-.31,1.12-.46,1.83-.46Zm-14.25,.9v-.83h4.55v.83h-4.55Zm3.47,6.59c-.69,0-1.22-.19-1.6-.56-.37-.37-.56-.9-.56-1.58v-6.9h.99v6.85c0,.43,.11,.76,.32,.99,.22,.23,.54,.35,.95,.35,.44,0,.8-.13,1.09-.38l.35,.71c-.2,.18-.43,.31-.71,.39-.27,.08-.55,.13-.84,.13Zm-6.07-.07v-2.21l.1-1.48-.14-1.48v-5.21h.99v10.39h-.95Zm-2.77-.81c.52,0,.99-.12,1.4-.35,.42-.24,.75-.58,.98-1.01,.24-.44,.36-.94,.36-1.51s-.12-1.08-.36-1.51c-.23-.43-.56-.76-.98-.99-.41-.24-.88-.36-1.4-.36s-.98,.12-1.39,.36c-.41,.23-.74,.56-.98,.99-.24,.43-.36,.93-.36,1.51s.12,1.07,.36,1.51c.24,.43,.57,.77,.98,1.01,.41,.23,.87,.35,1.39,.35Zm-.07,.88c-.7,0-1.33-.16-1.89-.48-.55-.32-.98-.76-1.3-1.32-.32-.57-.48-1.22-.48-1.96s.16-1.4,.48-1.96c.32-.56,.75-.99,1.3-1.3,.56-.32,1.19-.48,1.89-.48,.64,0,1.22,.14,1.72,.43,.51,.29,.92,.71,1.22,1.27,.31,.55,.46,1.23,.46,2.03s-.15,1.47-.45,2.03c-.3,.56-.7,.99-1.22,1.29-.5,.29-1.08,.43-1.74,.43Zm-8.37-.07v-7.35h.95v2l-.1-.35c.21-.56,.55-.98,1.04-1.27,.49-.3,1.09-.45,1.81-.45v.97h-.11s-.07-.01-.11-.01c-.77,0-1.38,.24-1.82,.71-.44,.47-.66,1.13-.66,2v3.75h-.99Zm-5.78-.81c.53,0,1-.12,1.41-.35,.41-.24,.73-.58,.97-1.01,.24-.44,.36-.94,.36-1.51s-.12-1.08-.36-1.51c-.23-.43-.56-.76-.97-.99-.41-.24-.88-.36-1.4-.36s-.99,.12-1.4,.36c-.41,.23-.74,.56-.98,.99-.24,.43-.36,.93-.36,1.51s.12,1.07,.36,1.51c.24,.43,.57,.77,.98,1.01,.41,.23,.87,.35,1.39,.35Zm0,.88c-.71,0-1.35-.16-1.92-.48-.56-.33-1-.77-1.33-1.33-.33-.57-.49-1.22-.49-1.95s.16-1.39,.49-1.95,.77-1,1.33-1.32c.56-.32,1.2-.48,1.92-.48s1.37,.16,1.93,.48c.57,.32,1.01,.76,1.33,1.32,.33,.56,.49,1.21,.49,1.95s-.16,1.38-.49,1.95c-.32,.56-.76,1-1.33,1.33-.57,.32-1.21,.48-1.93,.48Zm-13.6-.07l-2.77-7.35h.95l2.52,6.82h-.43l2.59-6.82h.85l2.56,6.82h-.43l2.56-6.82h.91l-2.79,7.35h-.94l-2.46-6.41h.29l-2.48,6.41h-.94Zm-10.78,0v-7.35h.95v2l-.1-.35c.21-.56,.55-.98,1.04-1.27,.49-.3,1.09-.45,1.81-.45v.97h-.11s-.07-.01-.11-.01c-.77,0-1.38,.24-1.82,.71-.44,.47-.66,1.13-.66,2v3.75h-.99Zm-6.19,.07c-.55,0-1.03-.09-1.44-.27-.4-.19-.71-.44-.92-.76-.21-.33-.32-.7-.32-1.12,0-.38,.09-.73,.27-1.04,.19-.32,.49-.57,.9-.76,.42-.2,.98-.29,1.68-.29h2.53v.74h-2.51c-.71,0-1.2,.13-1.48,.38-.27,.25-.41,.56-.41,.94,0,.42,.16,.76,.49,1.01,.33,.25,.78,.38,1.37,.38s1.04-.13,1.44-.38c.41-.26,.71-.63,.9-1.12l.22,.69c-.19,.49-.51,.87-.98,1.16-.46,.29-1.04,.43-1.74,.43Zm2.53-.07v-1.62l-.04-.27v-2.72c0-.63-.18-1.11-.53-1.44-.35-.34-.86-.5-1.55-.5-.48,0-.93,.08-1.36,.24-.43,.16-.79,.37-1.09,.63l-.45-.74c.37-.32,.82-.56,1.34-.73,.52-.18,1.07-.27,1.65-.27,.95,0,1.68,.24,2.2,.71,.52,.47,.78,1.18,.78,2.14v4.56h-.95Zm-10.79,.07c-.55,0-1.03-.09-1.44-.27-.4-.19-.71-.44-.92-.76-.21-.33-.32-.7-.32-1.12,0-.38,.09-.73,.27-1.04,.19-.32,.49-.57,.9-.76,.42-.2,.98-.29,1.68-.29h2.53v.74h-2.51c-.71,0-1.2,.13-1.48,.38-.27,.25-.41,.56-.41,.94,0,.42,.16,.76,.49,1.01,.33,.25,.78,.38,1.37,.38s1.04-.13,1.44-.38c.41-.26,.71-.63,.9-1.12l.22,.69c-.19,.49-.51,.87-.98,1.16-.46,.29-1.04,.43-1.74,.43Zm2.53-.07v-1.62l-.04-.27v-2.72c0-.63-.18-1.11-.53-1.44-.35-.34-.86-.5-1.55-.5-.48,0-.93,.08-1.36,.24-.43,.16-.79,.37-1.09,.63l-.45-.74c.37-.32,.82-.56,1.34-.73,.52-.18,1.07-.27,1.65-.27,.95,0,1.68,.24,2.2,.71,.52,.47,.78,1.18,.78,2.14v4.56h-.95Zm-7.87-8.97c-.21,0-.38-.07-.52-.21-.14-.14-.21-.31-.21-.5s.07-.36,.21-.49c.14-.14,.31-.21,.52-.21s.38,.07,.52,.2c.14,.13,.21,.29,.21,.49s-.07,.38-.21,.52c-.13,.14-.3,.21-.52,.21Zm-1.67,11.76c-.3,0-.58-.04-.85-.13-.28-.07-.51-.19-.7-.35l.35-.76c.3,.25,.68,.38,1.15,.38,.39,0,.69-.12,.9-.35,.21-.23,.32-.58,.32-1.04v-7.9h.99v7.9c0,.68-.19,1.22-.56,1.62-.36,.41-.9,.62-1.6,.62Zm-8.19-2.79v-7.35h.95v2l-.1-.35c.21-.56,.55-.98,1.04-1.27,.49-.3,1.09-.45,1.81-.45v.97h-.11s-.07-.01-.11-.01c-.77,0-1.38,.24-1.82,.71-.44,.47-.66,1.13-.66,2v3.75h-.99Zm-5.33,.07c-.77,0-1.44-.16-2.02-.48-.58-.33-1.03-.77-1.36-1.33-.33-.57-.49-1.22-.49-1.95s.15-1.37,.46-1.93c.32-.56,.75-1,1.29-1.32,.55-.33,1.17-.49,1.85-.49s1.3,.16,1.83,.48c.54,.31,.97,.75,1.27,1.32,.31,.56,.46,1.21,.46,1.95,0,.05,0,.1-.01,.15v.15h-6.4v-.74h5.87l-.39,.29c0-.53-.12-1-.35-1.41-.22-.42-.53-.75-.92-.98-.39-.23-.84-.35-1.36-.35s-.96,.12-1.36,.35c-.4,.23-.71,.56-.94,.98-.22,.42-.34,.9-.34,1.44v.15c0,.56,.12,1.05,.36,1.48,.25,.42,.6,.75,1.04,.99,.45,.23,.96,.35,1.53,.35,.45,0,.86-.08,1.25-.24,.39-.16,.73-.4,1.01-.73l.56,.64c-.33,.39-.74,.69-1.23,.9-.49,.21-1.02,.31-1.61,.31Zm-6.84-.07v-2.21l.1-1.48-.14-1.48v-5.21h.99v10.39h-.95Zm-2.77-.81c.52,0,.99-.12,1.4-.35,.42-.24,.75-.58,.98-1.01,.24-.44,.36-.94,.36-1.51s-.12-1.08-.36-1.51c-.23-.43-.56-.76-.98-.99-.41-.24-.88-.36-1.4-.36s-.98,.12-1.39,.36c-.41,.23-.74,.56-.98,.99-.24,.43-.36,.93-.36,1.51s.12,1.07,.36,1.51c.24,.43,.57,.77,.98,1.01,.41,.23,.87,.35,1.39,.35Zm-.07,.88c-.7,0-1.33-.16-1.89-.48-.55-.32-.98-.76-1.3-1.32-.32-.57-.48-1.22-.48-1.96s.16-1.4,.48-1.96c.32-.56,.75-.99,1.3-1.3,.56-.32,1.19-.48,1.89-.48,.64,0,1.22,.14,1.72,.43,.51,.29,.92,.71,1.22,1.27,.31,.55,.46,1.23,.46,2.03s-.15,1.47-.45,2.03c-.3,.56-.7,.99-1.22,1.29-.5,.29-1.08,.43-1.74,.43Zm-8.25,0c-.77,0-1.44-.16-2.02-.48-.58-.33-1.03-.77-1.36-1.33-.33-.57-.49-1.22-.49-1.95s.15-1.37,.46-1.93c.32-.56,.75-1,1.29-1.32,.55-.33,1.17-.49,1.85-.49s1.3,.16,1.83,.48c.54,.31,.97,.75,1.27,1.32,.31,.56,.46,1.21,.46,1.95,0,.05,0,.1-.01,.15v.15h-6.4v-.74h5.87l-.39,.29c0-.53-.12-1-.35-1.41-.22-.42-.53-.75-.92-.98-.39-.23-.84-.35-1.36-.35s-.96,.12-1.36,.35c-.4,.23-.71,.56-.94,.98-.22,.42-.34,.9-.34,1.44v.15c0,.56,.12,1.05,.36,1.48,.25,.42,.6,.75,1.04,.99,.45,.23,.96,.35,1.53,.35,.45,0,.86-.08,1.25-.24,.39-.16,.73-.4,1.01-.73l.56,.64c-.33,.39-.74,.69-1.23,.9-.49,.21-1.02,.31-1.61,.31Zm-7.14-.07v-9.8h1.04v9.8h-1.04Zm249.35-26.42c.6,0,1.12,.12,1.57,.35,.46,.22,.81,.57,1.06,1.04,.26,.47,.39,1.05,.39,1.76v4.27h-.99v-4.17c0-.77-.2-1.36-.59-1.75-.38-.4-.92-.6-1.62-.6-.52,0-.98,.11-1.37,.32-.38,.21-.68,.51-.9,.91-.21,.39-.31,.87-.31,1.43v3.86h-.99v-7.35h.95v2.02l-.15-.38c.23-.53,.61-.95,1.12-1.25,.51-.31,1.12-.46,1.83-.46Zm-9.08,7.49c-.77,0-1.44-.16-2.02-.48-.58-.33-1.03-.77-1.36-1.33-.33-.57-.49-1.22-.49-1.95s.15-1.37,.46-1.93c.32-.56,.75-1,1.29-1.32,.55-.33,1.17-.49,1.85-.49s1.3,.16,1.83,.48c.54,.31,.97,.75,1.27,1.32,.31,.56,.46,1.21,.46,1.95,0,.05,0,.1-.01,.15v.15h-6.4v-.74h5.87l-.39,.29c0-.53-.12-1-.35-1.41-.22-.42-.53-.75-.92-.98-.39-.23-.84-.35-1.36-.35s-.96,.12-1.36,.35c-.4,.23-.71,.56-.94,.98s-.34,.9-.34,1.44v.15c0,.56,.12,1.05,.36,1.48,.25,.42,.6,.75,1.04,.99,.45,.23,.96,.35,1.53,.35,.45,0,.86-.08,1.25-.24,.39-.16,.73-.4,1.01-.73l.56,.64c-.33,.39-.74,.69-1.23,.9-.49,.21-1.02,.31-1.61,.31Zm-5.53-.07l-3.07-3.82,.64-.77,3.64,4.59h-1.22Zm-5.7,0v-10.39h.99v10.39h-.99Zm.78-1.9l.03-1.27,4.58-4.17h1.22l-3.23,3.09-.56,.48-2.03,1.88Zm-6.49-5.52c.6,0,1.12,.12,1.57,.35,.46,.22,.81,.57,1.06,1.04,.26,.47,.39,1.05,.39,1.76v4.27h-.99v-4.17c0-.77-.2-1.36-.59-1.75-.38-.4-.92-.6-1.62-.6-.52,0-.98,.11-1.37,.32-.38,.21-.68,.51-.9,.91-.21,.39-.31,.87-.31,1.43v3.86h-.99v-7.35h.95v2.02l-.15-.38c.23-.53,.61-.95,1.12-1.25,.51-.31,1.12-.46,1.83-.46Zm-9.08,7.49c-.77,0-1.44-.16-2.02-.48-.58-.33-1.03-.77-1.36-1.33-.33-.57-.49-1.22-.49-1.95s.15-1.37,.46-1.93c.32-.56,.75-1,1.29-1.32,.55-.33,1.17-.49,1.85-.49s1.3,.16,1.83,.48c.54,.31,.97,.75,1.27,1.32,.31,.56,.46,1.21,.46,1.95,0,.05,0,.1-.01,.15v.15h-6.4v-.74h5.87l-.39,.29c0-.53-.12-1-.35-1.41-.22-.42-.53-.75-.92-.98-.39-.23-.84-.35-1.36-.35s-.96,.12-1.36,.35c-.4,.23-.71,.56-.94,.98s-.34,.9-.34,1.44v.15c0,.56,.12,1.05,.36,1.48,.25,.42,.6,.75,1.04,.99,.45,.23,.96,.35,1.53,.35,.45,0,.86-.08,1.25-.24,.39-.16,.73-.4,1.01-.73l.56,.64c-.33,.39-.74,.69-1.23,.9-.49,.21-1.02,.31-1.61,.31Zm-8.83-7.49c.6,0,1.12,.12,1.57,.35,.46,.22,.81,.57,1.06,1.04,.26,.47,.39,1.05,.39,1.76v4.27h-.99v-4.17c0-.77-.2-1.36-.59-1.75-.38-.4-.92-.6-1.62-.6-.52,0-.98,.11-1.37,.32-.38,.21-.68,.51-.9,.91-.21,.39-.31,.87-.31,1.43v3.86h-.99v-10.39h.99v5.05l-.2-.38c.23-.53,.61-.95,1.12-1.25,.51-.31,1.12-.46,1.83-.46Zm-8.48,7.49c-.73,0-1.38-.16-1.96-.48-.57-.33-1.02-.77-1.34-1.33-.33-.57-.49-1.22-.49-1.95s.16-1.39,.49-1.95c.33-.56,.77-1,1.34-1.32,.58-.32,1.23-.48,1.96-.48,.63,0,1.19,.12,1.69,.36s.9,.61,1.19,1.09l-.74,.5c-.25-.37-.56-.65-.94-.83-.37-.18-.78-.27-1.22-.27-.52,0-.99,.12-1.41,.36-.42,.23-.75,.56-.99,.99-.24,.43-.36,.93-.36,1.51s.12,1.08,.36,1.51c.24,.43,.57,.77,.99,1.01,.42,.23,.89,.35,1.41,.35,.44,0,.84-.09,1.22-.27,.37-.18,.69-.45,.94-.81l.74,.5c-.29,.48-.69,.84-1.19,1.09-.5,.24-1.07,.36-1.69,.36Zm-7.91,0c-.61,0-1.18-.08-1.72-.25-.54-.18-.97-.4-1.27-.66l.45-.78c.3,.22,.68,.42,1.15,.59,.47,.16,.96,.24,1.47,.24,.7,0,1.2-.11,1.51-.32,.31-.22,.46-.52,.46-.88,0-.27-.09-.48-.27-.63-.17-.16-.39-.28-.67-.35-.28-.08-.59-.15-.94-.21s-.69-.12-1.04-.2c-.34-.07-.64-.18-.92-.32-.28-.15-.51-.35-.69-.6-.17-.25-.25-.59-.25-1.01s.11-.76,.34-1.08c.22-.32,.55-.56,.98-.74,.44-.19,.97-.28,1.6-.28,.48,0,.95,.07,1.43,.2,.48,.12,.87,.28,1.18,.49l-.43,.8c-.33-.22-.68-.38-1.05-.48-.37-.1-.75-.15-1.12-.15-.66,0-1.15,.12-1.47,.35-.31,.22-.46,.51-.46,.87,0,.28,.08,.5,.25,.66,.18,.16,.41,.28,.69,.38,.29,.08,.6,.15,.94,.21,.35,.06,.69,.13,1.02,.21,.35,.07,.66,.18,.94,.32,.29,.13,.52,.32,.69,.57,.18,.24,.27,.56,.27,.97,0,.43-.12,.8-.36,1.12-.23,.31-.58,.55-1.04,.73-.45,.17-.99,.25-1.64,.25Zm-7.3,0c-.77,0-1.44-.16-2.02-.48-.58-.33-1.03-.77-1.36-1.33-.33-.57-.49-1.22-.49-1.95s.15-1.37,.46-1.93c.32-.56,.75-1,1.29-1.32,.55-.33,1.17-.49,1.85-.49s1.3,.16,1.83,.48c.54,.31,.97,.75,1.27,1.32,.31,.56,.46,1.21,.46,1.95,0,.05,0,.1-.01,.15v.15h-6.4v-.74h5.87l-.39,.29c0-.53-.12-1-.35-1.41-.22-.42-.53-.75-.92-.98-.39-.23-.84-.35-1.36-.35s-.96,.12-1.36,.35c-.4,.23-.71,.56-.94,.98s-.34,.9-.34,1.44v.15c0,.56,.12,1.05,.36,1.48,.25,.42,.6,.75,1.04,.99,.45,.23,.96,.35,1.53,.35,.45,0,.86-.08,1.25-.24,.39-.16,.73-.4,1.01-.73l.56,.64c-.33,.39-.74,.69-1.23,.9-.49,.21-1.02,.31-1.61,.31Zm-9.65-1.23c.54,0,1.02-.11,1.44-.34,.42-.23,.75-.55,.99-.95,.24-.41,.36-.88,.36-1.41s-.12-1-.36-1.4c-.24-.4-.57-.71-.99-.94-.42-.23-.9-.35-1.44-.35s-1.01,.12-1.44,.35c-.42,.22-.75,.54-.99,.94-.23,.4-.35,.87-.35,1.4s.12,1,.35,1.41c.24,.4,.57,.72,.99,.95,.43,.22,.91,.34,1.44,.34Zm-.1,.88c-.7,0-1.33-.15-1.89-.45-.56-.31-1-.73-1.33-1.27-.32-.54-.48-1.16-.48-1.86s.16-1.32,.48-1.85c.33-.54,.77-.96,1.33-1.26s1.19-.45,1.89-.45c.65,0,1.24,.14,1.76,.41s.94,.67,1.25,1.2,.46,1.18,.46,1.95-.15,1.41-.46,1.95-.72,.94-1.25,1.22-1.11,.42-1.76,.42Zm.18,3.07c-.67,0-1.32-.1-1.93-.29-.62-.2-1.12-.48-1.5-.84l.5-.76c.35,.31,.77,.55,1.27,.73,.51,.19,1.05,.28,1.62,.28,.93,0,1.62-.22,2.06-.66,.44-.43,.66-1.1,.66-2.02v-1.83l.14-1.26-.1-1.26v-2.23h.95v6.45c0,1.27-.31,2.2-.94,2.79-.62,.6-1.53,.9-2.74,.9Zm-9.71-9.31v-.83h4.55v.83h-4.55Zm3.47,6.59c-.69,0-1.22-.19-1.6-.56-.37-.37-.56-.9-.56-1.58v-6.9h.99v6.85c0,.43,.11,.76,.32,.99,.22,.23,.54,.35,.95,.35,.44,0,.8-.13,1.09-.38l.35,.71c-.2,.18-.43,.31-.71,.39-.27,.08-.55,.13-.84,.13Zm-7.19,0c-.61,0-1.18-.08-1.72-.25-.54-.18-.97-.4-1.27-.66l.45-.78c.3,.22,.68,.42,1.15,.59,.47,.16,.96,.24,1.47,.24,.7,0,1.2-.11,1.51-.32,.31-.22,.46-.52,.46-.88,0-.27-.09-.48-.27-.63-.17-.16-.39-.28-.67-.35-.28-.08-.59-.15-.94-.21s-.69-.12-1.04-.2c-.34-.07-.64-.18-.92-.32-.28-.15-.51-.35-.69-.6-.17-.25-.25-.59-.25-1.01s.11-.76,.34-1.08c.22-.32,.55-.56,.98-.74,.44-.19,.97-.28,1.6-.28,.48,0,.95,.07,1.43,.2,.48,.12,.87,.28,1.18,.49l-.43,.8c-.33-.22-.68-.38-1.05-.48-.37-.1-.75-.15-1.12-.15-.66,0-1.15,.12-1.47,.35-.31,.22-.46,.51-.46,.87,0,.28,.08,.5,.25,.66,.18,.16,.41,.28,.69,.38,.29,.08,.6,.15,.94,.21,.35,.06,.69,.13,1.02,.21,.35,.07,.66,.18,.94,.32,.29,.13,.52,.32,.69,.57,.18,.24,.27,.56,.27,.97,0,.43-.12,.8-.36,1.12-.23,.31-.58,.55-1.04,.73-.45,.17-.99,.25-1.64,.25Zm-7.57-.07v-7.35h.95v2l-.1-.35c.21-.56,.55-.98,1.04-1.27,.49-.3,1.09-.45,1.81-.45v.97h-.11s-.07-.01-.11-.01c-.77,0-1.38,.24-1.82,.71-.44,.47-.66,1.13-.66,2v3.75h-.99Zm-5.33,.07c-.77,0-1.44-.16-2.02-.48-.58-.33-1.03-.77-1.36-1.33-.33-.57-.49-1.22-.49-1.95s.15-1.37,.46-1.93c.32-.56,.75-1,1.29-1.32,.55-.33,1.17-.49,1.85-.49s1.3,.16,1.83,.48c.54,.31,.97,.75,1.27,1.32,.31,.56,.46,1.21,.46,1.95,0,.05,0,.1-.01,.15v.15h-6.4v-.74h5.87l-.39,.29c0-.53-.12-1-.35-1.41-.22-.42-.53-.75-.92-.98-.39-.23-.84-.35-1.36-.35s-.96,.12-1.36,.35c-.4,.23-.71,.56-.94,.98s-.34,.9-.34,1.44v.15c0,.56,.12,1.05,.36,1.48,.25,.42,.6,.75,1.04,.99,.45,.23,.96,.35,1.53,.35,.45,0,.86-.08,1.25-.24,.39-.16,.73-.4,1.01-.73l.56,.64c-.33,.39-.74,.69-1.23,.9-.49,.21-1.02,.31-1.61,.31Zm-5.53-.07l-3.07-3.82,.64-.77,3.64,4.59h-1.22Zm-5.7,0v-10.39h.99v10.39h-.99Zm.78-1.9l.03-1.27,4.58-4.17h1.22l-3.23,3.09-.56,.48-2.03,1.88Zm-9.78,1.97c-.77,0-1.44-.16-2.02-.48-.58-.33-1.03-.77-1.36-1.33-.33-.57-.49-1.22-.49-1.95s.15-1.37,.46-1.93c.32-.56,.75-1,1.29-1.32,.55-.33,1.17-.49,1.85-.49s1.3,.16,1.83,.48c.54,.31,.97,.75,1.27,1.32,.31,.56,.46,1.21,.46,1.95,0,.05,0,.1-.01,.15v.15h-6.4v-.74h5.87l-.39,.29c0-.53-.12-1-.35-1.41-.22-.42-.53-.75-.92-.98-.39-.23-.84-.35-1.36-.35s-.96,.12-1.36,.35c-.4,.23-.71,.56-.94,.98s-.34,.9-.34,1.44v.15c0,.56,.12,1.05,.36,1.48,.25,.42,.6,.75,1.04,.99,.45,.23,.96,.35,1.53,.35,.45,0,.86-.08,1.25-.24,.39-.16,.73-.4,1.01-.73l.56,.64c-.33,.39-.74,.69-1.23,.9-.49,.21-1.02,.31-1.61,.31Zm-10.95-.07v-.66l4.9-6.2,.21,.34h-5.03v-.83h5.81v.64l-4.89,6.22-.25-.34h5.24v.83h-5.99Zm-4.91-7.42c.6,0,1.12,.12,1.57,.35,.46,.22,.81,.57,1.06,1.04,.26,.47,.39,1.05,.39,1.76v4.27h-.99v-4.17c0-.77-.2-1.36-.59-1.75-.38-.4-.92-.6-1.62-.6-.52,0-.98,.11-1.37,.32-.38,.21-.68,.51-.9,.91-.21,.39-.31,.87-.31,1.43v3.86h-.99v-7.35h.95v2.02l-.15-.38c.23-.53,.61-.95,1.12-1.25,.51-.31,1.12-.46,1.83-.46Zm-9.53,6.61c.53,0,1-.12,1.41-.35,.41-.24,.73-.58,.97-1.01,.24-.44,.36-.94,.36-1.51s-.12-1.08-.36-1.51c-.23-.43-.56-.76-.97-.99-.41-.24-.88-.36-1.4-.36s-.99,.12-1.4,.36c-.41,.23-.74,.56-.98,.99s-.36,.93-.36,1.51,.12,1.07,.36,1.51c.24,.43,.57,.77,.98,1.01,.41,.23,.87,.35,1.39,.35Zm0,.88c-.71,0-1.35-.16-1.92-.48-.56-.33-1-.77-1.33-1.33-.33-.57-.49-1.22-.49-1.95s.16-1.39,.49-1.95,.77-1,1.33-1.32c.56-.32,1.2-.48,1.92-.48s1.37,.16,1.93,.48c.57,.32,1.01,.76,1.33,1.32,.33,.56,.49,1.21,.49,1.95s-.16,1.38-.49,1.95c-.32,.56-.76,1-1.33,1.33-.57,.32-1.21,.48-1.93,.48Zm-10.38-.07v-2.21l.1-1.48-.14-1.48v-5.21h.99v10.39h-.95Zm-2.77-.81c.52,0,.99-.12,1.4-.35,.42-.24,.75-.58,.98-1.01,.24-.44,.36-.94,.36-1.51s-.12-1.08-.36-1.51c-.23-.43-.56-.76-.98-.99-.41-.24-.88-.36-1.4-.36s-.98,.12-1.39,.36c-.41,.23-.74,.56-.98,.99s-.36,.93-.36,1.51,.12,1.07,.36,1.51c.24,.43,.57,.77,.98,1.01,.41,.23,.87,.35,1.39,.35Zm-.07,.88c-.7,0-1.33-.16-1.89-.48-.55-.32-.98-.76-1.3-1.32-.32-.57-.48-1.22-.48-1.96s.16-1.4,.48-1.96c.32-.56,.75-.99,1.3-1.3,.56-.32,1.19-.48,1.89-.48,.64,0,1.22,.14,1.72,.43,.51,.29,.92,.71,1.22,1.27,.31,.55,.46,1.23,.46,2.03s-.15,1.47-.45,2.03-.7,.99-1.22,1.29c-.5,.29-1.08,.43-1.74,.43Zm-6.18-9.04c-.21,0-.38-.07-.52-.21s-.21-.31-.21-.5,.07-.36,.21-.49c.14-.14,.31-.21,.52-.21s.38,.07,.52,.2c.14,.13,.21,.29,.21,.49s-.07,.38-.21,.52c-.13,.14-.3,.21-.52,.21Zm-.5,8.97v-7.35h.99v7.35h-.99Zm-5.33,.07c-.77,0-1.44-.16-2.02-.48-.58-.33-1.03-.77-1.36-1.33-.33-.57-.49-1.22-.49-1.95s.15-1.37,.46-1.93c.32-.56,.75-1,1.29-1.32,.55-.33,1.17-.49,1.85-.49s1.3,.16,1.83,.48c.54,.31,.97,.75,1.27,1.32,.31,.56,.46,1.21,.46,1.95,0,.05,0,.1-.01,.15v.15h-6.4v-.74h5.87l-.39,.29c0-.53-.12-1-.35-1.41-.22-.42-.53-.75-.92-.98-.39-.23-.84-.35-1.36-.35s-.96,.12-1.36,.35c-.4,.23-.71,.56-.94,.98s-.34,.9-.34,1.44v.15c0,.56,.12,1.05,.36,1.48,.25,.42,.6,.75,1.04,.99,.45,.23,.96,.35,1.53,.35,.45,0,.86-.08,1.25-.24,.39-.16,.73-.4,1.01-.73l.56,.64c-.33,.39-.74,.69-1.23,.9-.49,.21-1.02,.31-1.61,.31Zm-8.83-7.49c.6,0,1.12,.12,1.57,.35,.46,.22,.81,.57,1.06,1.04,.26,.47,.39,1.05,.39,1.76v4.27h-.99v-4.17c0-.77-.2-1.36-.59-1.75-.38-.4-.92-.6-1.62-.6-.52,0-.98,.11-1.37,.32-.38,.21-.68,.51-.9,.91-.21,.39-.31,.87-.31,1.43v3.86h-.99v-10.39h.99v5.05l-.2-.38c.23-.53,.61-.95,1.12-1.25,.51-.31,1.12-.46,1.83-.46Zm-9.46,0c.6,0,1.12,.12,1.57,.35,.46,.22,.81,.57,1.06,1.04,.26,.47,.39,1.05,.39,1.76v4.27h-.99v-4.17c0-.77-.2-1.36-.59-1.75-.38-.4-.92-.6-1.62-.6-.52,0-.98,.11-1.37,.32-.38,.21-.68,.51-.9,.91-.21,.39-.31,.87-.31,1.43v3.86h-.99v-7.35h.95v2.02l-.15-.38c.23-.53,.61-.95,1.12-1.25,.51-.31,1.12-.46,1.83-.46Zm-9.08,7.49c-.77,0-1.44-.16-2.02-.48-.58-.33-1.03-.77-1.36-1.33-.33-.57-.49-1.22-.49-1.95s.15-1.37,.46-1.93c.32-.56,.75-1,1.29-1.32,.55-.33,1.17-.49,1.85-.49s1.3,.16,1.83,.48c.54,.31,.97,.75,1.27,1.32,.31,.56,.46,1.21,.46,1.95,0,.05,0,.1-.01,.15v.15h-6.4v-.74h5.87l-.39,.29c0-.53-.12-1-.35-1.41-.22-.42-.53-.75-.92-.98-.39-.23-.84-.35-1.36-.35s-.96,.12-1.36,.35c-.4,.23-.71,.56-.94,.98s-.34,.9-.34,1.44v.15c0,.56,.12,1.05,.36,1.48,.25,.42,.6,.75,1.04,.99,.45,.23,.96,.35,1.53,.35,.45,0,.86-.08,1.25-.24,.39-.16,.73-.4,1.01-.73l.56,.64c-.33,.39-.74,.69-1.23,.9-.49,.21-1.02,.31-1.61,.31Zm-6.84-.07v-2.21l.1-1.48-.14-1.48v-5.21h.99v10.39h-.95Zm-2.77-.81c.52,0,.99-.12,1.4-.35,.42-.24,.75-.58,.98-1.01,.24-.44,.36-.94,.36-1.51s-.12-1.08-.36-1.51c-.23-.43-.56-.76-.98-.99-.41-.24-.88-.36-1.4-.36s-.98,.12-1.39,.36c-.41,.23-.74,.56-.98,.99-.24,.43-.36,.93-.36,1.51s.12,1.07,.36,1.51c.24,.43,.57,.77,.98,1.01,.41,.23,.87,.35,1.39,.35Zm-.07,.88c-.7,0-1.33-.16-1.89-.48-.55-.32-.98-.76-1.3-1.32-.32-.57-.48-1.22-.48-1.96s.16-1.4,.48-1.96,.75-.99,1.3-1.3c.56-.32,1.19-.48,1.89-.48,.64,0,1.22,.14,1.72,.43,.51,.29,.92,.71,1.22,1.27,.31,.55,.46,1.23,.46,2.03s-.15,1.47-.45,2.03c-.3,.56-.7,.99-1.22,1.29-.5,.29-1.08,.43-1.74,.43Zm-8.25,0c-.77,0-1.44-.16-2.02-.48-.58-.33-1.03-.77-1.36-1.33-.33-.57-.49-1.22-.49-1.95s.15-1.37,.46-1.93c.32-.56,.75-1,1.29-1.32,.55-.33,1.17-.49,1.85-.49s1.3,.16,1.83,.48c.54,.31,.97,.75,1.27,1.32,.31,.56,.46,1.21,.46,1.95,0,.05,0,.1-.01,.15v.15h-6.4v-.74h5.87l-.39,.29c0-.53-.12-1-.35-1.41-.22-.42-.53-.75-.92-.98-.39-.23-.84-.35-1.36-.35s-.96,.12-1.36,.35c-.4,.23-.71,.56-.94,.98s-.34,.9-.34,1.44v.15c0,.56,.12,1.05,.36,1.48,.25,.42,.6,.75,1.04,.99,.45,.23,.96,.35,1.53,.35,.45,0,.86-.08,1.25-.24,.39-.16,.73-.4,1.01-.73l.56,.64c-.33,.39-.74,.69-1.23,.9-.49,.21-1.02,.31-1.61,.31Zm-8.56-.07v-7.35h.95v2l-.1-.35c.21-.56,.55-.98,1.04-1.27,.49-.3,1.09-.45,1.81-.45v.97h-.11s-.07-.01-.11-.01c-.77,0-1.38,.24-1.82,.71-.44,.47-.66,1.13-.66,2v3.75h-.99Zm-5.7,0l-3.26-7.35h1.04l3,6.82h-.49l3.04-6.82h.98l-3.28,7.35h-1.02Zm-7.08,.07c-.77,0-1.44-.16-2.02-.48-.58-.33-1.03-.77-1.36-1.33-.33-.57-.49-1.22-.49-1.95s.15-1.37,.46-1.93c.32-.56,.75-1,1.29-1.32,.55-.33,1.17-.49,1.85-.49s1.3,.16,1.83,.48c.54,.31,.97,.75,1.27,1.32,.31,.56,.46,1.21,.46,1.95,0,.05,0,.1-.01,.15v.15h-6.4v-.74h5.87l-.39,.29c0-.53-.12-1-.35-1.41-.22-.42-.53-.75-.92-.98-.39-.23-.84-.35-1.36-.35s-.96,.12-1.36,.35c-.4,.23-.71,.56-.94,.98-.22,.42-.34,.9-.34,1.44v.15c0,.56,.12,1.05,.36,1.48,.25,.42,.6,.75,1.04,.99,.45,.23,.96,.35,1.53,.35,.45,0,.86-.08,1.25-.24,.39-.16,.73-.4,1.01-.73l.56,.64c-.33,.39-.74,.69-1.23,.9-.49,.21-1.02,.31-1.61,.31Zm-9.7-6.59v-.83h4.55v.83h-4.55Zm3.47,6.59c-.69,0-1.22-.19-1.6-.56-.37-.37-.56-.9-.56-1.58v-6.9h.99v6.85c0,.43,.11,.76,.32,.99,.22,.23,.54,.35,.95,.35,.44,0,.8-.13,1.09-.38l.35,.71c-.2,.18-.43,.31-.71,.39-.27,.08-.55,.13-.84,.13Zm248.46-19c-.77,0-1.44-.16-2.02-.48-.58-.33-1.03-.77-1.36-1.33-.33-.57-.49-1.22-.49-1.95s.15-1.37,.46-1.93c.32-.56,.75-1,1.29-1.32,.55-.33,1.17-.49,1.85-.49s1.3,.16,1.83,.48c.54,.31,.97,.75,1.27,1.32,.31,.56,.46,1.21,.46,1.95,0,.05,0,.1-.01,.15v.15h-6.4v-.74h5.87l-.39,.29c0-.53-.12-1-.35-1.41-.22-.42-.53-.75-.92-.98-.39-.23-.84-.35-1.36-.35s-.96,.12-1.36,.35c-.4,.23-.71,.56-.94,.98s-.34,.9-.34,1.44v.15c0,.56,.12,1.05,.36,1.48,.25,.42,.6,.75,1.04,.99,.45,.23,.96,.35,1.53,.35,.45,0,.86-.08,1.25-.24,.39-.16,.73-.4,1.01-.73l.56,.64c-.33,.39-.74,.69-1.23,.9-.49,.21-1.02,.31-1.61,.31Zm-9.7-6.59v-.83h4.55v.83h-4.55Zm3.47,6.59c-.69,0-1.22-.19-1.6-.56-.37-.37-.56-.9-.56-1.58v-6.9h.99v6.85c0,.43,.11,.76,.32,.99,.22,.23,.54,.35,.95,.35,.44,0,.8-.13,1.09-.38l.35,.71c-.2,.18-.43,.31-.71,.39-.27,.08-.55,.13-.84,.13Zm-8.11-.88c.53,0,1-.12,1.41-.35,.41-.24,.73-.58,.97-1.01,.24-.44,.36-.94,.36-1.51s-.12-1.08-.36-1.51c-.23-.43-.56-.76-.97-.99-.41-.24-.88-.36-1.4-.36s-.99,.12-1.4,.36c-.41,.23-.74,.56-.98,.99-.24,.43-.36,.93-.36,1.51s.12,1.07,.36,1.51c.24,.43,.57,.77,.98,1.01,.41,.23,.87,.35,1.39,.35Zm0,.88c-.71,0-1.35-.16-1.92-.48-.56-.33-1-.77-1.33-1.33-.33-.57-.49-1.22-.49-1.95s.16-1.39,.49-1.95c.33-.56,.77-1,1.33-1.32,.56-.32,1.2-.48,1.92-.48s1.37,.16,1.93,.48c.57,.32,1.01,.76,1.33,1.32,.33,.56,.49,1.21,.49,1.95s-.16,1.38-.49,1.95c-.32,.56-.76,1-1.33,1.33-.57,.32-1.21,.48-1.93,.48Zm-8.44-.07v-7.35h.95v2l-.1-.35c.21-.56,.55-.98,1.04-1.27,.49-.3,1.09-.45,1.81-.45v.97h-.11s-.07-.01-.11-.01c-.77,0-1.38,.24-1.82,.71-.44,.47-.66,1.13-.66,2v3.75h-.99Zm-6.53-1.16c.54,0,1.02-.11,1.44-.34,.42-.23,.75-.55,.99-.95,.24-.41,.36-.88,.36-1.41s-.12-1-.36-1.4c-.24-.4-.57-.71-.99-.94-.42-.23-.9-.35-1.44-.35s-1.01,.12-1.44,.35c-.42,.22-.75,.54-.99,.94-.23,.4-.35,.87-.35,1.4s.12,1,.35,1.41c.24,.4,.57,.72,.99,.95,.43,.22,.91,.34,1.44,.34Zm-.1,.88c-.7,0-1.33-.15-1.89-.45-.56-.31-1-.73-1.33-1.27-.32-.54-.48-1.16-.48-1.86s.16-1.32,.48-1.85c.33-.54,.77-.96,1.33-1.26s1.19-.45,1.89-.45c.65,0,1.24,.14,1.76,.41s.94,.67,1.25,1.2,.46,1.18,.46,1.95-.15,1.41-.46,1.95-.72,.94-1.25,1.22-1.11,.42-1.76,.42Zm.18,3.07c-.67,0-1.32-.1-1.93-.29-.62-.2-1.12-.48-1.5-.84l.5-.76c.35,.31,.77,.55,1.27,.73,.51,.19,1.05,.28,1.62,.28,.93,0,1.62-.22,2.06-.66,.44-.43,.66-1.1,.66-2.02v-1.83l.14-1.26-.1-1.26v-2.23h.95v6.45c0,1.27-.31,2.2-.94,2.79-.62,.6-1.53,.9-2.74,.9Zm-13.64-9.31v-.83h4.55v.83h-4.55Zm3.47,6.59c-.69,0-1.22-.19-1.6-.56-.37-.37-.56-.9-.56-1.58v-6.9h.99v6.85c0,.43,.11,.76,.32,.99,.22,.23,.54,.35,.95,.35,.44,0,.8-.13,1.09-.38l.35,.71c-.2,.18-.43,.31-.71,.39-.27,.08-.55,.13-.84,.13Zm-8.11-.88c.53,0,1-.12,1.41-.35,.41-.24,.73-.58,.97-1.01,.24-.44,.36-.94,.36-1.51s-.12-1.08-.36-1.51c-.23-.43-.56-.76-.97-.99-.41-.24-.88-.36-1.4-.36s-.99,.12-1.4,.36c-.41,.23-.74,.56-.98,.99-.24,.43-.36,.93-.36,1.51s.12,1.07,.36,1.51c.24,.43,.57,.77,.98,1.01,.41,.23,.87,.35,1.39,.35Zm0,.88c-.71,0-1.35-.16-1.92-.48-.56-.33-1-.77-1.33-1.33-.33-.57-.49-1.22-.49-1.95s.16-1.39,.49-1.95c.33-.56,.77-1,1.33-1.32,.56-.32,1.2-.48,1.92-.48s1.37,.16,1.93,.48c.57,.32,1.01,.76,1.33,1.32,.33,.56,.49,1.21,.49,1.95s-.16,1.38-.49,1.95c-.32,.56-.76,1-1.33,1.33-.57,.32-1.21,.48-1.93,.48Zm-9.57-6.59v-.83h4.55v.83h-4.55Zm3.47,6.59c-.69,0-1.22-.19-1.6-.56-.37-.37-.56-.9-.56-1.58v-6.9h.99v6.85c0,.43,.11,.76,.32,.99,.22,.23,.54,.35,.95,.35,.44,0,.8-.13,1.09-.38l.35,.71c-.2,.18-.43,.31-.71,.39-.27,.08-.55,.13-.84,.13Zm-9.26-9.04c-.21,0-.38-.07-.52-.21s-.21-.31-.21-.5,.07-.36,.21-.49c.14-.14,.31-.21,.52-.21s.38,.07,.52,.2,.21,.29,.21,.49-.07,.38-.21,.52c-.13,.14-.3,.21-.52,.21Zm-1.67,11.76c-.3,0-.58-.04-.85-.13-.28-.07-.51-.19-.7-.35l.35-.76c.3,.25,.68,.38,1.15,.38,.39,0,.69-.12,.9-.35,.21-.23,.32-.58,.32-1.04v-7.9h.99v7.9c0,.68-.19,1.22-.56,1.62-.36,.41-.9,.62-1.6,.62Zm-2.16-11.76c-.21,0-.38-.07-.52-.21s-.21-.31-.21-.5,.07-.36,.21-.49c.14-.14,.31-.21,.52-.21s.38,.07,.52,.2,.21,.29,.21,.49-.07,.38-.21,.52c-.13,.14-.3,.21-.52,.21Zm-.5,8.97v-7.35h.99v7.35h-.99Zm-10.81,0l-2.77-7.35h.95l2.52,6.82h-.43l2.59-6.82h.85l2.56,6.82h-.43l2.56-6.82h.91l-2.79,7.35h-.94l-2.46-6.41h.29l-2.48,6.41h-.94Zm-10.87-7.42c.6,0,1.12,.12,1.57,.35,.46,.22,.81,.57,1.06,1.04,.26,.47,.39,1.05,.39,1.76v4.27h-.99v-4.17c0-.77-.2-1.36-.59-1.75-.38-.4-.92-.6-1.62-.6-.52,0-.98,.11-1.37,.32-.38,.21-.68,.51-.9,.91-.21,.39-.31,.87-.31,1.43v3.86h-.99v-7.35h.95v2.02l-.15-.38c.23-.53,.61-.95,1.12-1.25,.51-.31,1.12-.46,1.83-.46Zm-9.08,7.49c-.77,0-1.44-.16-2.02-.48-.58-.33-1.03-.77-1.36-1.33-.33-.57-.49-1.22-.49-1.95s.15-1.37,.46-1.93c.32-.56,.75-1,1.29-1.32,.55-.33,1.17-.49,1.85-.49s1.3,.16,1.83,.48c.54,.31,.97,.75,1.27,1.32,.31,.56,.46,1.21,.46,1.95,0,.05,0,.1-.01,.15v.15h-6.4v-.74h5.87l-.39,.29c0-.53-.12-1-.35-1.41-.22-.42-.53-.75-.92-.98-.39-.23-.84-.35-1.36-.35s-.96,.12-1.36,.35c-.4,.23-.71,.56-.94,.98s-.34,.9-.34,1.44v.15c0,.56,.12,1.05,.36,1.48,.25,.42,.6,.75,1.04,.99,.45,.23,.96,.35,1.53,.35,.45,0,.86-.08,1.25-.24,.39-.16,.73-.4,1.01-.73l.56,.64c-.33,.39-.74,.69-1.23,.9-.49,.21-1.02,.31-1.61,.31Zm-6.88-.07v-10.39h.99v10.39h-.99Zm-3.76,0v-10.39h.99v10.39h-.99Zm-5.33,.07c-.77,0-1.44-.16-2.02-.48-.58-.33-1.03-.77-1.36-1.33-.33-.57-.49-1.22-.49-1.95s.15-1.37,.46-1.93c.32-.56,.75-1,1.29-1.32,.55-.33,1.17-.49,1.85-.49s1.3,.16,1.83,.48c.54,.31,.97,.75,1.27,1.32,.31,.56,.46,1.21,.46,1.95,0,.05,0,.1-.01,.15v.15h-6.4v-.74h5.87l-.39,.29c0-.53-.12-1-.35-1.41-.22-.42-.53-.75-.92-.98-.39-.23-.84-.35-1.36-.35s-.96,.12-1.36,.35c-.4,.23-.71,.56-.94,.98s-.34,.9-.34,1.44v.15c0,.56,.12,1.05,.36,1.48,.25,.42,.6,.75,1.04,.99,.45,.23,.96,.35,1.53,.35,.45,0,.86-.08,1.25-.24,.39-.16,.73-.4,1.01-.73l.56,.64c-.33,.39-.74,.69-1.23,.9-.49,.21-1.02,.31-1.61,.31Zm-9.7-6.59v-.83h4.55v.83h-4.55Zm3.47,6.59c-.69,0-1.22-.19-1.6-.56-.37-.37-.56-.9-.56-1.58v-6.9h.99v6.85c0,.43,.11,.76,.32,.99,.22,.23,.54,.35,.95,.35,.44,0,.8-.13,1.09-.38l.35,.71c-.2,.18-.43,.31-.71,.39-.27,.08-.55,.13-.84,.13Zm-7.19,0c-.61,0-1.18-.08-1.72-.25-.54-.18-.97-.4-1.27-.66l.45-.78c.3,.22,.68,.42,1.15,.59,.47,.16,.96,.24,1.47,.24,.7,0,1.2-.11,1.51-.32,.31-.22,.46-.52,.46-.88,0-.27-.09-.48-.27-.63-.17-.16-.39-.28-.67-.35-.28-.08-.59-.15-.94-.21-.35-.06-.69-.12-1.04-.2-.34-.07-.64-.18-.92-.32-.28-.15-.51-.35-.69-.6-.17-.25-.25-.59-.25-1.01s.11-.76,.34-1.08c.22-.32,.55-.56,.98-.74,.44-.19,.97-.28,1.6-.28,.48,0,.95,.07,1.43,.2,.48,.12,.87,.28,1.18,.49l-.43,.8c-.33-.22-.68-.38-1.05-.48-.37-.1-.75-.15-1.12-.15-.66,0-1.15,.12-1.47,.35-.31,.22-.46,.51-.46,.87,0,.28,.08,.5,.25,.66,.18,.16,.41,.28,.69,.38,.29,.08,.6,.15,.94,.21,.35,.06,.69,.13,1.02,.21,.35,.07,.66,.18,.94,.32,.29,.13,.52,.32,.69,.57,.18,.24,.27,.56,.27,.97,0,.43-.12,.8-.36,1.12-.23,.31-.58,.55-1.04,.73-.45,.17-.99,.25-1.64,.25Zm-7.3,0c-.77,0-1.44-.16-2.02-.48-.58-.33-1.03-.77-1.36-1.33-.33-.57-.49-1.22-.49-1.95s.15-1.37,.46-1.93c.32-.56,.75-1,1.29-1.32,.55-.33,1.17-.49,1.85-.49s1.3,.16,1.83,.48c.54,.31,.97,.75,1.27,1.32,.31,.56,.46,1.21,.46,1.95,0,.05,0,.1-.01,.15v.15h-6.4v-.74h5.87l-.39,.29c0-.53-.12-1-.35-1.41-.22-.42-.53-.75-.92-.98-.39-.23-.84-.35-1.36-.35s-.96,.12-1.36,.35c-.4,.23-.71,.56-.94,.98s-.34,.9-.34,1.44v.15c0,.56,.12,1.05,.36,1.48,.25,.42,.6,.75,1.04,.99,.45,.23,.96,.35,1.53,.35,.45,0,.86-.08,1.25-.24,.39-.16,.73-.4,1.01-.73l.56,.64c-.33,.39-.74,.69-1.23,.9-.49,.21-1.02,.31-1.61,.31Zm-8.89-.88c.52,0,.99-.12,1.4-.35,.41-.24,.74-.58,.98-1.01,.24-.44,.36-.94,.36-1.51s-.12-1.08-.36-1.51c-.24-.43-.57-.76-.98-.99-.41-.24-.88-.36-1.4-.36s-.99,.12-1.41,.36c-.41,.23-.74,.56-.98,.99-.23,.43-.35,.93-.35,1.51s.12,1.07,.35,1.51c.24,.43,.57,.77,.98,1.01,.42,.23,.89,.35,1.41,.35Zm-3.72,.81v-10.39h.99v5.21l-.14,1.48,.1,1.48v2.21h-.95Zm3.79,.07c-.64,0-1.22-.14-1.74-.43-.51-.3-.92-.73-1.22-1.29-.3-.56-.45-1.24-.45-2.03s.15-1.48,.45-2.03c.31-.56,.72-.98,1.23-1.27,.51-.29,1.09-.43,1.72-.43,.7,0,1.33,.16,1.88,.48,.56,.31,1,.74,1.32,1.3,.32,.56,.48,1.21,.48,1.96s-.16,1.39-.48,1.96c-.32,.56-.76,1-1.32,1.32-.55,.32-1.18,.48-1.88,.48Zm-13.08-.07v-7.35h.95v2l-.1-.35c.21-.56,.55-.98,1.04-1.27,.49-.3,1.09-.45,1.81-.45v.97h-.11s-.07-.01-.11-.01c-.77,0-1.38,.24-1.82,.71-.44,.47-.66,1.13-.66,2v3.75h-.99Zm-6.19,.07c-.55,0-1.03-.09-1.44-.27-.4-.19-.71-.44-.92-.76-.21-.33-.32-.7-.32-1.12,0-.38,.09-.73,.27-1.04,.19-.32,.49-.57,.9-.76,.42-.2,.98-.29,1.68-.29h2.53v.74h-2.51c-.71,0-1.2,.13-1.48,.38-.27,.25-.41,.56-.41,.94,0,.42,.16,.76,.49,1.01,.33,.25,.78,.38,1.37,.38s1.04-.13,1.44-.38c.41-.26,.71-.63,.9-1.12l.22,.69c-.19,.49-.51,.87-.98,1.16-.46,.29-1.04,.43-1.74,.43Zm2.53-.07v-1.62l-.04-.27v-2.72c0-.63-.18-1.11-.53-1.44-.35-.34-.86-.5-1.55-.5-.48,0-.93,.08-1.36,.24-.43,.16-.79,.37-1.09,.63l-.45-.74c.37-.32,.82-.56,1.34-.73,.52-.18,1.07-.27,1.65-.27,.95,0,1.68,.24,2.2,.71,.52,.47,.78,1.18,.78,2.14v4.56h-.95Zm-10.79,.07c-.55,0-1.03-.09-1.44-.27-.4-.19-.71-.44-.92-.76-.21-.33-.32-.7-.32-1.12,0-.38,.09-.73,.27-1.04,.19-.32,.49-.57,.9-.76,.42-.2,.98-.29,1.68-.29h2.53v.74h-2.51c-.71,0-1.2,.13-1.48,.38-.27,.25-.41,.56-.41,.94,0,.42,.16,.76,.49,1.01,.33,.25,.78,.38,1.37,.38s1.04-.13,1.44-.38c.41-.26,.71-.63,.9-1.12l.22,.69c-.19,.49-.51,.87-.98,1.16-.46,.29-1.04,.43-1.74,.43Zm2.53-.07v-1.62l-.04-.27v-2.72c0-.63-.18-1.11-.53-1.44-.35-.34-.86-.5-1.55-.5-.48,0-.93,.08-1.36,.24-.43,.16-.79,.37-1.09,.63l-.45-.74c.37-.32,.82-.56,1.34-.73,.52-.18,1.07-.27,1.65-.27,.95,0,1.68,.24,2.2,.71,.52,.47,.78,1.18,.78,2.14v4.56h-.95Zm-7.87-8.97c-.21,0-.38-.07-.52-.21s-.21-.31-.21-.5,.07-.36,.21-.49c.14-.14,.31-.21,.52-.21s.38,.07,.52,.2c.14,.13,.21,.29,.21,.49s-.07,.38-.21,.52c-.13,.14-.3,.21-.52,.21Zm-1.67,11.76c-.3,0-.58-.04-.85-.13-.28-.07-.51-.19-.7-.35l.35-.76c.3,.25,.68,.38,1.15,.38,.39,0,.69-.12,.9-.35,.21-.23,.32-.58,.32-1.04v-7.9h.99v7.9c0,.68-.19,1.22-.56,1.62-.36,.41-.9,.62-1.6,.62Zm-8.59-3.63c.58,0,1.08-.15,1.51-.46,.43-.32,.77-.77,1.01-1.37,.24-.61,.36-1.35,.36-2.23s-.12-1.61-.36-2.21c-.24-.61-.58-1.06-1.01-1.37-.43-.32-.93-.48-1.51-.48s-1.06,.16-1.5,.48c-.44,.31-.78,.77-1.02,1.37-.24,.6-.36,1.33-.36,2.21s.12,1.62,.36,2.23c.24,.6,.58,1.05,1.02,1.37,.44,.31,.94,.46,1.5,.46Zm0,.92c-.76,0-1.43-.2-2.02-.59-.59-.4-1.05-.97-1.39-1.71-.34-.75-.5-1.64-.5-2.69s.17-1.94,.5-2.67c.34-.75,.8-1.32,1.39-1.71,.59-.4,1.26-.6,2.02-.6s1.43,.2,2.02,.6c.59,.39,1.05,.96,1.39,1.71,.35,.74,.52,1.63,.52,2.67s-.17,1.94-.52,2.69c-.34,.74-.8,1.31-1.39,1.71-.59,.39-1.26,.59-2.02,.59Zm-7.26-.08v-9.38l.45,.48h-2.76v-.9h3.32v9.8h-1.01Zm-10.9,.07c-.55,0-1.03-.09-1.44-.27-.4-.19-.71-.44-.92-.76-.21-.33-.32-.7-.32-1.12,0-.38,.09-.73,.27-1.04,.19-.32,.49-.57,.9-.76,.42-.2,.98-.29,1.68-.29h2.53v.74h-2.51c-.71,0-1.2,.13-1.48,.38-.27,.25-.41,.56-.41,.94,0,.42,.16,.76,.49,1.01,.33,.25,.78,.38,1.37,.38s1.04-.13,1.44-.38c.41-.26,.71-.63,.9-1.12l.22,.69c-.19,.49-.51,.87-.98,1.16-.46,.29-1.04,.43-1.74,.43Zm2.53-.07v-1.62l-.04-.27v-2.72c0-.63-.18-1.11-.53-1.44-.35-.34-.86-.5-1.55-.5-.48,0-.93,.08-1.36,.24-.43,.16-.79,.37-1.09,.63l-.45-.74c.37-.32,.82-.56,1.34-.73,.52-.18,1.07-.27,1.65-.27,.95,0,1.68,.24,2.2,.71,.52,.47,.78,1.18,.78,2.14v4.56h-.95Zm-10.31-7.42c.6,0,1.12,.12,1.57,.35,.46,.22,.81,.57,1.06,1.04,.26,.47,.39,1.05,.39,1.76v4.27h-.99v-4.17c0-.77-.2-1.36-.59-1.75-.38-.4-.92-.6-1.62-.6-.52,0-.98,.11-1.37,.32-.38,.21-.68,.51-.9,.91-.21,.39-.31,.87-.31,1.43v3.86h-.99v-7.35h.95v2.02l-.15-.38c.23-.53,.61-.95,1.12-1.25,.51-.31,1.12-.46,1.83-.46Zm-7.02-1.55c-.21,0-.38-.07-.52-.21s-.21-.31-.21-.5,.07-.36,.21-.49c.14-.14,.31-.21,.52-.21s.38,.07,.52,.2,.21,.29,.21,.49-.07,.38-.21,.52c-.13,.14-.3,.21-.52,.21Zm-1.67,11.76c-.3,0-.58-.04-.85-.13-.28-.07-.51-.19-.7-.35l.35-.76c.3,.25,.68,.38,1.15,.38,.39,0,.69-.12,.9-.35,.21-.23,.32-.58,.32-1.04v-7.9h.99v7.9c0,.68-.19,1.22-.56,1.62-.36,.41-.9,.62-1.6,.62Zm-2.16-11.76c-.21,0-.38-.07-.52-.21-.14-.14-.21-.31-.21-.5s.07-.36,.21-.49c.14-.14,.31-.21,.52-.21s.38,.07,.52,.2c.14,.13,.21,.29,.21,.49s-.07,.38-.21,.52c-.13,.14-.3,.21-.52,.21Zm-.5,8.97v-7.35h.99v7.35h-.99Zm-5.76-.81c.52,0,.99-.12,1.4-.35,.41-.24,.74-.58,.98-1.01,.24-.44,.36-.94,.36-1.51s-.12-1.08-.36-1.51c-.24-.43-.57-.76-.98-.99-.41-.24-.88-.36-1.4-.36s-.99,.12-1.41,.36c-.41,.23-.74,.56-.98,.99-.23,.43-.35,.93-.35,1.51s.12,1.07,.35,1.51c.24,.43,.57,.77,.98,1.01,.42,.23,.89,.35,1.41,.35Zm-3.72,.81v-10.39h.99v5.21l-.14,1.48,.1,1.48v2.21h-.95Zm3.79,.07c-.64,0-1.22-.14-1.74-.43-.51-.3-.92-.73-1.22-1.29-.3-.56-.45-1.24-.45-2.03s.15-1.48,.45-2.03c.31-.56,.72-.98,1.23-1.27,.51-.29,1.09-.43,1.72-.43,.7,0,1.33,.16,1.88,.48,.56,.31,1,.74,1.32,1.3,.32,.56,.48,1.21,.48,1.96s-.16,1.39-.48,1.96c-.32,.56-.76,1-1.32,1.32-.55,.32-1.18,.48-1.88,.48Zm-11.22-.07v-10.39h.99v10.39h-.99Zm-9.63-2.62l.31-.84h5.7l.31,.84h-6.31Zm-1.76,2.62l4.48-9.8h1.02l4.48,9.8h-1.09l-4.12-9.2h.42l-4.12,9.2h-1.08Z"/></g></svg>