<?xml version="1.0" encoding="UTF-8"?>
<svg id="Layer_2" data-name="Layer 2" xmlns="http://www.w3.org/2000/svg" viewBox="0 0 151.93 55.02">
  <defs>
    <style>
      .cls-1 {
        fill: #fff;
      }
    </style>
  </defs>
  <g id="Layer_1-2" data-name="Layer 1">
    <g>
      <path class="cls-1" d="M.82,1.14H3.68l4.54,5.84V1.14h3.03V12.18h-2.68L3.85,6.12v6.06H.82V1.14Z"/>
      <path class="cls-1" d="M12.69,7.95v-.03c0-2.49,1.78-4.47,4.31-4.47,2.95,0,4.31,2.16,4.31,4.67,0,.19,0,.41-.02,.62h-5.71c.24,.93,.92,1.4,1.85,1.4,.71,0,1.28-.27,1.89-.87l1.66,1.37c-.82,1.04-2,1.74-3.71,1.74-2.68,0-4.58-1.78-4.58-4.43Zm5.81-.74c-.11-.95-.66-1.55-1.48-1.55s-1.33,.62-1.48,1.55h2.97Z"/>
      <path class="cls-1" d="M21.37,14.64v-1.99c.13,.02,.27,.02,.39,.02,.58,0,.88-.25,.88-.99V3.64h3V11.8c0,2.16-1.1,2.95-3.04,2.95-.47,0-.87-.06-1.23-.11ZM22.59,.66h3.12V2.87h-3.12V.66Z"/>
      <path class="cls-1" d="M27.35,3.64h3v1.17c.55-.71,1.34-1.36,2.54-1.36,1.14,0,2,.5,2.46,1.39,.74-.85,1.61-1.39,2.86-1.39,1.81,0,2.92,1.14,2.92,3.12v5.6h-3V7.54c0-.93-.46-1.42-1.17-1.42s-1.23,.49-1.23,1.42v4.64h-3V7.54c0-.93-.46-1.42-1.17-1.42s-1.21,.49-1.21,1.42v4.64h-3V3.64Z"/>
      <path class="cls-1" d="M42.33,7.95v-.03c0-2.43,1.99-4.47,4.73-4.47s4.7,2,4.7,4.43v.03c0,2.43-1.99,4.46-4.73,4.46s-4.7-2-4.7-4.43Zm6.52,0v-.03c0-1.04-.76-1.93-1.81-1.93s-1.78,.87-1.78,1.89v.03c0,1.04,.76,1.92,1.81,1.92s1.78-.87,1.78-1.89Z"/>
      <path class="cls-1" d="M52.72,7.95v-.03c0-2.78,1.74-4.47,3.75-4.47,1.29,0,2.05,.58,2.62,1.23V.66h3V12.18h-3v-1.14c-.58,.71-1.33,1.33-2.6,1.33-2.02,0-3.77-1.69-3.77-4.42Zm6.42-.03v-.03c0-1.12-.77-1.92-1.74-1.92s-1.75,.79-1.75,1.92v.03c0,1.14,.79,1.94,1.75,1.94s1.74-.8,1.74-1.94Z"/>
      <path class="cls-1" d="M63.36,7.95v-.03c0-2.49,1.78-4.47,4.31-4.47,2.95,0,4.31,2.16,4.31,4.67,0,.19,0,.41-.02,.62h-5.71c.24,.93,.92,1.4,1.85,1.4,.71,0,1.28-.27,1.89-.87l1.66,1.37c-.82,1.04-2,1.74-3.71,1.74-2.68,0-4.58-1.78-4.58-4.43Zm5.81-.74c-.11-.95-.66-1.55-1.48-1.55s-1.33,.62-1.48,1.55h2.97Z"/>
      <path class="cls-1" d="M73.25,3.64h3v1.72c.49-1.17,1.28-1.92,2.7-1.86v3.16h-.25c-1.56,0-2.45,.9-2.45,2.87v2.65h-3V3.64Z"/>
      <path class="cls-1" d="M80.01,3.64h3v1.2c.55-.71,1.34-1.39,2.56-1.39,1.81,0,2.9,1.2,2.9,3.14v5.59h-3V7.56c0-.93-.49-1.44-1.2-1.44s-1.26,.5-1.26,1.44v4.62h-3V3.64Z"/>
      <path class="cls-1" d="M98.87,8.66h-6.22c.25,.87,.99,1.37,2.1,1.37,.84,0,1.39-.24,1.97-.74l1.58,1.64c-.82,.92-2.02,1.39-3.64,1.39-3.04,0-5.02-1.88-5.02-4.43s2-4.4,4.7-4.4c2.52,0,4.58,1.61,4.58,4.43,0,.22-.03,.5-.05,.74Zm-5.89-6.06l-2.05-2.4h1.99l1.36,1.2,1.36-1.2h1.99l-2.05,2.4h-2.59Zm-.38,4.48h3.5c-.16-.9-.82-1.47-1.75-1.47s-1.58,.57-1.75,1.47Z"/>
      <path class="cls-1" d="M98.93,14.64v-1.99c.13,.02,.27,.02,.39,.02,.58,0,.88-.25,.88-.99V3.64h3V11.8c0,2.16-1.1,2.95-3.04,2.95-.47,0-.87-.06-1.23-.11Zm1.21-13.98h3.12V2.87h-3.12V.66Z"/>
      <path class="cls-1" d="M104.27,11.11l1.12-1.81c.98,.65,2.05,.98,2.93,.98,.52,0,.76-.16,.76-.46v-.03c0-.33-.47-.47-1.37-.73-1.69-.44-3.03-1.01-3.03-2.73v-.03c0-1.81,1.45-2.82,3.42-2.82,1.25,0,2.54,.36,3.52,.99l-1.03,1.89c-.88-.49-1.85-.79-2.52-.79-.46,0-.69,.17-.69,.41v.03c0,.33,.49,.49,1.39,.76,1.69,.47,3.03,1.06,3.03,2.71v.03c0,1.88-1.4,2.86-3.49,2.86-1.44,0-2.86-.41-4.04-1.26Zm.69-10.79h1.93l1.33,.96,1.33-.96h1.89l-2.02,2.6h-2.43l-2.02-2.6Z"/>
      <path class="cls-1" d="M113.09,3.64h3V12.18h-3V3.64Zm1.92-3.64l2.79,.9-2.32,2.02h-2.11l1.64-2.92Z"/>
      <path class="cls-1" d="M0,31.24l1.12-1.81c.98,.65,2.05,.98,2.93,.98,.52,0,.76-.16,.76-.46v-.03c0-.33-.47-.47-1.37-.73-1.69-.44-3.03-1.01-3.03-2.73v-.03c0-1.81,1.45-2.82,3.42-2.82,1.25,0,2.54,.36,3.52,.99l-1.03,1.89c-.88-.49-1.85-.79-2.52-.79-.46,0-.69,.17-.69,.41v.03c0,.33,.49,.49,1.39,.76,1.69,.47,3.03,1.06,3.03,2.71v.03c0,1.88-1.4,2.86-3.49,2.86-1.44,0-2.86-.41-4.04-1.26Z"/>
      <path class="cls-1" d="M9.12,29.66v-3.47h-1.01v-2.41h1.01v-2.16h3v2.16h1.99v2.41h-1.99v2.89c0,.6,.27,.85,.82,.85,.39,0,.77-.11,1.14-.28v2.35c-.54,.3-1.25,.49-2.08,.49-1.8,0-2.87-.79-2.87-2.82Z"/>
      <path class="cls-1" d="M17.12,22.74l-2.05-2.4h1.99l1.36,1.2,1.36-1.2h1.99l-2.05,2.4h-2.59Zm4.17,.88v2.7c-.27-.03-.46-.05-.68-.05-1.22,0-2.05,.62-2.05,2.11v3.93h-3v-8.55h2.86v1.03c.62-.77,1.61-1.17,2.87-1.17Z"/>
      <path class="cls-1" d="M22.05,28.08v-.03c0-2.49,1.78-4.47,4.31-4.47,2.95,0,4.31,2.16,4.31,4.67,0,.19,0,.41-.02,.62h-5.71c.24,.93,.92,1.4,1.85,1.4,.71,0,1.28-.27,1.89-.87l1.66,1.37c-.82,1.04-2,1.74-3.71,1.74-2.68,0-4.58-1.78-4.58-4.43Zm5.81-.74c-.11-.95-.66-1.55-1.48-1.55s-1.33,.62-1.48,1.55h2.97Z"/>
      <path class="cls-1" d="M32.01,20.79h3v11.52h-3v-11.52Z"/>
      <path class="cls-1" d="M36.68,23.78h3v1.2c.55-.71,1.34-1.39,2.56-1.39,1.81,0,2.9,1.2,2.9,3.14v5.59h-3v-4.62c0-.93-.49-1.44-1.2-1.44s-1.26,.5-1.26,1.44v4.62h-3v-8.54Z"/>
      <path class="cls-1" d="M46.69,20.79h3.12v2.21h-3.12v-2.21Zm.06,2.98h3v8.54h-3v-8.54Z"/>
      <path class="cls-1" d="M51.08,28.08v-.03c0-2.41,1.88-4.45,4.58-4.45,1.75,0,2.92,.76,3.64,1.91l-2.04,1.51c-.41-.57-.87-.9-1.59-.9-.96,0-1.67,.85-1.67,1.89v.03c0,1.1,.69,1.94,1.7,1.94,.71,0,1.17-.33,1.64-.88l2,1.45c-.79,1.17-1.92,1.96-3.8,1.96-2.57,0-4.46-2.02-4.46-4.43Z"/>
      <path class="cls-1" d="M59.82,28.08v-.03c0-2.49,1.78-4.47,4.31-4.47,2.95,0,4.31,2.16,4.31,4.67,0,.19,0,.41-.02,.62h-5.71c.24,.93,.92,1.4,1.85,1.4,.71,0,1.28-.27,1.89-.87l1.66,1.37c-.82,1.04-2,1.74-3.71,1.74-2.68,0-4.58-1.78-4.58-4.43Zm5.81-.74c-.11-.95-.66-1.55-1.48-1.55s-1.33,.62-1.48,1.55h2.97Z"/>
      <path class="cls-1" d="M73.66,29.87v-.03c0-1.77,1.34-2.68,3.34-2.68,.79,0,1.56,.16,2.05,.33v-.14c0-.88-.55-1.39-1.7-1.39-.9,0-1.59,.17-2.35,.47l-.62-2.11c.96-.39,1.99-.66,3.46-.66s2.57,.36,3.25,1.04c.65,.63,.92,1.51,.92,2.71v4.91h-2.97v-.88c-.58,.65-1.39,1.07-2.51,1.07-1.62,0-2.87-.93-2.87-2.63Zm5.43-.65v-.39c-.3-.13-.73-.22-1.17-.22-.87,0-1.37,.43-1.37,1.06v.03c0,.58,.44,.93,1.06,.93,.87,0,1.48-.55,1.48-1.4Z"/>
      <path class="cls-1" d="M87.92,23.78h3v1.2c.55-.71,1.34-1.39,2.56-1.39,1.81,0,2.9,1.2,2.9,3.14v5.59h-3v-4.62c0-.93-.49-1.44-1.2-1.44s-1.26,.5-1.26,1.44v4.62h-3v-8.54Z"/>
      <path class="cls-1" d="M97.58,28.08v-.03c0-2.49,1.78-4.47,4.31-4.47,2.95,0,4.31,2.16,4.31,4.67,0,.19,0,.41-.02,.62h-5.71c.24,.93,.92,1.4,1.85,1.4,.71,0,1.28-.27,1.89-.87l1.66,1.37c-.82,1.04-2,1.74-3.71,1.74-2.68,0-4.58-1.78-4.58-4.43Zm5.81-.74c-.11-.95-.66-1.55-1.48-1.55s-1.33,.62-1.48,1.55h2.97Z"/>
      <path class="cls-1" d="M106.26,34.77v-1.99c.13,.02,.27,.02,.39,.02,.58,0,.88-.25,.88-.99v-8.03h3v8.16c0,2.16-1.1,2.95-3.04,2.95-.47,0-.87-.06-1.23-.11Zm1.21-13.98h3.12v2.21h-3.12v-2.21Z"/>
      <path class="cls-1" d="M111.59,23.78h3.16l1.64,4.99,1.64-4.99h3.11l-3.41,8.6h-2.73l-3.41-8.6Z"/>
      <path class="cls-1" d="M130.96,28.79h-6.22c.25,.87,.99,1.37,2.1,1.37,.84,0,1.39-.24,1.97-.74l1.58,1.64c-.82,.92-2.02,1.39-3.64,1.39-3.04,0-5.02-1.88-5.02-4.43s2-4.4,4.7-4.4c2.52,0,4.58,1.61,4.58,4.43,0,.22-.03,.5-.05,.74Zm-5.89-6.06l-2.05-2.4h1.99l1.36,1.2,1.36-1.2h1.99l-2.05,2.4h-2.59Zm-.38,4.48h3.5c-.16-.9-.82-1.47-1.75-1.47s-1.58,.57-1.75,1.47Z"/>
      <path class="cls-1" d="M132.76,29.66v-3.47h-1.01v-2.41h1.01v-2.16h3v2.16h1.99v2.41h-1.99v2.89c0,.6,.27,.85,.82,.85,.39,0,.77-.11,1.14-.28v2.35c-.54,.3-1.25,.49-2.08,.49-1.8,0-2.87-.79-2.87-2.82Z"/>
      <path class="cls-1" d="M138.39,31.24l1.12-1.81c.98,.65,2.05,.98,2.93,.98,.52,0,.76-.16,.76-.46v-.03c0-.33-.47-.47-1.37-.73-1.69-.44-3.03-1.01-3.03-2.73v-.03c0-1.81,1.45-2.82,3.42-2.82,1.25,0,2.54,.36,3.52,.99l-1.03,1.89c-.88-.49-1.85-.79-2.52-.79-.46,0-.69,.17-.69,.41v.03c0,.33,.49,.49,1.39,.76,1.69,.47,3.03,1.06,3.03,2.71v.03c0,1.88-1.4,2.86-3.49,2.86-1.44,0-2.86-.41-4.04-1.26Zm.69-10.79h1.93l1.33,.96,1.33-.96h1.89l-2.02,2.6h-2.43l-2.02-2.6Z"/>
      <path class="cls-1" d="M147.22,23.78h3v8.54h-3v-8.54Zm1.92-3.64l2.79,.9-2.32,2.02h-2.11l1.64-2.92Z"/>
      <path class="cls-1" d="M0,43.91H3.16l1.64,4.99,1.64-4.99h3.11l-3.41,8.6H3.41L0,43.91Z"/>
      <path class="cls-1" d="M10.29,54.27l.93-2.1c.47,.28,.98,.46,1.31,.46,.3,0,.5-.08,.69-.35l-3.34-8.38h3.14l1.7,5.14,1.61-5.14h3.08l-3.12,8.33c-.74,1.99-1.55,2.78-3.25,2.78-1.06,0-1.96-.3-2.75-.74Zm4.62-14.01l2.79,.9-2.32,2.02h-2.11l1.64-2.92Z"/>
      <path class="cls-1" d="M23.39,51.4v1.04h-3v-11.52h3v4.12c.58-.71,1.31-1.33,2.59-1.33,2.04,0,3.79,1.69,3.79,4.42v.03c0,2.78-1.75,4.47-3.77,4.47-1.29,0-2.05-.58-2.6-1.23Zm3.42-3.22v-.03c0-1.12-.77-1.92-1.75-1.92s-1.74,.8-1.74,1.92v.03c0,1.14,.77,1.94,1.74,1.94s1.75-.79,1.75-1.94Z"/>
      <path class="cls-1" d="M39.91,48.93h-6.22c.25,.87,.99,1.37,2.1,1.37,.84,0,1.39-.24,1.97-.74l1.58,1.64c-.82,.92-2.02,1.39-3.64,1.39-3.04,0-5.02-1.88-5.02-4.43s2-4.4,4.7-4.4c2.52,0,4.58,1.61,4.58,4.43,0,.22-.03,.5-.05,.74Zm-5.89-6.06l-2.05-2.4h1.99l1.36,1.2,1.36-1.2h1.99l-2.05,2.4h-2.59Zm-.38,4.48h3.5c-.16-.9-.82-1.47-1.75-1.47s-1.58,.57-1.75,1.47Z"/>
      <path class="cls-1" d="M41.2,43.91h3v1.72c.49-1.17,1.28-1.92,2.7-1.86v3.16h-.25c-1.56,0-2.45,.9-2.45,2.87v2.65h-3v-8.54Z"/>
      <path class="cls-1" d="M52.02,50.47l3.94-4.18h-3.8v-2.38h7.78v1.97l-3.96,4.18h3.96v2.38h-7.92v-1.97Z"/>
      <path class="cls-1" d="M64.21,51.4v1.04h-3v-11.52h3v4.12c.58-.71,1.31-1.33,2.59-1.33,2.04,0,3.79,1.69,3.79,4.42v.03c0,2.78-1.75,4.47-3.77,4.47-1.29,0-2.05-.58-2.6-1.23Zm3.42-3.22v-.03c0-1.12-.77-1.92-1.75-1.92s-1.74,.8-1.74,1.92v.03c0,1.14,.77,1.94,1.74,1.94s1.75-.79,1.75-1.94Z"/>
      <path class="cls-1" d="M71.88,43.91h3v1.72c.49-1.17,1.28-1.92,2.7-1.86v3.16h-.25c-1.56,0-2.45,.9-2.45,2.87v2.65h-3v-8.54Z"/>
      <path class="cls-1" d="M77.81,50v-.03c0-1.77,1.34-2.68,3.34-2.68,.79,0,1.56,.16,2.05,.33v-.14c0-.88-.55-1.39-1.7-1.39-.9,0-1.59,.17-2.35,.47l-.62-2.11c.96-.39,1.99-.66,3.46-.66s2.57,.36,3.25,1.04c.65,.63,.92,1.51,.92,2.71v4.91h-2.97v-.88c-.58,.65-1.39,1.07-2.51,1.07-1.62,0-2.87-.93-2.87-2.63Zm5.43-.65v-.39c-.3-.13-.73-.22-1.17-.22-.87,0-1.37,.43-1.37,1.06v.03c0,.58,.44,.93,1.06,.93,.87,0,1.48-.55,1.48-1.4Z"/>
      <path class="cls-1" d="M87.69,43.91h3v1.2c.55-.71,1.34-1.39,2.56-1.39,1.81,0,2.9,1.2,2.9,3.14v5.59h-3v-4.62c0-.93-.49-1.44-1.2-1.44s-1.26,.5-1.26,1.44v4.62h-3v-8.54Z"/>
      <path class="cls-1" d="M97.76,43.91h3v8.54h-3v-8.54Zm1.92-3.64l2.79,.9-2.32,2.02h-2.11l1.64-2.92Z"/>
      <path class="cls-1" d="M106.16,43.91h3.16l1.64,4.99,1.64-4.99h3.11l-3.41,8.6h-2.73l-3.41-8.6Z"/>
      <path class="cls-1" d="M129.61,48.78l1.99,1.8c-1.07,1.34-2.71,2.08-4.75,2.08-3.5,0-6.07-2.38-6.07-5.74s2.57-5.74,6.07-5.74c2.04,0,3.68,.74,4.75,2.08l-1.99,1.8c-.69-.84-1.55-1.29-2.6-1.29-1.81,0-3.08,1.26-3.08,3.16s1.26,3.16,3.08,3.16c1.06,0,1.91-.46,2.6-1.29Zm-4.1-8.3l-2.05-2.4h1.99l1.36,1.2,1.36-1.2h1.99l-2.05,2.4h-2.59Z"/>
      <path class="cls-1" d="M132.87,41.4h5.22c1.69,0,2.86,.44,3.6,1.2,.65,.63,.98,1.48,.98,2.57v.03c0,1.69-.9,2.81-2.27,3.39l2.63,3.85h-3.53l-2.22-3.34h-1.34v3.34h-3.06v-11.04Zm5.08,5.3c1.04,0,1.64-.5,1.64-1.31v-.03c0-.87-.63-1.31-1.66-1.31h-2v2.65h2.02Z"/>
    </g>
  </g>
</svg>