<?xml version="1.0" encoding="UTF-8"?>
<svg id="Layer_2" data-name="Layer 2" xmlns="http://www.w3.org/2000/svg" viewBox="0 0 151.4 49.12">
  <defs>
    <style>
      .cls-1 {
        fill: #fff;
      }
    </style>
  </defs>
  <g id="Layer_1-2" data-name="Layer 1">
    <g>
      <path class="cls-1" d="M0,9.86l1.59-1.9c1.02,.81,2.15,1.24,3.34,1.24,.76,0,1.18-.26,1.18-.71v-.03c0-.43-.34-.66-1.74-.99C2.18,6.97,.49,6.35,.49,4.24v-.03C.49,2.29,2,.91,4.47,.91c1.75,0,3.12,.47,4.24,1.37l-1.43,2.02c-.94-.66-1.97-1.02-2.88-1.02-.69,0-1.03,.29-1.03,.66v.03c0,.47,.35,.68,1.78,1,2.37,.52,3.84,1.28,3.84,3.21v.03c0,2.1-1.66,3.35-4.16,3.35-1.82,0-3.56-.57-4.82-1.71Z"/>
      <path class="cls-1" d="M10.55,8.91v-3.24h-.94V3.43h.94V1.41h2.79V3.43h1.85v2.25h-1.85v2.69c0,.56,.25,.79,.76,.79,.37,0,.72-.1,1.06-.26v2.19c-.5,.28-1.16,.46-1.94,.46-1.68,0-2.68-.74-2.68-2.63Z"/>
      <path class="cls-1" d="M18.01,2.46L16.1,.22h1.85l1.26,1.12,1.26-1.12h1.85l-1.91,2.24h-2.41Zm3.88,.82v2.52c-.25-.03-.43-.04-.63-.04-1.13,0-1.91,.57-1.91,1.97v3.66h-2.79V3.41h2.66v.96c.57-.72,1.5-1.09,2.68-1.09Z"/>
      <path class="cls-1" d="M22.6,7.44v-.03c0-2.32,1.66-4.16,4.02-4.16,2.75,0,4.02,2.02,4.02,4.35,0,.18,0,.38-.01,.57h-5.33c.22,.87,.85,1.31,1.72,1.31,.66,0,1.19-.25,1.76-.81l1.54,1.28c-.77,.97-1.87,1.62-3.46,1.62-2.5,0-4.27-1.66-4.27-4.13Zm5.41-.69c-.1-.88-.62-1.44-1.38-1.44s-1.24,.57-1.38,1.44h2.77Z"/>
      <path class="cls-1" d="M31.89,.65h2.79V11.39h-2.79V.65Z"/>
      <path class="cls-1" d="M39.04,10.41v.97h-2.79V.65h2.79v3.84c.54-.66,1.22-1.24,2.41-1.24,1.9,0,3.53,1.57,3.53,4.12v.03c0,2.59-1.63,4.16-3.52,4.16-1.21,0-1.91-.54-2.43-1.15Zm3.19-3v-.03c0-1.04-.72-1.79-1.63-1.79s-1.62,.75-1.62,1.79v.03c0,1.06,.72,1.81,1.62,1.81s1.63-.74,1.63-1.81Z"/>
      <path class="cls-1" d="M45.8,9.11v-.03c0-1.65,1.25-2.5,3.12-2.5,.74,0,1.46,.15,1.91,.31v-.13c0-.82-.51-1.29-1.59-1.29-.84,0-1.49,.16-2.19,.44l-.57-1.97c.9-.37,1.85-.62,3.22-.62s2.4,.34,3.03,.97c.6,.59,.85,1.41,.85,2.53v4.57h-2.77v-.82c-.54,.6-1.29,1-2.34,1-1.52,0-2.68-.87-2.68-2.46Zm5.06-.6v-.37c-.28-.12-.68-.21-1.09-.21-.81,0-1.28,.4-1.28,.99v.03c0,.54,.41,.87,.99,.87,.81,0,1.38-.52,1.38-1.31Z"/>
      <path class="cls-1" d="M59.09,3.43h2.79v1.06c.54-.66,1.22-1.24,2.41-1.24,1.9,0,3.53,1.57,3.53,4.12v.03c0,2.59-1.63,4.16-3.52,4.16-1.21,0-1.91-.54-2.43-1.15v3.32h-2.79V3.43Zm5.99,3.99v-.03c0-1.04-.72-1.79-1.63-1.79s-1.62,.75-1.62,1.79v.03c0,1.06,.72,1.81,1.62,1.81s1.63-.74,1.63-1.81Z"/>
      <path class="cls-1" d="M69.03,3.43h2.79v1.6c.46-1.09,1.19-1.79,2.52-1.74v2.94h-.24c-1.46,0-2.28,.84-2.28,2.68v2.47h-2.79V3.43Z"/>
      <path class="cls-1" d="M74.86,7.44v-.03c0-2.27,1.85-4.16,4.41-4.16s4.38,1.87,4.38,4.13v.03c0,2.27-1.85,4.16-4.41,4.16s-4.38-1.87-4.38-4.13Zm6.08,0v-.03c0-.97-.71-1.79-1.69-1.79s-1.66,.81-1.66,1.77v.03c0,.97,.71,1.79,1.69,1.79s1.66-.81,1.66-1.76Z"/>
      <path class="cls-1" d="M88.92,.65h2.79V6.09l2.16-2.66h3.16l-2.77,3.19,2.84,4.77h-3.07l-1.6-2.71-.72,.84v1.87h-2.79V.65Z"/>
      <path class="cls-1" d="M97.25,9.11v-.03c0-1.65,1.25-2.5,3.12-2.5,.74,0,1.46,.15,1.91,.31v-.13c0-.82-.51-1.29-1.59-1.29-.84,0-1.49,.16-2.19,.44l-.57-1.97c.9-.37,1.85-.62,3.22-.62s2.4,.34,3.03,.97c.6,.59,.85,1.41,.85,2.53v4.57h-2.77v-.82c-.54,.6-1.29,1-2.34,1-1.52,0-2.68-.87-2.68-2.46Zm5.06-.6v-.37c-.28-.12-.68-.21-1.09-.21-.81,0-1.28,.4-1.28,.99v.03c0,.54,.41,.87,.99,.87,.81,0,1.38-.52,1.38-1.31Z"/>
      <path class="cls-1" d="M106.18,9.55l3.68-3.9h-3.54V3.43h7.25v1.84l-3.69,3.9h3.69v2.22h-7.38v-1.84Zm.69-9.22h1.79l1.24,.9,1.24-.9h1.77l-1.88,2.43h-2.27l-1.88-2.43Z"/>
      <path class="cls-1" d="M114.45,7.44v-.03c0-2.59,1.62-4.16,3.5-4.16,1.21,0,1.91,.54,2.44,1.15V.65h2.79V11.39h-2.79v-1.06c-.54,.66-1.24,1.24-2.43,1.24-1.88,0-3.52-1.57-3.52-4.12Zm5.99-.03v-.03c0-1.04-.72-1.79-1.62-1.79s-1.63,.74-1.63,1.79v.03c0,1.06,.74,1.81,1.63,1.81s1.62-.75,1.62-1.81Z"/>
      <path class="cls-1" d="M124.37,7.44v-.03c0-2.32,1.66-4.16,4.02-4.16,2.75,0,4.02,2.02,4.02,4.35,0,.18,0,.38-.01,.57h-5.33c.22,.87,.85,1.31,1.72,1.31,.66,0,1.19-.25,1.76-.81l1.54,1.28c-.77,.97-1.87,1.62-3.46,1.62-2.5,0-4.27-1.66-4.27-4.13Zm5.41-.69c-.1-.88-.62-1.44-1.38-1.44s-1.24,.57-1.38,1.44h2.77Zm-.96-6.75l2.6,.84-2.16,1.88h-1.97l1.53-2.72Z"/>
      <path class="cls-1" d="M133.6,.65h2.79v3.87c.51-.66,1.25-1.27,2.38-1.27,1.69,0,2.71,1.12,2.71,2.93v5.21h-2.79V7.08c0-.87-.46-1.34-1.12-1.34s-1.18,.47-1.18,1.34v4.31h-2.79V.65Z"/>
      <path class="cls-1" d="M142.6,7.44v-.03c0-2.27,1.85-4.16,4.41-4.16s4.38,1.87,4.38,4.13v.03c0,2.27-1.85,4.16-4.41,4.16s-4.38-1.87-4.38-4.13Zm6.08,0v-.03c0-.97-.71-1.79-1.69-1.79s-1.66,.81-1.66,1.77v.03c0,.97,.71,1.79,1.69,1.79s1.66-.81,1.66-1.76Z"/>
      <path class="cls-1" d="M.62,22.2H3.41v1.06c.54-.66,1.22-1.24,2.41-1.24,1.9,0,3.53,1.57,3.53,4.12v.03c0,2.59-1.63,4.16-3.52,4.16-1.21,0-1.91-.54-2.43-1.15v3.32H.62v-10.31Zm5.99,3.99v-.03c0-1.04-.72-1.79-1.63-1.79s-1.62,.75-1.62,1.79v.03c0,1.06,.72,1.81,1.62,1.81s1.63-.74,1.63-1.81Z"/>
      <path class="cls-1" d="M10.24,26.21v-.03c0-2.27,1.85-4.16,4.41-4.16s4.38,1.87,4.38,4.13v.03c0,2.27-1.85,4.16-4.41,4.16s-4.38-1.87-4.38-4.13Zm6.08,0v-.03c0-.97-.71-1.79-1.69-1.79s-1.66,.81-1.66,1.77v.03c0,.97,.71,1.79,1.69,1.79s1.66-.81,1.66-1.77Z"/>
      <path class="cls-1" d="M19.93,26.21v-.03c0-2.59,1.62-4.16,3.5-4.16,1.21,0,1.91,.54,2.44,1.15v-3.75h2.79v10.74h-2.79v-1.06c-.54,.66-1.24,1.24-2.43,1.24-1.88,0-3.52-1.57-3.52-4.12Zm5.99-.03v-.03c0-1.04-.72-1.79-1.62-1.79s-1.63,.74-1.63,1.79v.03c0,1.06,.74,1.81,1.63,1.81s1.62-.75,1.62-1.81Z"/>
      <path class="cls-1" d="M34.24,22.2h2.79v1.06c.54-.66,1.22-1.24,2.41-1.24,1.9,0,3.53,1.57,3.53,4.12v.03c0,2.59-1.63,4.16-3.52,4.16-1.21,0-1.91-.54-2.43-1.15v3.32h-2.79v-10.31Zm5.99,3.99v-.03c0-1.04-.72-1.79-1.63-1.79s-1.62,.75-1.62,1.79v.03c0,1.06,.72,1.81,1.62,1.81s1.63-.74,1.63-1.81Z"/>
      <path class="cls-1" d="M44.19,22.2h2.79v1.6c.46-1.09,1.19-1.79,2.52-1.74v2.94h-.24c-1.46,0-2.28,.84-2.28,2.68v2.47h-2.79v-7.96Z"/>
      <path class="cls-1" d="M50.02,26.21v-.03c0-2.27,1.85-4.16,4.41-4.16s4.38,1.87,4.38,4.13v.03c0,2.27-1.85,4.16-4.41,4.16s-4.38-1.87-4.38-4.13Zm6.08,0v-.03c0-.97-.71-1.79-1.69-1.79s-1.66,.81-1.66,1.77v.03c0,.97,.71,1.79,1.69,1.79s1.66-.81,1.66-1.77Z"/>
      <path class="cls-1" d="M60.42,24.44h-.93v-2.19h.93v-.18c0-.91,.21-1.59,.68-2.06s1.13-.69,2.07-.69c.85,0,1.38,.09,1.82,.22v1.97c-.32-.1-.65-.16-1.04-.16-.51,0-.79,.24-.79,.75v.19h1.82v2.15h-1.78v5.72h-2.78v-5.72Z"/>
      <path class="cls-1" d="M65.4,26.21v-.03c0-2.32,1.66-4.16,4.02-4.16,2.75,0,4.02,2.02,4.02,4.35,0,.18,0,.38-.01,.57h-5.33c.22,.87,.85,1.31,1.72,1.31,.66,0,1.19-.25,1.76-.81l1.54,1.28c-.77,.97-1.87,1.62-3.46,1.62-2.5,0-4.27-1.66-4.27-4.13Zm5.41-.69c-.1-.88-.62-1.44-1.38-1.44s-1.24,.57-1.38,1.44h2.77Z"/>
      <path class="cls-1" d="M74.02,29.16l1.04-1.69c.91,.6,1.91,.91,2.74,.91,.49,0,.71-.15,.71-.43v-.03c0-.31-.44-.44-1.28-.68-1.57-.41-2.82-.94-2.82-2.54v-.03c0-1.69,1.35-2.63,3.19-2.63,1.16,0,2.37,.34,3.28,.93l-.96,1.77c-.82-.46-1.72-.74-2.35-.74-.43,0-.65,.16-.65,.38v.03c0,.31,.46,.46,1.29,.71,1.57,.44,2.82,.99,2.82,2.53v.03c0,1.75-1.31,2.66-3.25,2.66-1.34,0-2.66-.38-3.77-1.18Z"/>
      <path class="cls-1" d="M82.19,19.42h2.91v2.06h-2.91v-2.06Zm.06,2.78h2.79v7.96h-2.79v-7.96Z"/>
      <path class="cls-1" d="M86.28,26.21v-.03c0-2.27,1.85-4.16,4.41-4.16s4.38,1.87,4.38,4.13v.03c0,2.27-1.85,4.16-4.41,4.16s-4.38-1.87-4.38-4.13Zm6.08,0v-.03c0-.97-.71-1.79-1.69-1.79s-1.66,.81-1.66,1.77v.03c0,.97,.71,1.79,1.69,1.79s1.66-.81,1.66-1.77Z"/>
      <path class="cls-1" d="M96.26,22.2h2.79v1.12c.51-.66,1.25-1.29,2.38-1.29,1.69,0,2.71,1.12,2.71,2.93v5.21h-2.79v-4.31c0-.87-.46-1.34-1.12-1.34s-1.18,.47-1.18,1.34v4.31h-2.79v-7.96Z"/>
      <path class="cls-1" d="M105.19,27.88v-.03c0-1.65,1.25-2.5,3.12-2.5,.74,0,1.46,.15,1.91,.31v-.13c0-.82-.51-1.29-1.59-1.29-.84,0-1.49,.16-2.19,.44l-.57-1.97c.9-.37,1.85-.62,3.22-.62s2.4,.34,3.03,.97c.6,.59,.85,1.41,.85,2.53v4.57h-2.77v-.82c-.54,.6-1.29,1-2.34,1-1.52,0-2.68-.87-2.68-2.46Zm5.06-.6v-.37c-.28-.12-.68-.21-1.09-.21-.81,0-1.28,.4-1.28,.99v.03c0,.54,.41,.87,.99,.87,.81,0,1.38-.52,1.38-1.31Zm-.71-8.5l2.6,.84-2.16,1.88h-1.97l1.53-2.72Z"/>
      <path class="cls-1" d="M114.46,19.42h2.79v10.74h-2.79v-10.74Z"/>
      <path class="cls-1" d="M118.82,22.2h2.79v1.12c.51-.66,1.25-1.29,2.38-1.29,1.69,0,2.71,1.12,2.71,2.93v5.21h-2.79v-4.31c0-.87-.46-1.34-1.12-1.34s-1.18,.47-1.18,1.34v4.31h-2.79v-7.96Z"/>
      <path class="cls-1" d="M128.21,22.2h2.79v7.96h-2.79v-7.96Zm1.79-3.4l2.6,.84-2.16,1.88h-1.97l1.53-2.72Z"/>
      <path class="cls-1" d="M132.57,22.2h2.79v1.09c.51-.66,1.25-1.27,2.37-1.27,1.06,0,1.87,.47,2.29,1.29,.69-.79,1.5-1.29,2.66-1.29,1.69,0,2.72,1.06,2.72,2.91v5.22h-2.79v-4.32c0-.87-.43-1.32-1.09-1.32s-1.15,.46-1.15,1.32v4.32h-2.79v-4.32c0-.87-.43-1.32-1.09-1.32s-1.13,.46-1.13,1.32v4.32h-2.79v-7.96Z"/>
      <path class="cls-1" d="M.32,44.99v-.03c0-2.59,1.62-4.16,3.5-4.16,1.21,0,1.91,.54,2.44,1.15v-3.75h2.79v10.74h-2.79v-1.06c-.54,.66-1.24,1.24-2.43,1.24-1.88,0-3.52-1.57-3.52-4.12Zm5.99-.03v-.03c0-1.04-.72-1.79-1.62-1.79s-1.63,.74-1.63,1.79v.03c0,1.06,.74,1.81,1.63,1.81s1.62-.75,1.62-1.81Z"/>
      <path class="cls-1" d="M10.24,44.99v-.03c0-2.27,1.85-4.16,4.41-4.16s4.38,1.87,4.38,4.13v.03c0,2.27-1.85,4.16-4.41,4.16s-4.38-1.87-4.38-4.13Zm6.08,0v-.03c0-.97-.71-1.79-1.69-1.79s-1.66,.81-1.66,1.77v.03c0,.97,.71,1.79,1.69,1.79s1.66-.81,1.66-1.76Z"/>
      <path class="cls-1" d="M20.22,38.19h2.79v3.87c.51-.66,1.25-1.27,2.38-1.27,1.69,0,2.71,1.12,2.71,2.93v5.21h-2.79v-4.31c0-.87-.46-1.34-1.12-1.34s-1.18,.47-1.18,1.34v4.31h-2.79v-10.74Z"/>
      <path class="cls-1" d="M29.61,38.19h2.79v10.74h-2.79v-10.74Z"/>
      <path class="cls-1" d="M33.64,44.99v-.03c0-2.32,1.66-4.16,4.02-4.16,2.75,0,4.02,2.02,4.02,4.35,0,.18,0,.38-.01,.57h-5.33c.22,.87,.85,1.31,1.72,1.31,.66,0,1.19-.25,1.76-.81l1.54,1.28c-.77,.97-1.87,1.62-3.46,1.62-2.5,0-4.27-1.66-4.27-4.13Zm5.41-.69c-.1-.88-.62-1.44-1.38-1.44s-1.24,.57-1.38,1.44h2.77Z"/>
      <path class="cls-1" d="M42.57,44.99v-.03c0-2.59,1.62-4.16,3.5-4.16,1.21,0,1.91,.54,2.44,1.15v-3.75h2.79v10.74h-2.79v-1.06c-.54,.66-1.24,1.24-2.43,1.24-1.88,0-3.52-1.57-3.52-4.12Zm5.99-.03v-.03c0-1.04-.72-1.79-1.62-1.79s-1.63,.74-1.63,1.79v.03c0,1.06,.74,1.81,1.63,1.81s1.62-.75,1.62-1.81Z"/>
      <path class="cls-1" d="M52.49,44.99v-.03c0-2.32,1.66-4.16,4.02-4.16,2.75,0,4.02,2.02,4.02,4.35,0,.18,0,.38-.01,.57h-5.33c.22,.87,.85,1.31,1.72,1.31,.66,0,1.19-.25,1.76-.81l1.54,1.28c-.77,.97-1.87,1.62-3.46,1.62-2.5,0-4.27-1.66-4.27-4.13Zm5.41-.69c-.1-.88-.62-1.44-1.38-1.44s-1.24,.57-1.38,1.44h2.77Z"/>
      <path class="cls-1" d="M61.72,40.97h2.79v1.09c.51-.66,1.25-1.27,2.37-1.27,1.06,0,1.87,.47,2.29,1.29,.69-.79,1.5-1.29,2.66-1.29,1.69,0,2.72,1.06,2.72,2.91v5.22h-2.79v-4.32c0-.87-.43-1.32-1.09-1.32s-1.15,.46-1.15,1.32v4.32h-2.79v-4.32c0-.87-.43-1.32-1.09-1.32s-1.13,.46-1.13,1.32v4.32h-2.79v-7.96Z"/>
    </g>
  </g>
</svg>