<?xml version="1.0" encoding="UTF-8"?>
<svg id="Layer_2" data-name="Layer 2" xmlns="http://www.w3.org/2000/svg" viewBox="0 0 109.54 66.95">
  <defs>
    <style>
      .cls-1 {
        fill: #fff;
      }
    </style>
  </defs>
  <g id="Layer_1-2" data-name="Layer 1">
    <g>
      <path class="cls-1" d="M.78,.69H5.25V16.73H.78V.69Z"/>
      <path class="cls-1" d="M18.64,15.22v1.51h-4.35V0h4.35V5.98c.85-1.03,1.9-1.92,3.76-1.92,2.96,0,5.5,2.45,5.5,6.42v.05c0,4.03-2.54,6.49-5.48,6.49-1.88,0-2.98-.85-3.78-1.79Zm4.97-4.68v-.05c0-1.63-1.12-2.8-2.54-2.8s-2.52,1.17-2.52,2.8v.05c0,1.65,1.12,2.82,2.52,2.82s2.54-1.15,2.54-2.82Z"/>
      <path class="cls-1" d="M29.28,10.59v-.05c0-3.62,2.59-6.49,6.26-6.49,4.29,0,6.26,3.14,6.26,6.78,0,.27,0,.6-.02,.89h-8.3c.34,1.35,1.33,2.04,2.68,2.04,1.03,0,1.86-.39,2.75-1.26l2.41,1.99c-1.19,1.51-2.91,2.52-5.39,2.52-3.9,0-6.65-2.59-6.65-6.44Zm8.43-1.08c-.16-1.38-.96-2.25-2.15-2.25s-1.92,.89-2.15,2.25h4.31Z"/>
      <path class="cls-1" d="M42.87,13.87l5.73-6.07h-5.52v-3.46h11.3v2.86l-5.75,6.07h5.75v3.46h-11.5v-2.86Z"/>
      <path class="cls-1" d="M0,37.14l5.73-6.07H.21v-3.46H11.5v2.86l-5.75,6.07h5.75v3.46H0v-2.86Z"/>
      <path class="cls-1" d="M17.7,38.5v1.51h-4.35V23.28h4.35v5.98c.85-1.03,1.9-1.92,3.76-1.92,2.96,0,5.5,2.45,5.5,6.42v.05c0,4.03-2.54,6.49-5.48,6.49-1.88,0-2.98-.85-3.78-1.79Zm4.97-4.68v-.05c0-1.63-1.12-2.8-2.54-2.8s-2.52,1.17-2.52,2.8v.05c0,1.65,1.12,2.82,2.52,2.82s2.54-1.15,2.54-2.82Z"/>
      <path class="cls-1" d="M28.84,27.61h4.35v2.5c.71-1.7,1.86-2.8,3.92-2.7v4.58h-.37c-2.27,0-3.55,1.31-3.55,4.17v3.85h-4.35v-12.4Z"/>
      <path class="cls-1" d="M37.92,33.87v-.05c0-3.53,2.89-6.49,6.88-6.49s6.83,2.91,6.83,6.44v.05c0,3.53-2.89,6.49-6.88,6.49s-6.83-2.91-6.83-6.44Zm9.46,0v-.05c0-1.51-1.1-2.8-2.64-2.8s-2.59,1.26-2.59,2.75v.05c0,1.51,1.1,2.8,2.64,2.8s2.59-1.26,2.59-2.75Z"/>
      <path class="cls-1" d="M51.7,43.58v-2.89c.18,.02,.39,.02,.57,.02,.85,0,1.28-.37,1.28-1.44v-11.67h4.35v11.85c0,3.14-1.6,4.29-4.42,4.29-.69,0-1.26-.09-1.79-.16Zm1.76-20.31h4.54v3.21h-4.54v-3.21Z"/>
      <path class="cls-1" d="M60.39,27.61h4.35v1.74c.8-1.03,1.95-2.02,3.71-2.02,2.64,0,4.22,1.74,4.22,4.56v8.11h-4.35v-6.72c0-1.35-.71-2.09-1.74-2.09s-1.83,.73-1.83,2.09v6.72h-4.35v-12.4Z"/>
      <path class="cls-1" d="M75.01,27.61h4.35v12.4h-4.35v-12.4Zm2.8-5.29l4.06,1.31-3.37,2.93h-3.07l2.38-4.24Z"/>
      <path class="cls-1" d="M81.8,23.28h4.35v6.03c.8-1.03,1.95-1.97,3.71-1.97,2.64,0,4.22,1.74,4.22,4.56v8.11h-4.35v-6.72c0-1.35-.71-2.09-1.74-2.09s-1.83,.73-1.83,2.09v6.72h-4.35V23.28Z"/>
      <path class="cls-1" d="M95.83,33.87v-.05c0-3.53,2.89-6.49,6.88-6.49s6.83,2.91,6.83,6.44v.05c0,3.53-2.89,6.49-6.88,6.49s-6.83-2.91-6.83-6.44Zm9.46,0v-.05c0-1.51-1.1-2.8-2.64-2.8s-2.59,1.26-2.59,2.75v.05c0,1.51,1.1,2.8,2.64,2.8s2.59-1.26,2.59-2.75Z"/>
      <path class="cls-1" d="M.44,50.89H4.79v1.65c.85-1.03,1.9-1.92,3.76-1.92,2.96,0,5.5,2.45,5.5,6.42v.05c0,4.03-2.54,6.49-5.48,6.49-1.88,0-2.98-.85-3.78-1.79v5.18H.44v-16.07Zm9.33,6.21v-.05c0-1.63-1.12-2.8-2.54-2.8s-2.52,1.17-2.52,2.8v.05c0,1.65,1.12,2.82,2.52,2.82s2.54-1.15,2.54-2.82Z"/>
      <path class="cls-1" d="M15.93,50.89h4.35v2.5c.71-1.7,1.86-2.8,3.92-2.7v4.58h-.37c-2.27,0-3.55,1.31-3.55,4.17v3.85h-4.35v-12.4Z"/>
      <path class="cls-1" d="M38.65,50.95v12.33h-3.39v-1.47c-.47,.54-1.04,.94-1.7,1.23-.66,.28-1.37,.42-2.13,.42-1.62,0-2.9-.47-3.85-1.4-.95-.93-1.42-2.32-1.42-4.15v-6.97h3.58v6.44c0,1.99,.83,2.98,2.5,2.98,.86,0,1.54-.28,2.06-.84,.52-.56,.78-1.39,.78-2.49v-6.1h3.58Zm-8.29-2.04c-.54-.53-.81-1.19-.81-1.97s.27-1.44,.81-1.97c.54-.53,1.21-.8,2.01-.8s1.49,.27,2.04,.8c.55,.54,.83,1.19,.83,1.97s-.27,1.44-.83,1.97c-.55,.54-1.23,.8-2.04,.8s-1.46-.27-2.01-.8Zm3-.97c.27-.27,.4-.6,.4-1s-.13-.73-.4-1-.6-.4-1-.4-.71,.13-.97,.4-.4,.6-.4,1,.13,.73,.39,1,.59,.4,.99,.4,.73-.13,1-.4Z"/>
      <path class="cls-1" d="M41.5,46.56h4.35v8.48l3.37-4.15h4.93l-4.31,4.97,4.42,7.43h-4.79l-2.5-4.22-1.12,1.31v2.91h-4.35v-16.73Z"/>
      <path class="cls-1" d="M54.47,59.73v-.05c0-2.57,1.95-3.9,4.86-3.9,1.15,0,2.27,.23,2.98,.48v-.21c0-1.28-.8-2.02-2.48-2.02-1.31,0-2.31,.25-3.42,.69l-.89-3.07c1.4-.57,2.89-.96,5.02-.96s3.74,.53,4.72,1.51c.94,.92,1.33,2.2,1.33,3.94v7.13h-4.31v-1.28c-.85,.94-2.02,1.56-3.64,1.56-2.36,0-4.17-1.35-4.17-3.83Zm7.88-.94v-.57c-.44-.18-1.05-.32-1.7-.32-1.26,0-1.99,.62-1.99,1.54v.05c0,.85,.64,1.35,1.54,1.35,1.26,0,2.16-.8,2.16-2.04Z"/>
      <path class="cls-1" d="M68.39,60.42l5.73-6.07h-5.52v-3.46h11.3v2.86l-5.75,6.07h5.75v3.46h-11.5v-2.86Z"/>
      <path class="cls-1" d="M81.64,59v-8.11h4.35v6.71c0,1.35,.71,2.09,1.76,2.09s1.81-.73,1.81-2.09v-6.71h4.35v12.4h-4.35v-1.7c-.8,1.03-1.95,1.97-3.71,1.97-2.64,0-4.22-1.74-4.22-4.56Z"/>
    </g>
  </g>
</svg>