<svg width="237" height="37" viewBox="0 0 237 37" fill="none" xmlns="http://www.w3.org/2000/svg">
<path d="M2.496 13V2.6L3.408 3.544H0.128V1.8H4.576V13H2.496ZM10.5098 13.16C9.72042 13.16 8.94708 13.048 8.18975 12.824C7.44308 12.5893 6.81375 12.2693 6.30175 11.864L7.18175 10.248C7.58708 10.5787 8.07775 10.8453 8.65375 11.048C9.24042 11.2507 9.84842 11.352 10.4778 11.352C11.2138 11.352 11.7898 11.1973 12.2058 10.888C12.6324 10.5787 12.8458 10.1627 12.8458 9.64C12.8458 9.288 12.7551 8.97867 12.5738 8.712C12.4031 8.44533 12.0938 8.24267 11.6458 8.104C11.2084 7.96533 10.6058 7.896 9.83775 7.896H7.13375L7.70975 1.8H14.2858V3.544H8.47775L9.56575 2.552L9.13375 7.112L8.04575 6.136H10.3018C11.4111 6.136 12.3018 6.28533 12.9738 6.584C13.6564 6.872 14.1524 7.27733 14.4618 7.8C14.7818 8.312 14.9418 8.89867 14.9418 9.56C14.9418 10.2107 14.7818 10.808 14.4618 11.352C14.1418 11.896 13.6511 12.3333 12.9898 12.664C12.3391 12.9947 11.5124 13.16 10.5098 13.16ZM19.3095 11V3.8H21.0215V11H19.3095ZM16.4775 8.2V6.6H23.8535V8.2H16.4775ZM29.7289 16.216C29.3555 16.216 29.0035 16.1733 28.6729 16.088C28.3315 16.0133 28.0435 15.8907 27.8089 15.72L28.3849 14.232C28.6942 14.456 29.0835 14.568 29.5529 14.568C29.9155 14.568 30.1982 14.4507 30.4009 14.216C30.6035 13.992 30.7049 13.656 30.7049 13.208V4.456H32.7049V13.16C32.7049 14.0987 32.4435 14.84 31.9209 15.384C31.4089 15.9387 30.6782 16.216 29.7289 16.216ZM31.6969 3.048C31.3235 3.048 31.0142 2.93067 30.7689 2.696C30.5342 2.46133 30.4169 2.17867 30.4169 1.848C30.4169 1.50667 30.5342 1.224 30.7689 0.999999C31.0142 0.765333 31.3235 0.648 31.6969 0.648C32.0702 0.648 32.3742 0.76 32.6089 0.983999C32.8542 1.19733 32.9769 1.46933 32.9769 1.8C32.9769 2.152 32.8595 2.45067 32.6249 2.696C32.3902 2.93067 32.0809 3.048 31.6969 3.048ZM40.5916 13V11.272L40.4796 10.904V7.88C40.4796 7.29333 40.3036 6.84 39.9516 6.52C39.5996 6.18933 39.0663 6.024 38.3516 6.024C37.8716 6.024 37.397 6.09867 36.9276 6.248C36.469 6.39733 36.0796 6.60533 35.7596 6.872L34.9756 5.416C35.4343 5.064 35.9783 4.80267 36.6076 4.632C37.2476 4.45067 37.909 4.36 38.5916 4.36C39.829 4.36 40.7836 4.65867 41.4556 5.256C42.1383 5.84267 42.4796 6.75467 42.4796 7.992V13H40.5916ZM37.9036 13.112C37.2636 13.112 36.7036 13.0053 36.2236 12.792C35.7436 12.568 35.3703 12.264 35.1036 11.88C34.8476 11.4853 34.7196 11.0427 34.7196 10.552C34.7196 10.072 34.8316 9.64 35.0556 9.256C35.2903 8.872 35.669 8.568 36.1916 8.344C36.7143 8.12 37.4076 8.008 38.2716 8.008H40.7516V9.336H38.4156C37.733 9.336 37.2743 9.448 37.0396 9.672C36.805 9.88533 36.6876 10.152 36.6876 10.472C36.6876 10.8347 36.8316 11.1227 37.1196 11.336C37.4076 11.5493 37.8076 11.656 38.3196 11.656C38.8103 11.656 39.2476 11.544 39.6316 11.32C40.0263 11.096 40.309 10.7653 40.4796 10.328L40.8156 11.528C40.6236 12.0293 40.277 12.4187 39.7756 12.696C39.285 12.9733 38.661 13.112 37.9036 13.112ZM50.3104 13V11.272L50.1984 10.904V7.88C50.1984 7.29333 50.0224 6.84 49.6704 6.52C49.3184 6.18933 48.785 6.024 48.0704 6.024C47.5904 6.024 47.1157 6.09867 46.6464 6.248C46.1877 6.39733 45.7984 6.60533 45.4784 6.872L44.6944 5.416C45.153 5.064 45.697 4.80267 46.3264 4.632C46.9664 4.45067 47.6277 4.36 48.3104 4.36C49.5477 4.36 50.5024 4.65867 51.1744 5.256C51.857 5.84267 52.1984 6.75467 52.1984 7.992V13H50.3104ZM47.6224 13.112C46.9824 13.112 46.4224 13.0053 45.9424 12.792C45.4624 12.568 45.089 12.264 44.8224 11.88C44.5664 11.4853 44.4384 11.0427 44.4384 10.552C44.4384 10.072 44.5504 9.64 44.7744 9.256C45.009 8.872 45.3877 8.568 45.9104 8.344C46.433 8.12 47.1264 8.008 47.9904 8.008H50.4704V9.336H48.1344C47.4517 9.336 46.993 9.448 46.7584 9.672C46.5237 9.88533 46.4064 10.152 46.4064 10.472C46.4064 10.8347 46.5504 11.1227 46.8384 11.336C47.1264 11.5493 47.5264 11.656 48.0384 11.656C48.529 11.656 48.9664 11.544 49.3504 11.32C49.745 11.096 50.0277 10.7653 50.1984 10.328L50.5344 11.528C50.3424 12.0293 49.9957 12.4187 49.4944 12.696C49.0037 12.9733 48.3797 13.112 47.6224 13.112ZM54.7651 13V4.456H56.6691V6.808L56.4451 6.12C56.7011 5.544 57.1011 5.10667 57.6451 4.808C58.1998 4.50933 58.8878 4.36 59.7091 4.36V6.264C59.6238 6.24267 59.5438 6.232 59.4691 6.232C59.3945 6.22133 59.3198 6.216 59.2451 6.216C58.4878 6.216 57.8851 6.44 57.4371 6.888C56.9891 7.32533 56.7651 7.98133 56.7651 8.856V13H54.7651ZM69.9218 13.112C68.9724 13.112 68.1404 12.9253 67.4258 12.552C66.7218 12.168 66.1724 11.6453 65.7778 10.984C65.3938 10.3227 65.2018 9.57067 65.2018 8.728C65.2018 7.87467 65.3884 7.12267 65.7618 6.472C66.1458 5.81067 66.6684 5.29333 67.3298 4.92C68.0018 4.54667 68.7644 4.36 69.6178 4.36C70.4498 4.36 71.1911 4.54133 71.8418 4.904C72.4924 5.26667 73.0044 5.77867 73.3778 6.44C73.7511 7.10133 73.9378 7.88 73.9378 8.776C73.9378 8.86133 73.9324 8.95733 73.9218 9.064C73.9218 9.17067 73.9164 9.272 73.9058 9.368H66.7858V8.04H72.8498L72.0658 8.456C72.0764 7.96533 71.9751 7.53333 71.7618 7.16C71.5484 6.78667 71.2551 6.49333 70.8818 6.28C70.5191 6.06667 70.0978 5.96 69.6178 5.96C69.1271 5.96 68.6951 6.06667 68.3218 6.28C67.9591 6.49333 67.6711 6.792 67.4578 7.176C67.2551 7.54933 67.1538 7.992 67.1538 8.504V8.824C67.1538 9.336 67.2711 9.78933 67.5058 10.184C67.7404 10.5787 68.0711 10.8827 68.4978 11.096C68.9244 11.3093 69.4151 11.416 69.9698 11.416C70.4498 11.416 70.8818 11.3413 71.2658 11.192C71.6498 11.0427 71.9911 10.808 72.2898 10.488L73.3618 11.72C72.9778 12.168 72.4924 12.5147 71.9058 12.76C71.3298 12.9947 70.6684 13.112 69.9218 13.112ZM75.8589 13V4.456H77.7629V6.808L77.5389 6.12C77.7949 5.544 78.1949 5.10667 78.7389 4.808C79.2935 4.50933 79.9815 4.36 80.8029 4.36V6.264C80.7175 6.24267 80.6375 6.232 80.5629 6.232C80.4882 6.22133 80.4135 6.216 80.3389 6.216C79.5815 6.216 78.9789 6.44 78.5309 6.888C78.0829 7.32533 77.8589 7.98133 77.8589 8.856V13H75.8589ZM85.084 13L81.42 4.456H83.5L86.652 11.992H85.628L88.892 4.456H90.812L87.148 13H85.084ZM97.0604 13V11.272L96.9484 10.904V7.88C96.9484 7.29333 96.7724 6.84 96.4204 6.52C96.0684 6.18933 95.535 6.024 94.8204 6.024C94.3404 6.024 93.8657 6.09867 93.3964 6.248C92.9377 6.39733 92.5484 6.60533 92.2284 6.872L91.4444 5.416C91.903 5.064 92.447 4.80267 93.0764 4.632C93.7164 4.45067 94.3777 4.36 95.0604 4.36C96.2977 4.36 97.2524 4.65867 97.9244 5.256C98.607 5.84267 98.9484 6.75467 98.9484 7.992V13H97.0604ZM94.3724 13.112C93.7324 13.112 93.1724 13.0053 92.6924 12.792C92.2124 12.568 91.839 12.264 91.5724 11.88C91.3164 11.4853 91.1884 11.0427 91.1884 10.552C91.1884 10.072 91.3004 9.64 91.5244 9.256C91.759 8.872 92.1377 8.568 92.6604 8.344C93.183 8.12 93.8764 8.008 94.7404 8.008H97.2204V9.336H94.8844C94.2017 9.336 93.743 9.448 93.5084 9.672C93.2737 9.88533 93.1564 10.152 93.1564 10.472C93.1564 10.8347 93.3004 11.1227 93.5884 11.336C93.8764 11.5493 94.2764 11.656 94.7884 11.656C95.279 11.656 95.7164 11.544 96.1004 11.32C96.495 11.096 96.7777 10.7653 96.9484 10.328L97.2844 11.528C97.0924 12.0293 96.7457 12.4187 96.2444 12.696C95.7537 12.9733 95.1297 13.112 94.3724 13.112ZM101.515 13V4.456H103.419V6.808L103.195 6.12C103.451 5.544 103.851 5.10667 104.395 4.808C104.95 4.50933 105.638 4.36 106.459 4.36V6.264C106.374 6.24267 106.294 6.232 106.219 6.232C106.144 6.22133 106.07 6.216 105.995 6.216C105.238 6.216 104.635 6.44 104.187 6.888C103.739 7.32533 103.515 7.98133 103.515 8.856V13H101.515ZM108.156 13V4.456H110.156V13H108.156ZM109.164 3.048C108.79 3.048 108.481 2.93067 108.236 2.696C108.001 2.46133 107.884 2.17867 107.884 1.848C107.884 1.50667 108.001 1.224 108.236 0.999999C108.481 0.765333 108.79 0.648 109.164 0.648C109.537 0.648 109.841 0.76 110.076 0.983999C110.321 1.19733 110.444 1.46933 110.444 1.8C110.444 2.152 110.326 2.45067 110.092 2.696C109.857 2.93067 109.548 3.048 109.164 3.048ZM117.629 4.36C118.311 4.36 118.919 4.49333 119.453 4.76C119.997 5.02667 120.423 5.43733 120.733 5.992C121.042 6.536 121.197 7.24 121.197 8.104V13H119.197V8.36C119.197 7.60267 119.015 7.03733 118.653 6.664C118.301 6.29067 117.805 6.104 117.165 6.104C116.695 6.104 116.279 6.2 115.917 6.392C115.554 6.584 115.271 6.872 115.069 7.256C114.877 7.62933 114.781 8.104 114.781 8.68V13H112.781V4.456H114.685V6.76L114.349 6.056C114.647 5.512 115.079 5.096 115.645 4.808C116.221 4.50933 116.882 4.36 117.629 4.36ZM127.622 16.216C126.832 16.216 126.059 16.1093 125.302 15.896C124.555 15.6933 123.942 15.3947 123.462 15L124.358 13.496C124.731 13.8053 125.2 14.0507 125.766 14.232C126.342 14.424 126.923 14.52 127.51 14.52C128.448 14.52 129.136 14.3013 129.574 13.864C130.011 13.4373 130.23 12.792 130.23 11.928V10.408L130.39 8.472L130.326 6.536V4.456H132.23V11.704C132.23 13.2507 131.835 14.3867 131.046 15.112C130.256 15.848 129.115 16.216 127.622 16.216ZM127.366 12.616C126.555 12.616 125.819 12.4453 125.158 12.104C124.507 11.752 123.99 11.2667 123.606 10.648C123.232 10.0293 123.046 9.304 123.046 8.472C123.046 7.65067 123.232 6.93067 123.606 6.312C123.99 5.69333 124.507 5.21333 125.158 4.872C125.819 4.53067 126.555 4.36 127.366 4.36C128.091 4.36 128.742 4.504 129.318 4.792C129.894 5.08 130.352 5.528 130.694 6.136C131.046 6.744 131.222 7.52267 131.222 8.472C131.222 9.42133 131.046 10.2053 130.694 10.824C130.352 11.432 129.894 11.8853 129.318 12.184C128.742 12.472 128.091 12.616 127.366 12.616ZM127.67 10.92C128.171 10.92 128.619 10.8187 129.014 10.616C129.408 10.4027 129.712 10.1147 129.926 9.752C130.15 9.37867 130.262 8.952 130.262 8.472C130.262 7.992 130.15 7.57067 129.926 7.208C129.712 6.83467 129.408 6.552 129.014 6.36C128.619 6.15733 128.171 6.056 127.67 6.056C127.168 6.056 126.715 6.15733 126.31 6.36C125.915 6.552 125.606 6.83467 125.382 7.208C125.168 7.57067 125.062 7.992 125.062 8.472C125.062 8.952 125.168 9.37867 125.382 9.752C125.606 10.1147 125.915 10.4027 126.31 10.616C126.715 10.8187 127.168 10.92 127.67 10.92ZM139.281 13V4.456H141.281V13H139.281ZM140.289 3.048C139.915 3.048 139.606 2.93067 139.361 2.696C139.126 2.46133 139.009 2.17867 139.009 1.848C139.009 1.50667 139.126 1.224 139.361 0.999999C139.606 0.765333 139.915 0.648 140.289 0.648C140.662 0.648 140.966 0.76 141.201 0.983999C141.446 1.19733 141.569 1.46933 141.569 1.8C141.569 2.152 141.451 2.45067 141.217 2.696C140.982 2.93067 140.673 3.048 140.289 3.048ZM148.754 4.36C149.436 4.36 150.044 4.49333 150.578 4.76C151.122 5.02667 151.548 5.43733 151.858 5.992C152.167 6.536 152.322 7.24 152.322 8.104V13H150.322V8.36C150.322 7.60267 150.14 7.03733 149.778 6.664C149.426 6.29067 148.93 6.104 148.29 6.104C147.82 6.104 147.404 6.2 147.042 6.392C146.679 6.584 146.396 6.872 146.194 7.256C146.002 7.62933 145.906 8.104 145.906 8.68V13H143.906V4.456H145.81V6.76L145.474 6.056C145.772 5.512 146.204 5.096 146.77 4.808C147.346 4.50933 148.007 4.36 148.754 4.36ZM158.577 13V11.736L163.841 5.368L164.209 6.056H158.673V4.456H165.809V5.72L160.545 12.088L160.145 11.4H165.953V13H158.577ZM171.511 13.112C170.637 13.112 169.858 12.9253 169.175 12.552C168.493 12.168 167.954 11.6453 167.559 10.984C167.165 10.3227 166.967 9.57067 166.967 8.728C166.967 7.87467 167.165 7.12267 167.559 6.472C167.954 5.81067 168.493 5.29333 169.175 4.92C169.858 4.54667 170.637 4.36 171.511 4.36C172.397 4.36 173.181 4.54667 173.863 4.92C174.557 5.29333 175.095 5.80533 175.479 6.456C175.874 7.10667 176.071 7.864 176.071 8.728C176.071 9.57067 175.874 10.3227 175.479 10.984C175.095 11.6453 174.557 12.168 173.863 12.552C173.181 12.9253 172.397 13.112 171.511 13.112ZM171.511 11.4C172.002 11.4 172.439 11.2933 172.823 11.08C173.207 10.8667 173.506 10.5573 173.719 10.152C173.943 9.74667 174.055 9.272 174.055 8.728C174.055 8.17333 173.943 7.69867 173.719 7.304C173.506 6.89867 173.207 6.58933 172.823 6.376C172.439 6.16267 172.007 6.056 171.527 6.056C171.037 6.056 170.599 6.16267 170.215 6.376C169.842 6.58933 169.543 6.89867 169.319 7.304C169.095 7.69867 168.983 8.17333 168.983 8.728C168.983 9.272 169.095 9.74667 169.319 10.152C169.543 10.5573 169.842 10.8667 170.215 11.08C170.599 11.2933 171.031 11.4 171.511 11.4ZM177.984 13V4.456H179.888V6.808L179.664 6.12C179.92 5.544 180.32 5.10667 180.864 4.808C181.419 4.50933 182.107 4.36 182.928 4.36V6.264C182.843 6.24267 182.763 6.232 182.688 6.232C182.613 6.22133 182.539 6.216 182.464 6.216C181.707 6.216 181.104 6.44 180.656 6.888C180.208 7.32533 179.984 7.98133 179.984 8.856V13H177.984ZM188.418 16.216C187.629 16.216 186.856 16.1093 186.098 15.896C185.352 15.6933 184.738 15.3947 184.258 15L185.154 13.496C185.528 13.8053 185.997 14.0507 186.562 14.232C187.138 14.424 187.72 14.52 188.306 14.52C189.245 14.52 189.933 14.3013 190.37 13.864C190.808 13.4373 191.026 12.792 191.026 11.928V10.408L191.186 8.472L191.122 6.536V4.456H193.026V11.704C193.026 13.2507 192.632 14.3867 191.842 15.112C191.053 15.848 189.912 16.216 188.418 16.216ZM188.162 12.616C187.352 12.616 186.616 12.4453 185.954 12.104C185.304 11.752 184.786 11.2667 184.402 10.648C184.029 10.0293 183.842 9.304 183.842 8.472C183.842 7.65067 184.029 6.93067 184.402 6.312C184.786 5.69333 185.304 5.21333 185.954 4.872C186.616 4.53067 187.352 4.36 188.162 4.36C188.888 4.36 189.538 4.504 190.114 4.792C190.69 5.08 191.149 5.528 191.49 6.136C191.842 6.744 192.018 7.52267 192.018 8.472C192.018 9.42133 191.842 10.2053 191.49 10.824C191.149 11.432 190.69 11.8853 190.114 12.184C189.538 12.472 188.888 12.616 188.162 12.616ZM188.466 10.92C188.968 10.92 189.416 10.8187 189.81 10.616C190.205 10.4027 190.509 10.1147 190.722 9.752C190.946 9.37867 191.058 8.952 191.058 8.472C191.058 7.992 190.946 7.57067 190.722 7.208C190.509 6.83467 190.205 6.552 189.81 6.36C189.416 6.15733 188.968 6.056 188.466 6.056C187.965 6.056 187.512 6.15733 187.106 6.36C186.712 6.552 186.402 6.83467 186.178 7.208C185.965 7.57067 185.858 7.992 185.858 8.472C185.858 8.952 185.965 9.37867 186.178 9.752C186.402 10.1147 186.712 10.4027 187.106 10.616C187.512 10.8187 187.965 10.92 188.466 10.92ZM199.672 13.112C198.722 13.112 197.89 12.9253 197.176 12.552C196.472 12.168 195.922 11.6453 195.528 10.984C195.144 10.3227 194.952 9.57067 194.952 8.728C194.952 7.87467 195.138 7.12267 195.512 6.472C195.896 5.81067 196.418 5.29333 197.08 4.92C197.752 4.54667 198.514 4.36 199.368 4.36C200.2 4.36 200.941 4.54133 201.592 4.904C202.242 5.26667 202.754 5.77867 203.128 6.44C203.501 7.10133 203.688 7.88 203.688 8.776C203.688 8.86133 203.682 8.95733 203.672 9.064C203.672 9.17067 203.666 9.272 203.656 9.368H196.536V8.04H202.6L201.816 8.456C201.826 7.96533 201.725 7.53333 201.512 7.16C201.298 6.78667 201.005 6.49333 200.632 6.28C200.269 6.06667 199.848 5.96 199.368 5.96C198.877 5.96 198.445 6.06667 198.072 6.28C197.709 6.49333 197.421 6.792 197.208 7.176C197.005 7.54933 196.904 7.992 196.904 8.504V8.824C196.904 9.336 197.021 9.78933 197.256 10.184C197.49 10.5787 197.821 10.8827 198.248 11.096C198.674 11.3093 199.165 11.416 199.72 11.416C200.2 11.416 200.632 11.3413 201.016 11.192C201.4 11.0427 201.741 10.808 202.04 10.488L203.112 11.72C202.728 12.168 202.242 12.5147 201.656 12.76C201.08 12.9947 200.418 13.112 199.672 13.112ZM205.609 13V1.128H207.609V13H205.609ZM214.074 13.112C213.199 13.112 212.421 12.9253 211.738 12.552C211.055 12.168 210.517 11.6453 210.122 10.984C209.727 10.3227 209.53 9.57067 209.53 8.728C209.53 7.87467 209.727 7.12267 210.122 6.472C210.517 5.81067 211.055 5.29333 211.738 4.92C212.421 4.54667 213.199 4.36 214.074 4.36C214.959 4.36 215.743 4.54667 216.426 4.92C217.119 5.29333 217.658 5.80533 218.042 6.456C218.437 7.10667 218.634 7.864 218.634 8.728C218.634 9.57067 218.437 10.3227 218.042 10.984C217.658 11.6453 217.119 12.168 216.426 12.552C215.743 12.9253 214.959 13.112 214.074 13.112ZM214.074 11.4C214.565 11.4 215.002 11.2933 215.386 11.08C215.77 10.8667 216.069 10.5573 216.282 10.152C216.506 9.74667 216.618 9.272 216.618 8.728C216.618 8.17333 216.506 7.69867 216.282 7.304C216.069 6.89867 215.77 6.58933 215.386 6.376C215.002 6.16267 214.57 6.056 214.09 6.056C213.599 6.056 213.162 6.16267 212.778 6.376C212.405 6.58933 212.106 6.89867 211.882 7.304C211.658 7.69867 211.546 8.17333 211.546 8.728C211.546 9.272 211.658 9.74667 211.882 10.152C212.106 10.5573 212.405 10.8667 212.778 11.08C213.162 11.2933 213.594 11.4 214.074 11.4ZM219.717 13V11.736L224.981 5.368L225.349 6.056H219.813V4.456H226.949V5.72L221.685 12.088L221.285 11.4H227.093V13H219.717ZM232.828 13.112C231.879 13.112 231.047 12.9253 230.332 12.552C229.628 12.168 229.079 11.6453 228.684 10.984C228.3 10.3227 228.108 9.57067 228.108 8.728C228.108 7.87467 228.295 7.12267 228.668 6.472C229.052 5.81067 229.575 5.29333 230.236 4.92C230.908 4.54667 231.671 4.36 232.524 4.36C233.356 4.36 234.097 4.54133 234.748 4.904C235.399 5.26667 235.911 5.77867 236.284 6.44C236.657 7.10133 236.844 7.88 236.844 8.776C236.844 8.86133 236.839 8.95733 236.828 9.064C236.828 9.17067 236.823 9.272 236.812 9.368H229.692V8.04H235.756L234.972 8.456C234.983 7.96533 234.881 7.53333 234.668 7.16C234.455 6.78667 234.161 6.49333 233.788 6.28C233.425 6.06667 233.004 5.96 232.524 5.96C232.033 5.96 231.601 6.06667 231.228 6.28C230.865 6.49333 230.577 6.792 230.364 7.176C230.161 7.54933 230.06 7.992 230.06 8.504V8.824C230.06 9.336 230.177 9.78933 230.412 10.184C230.647 10.5787 230.977 10.8827 231.404 11.096C231.831 11.3093 232.321 11.416 232.876 11.416C233.356 11.416 233.788 11.3413 234.172 11.192C234.556 11.0427 234.897 10.808 235.196 10.488L236.268 11.72C235.884 12.168 235.399 12.5147 234.812 12.76C234.236 12.9947 233.575 13.112 232.828 13.112ZM6.048 33.112C5.35467 33.112 4.72 32.952 4.144 32.632C3.57867 32.312 3.12533 31.832 2.784 31.192C2.45333 30.5413 2.288 29.72 2.288 28.728C2.288 27.7253 2.448 26.904 2.768 26.264C3.09867 25.624 3.54667 25.1493 4.112 24.84C4.67733 24.52 5.32267 24.36 6.048 24.36C6.89067 24.36 7.632 24.5413 8.272 24.904C8.92267 25.2667 9.43467 25.7733 9.808 26.424C10.192 27.0747 10.384 27.8427 10.384 28.728C10.384 29.6133 10.192 30.3867 9.808 31.048C9.43467 31.6987 8.92267 32.2053 8.272 32.568C7.632 32.9307 6.89067 33.112 6.048 33.112ZM1.312 36.104V24.456H3.216V26.472L3.152 28.744L3.312 31.016V36.104H1.312ZM5.824 31.4C6.304 31.4 6.73067 31.2933 7.104 31.08C7.488 30.8667 7.792 30.5573 8.016 30.152C8.24 29.7467 8.352 29.272 8.352 28.728C8.352 28.1733 8.24 27.6987 8.016 27.304C7.792 26.8987 7.488 26.5893 7.104 26.376C6.73067 26.1627 6.304 26.056 5.824 26.056C5.344 26.056 4.912 26.1627 4.528 26.376C4.144 26.5893 3.84 26.8987 3.616 27.304C3.392 27.6987 3.28 28.1733 3.28 28.728C3.28 29.272 3.392 29.7467 3.616 30.152C3.84 30.5573 4.144 30.8667 4.528 31.08C4.912 31.2933 5.344 31.4 5.824 31.4ZM16.2968 33.112C15.3474 33.112 14.5154 32.9253 13.8008 32.552C13.0968 32.168 12.5474 31.6453 12.1528 30.984C11.7688 30.3227 11.5768 29.5707 11.5768 28.728C11.5768 27.8747 11.7634 27.1227 12.1368 26.472C12.5208 25.8107 13.0434 25.2933 13.7048 24.92C14.3768 24.5467 15.1394 24.36 15.9928 24.36C16.8248 24.36 17.5661 24.5413 18.2168 24.904C18.8674 25.2667 19.3794 25.7787 19.7528 26.44C20.1261 27.1013 20.3128 27.88 20.3128 28.776C20.3128 28.8613 20.3074 28.9573 20.2968 29.064C20.2968 29.1707 20.2914 29.272 20.2808 29.368H13.1608V28.04H19.2248L18.4408 28.456C18.4514 27.9653 18.3501 27.5333 18.1368 27.16C17.9234 26.7867 17.6301 26.4933 17.2568 26.28C16.8941 26.0667 16.4728 25.96 15.9928 25.96C15.5021 25.96 15.0701 26.0667 14.6968 26.28C14.3341 26.4933 14.0461 26.792 13.8328 27.176C13.6301 27.5493 13.5288 27.992 13.5288 28.504V28.824C13.5288 29.336 13.6461 29.7893 13.8808 30.184C14.1154 30.5787 14.4461 30.8827 14.8728 31.096C15.2994 31.3093 15.7901 31.416 16.3448 31.416C16.8248 31.416 17.2568 31.3413 17.6408 31.192C18.0248 31.0427 18.3661 30.808 18.6648 30.488L19.7368 31.72C19.3528 32.168 18.8674 32.5147 18.2808 32.76C17.7048 32.9947 17.0434 33.112 16.2968 33.112ZM22.2339 33V24.456H24.1379V26.808L23.9139 26.12C24.1699 25.544 24.5699 25.1067 25.1139 24.808C25.6685 24.5093 26.3565 24.36 27.1779 24.36V26.264C27.0925 26.2427 27.0125 26.232 26.9379 26.232C26.8632 26.2213 26.7885 26.216 26.7139 26.216C25.9565 26.216 25.3539 26.44 24.9059 26.888C24.4579 27.3253 24.2339 27.9813 24.2339 28.856V33H22.2339ZM31.5926 33.112C30.878 33.112 30.19 33.0213 29.5286 32.84C28.878 32.648 28.3606 32.4187 27.9766 32.152L28.7446 30.632C29.1286 30.8773 29.5873 31.08 30.1206 31.24C30.654 31.4 31.1873 31.48 31.7206 31.48C32.35 31.48 32.8033 31.3947 33.0806 31.224C33.3686 31.0533 33.5126 30.824 33.5126 30.536C33.5126 30.3013 33.4166 30.1253 33.2246 30.008C33.0326 29.88 32.782 29.784 32.4726 29.72C32.1633 29.656 31.8166 29.5973 31.4326 29.544C31.0593 29.4907 30.6806 29.4213 30.2966 29.336C29.9233 29.24 29.582 29.1067 29.2726 28.936C28.9633 28.7547 28.7126 28.5147 28.5206 28.216C28.3286 27.9173 28.2326 27.5227 28.2326 27.032C28.2326 26.488 28.3873 26.0187 28.6966 25.624C29.006 25.2187 29.438 24.9093 29.9926 24.696C30.558 24.472 31.2246 24.36 31.9926 24.36C32.5686 24.36 33.15 24.424 33.7366 24.552C34.3233 24.68 34.8086 24.8613 35.1926 25.096L34.4246 26.616C34.0193 26.3707 33.6086 26.2053 33.1926 26.12C32.7873 26.024 32.382 25.976 31.9766 25.976C31.3686 25.976 30.9153 26.0667 30.6166 26.248C30.3286 26.4293 30.1846 26.6587 30.1846 26.936C30.1846 27.192 30.2806 27.384 30.4726 27.512C30.6646 27.64 30.9153 27.7413 31.2246 27.816C31.534 27.8907 31.8753 27.9547 32.2486 28.008C32.6326 28.0507 33.0113 28.12 33.3846 28.216C33.758 28.312 34.0993 28.4453 34.4086 28.616C34.7286 28.776 34.9846 29.0053 35.1766 29.304C35.3686 29.6027 35.4646 29.992 35.4646 30.472C35.4646 31.0053 35.3046 31.4693 34.9846 31.864C34.6753 32.2587 34.2326 32.568 33.6566 32.792C33.0806 33.0053 32.3926 33.112 31.5926 33.112ZM41.027 33.112C40.1523 33.112 39.3737 32.9253 38.691 32.552C38.0083 32.168 37.4697 31.6453 37.075 30.984C36.6803 30.3227 36.483 29.5707 36.483 28.728C36.483 27.8747 36.6803 27.1227 37.075 26.472C37.4697 25.8107 38.0083 25.2933 38.691 24.92C39.3737 24.5467 40.1523 24.36 41.027 24.36C41.9123 24.36 42.6963 24.5467 43.379 24.92C44.0723 25.2933 44.611 25.8053 44.995 26.456C45.3897 27.1067 45.587 27.864 45.587 28.728C45.587 29.5707 45.3897 30.3227 44.995 30.984C44.611 31.6453 44.0723 32.168 43.379 32.552C42.6963 32.9253 41.9123 33.112 41.027 33.112ZM41.027 31.4C41.5177 31.4 41.955 31.2933 42.339 31.08C42.723 30.8667 43.0217 30.5573 43.235 30.152C43.459 29.7467 43.571 29.272 43.571 28.728C43.571 28.1733 43.459 27.6987 43.235 27.304C43.0217 26.8987 42.723 26.5893 42.339 26.376C41.955 26.1627 41.523 26.056 41.043 26.056C40.5523 26.056 40.115 26.1627 39.731 26.376C39.3577 26.5893 39.059 26.8987 38.835 27.304C38.611 27.6987 38.499 28.1733 38.499 28.728C38.499 29.272 38.611 29.7467 38.835 30.152C39.059 30.5573 39.3577 30.8667 39.731 31.08C40.115 31.2933 40.547 31.4 41.027 31.4ZM52.3475 24.36C53.0302 24.36 53.6382 24.4933 54.1715 24.76C54.7155 25.0267 55.1422 25.4373 55.4515 25.992C55.7608 26.536 55.9155 27.24 55.9155 28.104V33H53.9155V28.36C53.9155 27.6027 53.7342 27.0373 53.3715 26.664C53.0195 26.2907 52.5235 26.104 51.8835 26.104C51.4142 26.104 50.9982 26.2 50.6355 26.392C50.2728 26.584 49.9902 26.872 49.7875 27.256C49.5955 27.6293 49.4995 28.104 49.4995 28.68V33H47.4995V24.456H49.4035V26.76L49.0675 26.056C49.3662 25.512 49.7982 25.096 50.3635 24.808C50.9395 24.5093 51.6008 24.36 52.3475 24.36ZM62.4843 33.112C61.5349 33.112 60.7029 32.9253 59.9883 32.552C59.2843 32.168 58.7349 31.6453 58.3403 30.984C57.9563 30.3227 57.7643 29.5707 57.7643 28.728C57.7643 27.8747 57.9509 27.1227 58.3243 26.472C58.7083 25.8107 59.2309 25.2933 59.8923 24.92C60.5643 24.5467 61.3269 24.36 62.1803 24.36C63.0123 24.36 63.7536 24.5413 64.4043 24.904C65.0549 25.2667 65.5669 25.7787 65.9403 26.44C66.3136 27.1013 66.5003 27.88 66.5003 28.776C66.5003 28.8613 66.4949 28.9573 66.4843 29.064C66.4843 29.1707 66.4789 29.272 66.4683 29.368H59.3483V28.04H65.4123L64.6283 28.456C64.6389 27.9653 64.5376 27.5333 64.3243 27.16C64.1109 26.7867 63.8176 26.4933 63.4443 26.28C63.0816 26.0667 62.6603 25.96 62.1803 25.96C61.6896 25.96 61.2576 26.0667 60.8843 26.28C60.5216 26.4933 60.2336 26.792 60.0203 27.176C59.8176 27.5493 59.7163 27.992 59.7163 28.504V28.824C59.7163 29.336 59.8336 29.7893 60.0683 30.184C60.3029 30.5787 60.6336 30.8827 61.0603 31.096C61.4869 31.3093 61.9776 31.416 62.5323 31.416C63.0123 31.416 63.4443 31.3413 63.8283 31.192C64.2123 31.0427 64.5536 30.808 64.8523 30.488L65.9243 31.72C65.5403 32.168 65.0549 32.5147 64.4683 32.76C63.8923 32.9947 63.2309 33.112 62.4843 33.112ZM72.4374 33.112C71.488 33.112 70.656 32.9253 69.9414 32.552C69.2374 32.168 68.688 31.6453 68.2934 30.984C67.9094 30.3227 67.7174 29.5707 67.7174 28.728C67.7174 27.8747 67.904 27.1227 68.2774 26.472C68.6614 25.8107 69.184 25.2933 69.8454 24.92C70.5174 24.5467 71.28 24.36 72.1334 24.36C72.9654 24.36 73.7067 24.5413 74.3574 24.904C75.008 25.2667 75.52 25.7787 75.8934 26.44C76.2667 27.1013 76.4534 27.88 76.4534 28.776C76.4534 28.8613 76.448 28.9573 76.4374 29.064C76.4374 29.1707 76.432 29.272 76.4214 29.368H69.3014V28.04H75.3654L74.5814 28.456C74.592 27.9653 74.4907 27.5333 74.2774 27.16C74.064 26.7867 73.7707 26.4933 73.3974 26.28C73.0347 26.0667 72.6134 25.96 72.1334 25.96C71.6427 25.96 71.2107 26.0667 70.8374 26.28C70.4747 26.4933 70.1867 26.792 69.9734 27.176C69.7707 27.5493 69.6694 27.992 69.6694 28.504V28.824C69.6694 29.336 69.7867 29.7893 70.0214 30.184C70.256 30.5787 70.5867 30.8827 71.0134 31.096C71.44 31.3093 71.9307 31.416 72.4854 31.416C72.9654 31.416 73.3974 31.3413 73.7814 31.192C74.1654 31.0427 74.5067 30.808 74.8054 30.488L75.8774 31.72C75.4934 32.168 75.008 32.5147 74.4214 32.76C73.8454 32.9947 73.184 33.112 72.4374 33.112ZM78.3745 33V21.128H80.3745V33H78.3745ZM85.6395 33.112C84.9248 33.112 84.2368 33.0213 83.5755 32.84C82.9248 32.648 82.4075 32.4187 82.0235 32.152L82.7915 30.632C83.1755 30.8773 83.6342 31.08 84.1675 31.24C84.7008 31.4 85.2342 31.48 85.7675 31.48C86.3968 31.48 86.8502 31.3947 87.1275 31.224C87.4155 31.0533 87.5595 30.824 87.5595 30.536C87.5595 30.3013 87.4635 30.1253 87.2715 30.008C87.0795 29.88 86.8288 29.784 86.5195 29.72C86.2102 29.656 85.8635 29.5973 85.4795 29.544C85.1062 29.4907 84.7275 29.4213 84.3435 29.336C83.9702 29.24 83.6288 29.1067 83.3195 28.936C83.0102 28.7547 82.7595 28.5147 82.5675 28.216C82.3755 27.9173 82.2795 27.5227 82.2795 27.032C82.2795 26.488 82.4342 26.0187 82.7435 25.624C83.0528 25.2187 83.4848 24.9093 84.0395 24.696C84.6048 24.472 85.2715 24.36 86.0395 24.36C86.6155 24.36 87.1968 24.424 87.7835 24.552C88.3702 24.68 88.8555 24.8613 89.2395 25.096L88.4715 26.616C88.0662 26.3707 87.6555 26.2053 87.2395 26.12C86.8342 26.024 86.4288 25.976 86.0235 25.976C85.4155 25.976 84.9622 26.0667 84.6635 26.248C84.3755 26.4293 84.2315 26.6587 84.2315 26.936C84.2315 27.192 84.3275 27.384 84.5195 27.512C84.7115 27.64 84.9622 27.7413 85.2715 27.816C85.5808 27.8907 85.9222 27.9547 86.2955 28.008C86.6795 28.0507 87.0582 28.12 87.4315 28.216C87.8048 28.312 88.1462 28.4453 88.4555 28.616C88.7755 28.776 89.0315 29.0053 89.2235 29.304C89.4155 29.6027 89.5115 29.992 89.5115 30.472C89.5115 31.0053 89.3515 31.4693 89.0315 31.864C88.7222 32.2587 88.2795 32.568 87.7035 32.792C87.1275 33.0053 86.4395 33.112 85.6395 33.112ZM95.1059 36.216C94.3165 36.216 93.5432 36.1093 92.7859 35.896C92.0392 35.6933 91.4259 35.3947 90.9459 35L91.8419 33.496C92.2152 33.8053 92.6845 34.0507 93.2499 34.232C93.8259 34.424 94.4072 34.52 94.9939 34.52C95.9325 34.52 96.6205 34.3013 97.0579 33.864C97.4952 33.4373 97.7139 32.792 97.7139 31.928V30.408L97.8739 28.472L97.8099 26.536V24.456H99.7139V31.704C99.7139 33.2507 99.3192 34.3867 98.5299 35.112C97.7405 35.848 96.5992 36.216 95.1059 36.216ZM94.8499 32.616C94.0392 32.616 93.3032 32.4453 92.6419 32.104C91.9912 31.752 91.4739 31.2667 91.0899 30.648C90.7165 30.0293 90.5299 29.304 90.5299 28.472C90.5299 27.6507 90.7165 26.9307 91.0899 26.312C91.4739 25.6933 91.9912 25.2133 92.6419 24.872C93.3032 24.5307 94.0392 24.36 94.8499 24.36C95.5752 24.36 96.2259 24.504 96.8019 24.792C97.3779 25.08 97.8365 25.528 98.1779 26.136C98.5299 26.744 98.7059 27.5227 98.7059 28.472C98.7059 29.4213 98.5299 30.2053 98.1779 30.824C97.8365 31.432 97.3779 31.8853 96.8019 32.184C96.2259 32.472 95.5752 32.616 94.8499 32.616ZM95.1539 30.92C95.6552 30.92 96.1032 30.8187 96.4979 30.616C96.8925 30.4027 97.1965 30.1147 97.4099 29.752C97.6339 29.3787 97.7459 28.952 97.7459 28.472C97.7459 27.992 97.6339 27.5707 97.4099 27.208C97.1965 26.8347 96.8925 26.552 96.4979 26.36C96.1032 26.1573 95.6552 26.056 95.1539 26.056C94.6525 26.056 94.1992 26.1573 93.7939 26.36C93.3992 26.552 93.0899 26.8347 92.8659 27.208C92.6525 27.5707 92.5459 27.992 92.5459 28.472C92.5459 28.952 92.6525 29.3787 92.8659 29.752C93.0899 30.1147 93.3992 30.4027 93.7939 30.616C94.1992 30.8187 94.6525 30.92 95.1539 30.92ZM106.359 33.112C105.41 33.112 104.578 32.9253 103.863 32.552C103.159 32.168 102.61 31.6453 102.215 30.984C101.831 30.3227 101.639 29.5707 101.639 28.728C101.639 27.8747 101.826 27.1227 102.199 26.472C102.583 25.8107 103.106 25.2933 103.767 24.92C104.439 24.5467 105.202 24.36 106.055 24.36C106.887 24.36 107.629 24.5413 108.279 24.904C108.93 25.2667 109.442 25.7787 109.815 26.44C110.189 27.1013 110.375 27.88 110.375 28.776C110.375 28.8613 110.37 28.9573 110.359 29.064C110.359 29.1707 110.354 29.272 110.343 29.368H103.223V28.04H109.287L108.503 28.456C108.514 27.9653 108.413 27.5333 108.199 27.16C107.986 26.7867 107.693 26.4933 107.319 26.28C106.957 26.0667 106.535 25.96 106.055 25.96C105.565 25.96 105.133 26.0667 104.759 26.28C104.397 26.4933 104.109 26.792 103.895 27.176C103.693 27.5493 103.591 27.992 103.591 28.504V28.824C103.591 29.336 103.709 29.7893 103.943 30.184C104.178 30.5787 104.509 30.8827 104.935 31.096C105.362 31.3093 105.853 31.416 106.407 31.416C106.887 31.416 107.319 31.3413 107.703 31.192C108.087 31.0427 108.429 30.808 108.727 30.488L109.799 31.72C109.415 32.168 108.93 32.5147 108.343 32.76C107.767 32.9947 107.106 33.112 106.359 33.112ZM114.936 33.112C114.222 33.112 113.534 33.0213 112.872 32.84C112.222 32.648 111.704 32.4187 111.32 32.152L112.088 30.632C112.472 30.8773 112.931 31.08 113.464 31.24C113.998 31.4 114.531 31.48 115.064 31.48C115.694 31.48 116.147 31.3947 116.424 31.224C116.712 31.0533 116.856 30.824 116.856 30.536C116.856 30.3013 116.76 30.1253 116.568 30.008C116.376 29.88 116.126 29.784 115.816 29.72C115.507 29.656 115.16 29.5973 114.776 29.544C114.403 29.4907 114.024 29.4213 113.64 29.336C113.267 29.24 112.926 29.1067 112.616 28.936C112.307 28.7547 112.056 28.5147 111.864 28.216C111.672 27.9173 111.576 27.5227 111.576 27.032C111.576 26.488 111.731 26.0187 112.04 25.624C112.35 25.2187 112.782 24.9093 113.336 24.696C113.902 24.472 114.568 24.36 115.336 24.36C115.912 24.36 116.494 24.424 117.08 24.552C117.667 24.68 118.152 24.8613 118.536 25.096L117.768 26.616C117.363 26.3707 116.952 26.2053 116.536 26.12C116.131 26.024 115.726 25.976 115.32 25.976C114.712 25.976 114.259 26.0667 113.96 26.248C113.672 26.4293 113.528 26.6587 113.528 26.936C113.528 27.192 113.624 27.384 113.816 27.512C114.008 27.64 114.259 27.7413 114.568 27.816C114.878 27.8907 115.219 27.9547 115.592 28.008C115.976 28.0507 116.355 28.12 116.728 28.216C117.102 28.312 117.443 28.4453 117.752 28.616C118.072 28.776 118.328 29.0053 118.52 29.304C118.712 29.6027 118.808 29.992 118.808 30.472C118.808 31.0053 118.648 31.4693 118.328 31.864C118.019 32.2587 117.576 32.568 117 32.792C116.424 33.0053 115.736 33.112 114.936 33.112ZM124.451 33.112C123.555 33.112 122.755 32.9253 122.051 32.552C121.357 32.168 120.813 31.6453 120.419 30.984C120.024 30.3227 119.827 29.5707 119.827 28.728C119.827 27.8747 120.024 27.1227 120.419 26.472C120.813 25.8107 121.357 25.2933 122.051 24.92C122.755 24.5467 123.555 24.36 124.451 24.36C125.283 24.36 126.013 24.5307 126.643 24.872C127.283 25.2027 127.768 25.6933 128.099 26.344L126.563 27.24C126.307 26.8347 125.992 26.536 125.619 26.344C125.256 26.152 124.861 26.056 124.435 26.056C123.944 26.056 123.501 26.1627 123.107 26.376C122.712 26.5893 122.403 26.8987 122.179 27.304C121.955 27.6987 121.843 28.1733 121.843 28.728C121.843 29.2827 121.955 29.7627 122.179 30.168C122.403 30.5627 122.712 30.8667 123.107 31.08C123.501 31.2933 123.944 31.4 124.435 31.4C124.861 31.4 125.256 31.304 125.619 31.112C125.992 30.92 126.307 30.6213 126.563 30.216L128.099 31.112C127.768 31.752 127.283 32.248 126.643 32.6C126.013 32.9413 125.283 33.112 124.451 33.112ZM134.598 24.36C135.28 24.36 135.888 24.4933 136.422 24.76C136.966 25.0267 137.392 25.4373 137.702 25.992C138.011 26.536 138.166 27.24 138.166 28.104V33H136.166V28.36C136.166 27.6027 135.984 27.0373 135.622 26.664C135.27 26.2907 134.774 26.104 134.134 26.104C133.664 26.104 133.248 26.2 132.886 26.392C132.523 26.584 132.24 26.872 132.038 27.256C131.846 27.6293 131.75 28.104 131.75 28.68V33H129.75V21.128H131.75V26.76L131.318 26.056C131.616 25.512 132.048 25.096 132.614 24.808C133.19 24.5093 133.851 24.36 134.598 24.36ZM144.734 33.112C143.785 33.112 142.953 32.9253 142.238 32.552C141.534 32.168 140.985 31.6453 140.59 30.984C140.206 30.3227 140.014 29.5707 140.014 28.728C140.014 27.8747 140.201 27.1227 140.574 26.472C140.958 25.8107 141.481 25.2933 142.142 24.92C142.814 24.5467 143.577 24.36 144.43 24.36C145.262 24.36 146.004 24.5413 146.654 24.904C147.305 25.2667 147.817 25.7787 148.19 26.44C148.564 27.1013 148.75 27.88 148.75 28.776C148.75 28.8613 148.745 28.9573 148.734 29.064C148.734 29.1707 148.729 29.272 148.718 29.368H141.598V28.04H147.662L146.878 28.456C146.889 27.9653 146.788 27.5333 146.574 27.16C146.361 26.7867 146.068 26.4933 145.694 26.28C145.332 26.0667 144.91 25.96 144.43 25.96C143.94 25.96 143.508 26.0667 143.134 26.28C142.772 26.4933 142.484 26.792 142.27 27.176C142.068 27.5493 141.966 27.992 141.966 28.504V28.824C141.966 29.336 142.084 29.7893 142.318 30.184C142.553 30.5787 142.884 30.8827 143.31 31.096C143.737 31.3093 144.228 31.416 144.782 31.416C145.262 31.416 145.694 31.3413 146.078 31.192C146.462 31.0427 146.804 30.808 147.102 30.488L148.174 31.72C147.79 32.168 147.305 32.5147 146.718 32.76C146.142 32.9947 145.481 33.112 144.734 33.112ZM155.519 24.36C156.202 24.36 156.81 24.4933 157.343 24.76C157.887 25.0267 158.314 25.4373 158.623 25.992C158.933 26.536 159.087 27.24 159.087 28.104V33H157.087V28.36C157.087 27.6027 156.906 27.0373 156.543 26.664C156.191 26.2907 155.695 26.104 155.055 26.104C154.586 26.104 154.17 26.2 153.807 26.392C153.445 26.584 153.162 26.872 152.959 27.256C152.767 27.6293 152.671 28.104 152.671 28.68V33H150.671V24.456H152.575V26.76L152.239 26.056C152.538 25.512 152.97 25.096 153.535 24.808C154.111 24.5093 154.773 24.36 155.519 24.36ZM163.257 31.096L163.305 28.584L167.769 24.456H170.169L166.377 28.264L165.321 29.144L163.257 31.096ZM161.625 33V21.128H163.625V33H161.625ZM168.073 33L164.953 29.144L166.217 27.544L170.505 33H168.073ZM175.453 33.112C174.504 33.112 173.672 32.9253 172.957 32.552C172.253 32.168 171.704 31.6453 171.309 30.984C170.925 30.3227 170.733 29.5707 170.733 28.728C170.733 27.8747 170.92 27.1227 171.293 26.472C171.677 25.8107 172.2 25.2933 172.861 24.92C173.533 24.5467 174.296 24.36 175.149 24.36C175.981 24.36 176.722 24.5413 177.373 24.904C178.024 25.2667 178.536 25.7787 178.909 26.44C179.282 27.1013 179.469 27.88 179.469 28.776C179.469 28.8613 179.464 28.9573 179.453 29.064C179.453 29.1707 179.448 29.272 179.437 29.368H172.317V28.04H178.381L177.597 28.456C177.608 27.9653 177.506 27.5333 177.293 27.16C177.08 26.7867 176.786 26.4933 176.413 26.28C176.05 26.0667 175.629 25.96 175.149 25.96C174.658 25.96 174.226 26.0667 173.853 26.28C173.49 26.4933 173.202 26.792 172.989 27.176C172.786 27.5493 172.685 27.992 172.685 28.504V28.824C172.685 29.336 172.802 29.7893 173.037 30.184C173.272 30.5787 173.602 30.8827 174.029 31.096C174.456 31.3093 174.946 31.416 175.501 31.416C175.981 31.416 176.413 31.3413 176.797 31.192C177.181 31.0427 177.522 30.808 177.821 30.488L178.893 31.72C178.509 32.168 178.024 32.5147 177.437 32.76C176.861 32.9947 176.2 33.112 175.453 33.112ZM186.238 24.36C186.921 24.36 187.529 24.4933 188.062 24.76C188.606 25.0267 189.033 25.4373 189.342 25.992C189.651 26.536 189.806 27.24 189.806 28.104V33H187.806V28.36C187.806 27.6027 187.625 27.0373 187.262 26.664C186.91 26.2907 186.414 26.104 185.774 26.104C185.305 26.104 184.889 26.2 184.526 26.392C184.163 26.584 183.881 26.872 183.678 27.256C183.486 27.6293 183.39 28.104 183.39 28.68V33H181.39V24.456H183.294V26.76L182.958 26.056C183.257 25.512 183.689 25.096 184.254 24.808C184.83 24.5093 185.491 24.36 186.238 24.36ZM192.471 29.288L192.087 21.8H194.455L194.055 29.288H192.471ZM193.271 33.112C192.898 33.112 192.589 32.9893 192.343 32.744C192.098 32.4987 191.975 32.2053 191.975 31.864C191.975 31.5227 192.098 31.2347 192.343 31C192.589 30.7547 192.898 30.632 193.271 30.632C193.645 30.632 193.949 30.7547 194.183 31C194.418 31.2347 194.535 31.5227 194.535 31.864C194.535 32.2053 194.418 32.4987 194.183 32.744C193.949 32.9893 193.645 33.112 193.271 33.112Z" fill="white"/>
</svg>
