<svg width="258" height="48" viewBox="0 0 258 48" fill="none" xmlns="http://www.w3.org/2000/svg">
<path d="M2.825 18H1.25C0.966667 18 0.825 17.8583 0.825 17.575V2.35C0.825 2.06667 0.966667 1.925 1.25 1.925H7.1C8.31667 1.925 9.26667 2.275 9.95 2.975C10.65 3.65833 11 4.60833 11 5.825V7.925C11 9.84167 10.2083 11.05 8.625 11.55V11.65L11.4 17.5C11.5833 17.8333 11.475 18 11.075 18H9.525C9.125 18 8.86667 17.8583 8.75 17.575L6.075 11.825H3.55C3.35 11.825 3.25 11.9083 3.25 12.075V17.575C3.25 17.8583 3.10833 18 2.825 18ZM3.525 9.825H6.7C7.93333 9.825 8.55 9.21667 8.55 8V5.9C8.55 4.66667 7.93333 4.05 6.7 4.05H3.525C3.34167 4.05 3.25 4.13333 3.25 4.3V9.575C3.25 9.74167 3.34167 9.825 3.525 9.825ZM23.1498 18H17.7498C16.5165 18 15.5581 17.6583 14.8748 16.975C14.2081 16.2917 13.8748 15.3417 13.8748 14.125V9.125C13.8748 7.89167 14.2081 6.94167 14.8748 6.275C15.5581 5.59167 16.5165 5.25 17.7498 5.25H19.7998C21.0331 5.25 21.9915 5.59167 22.6748 6.275C23.3581 6.94167 23.6998 7.89167 23.6998 9.125V12.3C23.6998 12.6 23.5498 12.75 23.2498 12.75H16.5498C16.3665 12.75 16.2748 12.8333 16.2748 13V14.075C16.2748 15.2917 16.8831 15.9 18.0998 15.9H23.1498C23.4498 15.9 23.5998 16.05 23.5998 16.35V17.6C23.5998 17.8667 23.4498 18 23.1498 18ZM16.5498 11.05H21.0248C21.1915 11.05 21.2748 10.9667 21.2748 10.8V9.2C21.2748 8.56667 21.1331 8.10833 20.8498 7.825C20.5665 7.525 20.1081 7.375 19.4748 7.375H18.0998C17.4665 7.375 17.0081 7.525 16.7248 7.825C16.4415 8.10833 16.2998 8.56667 16.2998 9.2V10.8C16.2998 10.9667 16.3831 11.05 16.5498 11.05ZM31.1039 17.375H29.9789C28.7789 17.375 27.8539 17.0417 27.2039 16.375C26.5706 15.6917 26.2539 14.7333 26.2539 13.5V9.125C26.2539 7.89167 26.5956 6.94167 27.2789 6.275C27.9622 5.59167 28.9122 5.25 30.1289 5.25H35.7289C36.0289 5.25 36.1789 5.39167 36.1789 5.675V18.05C36.1789 19.2667 35.8289 20.2083 35.1289 20.875C34.4456 21.5583 33.4956 21.9 32.2789 21.9H27.5789C27.2956 21.9 27.1539 21.7667 27.1539 21.5V20.2C27.1539 19.9167 27.2956 19.775 27.5789 19.775H31.9039C33.1206 19.775 33.7289 19.1583 33.7289 17.925V16.025H33.6289C33.2122 16.925 32.3706 17.375 31.1039 17.375ZM33.7289 13.125V7.625C33.7289 7.45833 33.6372 7.375 33.4539 7.375H30.4789C29.2956 7.375 28.7039 7.99167 28.7039 9.225V13.375C28.7039 14.6083 29.2956 15.225 30.4789 15.225H31.6789C33.0456 15.225 33.7289 14.525 33.7289 13.125ZM48.3207 18H42.9207C41.6874 18 40.729 17.6583 40.0457 16.975C39.379 16.2917 39.0457 15.3417 39.0457 14.125V9.125C39.0457 7.89167 39.379 6.94167 40.0457 6.275C40.729 5.59167 41.6874 5.25 42.9207 5.25H44.9707C46.204 5.25 47.1624 5.59167 47.8457 6.275C48.529 6.94167 48.8707 7.89167 48.8707 9.125V12.3C48.8707 12.6 48.7207 12.75 48.4207 12.75H41.7207C41.5374 12.75 41.4457 12.8333 41.4457 13V14.075C41.4457 15.2917 42.054 15.9 43.2707 15.9H48.3207C48.6207 15.9 48.7707 16.05 48.7707 16.35V17.6C48.7707 17.8667 48.6207 18 48.3207 18ZM41.7207 11.05H46.1957C46.3624 11.05 46.4457 10.9667 46.4457 10.8V9.2C46.4457 8.56667 46.304 8.10833 46.0207 7.825C45.7374 7.525 45.279 7.375 44.6457 7.375H43.2707C42.6374 7.375 42.179 7.525 41.8957 7.825C41.6124 8.10833 41.4707 8.56667 41.4707 9.2V10.8C41.4707 10.9667 41.554 11.05 41.7207 11.05ZM53.7498 18H52.1748C51.8915 18 51.7498 17.8583 51.7498 17.575V0.849999C51.7498 0.566666 51.8915 0.425 52.1748 0.425H53.7498C54.0331 0.425 54.1748 0.566666 54.1748 0.849999V17.575C54.1748 17.8583 54.0331 18 53.7498 18ZM63.5418 3.125V0.849999C63.5418 0.583333 63.6751 0.449999 63.9418 0.449999H65.5668C65.8335 0.449999 65.9668 0.583333 65.9668 0.849999V3.125C65.9668 3.40833 65.8335 3.55 65.5668 3.55H63.9418C63.6751 3.55 63.5418 3.40833 63.5418 3.125ZM62.0668 21.9H60.7418C60.4585 21.9 60.3168 21.7583 60.3168 21.475V20.2C60.3168 19.9167 60.4585 19.775 60.7418 19.775H61.3918C62.1751 19.775 62.7251 19.6083 63.0418 19.275C63.3751 18.9417 63.5418 18.3833 63.5418 17.6V5.675C63.5418 5.39167 63.6835 5.25 63.9668 5.25H65.5418C65.8251 5.25 65.9668 5.39167 65.9668 5.675V18.025C65.9668 19.2417 65.6168 20.1917 64.9168 20.875C64.2335 21.5583 63.2835 21.9 62.0668 21.9ZM78.2768 18H72.8768C71.6434 18 70.6851 17.6583 70.0018 16.975C69.3351 16.2917 69.0018 15.3417 69.0018 14.125V9.125C69.0018 7.89167 69.3351 6.94167 70.0018 6.275C70.6851 5.59167 71.6434 5.25 72.8768 5.25H74.9268C76.1601 5.25 77.1184 5.59167 77.8018 6.275C78.4851 6.94167 78.8268 7.89167 78.8268 9.125V12.3C78.8268 12.6 78.6768 12.75 78.3768 12.75H71.6768C71.4934 12.75 71.4018 12.8333 71.4018 13V14.075C71.4018 15.2917 72.0101 15.9 73.2268 15.9H78.2768C78.5768 15.9 78.7268 16.05 78.7268 16.35V17.6C78.7268 17.8667 78.5768 18 78.2768 18ZM71.6768 11.05H76.1518C76.3184 11.05 76.4018 10.9667 76.4018 10.8V9.2C76.4018 8.56667 76.2601 8.10833 75.9768 7.825C75.6934 7.525 75.2351 7.375 74.6018 7.375H73.2268C72.5934 7.375 72.1351 7.525 71.8518 7.825C71.5684 8.10833 71.4268 8.56667 71.4268 9.2V10.8C71.4268 10.9667 71.5101 11.05 71.6768 11.05ZM94.7879 5.25H96.5879C96.7379 5.25 96.8379 5.3 96.8879 5.4C96.9546 5.48333 96.9379 5.6 96.8379 5.75L93.3129 11.35V11.45L97.1129 17.5C97.1962 17.6333 97.2046 17.75 97.1379 17.85C97.0879 17.95 96.9712 18 96.7879 18H95.1629C94.7796 18 94.4962 17.8583 94.3129 17.575L90.7879 11.8C90.6712 11.5833 90.6712 11.3583 90.7879 11.125L94.0629 5.65C94.2129 5.38333 94.4546 5.25 94.7879 5.25ZM89.5379 18H87.9629C87.6796 18 87.5379 17.8583 87.5379 17.575V0.849999C87.5379 0.566666 87.6796 0.425 87.9629 0.425H89.5379C89.8212 0.425 89.9629 0.566666 89.9629 0.849999V17.575C89.9629 17.8583 89.8212 18 89.5379 18ZM107.964 18H102.564C101.331 18 100.373 17.6583 99.6893 16.975C99.0226 16.2917 98.6893 15.3417 98.6893 14.125V9.125C98.6893 7.89167 99.0226 6.94167 99.6893 6.275C100.373 5.59167 101.331 5.25 102.564 5.25H104.614C105.848 5.25 106.806 5.59167 107.489 6.275C108.173 6.94167 108.514 7.89167 108.514 9.125V12.3C108.514 12.6 108.364 12.75 108.064 12.75H101.364C101.181 12.75 101.089 12.8333 101.089 13V14.075C101.089 15.2917 101.698 15.9 102.914 15.9H107.964C108.264 15.9 108.414 16.05 108.414 16.35V17.6C108.414 17.8667 108.264 18 107.964 18ZM101.364 11.05H105.839C106.006 11.05 106.089 10.9667 106.089 10.8V9.2C106.089 8.56667 105.948 8.10833 105.664 7.825C105.381 7.525 104.923 7.375 104.289 7.375H102.914C102.281 7.375 101.823 7.525 101.539 7.825C101.256 8.10833 101.114 8.56667 101.114 9.2V10.8C101.114 10.9667 101.198 11.05 101.364 11.05ZM113.268 18H111.693C111.41 18 111.268 17.8583 111.268 17.575V5.675C111.268 5.39167 111.41 5.25 111.693 5.25H113.268C113.552 5.25 113.693 5.39167 113.693 5.675V6.625H113.793C113.96 6.20833 114.277 5.875 114.743 5.625C115.227 5.375 115.76 5.25 116.343 5.25H117.268C117.552 5.25 117.693 5.39167 117.693 5.675V6.975C117.693 7.29167 117.552 7.425 117.268 7.375H115.768C114.385 7.375 113.693 8.13333 113.693 9.65V17.575C113.693 17.8583 113.552 18 113.268 18ZM124.192 18H119.592C119.309 18 119.167 17.8583 119.167 17.575V16.35C119.167 16.0833 119.309 15.95 119.592 15.95H123.792C124.876 15.95 125.417 15.575 125.417 14.825V14.525C125.417 13.8583 125.026 13.35 124.242 13L121.517 11.7C120.667 11.3 120.051 10.8583 119.667 10.375C119.284 9.89167 119.092 9.25833 119.092 8.475C119.092 6.325 120.284 5.25 122.667 5.25H126.817C127.084 5.25 127.217 5.39167 127.217 5.675V6.9C127.217 7.18333 127.084 7.325 126.817 7.325H123.167C122.667 7.325 122.284 7.41667 122.017 7.6C121.751 7.76667 121.617 7.99167 121.617 8.275V8.55C121.617 9.08333 122.042 9.55 122.892 9.95L125.642 11.35C126.509 11.7333 127.101 12.1917 127.417 12.725C127.751 13.2417 127.917 13.9167 127.917 14.75C127.917 16.9167 126.676 18 124.192 18ZM130.882 7.375H129.682C129.515 7.375 129.398 7.35 129.332 7.3C129.282 7.23333 129.257 7.125 129.257 6.975V5.675C129.257 5.39167 129.398 5.25 129.682 5.25H130.882C131.048 5.25 131.132 5.16667 131.132 5V2.75C131.132 2.46667 131.282 2.325 131.582 2.325H133.157C133.44 2.325 133.582 2.46667 133.582 2.75V5C133.582 5.16667 133.673 5.25 133.857 5.25H136.182C136.482 5.25 136.632 5.39167 136.632 5.675V6.975C136.632 7.24167 136.482 7.375 136.182 7.375H133.857C133.673 7.375 133.582 7.45833 133.582 7.625V14.05C133.582 15.2667 134.207 15.875 135.457 15.875H136.432C136.732 15.875 136.882 16.0167 136.882 16.3V17.6C136.882 17.8667 136.732 18 136.432 18H135.082C133.848 18 132.882 17.6667 132.182 17C131.482 16.3333 131.132 15.3917 131.132 14.175V7.625C131.132 7.45833 131.048 7.375 130.882 7.375ZM143.921 17.375H142.796C141.596 17.375 140.671 17.0417 140.021 16.375C139.388 15.6917 139.071 14.7333 139.071 13.5V9.125C139.071 7.89167 139.413 6.94167 140.096 6.275C140.78 5.59167 141.73 5.25 142.946 5.25H148.546C148.846 5.25 148.996 5.39167 148.996 5.675V18.05C148.996 19.2667 148.646 20.2083 147.946 20.875C147.263 21.5583 146.313 21.9 145.096 21.9H140.396C140.113 21.9 139.971 21.7667 139.971 21.5V20.2C139.971 19.9167 140.113 19.775 140.396 19.775H144.721C145.938 19.775 146.546 19.1583 146.546 17.925V16.025H146.446C146.03 16.925 145.188 17.375 143.921 17.375ZM146.546 13.125V7.625C146.546 7.45833 146.455 7.375 146.271 7.375H143.296C142.113 7.375 141.521 7.99167 141.521 9.225V13.375C141.521 14.6083 142.113 15.225 143.296 15.225H144.496C145.863 15.225 146.546 14.525 146.546 13.125ZM161.138 18H155.738C154.505 18 153.546 17.6583 152.863 16.975C152.196 16.2917 151.863 15.3417 151.863 14.125V9.125C151.863 7.89167 152.196 6.94167 152.863 6.275C153.546 5.59167 154.505 5.25 155.738 5.25H157.788C159.021 5.25 159.98 5.59167 160.663 6.275C161.346 6.94167 161.688 7.89167 161.688 9.125V12.3C161.688 12.6 161.538 12.75 161.238 12.75H154.538C154.355 12.75 154.263 12.8333 154.263 13V14.075C154.263 15.2917 154.871 15.9 156.088 15.9H161.138C161.438 15.9 161.588 16.05 161.588 16.35V17.6C161.588 17.8667 161.438 18 161.138 18ZM154.538 11.05H159.013C159.18 11.05 159.263 10.9667 159.263 10.8V9.2C159.263 8.56667 159.121 8.10833 158.838 7.825C158.555 7.525 158.096 7.375 157.463 7.375H156.088C155.455 7.375 154.996 7.525 154.713 7.825C154.43 8.10833 154.288 8.56667 154.288 9.2V10.8C154.288 10.9667 154.371 11.05 154.538 11.05ZM168.992 18H164.392C164.109 18 163.967 17.8583 163.967 17.575V16.35C163.967 16.0833 164.109 15.95 164.392 15.95H168.592C169.676 15.95 170.217 15.575 170.217 14.825V14.525C170.217 13.8583 169.826 13.35 169.042 13L166.317 11.7C165.467 11.3 164.851 10.8583 164.467 10.375C164.084 9.89167 163.892 9.25833 163.892 8.475C163.892 6.325 165.084 5.25 167.467 5.25H171.617C171.884 5.25 172.017 5.39167 172.017 5.675V6.9C172.017 7.18333 171.884 7.325 171.617 7.325H167.967C167.467 7.325 167.084 7.41667 166.817 7.6C166.551 7.76667 166.417 7.99167 166.417 8.275V8.55C166.417 9.08333 166.842 9.55 167.692 9.95L170.442 11.35C171.309 11.7333 171.901 12.1917 172.217 12.725C172.551 13.2417 172.717 13.9167 172.717 14.75C172.717 16.9167 171.476 18 168.992 18ZM183.056 16.3V17.6C183.056 17.8667 182.906 18 182.606 18H178.931C177.698 18 176.74 17.6583 176.056 16.975C175.39 16.2917 175.056 15.3417 175.056 14.125V9.125C175.056 7.89167 175.39 6.94167 176.056 6.275C176.74 5.59167 177.698 5.25 178.931 5.25H182.606C182.906 5.25 183.056 5.39167 183.056 5.675V6.975C183.056 7.24167 182.906 7.375 182.606 7.375H179.281C178.081 7.375 177.481 7.99167 177.481 9.225V14.025C177.481 15.2583 178.081 15.875 179.281 15.875H182.606C182.906 15.875 183.056 16.0167 183.056 16.3ZM187.438 18H185.863C185.58 18 185.438 17.8583 185.438 17.575V0.849999C185.438 0.566666 185.58 0.425 185.863 0.425H187.438C187.722 0.425 187.863 0.566666 187.863 0.849999V6.575H187.963C188.363 5.69167 189.205 5.25 190.488 5.25H191.588C192.805 5.25 193.738 5.58333 194.388 6.25C195.038 6.91667 195.363 7.875 195.363 9.125V17.575C195.363 17.8583 195.213 18 194.913 18H193.338C193.055 18 192.913 17.8583 192.913 17.575V9.225C192.913 7.99167 192.305 7.375 191.088 7.375H189.913C188.547 7.375 187.863 8.08333 187.863 9.5V17.575C187.863 17.8583 187.722 18 187.438 18ZM207.378 18H201.978C200.745 18 199.787 17.6583 199.103 16.975C198.437 16.2917 198.103 15.3417 198.103 14.125V9.125C198.103 7.89167 198.437 6.94167 199.103 6.275C199.787 5.59167 200.745 5.25 201.978 5.25H204.028C205.262 5.25 206.22 5.59167 206.903 6.275C207.587 6.94167 207.928 7.89167 207.928 9.125V12.3C207.928 12.6 207.778 12.75 207.478 12.75H200.778C200.595 12.75 200.503 12.8333 200.503 13V14.075C200.503 15.2917 201.112 15.9 202.328 15.9H207.378C207.678 15.9 207.828 16.05 207.828 16.35V17.6C207.828 17.8667 207.678 18 207.378 18ZM200.778 11.05H205.253C205.42 11.05 205.503 10.9667 205.503 10.8V9.2C205.503 8.56667 205.362 8.10833 205.078 7.825C204.795 7.525 204.337 7.375 203.703 7.375H202.328C201.695 7.375 201.237 7.525 200.953 7.825C200.67 8.10833 200.528 8.56667 200.528 9.2V10.8C200.528 10.9667 200.612 11.05 200.778 11.05ZM212.682 18H211.107C210.824 18 210.682 17.8583 210.682 17.575V5.675C210.682 5.39167 210.824 5.25 211.107 5.25H212.682C212.966 5.25 213.107 5.39167 213.107 5.675V6.575H213.207C213.607 5.69167 214.449 5.25 215.732 5.25H216.832C218.049 5.25 218.982 5.58333 219.632 6.25C220.282 6.91667 220.607 7.875 220.607 9.125V17.575C220.607 17.8583 220.457 18 220.157 18H218.582C218.299 18 218.157 17.8583 218.157 17.575V9.225C218.157 7.99167 217.549 7.375 216.332 7.375H215.157C213.791 7.375 213.107 8.08333 213.107 9.5V17.575C213.107 17.8583 212.966 18 212.682 18ZM230.847 5.25H232.647C232.797 5.25 232.897 5.3 232.947 5.4C233.014 5.48333 232.997 5.6 232.897 5.75L229.372 11.35V11.45L233.172 17.5C233.256 17.6333 233.264 17.75 233.197 17.85C233.147 17.95 233.031 18 232.847 18H231.222C230.839 18 230.556 17.8583 230.372 17.575L226.847 11.8C226.731 11.5833 226.731 11.3583 226.847 11.125L230.122 5.65C230.272 5.38333 230.514 5.25 230.847 5.25ZM225.597 18H224.022C223.739 18 223.597 17.8583 223.597 17.575V0.849999C223.597 0.566666 223.739 0.425 224.022 0.425H225.597C225.881 0.425 226.022 0.566666 226.022 0.849999V17.575C226.022 17.8583 225.881 18 225.597 18ZM244.024 18H238.624C237.39 18 236.432 17.6583 235.749 16.975C235.082 16.2917 234.749 15.3417 234.749 14.125V9.125C234.749 7.89167 235.082 6.94167 235.749 6.275C236.432 5.59167 237.39 5.25 238.624 5.25H240.674C241.907 5.25 242.865 5.59167 243.549 6.275C244.232 6.94167 244.574 7.89167 244.574 9.125V12.3C244.574 12.6 244.424 12.75 244.124 12.75H237.424C237.24 12.75 237.149 12.8333 237.149 13V14.075C237.149 15.2917 237.757 15.9 238.974 15.9H244.024C244.324 15.9 244.474 16.05 244.474 16.35V17.6C244.474 17.8667 244.324 18 244.024 18ZM237.424 11.05H241.899C242.065 11.05 242.149 10.9667 242.149 10.8V9.2C242.149 8.56667 242.007 8.10833 241.724 7.825C241.44 7.525 240.982 7.375 240.349 7.375H238.974C238.34 7.375 237.882 7.525 237.599 7.825C237.315 8.10833 237.174 8.56667 237.174 9.2V10.8C237.174 10.9667 237.257 11.05 237.424 11.05ZM249.328 18H247.753C247.47 18 247.328 17.8583 247.328 17.575V5.675C247.328 5.39167 247.47 5.25 247.753 5.25H249.328C249.611 5.25 249.753 5.39167 249.753 5.675V6.575H249.853C250.253 5.69167 251.095 5.25 252.378 5.25H253.478C254.695 5.25 255.628 5.58333 256.278 6.25C256.928 6.91667 257.253 7.875 257.253 9.125V17.575C257.253 17.8583 257.103 18 256.803 18H255.228C254.945 18 254.803 17.8583 254.803 17.575V9.225C254.803 7.99167 254.195 7.375 252.978 7.375H251.803C250.436 7.375 249.753 8.08333 249.753 9.5V17.575C249.753 17.8583 249.611 18 249.328 18ZM9.6 44H4.2C2.96667 44 2.00833 43.6583 1.325 42.975C0.658333 42.2917 0.325 41.3417 0.325 40.125V35.125C0.325 33.8917 0.658333 32.9417 1.325 32.275C2.00833 31.5917 2.96667 31.25 4.2 31.25H6.25C7.48333 31.25 8.44167 31.5917 9.125 32.275C9.80833 32.9417 10.15 33.8917 10.15 35.125V38.3C10.15 38.6 10 38.75 9.7 38.75H3C2.81667 38.75 2.725 38.8333 2.725 39V40.075C2.725 41.2917 3.33333 41.9 4.55 41.9H9.6C9.9 41.9 10.05 42.05 10.05 42.35V43.6C10.05 43.8667 9.9 44 9.6 44ZM3 37.05H7.475C7.64167 37.05 7.725 36.9667 7.725 36.8V35.2C7.725 34.5667 7.58333 34.1083 7.3 33.825C7.01667 33.525 6.55833 33.375 5.925 33.375H4.55C3.91667 33.375 3.45833 33.525 3.175 33.825C2.89167 34.1083 2.75 34.5667 2.75 35.2V36.8C2.75 36.9667 2.83333 37.05 3 37.05ZM21.9291 44H16.5291C15.2958 44 14.3374 43.6583 13.6541 42.975C12.9874 42.2917 12.6541 41.3417 12.6541 40.125V35.125C12.6541 33.8917 12.9874 32.9417 13.6541 32.275C14.3374 31.5917 15.2958 31.25 16.5291 31.25H18.5791C19.8124 31.25 20.7708 31.5917 21.4541 32.275C22.1374 32.9417 22.4791 33.8917 22.4791 35.125V38.3C22.4791 38.6 22.3291 38.75 22.0291 38.75H15.3291C15.1458 38.75 15.0541 38.8333 15.0541 39V40.075C15.0541 41.2917 15.6624 41.9 16.8791 41.9H21.9291C22.2291 41.9 22.3791 42.05 22.3791 42.35V43.6C22.3791 43.8667 22.2291 44 21.9291 44ZM15.3291 37.05H19.8041C19.9708 37.05 20.0541 36.9667 20.0541 36.8V35.2C20.0541 34.5667 19.9124 34.1083 19.6291 33.825C19.3458 33.525 18.8874 33.375 18.2541 33.375H16.8791C16.2458 33.375 15.7874 33.525 15.5041 33.825C15.2208 34.1083 15.0791 34.5667 15.0791 35.2V36.8C15.0791 36.9667 15.1624 37.05 15.3291 37.05ZM27.2332 44H25.6582C25.3749 44 25.2332 43.8583 25.2332 43.575V31.675C25.2332 31.3917 25.3749 31.25 25.6582 31.25H27.2332C27.5165 31.25 27.6582 31.3917 27.6582 31.675V32.575H27.7582C28.1582 31.6917 28.9999 31.25 30.2832 31.25H31.3832C32.5999 31.25 33.5332 31.5833 34.1832 32.25C34.8332 32.9167 35.1582 33.875 35.1582 35.125V43.575C35.1582 43.8583 35.0082 44 34.7082 44H33.1332C32.8499 44 32.7082 43.8583 32.7082 43.575V35.225C32.7082 33.9917 32.0999 33.375 30.8832 33.375H29.7082C28.3415 33.375 27.6582 34.0833 27.6582 35.5V43.575C27.6582 43.8583 27.5165 44 27.2332 44ZM37.3482 31.25H39.0232C39.2899 31.25 39.4482 31.3917 39.4982 31.675L42.0982 41.725H42.2732L44.8232 31.675C44.8899 31.3917 45.0649 31.25 45.3482 31.25H46.9982C47.2982 31.25 47.3982 31.3917 47.2982 31.675L43.9232 43.55C43.8566 43.85 43.6732 44 43.3732 44H40.9732C40.6732 44 40.4899 43.85 40.4232 43.55L37.0482 31.675C36.9816 31.3917 37.0816 31.25 37.3482 31.25ZM55.1793 44H52.9793C51.746 44 50.7876 43.6583 50.1043 42.975C49.4376 42.2917 49.1043 41.3417 49.1043 40.125V35.125C49.1043 33.8917 49.4376 32.9417 50.1043 32.275C50.7876 31.5917 51.746 31.25 52.9793 31.25H55.1793C56.396 31.25 57.346 31.5917 58.0293 32.275C58.7293 32.9417 59.0793 33.8917 59.0793 35.125V40.125C59.0793 41.3417 58.7293 42.2917 58.0293 42.975C57.346 43.6583 56.396 44 55.1793 44ZM53.3293 41.875H54.8543C56.0543 41.875 56.6543 41.2667 56.6543 40.05V35.2C56.6543 33.9833 56.0543 33.375 54.8543 33.375H53.3293C52.696 33.375 52.2376 33.525 51.9543 33.825C51.671 34.1083 51.5293 34.5667 51.5293 35.2V40.05C51.5293 40.6833 51.671 41.15 51.9543 41.45C52.2376 41.7333 52.696 41.875 53.3293 41.875ZM66.677 44H65.552C64.352 44 63.427 43.6667 62.777 43C62.1436 42.3167 61.827 41.3583 61.827 40.125V31.675C61.827 31.3917 61.9686 31.25 62.252 31.25H63.827C64.1103 31.25 64.252 31.3917 64.252 31.675V40.025C64.252 41.2583 64.852 41.875 66.052 41.875H67.252C68.6186 41.875 69.302 41.1667 69.302 39.75V31.675C69.302 31.3917 69.4436 31.25 69.727 31.25H71.302C71.602 31.25 71.752 31.3917 71.752 31.675V43.575C71.752 43.8583 71.602 44 71.302 44H69.727C69.4436 44 69.302 43.8583 69.302 43.575V42.675H69.202C68.802 43.5583 67.9603 44 66.677 44ZM79.617 44H78.342C77.142 44 76.217 43.6667 75.567 43C74.9337 42.3167 74.617 41.3583 74.617 40.125V35.125C74.617 33.875 74.9337 32.9167 75.567 32.25C76.217 31.5833 77.142 31.25 78.342 31.25H79.617C80.9003 31.25 81.7337 31.6917 82.117 32.575H82.217V26.85C82.217 26.5667 82.3587 26.425 82.642 26.425H84.242C84.5253 26.425 84.667 26.5667 84.667 26.85V43.575C84.667 43.8583 84.5253 44 84.242 44H82.642C82.3587 44 82.217 43.8583 82.217 43.575V42.675H82.117C81.7337 43.5583 80.9003 44 79.617 44ZM82.217 39.75V35.5C82.217 34.0833 81.5337 33.375 80.167 33.375H78.842C77.642 33.375 77.042 33.9917 77.042 35.225V40.025C77.042 41.2583 77.642 41.875 78.842 41.875H80.167C81.5337 41.875 82.217 41.1667 82.217 39.75ZM87.9314 29.125V26.85C87.9314 26.5833 88.0648 26.45 88.3314 26.45H89.9564C90.2231 26.45 90.3564 26.5833 90.3564 26.85V29.125C90.3564 29.4083 90.2231 29.55 89.9564 29.55H88.3314C88.0648 29.55 87.9314 29.4083 87.9314 29.125ZM87.9314 43.575V31.675C87.9314 31.3917 88.0648 31.25 88.3314 31.25H89.9314C90.2148 31.25 90.3564 31.3917 90.3564 31.675V43.575C90.3564 43.7417 90.3231 43.8583 90.2564 43.925C90.2064 43.975 90.1064 44 89.9564 44H88.3564C88.0731 44 87.9314 43.8583 87.9314 43.575ZM98.2914 43.375H97.1664C95.9664 43.375 95.0414 43.0417 94.3914 42.375C93.7581 41.6917 93.4414 40.7333 93.4414 39.5V35.125C93.4414 33.8917 93.7831 32.9417 94.4664 32.275C95.1497 31.5917 96.0997 31.25 97.3164 31.25H102.916C103.216 31.25 103.366 31.3917 103.366 31.675V44.05C103.366 45.2667 103.016 46.2083 102.316 46.875C101.633 47.5583 100.683 47.9 99.4664 47.9H94.7664C94.4831 47.9 94.3414 47.7667 94.3414 47.5V46.2C94.3414 45.9167 94.4831 45.775 94.7664 45.775H99.0914C100.308 45.775 100.916 45.1583 100.916 43.925V42.025H100.816C100.4 42.925 99.5581 43.375 98.2914 43.375ZM100.916 39.125V33.625C100.916 33.4583 100.825 33.375 100.641 33.375H97.6664C96.4831 33.375 95.8914 33.9917 95.8914 35.225V39.375C95.8914 40.6083 96.4831 41.225 97.6664 41.225H98.8664C100.233 41.225 100.916 40.525 100.916 39.125ZM115.14 41.875H118.24C119.44 41.875 120.04 41.2583 120.04 40.025V35.125C120.04 33.8917 119.44 33.275 118.24 33.275H116.915C115.549 33.275 114.865 33.975 114.865 35.375V41.6C114.865 41.7833 114.957 41.875 115.14 41.875ZM112.44 43.575V26.85C112.44 26.5667 112.582 26.425 112.865 26.425H114.44C114.724 26.425 114.865 26.5667 114.865 26.85V32.5H114.965C115.382 31.6 116.224 31.15 117.49 31.15H118.59C119.824 31.15 120.782 31.4917 121.465 32.175C122.149 32.8417 122.49 33.7833 122.49 35V40.125C122.49 41.3417 122.149 42.2917 121.465 42.975C120.782 43.6583 119.824 44 118.59 44H112.865C112.582 44 112.44 43.8583 112.44 43.575ZM125.505 29.125V26.85C125.505 26.5833 125.638 26.45 125.905 26.45H127.53C127.796 26.45 127.93 26.5833 127.93 26.85V29.125C127.93 29.4083 127.796 29.55 127.53 29.55H125.905C125.638 29.55 125.505 29.4083 125.505 29.125ZM125.505 43.575V31.675C125.505 31.3917 125.638 31.25 125.905 31.25H127.505C127.788 31.25 127.93 31.3917 127.93 31.675V43.575C127.93 43.7417 127.896 43.8583 127.83 43.925C127.78 43.975 127.68 44 127.53 44H125.93C125.646 44 125.505 43.8583 125.505 43.575ZM131.34 29.125V26.85C131.34 26.5833 131.473 26.45 131.74 26.45H133.365C133.631 26.45 133.765 26.5833 133.765 26.85V29.125C133.765 29.4083 133.631 29.55 133.365 29.55H131.74C131.473 29.55 131.34 29.4083 131.34 29.125ZM129.865 47.9H128.54C128.256 47.9 128.115 47.7583 128.115 47.475V46.2C128.115 45.9167 128.256 45.775 128.54 45.775H129.19C129.973 45.775 130.523 45.6083 130.84 45.275C131.173 44.9417 131.34 44.3833 131.34 43.6V31.675C131.34 31.3917 131.481 31.25 131.765 31.25H133.34C133.623 31.25 133.765 31.3917 133.765 31.675V44.025C133.765 45.2417 133.415 46.1917 132.715 46.875C132.031 47.5583 131.081 47.9 129.865 47.9ZM142.957 40.1V39.45C142.957 39.1667 143.098 39.025 143.382 39.025H144.982C145.265 39.025 145.407 39.1667 145.407 39.45V39.9C145.407 40.6 145.557 41.1083 145.857 41.425C146.173 41.725 146.69 41.875 147.407 41.875H149.132C149.848 41.875 150.365 41.7167 150.682 41.4C150.998 41.0667 151.157 40.5333 151.157 39.8V39.225C151.157 38.6917 150.948 38.275 150.532 37.975C150.132 37.6583 149.632 37.4583 149.032 37.375C148.432 37.275 147.773 37.1417 147.057 36.975C146.34 36.8083 145.682 36.6167 145.082 36.4C144.482 36.1833 143.973 35.775 143.557 35.175C143.157 34.575 142.957 33.8083 142.957 32.875V31.825C142.957 30.6083 143.298 29.6583 143.982 28.975C144.682 28.275 145.64 27.925 146.857 27.925H149.507C150.74 27.925 151.698 28.275 152.382 28.975C153.082 29.6583 153.432 30.6083 153.432 31.825V32.375C153.432 32.6583 153.29 32.8 153.007 32.8H151.407C151.123 32.8 150.982 32.6583 150.982 32.375V32.05C150.982 31.3333 150.823 30.825 150.507 30.525C150.207 30.2083 149.698 30.05 148.982 30.05H147.407C146.69 30.05 146.173 30.2167 145.857 30.55C145.557 30.8667 145.407 31.4167 145.407 32.2V32.975C145.407 33.725 145.948 34.2333 147.032 34.5C147.515 34.6167 148.04 34.7167 148.607 34.8C149.19 34.8833 149.773 35.0083 150.357 35.175C150.94 35.3417 151.473 35.5667 151.957 35.85C152.44 36.1167 152.832 36.5333 153.132 37.1C153.432 37.65 153.582 38.325 153.582 39.125V40.1C153.582 41.3167 153.232 42.275 152.532 42.975C151.848 43.6583 150.898 44 149.682 44H146.882C145.665 44 144.707 43.6583 144.007 42.975C143.307 42.275 142.957 41.3167 142.957 40.1ZM161.353 44H159.778C159.478 44 159.328 43.8583 159.328 43.575V30.3C159.328 30.1333 159.245 30.05 159.078 30.05H155.928C155.628 30.05 155.478 29.9083 155.478 29.625V28.35C155.478 28.0667 155.628 27.925 155.928 27.925H165.203C165.503 27.925 165.653 28.0667 165.653 28.35V29.625C165.653 29.9083 165.503 30.05 165.203 30.05H162.053C161.87 30.05 161.778 30.1333 161.778 30.3V43.575C161.778 43.8583 161.636 44 161.353 44ZM176.218 44H168.218C167.934 44 167.793 43.8583 167.793 43.575V28.35C167.793 28.0667 167.934 27.925 168.218 27.925H176.218C176.484 27.925 176.618 28.0667 176.618 28.35V29.625C176.618 29.9083 176.484 30.05 176.218 30.05H170.518C170.318 30.05 170.218 30.1333 170.218 30.3V34.525C170.218 34.6917 170.318 34.775 170.518 34.775H175.343C175.643 34.775 175.793 34.9167 175.793 35.2V36.475C175.793 36.7583 175.643 36.9 175.343 36.9H170.518C170.318 36.9 170.218 36.9833 170.218 37.15V41.6C170.218 41.7833 170.318 41.875 170.518 41.875H176.218C176.484 41.875 176.618 42.0167 176.618 42.3V43.575C176.618 43.8583 176.484 44 176.218 44ZM181.804 44H180.229C179.946 44 179.804 43.8583 179.804 43.575V28.35C179.804 28.0667 179.946 27.925 180.229 27.925H186.079C187.296 27.925 188.246 28.275 188.929 28.975C189.629 29.6583 189.979 30.6083 189.979 31.825V33.925C189.979 35.8417 189.188 37.05 187.604 37.55V37.65L190.379 43.5C190.563 43.8333 190.454 44 190.054 44H188.504C188.104 44 187.846 43.8583 187.729 43.575L185.054 37.825H182.529C182.329 37.825 182.229 37.9083 182.229 38.075V43.575C182.229 43.8583 182.088 44 181.804 44ZM182.504 35.825H185.679C186.913 35.825 187.529 35.2167 187.529 34V31.9C187.529 30.6667 186.913 30.05 185.679 30.05H182.504C182.321 30.05 182.229 30.1333 182.229 30.3V35.575C182.229 35.7417 182.321 35.825 182.504 35.825ZM195.354 44H193.779C193.496 44 193.354 43.8583 193.354 43.575V28.35C193.354 28.0667 193.496 27.925 193.779 27.925H195.354C195.638 27.925 195.779 28.0667 195.779 28.35V36.275H195.854C196.021 35.825 196.238 35.4083 196.504 35.025L201.279 28.35C201.463 28.0667 201.729 27.925 202.079 27.925H203.929C204.279 27.925 204.338 28.0833 204.104 28.4L199.229 35.025L204.729 43.5C204.929 43.8333 204.829 44 204.429 44H203.029C202.579 44 202.263 43.8583 202.079 43.575L197.754 36.8L195.779 39.125V43.575C195.779 43.8583 195.638 44 195.354 44ZM207.926 44H206.126C205.892 44 205.809 43.8583 205.876 43.575L210.226 28.35C210.309 28.0667 210.509 27.925 210.826 27.925H213.326C213.659 27.925 213.859 28.0667 213.926 28.35L218.276 43.575C218.342 43.8583 218.251 44 218.001 44H216.226C216.076 44 215.967 43.975 215.901 43.925C215.851 43.8583 215.809 43.7417 215.776 43.575L214.826 40.325H209.326L208.376 43.575C208.309 43.8583 208.159 44 207.926 44ZM212.026 30.325L209.826 38.325H214.351L212.126 30.325H212.026ZM223.447 41.875H226.972C228.172 41.875 228.772 41.2583 228.772 40.025V31.9C228.772 30.6667 228.172 30.05 226.972 30.05H223.447C223.264 30.05 223.172 30.1333 223.172 30.3V41.6C223.172 41.7833 223.264 41.875 223.447 41.875ZM220.747 43.575V28.35C220.747 28.0667 220.889 27.925 221.172 27.925H227.322C228.539 27.925 229.489 28.2667 230.172 28.95C230.872 29.6167 231.222 30.5667 231.222 31.8V40.125C231.222 41.3417 230.872 42.2917 230.172 42.975C229.489 43.6583 228.539 44 227.322 44H221.172C220.889 44 220.747 43.8583 220.747 43.575ZM238.589 41.875H240.764C241.981 41.875 242.589 41.2583 242.589 40.025V31.9C242.589 30.6667 241.981 30.05 240.764 30.05H238.589C237.389 30.05 236.789 30.6667 236.789 31.9V40.025C236.789 41.2583 237.389 41.875 238.589 41.875ZM241.139 44H238.239C237.006 44 236.047 43.6583 235.364 42.975C234.697 42.2917 234.364 41.3417 234.364 40.125V31.8C234.364 30.5667 234.697 29.6167 235.364 28.95C236.047 28.2667 237.006 27.925 238.239 27.925H241.139C242.372 27.925 243.331 28.2667 244.014 28.95C244.697 29.6167 245.039 30.5667 245.039 31.8V40.125C245.039 41.3417 244.697 42.2917 244.014 42.975C243.331 43.6583 242.372 44 241.139 44Z" fill="white"/>
</svg>
