<svg width="266" height="61" viewBox="0 0 266 61" fill="none" xmlns="http://www.w3.org/2000/svg">
<path d="M4.0824 0.979599L2.7702 3.9766L2.673 3.2476C2.8998 3.2476 3.0942 3.3286 3.2562 3.4906C3.4182 3.6526 3.4992 3.8524 3.4992 4.09C3.4992 4.36 3.4074 4.5814 3.2238 4.7542C3.051 4.927 2.8404 5.0134 2.592 5.0134C2.3652 5.0134 2.1708 4.9324 2.0088 4.7704C1.8468 4.6084 1.7658 4.414 1.7658 4.1872C1.7658 4.036 1.7874 3.901 1.8306 3.7822C1.8846 3.6526 1.9602 3.5014 2.0574 3.3286L3.3048 0.979599H4.0824ZM6.8364 0.979599L5.5242 3.9766L5.427 3.2476C5.6538 3.2476 5.8482 3.3286 6.0102 3.4906C6.1722 3.6526 6.2532 3.8524 6.2532 4.09C6.2532 4.36 6.1614 4.5814 5.9778 4.7542C5.805 4.927 5.5944 5.0134 5.346 5.0134C5.1192 5.0134 4.9248 4.9324 4.7628 4.7704C4.6008 4.6084 4.5198 4.414 4.5198 4.1872C4.5198 4.036 4.5414 3.901 4.5846 3.7822C4.6386 3.6526 4.7142 3.5014 4.8114 3.3286L6.0588 0.979599H6.8364ZM4.85367 13L12.3057 1.66H13.4883L16.4043 13H15.2055L12.5487 2.3242H13.0347L6.14967 13H4.85367ZM7.49427 9.9706L8.04507 8.9986H14.6385L14.8167 9.9706H7.49427ZM18.0372 13L20.4348 0.979599H21.585L19.1874 13H18.0372ZM26.6276 13L29.0252 0.979599H30.1754L28.9766 6.9574L28.4582 8.6422L28.2638 10.2946L27.7292 13H26.6276ZM31.358 13.081C30.6236 13.081 29.9918 12.9514 29.4626 12.6922C28.9442 12.4222 28.5446 12.0388 28.2638 11.542C27.9938 11.0344 27.8534 10.4242 27.8426 9.7114C27.8426 8.9338 27.9506 8.221 28.1666 7.573C28.3826 6.925 28.6904 6.3688 29.09 5.9044C29.5004 5.4292 29.9864 5.062 30.548 4.8028C31.1204 4.5436 31.7576 4.414 32.4596 4.414C33.194 4.414 33.8366 4.5598 34.3874 4.8514C34.949 5.1322 35.3864 5.5426 35.6996 6.0826C36.0236 6.6226 36.1856 7.2652 36.1856 8.0104C36.1856 8.7448 36.0668 9.4198 35.8292 10.0354C35.5916 10.651 35.2514 11.1856 34.8086 11.6392C34.3766 12.0928 33.869 12.4492 33.2858 12.7084C32.7026 12.9568 32.06 13.081 31.358 13.081ZM31.3418 12.0604C32.0546 12.0604 32.6864 11.893 33.2372 11.5582C33.788 11.2126 34.22 10.7374 34.5332 10.1326C34.8572 9.5278 35.0192 8.842 35.0192 8.0752C35.0192 7.2328 34.7762 6.5794 34.2902 6.115C33.8042 5.6506 33.113 5.4184 32.2166 5.4184C31.5146 5.4184 30.8828 5.5912 30.3212 5.9368C29.7704 6.2824 29.333 6.7576 29.009 7.3624C28.6958 7.9564 28.5392 8.6422 28.5392 9.4198C28.5392 10.2514 28.7822 10.8994 29.2682 11.3638C29.7542 11.8282 30.4454 12.0604 31.3418 12.0604ZM37.6069 13L39.2917 4.495H40.4419L38.7571 13H37.6069ZM40.3609 2.6158C40.1341 2.6158 39.9451 2.5402 39.7939 2.389C39.6535 2.2378 39.5833 2.0596 39.5833 1.8544C39.5833 1.6168 39.6643 1.4116 39.8263 1.2388C39.9991 1.066 40.2151 0.979599 40.4743 0.979599C40.7011 0.979599 40.8901 1.0498 41.0413 1.1902C41.1925 1.3306 41.2681 1.5088 41.2681 1.7248C41.2681 1.984 41.1817 2.2 41.0089 2.3728C40.8361 2.5348 40.6201 2.6158 40.3609 2.6158ZM40.1755 16.2238C39.8083 16.2238 39.4735 16.1752 39.1711 16.078C38.8579 15.9916 38.5933 15.862 38.3773 15.6892L38.9119 14.7982C39.2467 15.0898 39.6733 15.2356 40.1917 15.2356C40.6561 15.2356 41.0233 15.106 41.2933 14.8468C41.5741 14.5984 41.7739 14.188 41.8927 13.6156L43.7233 4.495H44.8735L43.0429 13.648C42.6973 15.3652 41.7415 16.2238 40.1755 16.2238ZM44.7763 2.6158C44.5495 2.6158 44.3605 2.5402 44.2093 2.389C44.0689 2.2378 43.9987 2.0596 43.9987 1.8544C43.9987 1.6168 44.0797 1.4116 44.2417 1.2388C44.4145 1.066 44.6305 0.979599 44.8897 0.979599C45.1165 0.979599 45.3055 1.0498 45.4567 1.1902C45.6079 1.3306 45.6835 1.5088 45.6835 1.7248C45.6835 1.984 45.5971 2.2 45.4243 2.3728C45.2515 2.5348 45.0355 2.6158 44.7763 2.6158ZM52.2512 4.414C53.018 4.414 53.6444 4.5652 54.1304 4.8676C54.6272 5.1592 54.9674 5.5858 55.151 6.1474C55.3454 6.709 55.3616 7.3786 55.1996 8.1562L54.2276 13H53.0774L54.0494 8.14C54.2222 7.2976 54.1304 6.6388 53.774 6.1636C53.4284 5.6884 52.8128 5.4508 51.9272 5.4508C51.02 5.4508 50.264 5.6992 49.6592 6.196C49.0652 6.6928 48.6656 7.438 48.4604 8.4316L47.5532 13H46.403L48.0878 4.495H49.1894L48.7034 6.9412L48.4604 6.52C48.8708 5.7856 49.4 5.251 50.048 4.9162C50.7068 4.5814 51.4412 4.414 52.2512 4.414ZM60.9795 13.081C60.2559 13.081 59.6133 12.9352 59.0517 12.6436C58.4901 12.352 58.0527 11.9362 57.7395 11.3962C57.4263 10.8562 57.2697 10.2136 57.2697 9.4684C57.2697 8.7448 57.3885 8.0752 57.6261 7.4596C57.8637 6.844 58.1985 6.3094 58.6305 5.8558C59.0625 5.3914 59.5701 5.035 60.1533 4.7866C60.7473 4.5382 61.3899 4.414 62.0811 4.414C62.8263 4.414 63.4581 4.549 63.9765 4.819C64.4949 5.0782 64.8945 5.4616 65.1753 5.9692C65.4561 6.466 65.5965 7.0708 65.5965 7.7836C65.5965 8.8096 65.4075 9.7222 65.0295 10.5214C64.6515 11.3206 64.1169 11.947 63.4257 12.4006C62.7345 12.8542 61.9191 13.081 60.9795 13.081ZM61.2225 12.0604C61.9353 12.0604 62.5671 11.893 63.1179 11.5582C63.6795 11.2126 64.1169 10.7374 64.4301 10.1326C64.7541 9.5278 64.9161 8.842 64.9161 8.0752C64.9161 7.2328 64.6677 6.5794 64.1709 6.115C63.6849 5.6506 62.9991 5.4184 62.1135 5.4184C61.4115 5.4184 60.7797 5.5912 60.2181 5.9368C59.6565 6.2824 59.2137 6.7576 58.8897 7.3624C58.5765 7.9564 58.4199 8.6422 58.4199 9.4198C58.4199 10.2514 58.6629 10.8994 59.1489 11.3638C59.6457 11.8282 60.3369 12.0604 61.2225 12.0604ZM64.0251 13L64.5111 10.5538L64.9971 8.8366L65.1591 7.0546L65.6775 4.495H66.8277L65.1267 13H64.0251ZM73.7686 13L75.9232 2.1946L76.3444 2.6968H73.153L73.3636 1.66H77.2192L74.9512 13H73.7686ZM82.3113 13.0972C81.5445 13.0972 80.8857 12.9352 80.3349 12.6112C79.7841 12.2872 79.3575 11.8174 79.0551 11.2018C78.7635 10.5862 78.6177 9.8518 78.6177 8.9986C78.6177 8.0374 78.7473 7.114 79.0065 6.2284C79.2765 5.332 79.6545 4.5328 80.1405 3.8308C80.6373 3.1288 81.2313 2.578 81.9225 2.1784C82.6245 1.768 83.4129 1.5628 84.2877 1.5628C85.0653 1.5628 85.7241 1.7248 86.2641 2.0488C86.8149 2.3728 87.2361 2.8426 87.5277 3.4582C87.8301 4.063 87.9813 4.7974 87.9813 5.6614C87.9813 6.6226 87.8463 7.5514 87.5763 8.4478C87.3171 9.3334 86.9391 10.1272 86.4423 10.8292C85.9563 11.5312 85.3623 12.0874 84.6603 12.4978C83.9691 12.8974 83.1861 13.0972 82.3113 13.0972ZM82.4085 12.028C83.1105 12.028 83.7315 11.839 84.2715 11.461C84.8223 11.083 85.2813 10.5808 85.6485 9.9544C86.0265 9.328 86.3127 8.6422 86.5071 7.897C86.7015 7.1518 86.7987 6.412 86.7987 5.6776C86.7987 4.6948 86.5665 3.9442 86.1021 3.4258C85.6485 2.8966 85.0113 2.632 84.1905 2.632C83.4885 2.632 82.8621 2.821 82.3113 3.199C81.7713 3.577 81.3123 4.0792 80.9343 4.7056C80.5671 5.332 80.2863 6.0178 80.0919 6.763C79.8975 7.5082 79.8003 8.248 79.8003 8.9824C79.8003 9.9652 80.0271 10.7212 80.4807 11.2504C80.9451 11.7688 81.5877 12.028 82.4085 12.028ZM91.6073 16.2238C91.2401 16.2238 90.9053 16.1752 90.6029 16.078C90.2897 15.9916 90.0251 15.862 89.8091 15.6892L90.3437 14.7982C90.6785 15.0898 91.1051 15.2356 91.6235 15.2356C92.0879 15.2356 92.4551 15.106 92.7251 14.8468C93.0059 14.5984 93.2057 14.188 93.3245 13.6156L95.1551 4.495H96.3053L94.4747 13.648C94.1291 15.3652 93.1733 16.2238 91.6073 16.2238ZM96.2081 2.6158C95.9813 2.6158 95.7923 2.5402 95.6411 2.389C95.5007 2.2378 95.4305 2.0596 95.4305 1.8544C95.4305 1.6168 95.5115 1.4116 95.6735 1.2388C95.8463 1.066 96.0623 0.979599 96.3215 0.979599C96.5483 0.979599 96.7373 1.0498 96.8885 1.1902C97.0397 1.3306 97.1153 1.5088 97.1153 1.7248C97.1153 1.984 97.0289 2.2 96.8561 2.3728C96.6833 2.5348 96.4673 2.6158 96.2081 2.6158ZM101.464 13.081C100.74 13.081 100.097 12.9352 99.5358 12.6436C98.9742 12.352 98.5368 11.9362 98.2236 11.3962C97.9104 10.8562 97.7538 10.2136 97.7538 9.4684C97.7538 8.7448 97.8726 8.0752 98.1102 7.4596C98.3478 6.844 98.6826 6.3094 99.1146 5.8558C99.5466 5.3914 100.054 5.035 100.637 4.7866C101.231 4.5382 101.874 4.414 102.565 4.414C103.31 4.414 103.942 4.549 104.461 4.819C104.979 5.0782 105.379 5.4616 105.659 5.9692C105.94 6.466 106.081 7.0708 106.081 7.7836C106.081 8.8096 105.892 9.7222 105.514 10.5214C105.136 11.3206 104.601 11.947 103.91 12.4006C103.219 12.8542 102.403 13.081 101.464 13.081ZM101.707 12.0604C102.419 12.0604 103.051 11.893 103.602 11.5582C104.164 11.2126 104.601 10.7374 104.914 10.1326C105.238 9.5278 105.4 8.842 105.4 8.0752C105.4 7.2328 105.152 6.5794 104.655 6.115C104.169 5.6506 103.483 5.4184 102.598 5.4184C101.896 5.4184 101.264 5.5912 100.702 5.9368C100.141 6.2824 99.6978 6.7576 99.3738 7.3624C99.0606 7.9564 98.904 8.6422 98.904 9.4198C98.904 10.2514 99.147 10.8994 99.633 11.3638C100.13 11.8282 100.821 12.0604 101.707 12.0604ZM104.509 13L104.995 10.5538L105.481 8.8366L105.643 7.0546L106.162 4.495H107.312L105.611 13H104.509ZM112.443 13.081C111.719 13.081 111.077 12.9352 110.515 12.6436C109.954 12.352 109.516 11.9362 109.203 11.3962C108.89 10.8562 108.733 10.2136 108.733 9.4684C108.733 8.7448 108.852 8.0752 109.09 7.4596C109.327 6.844 109.662 6.3094 110.094 5.8558C110.526 5.3914 111.034 5.035 111.617 4.7866C112.211 4.5382 112.853 4.414 113.545 4.414C114.29 4.414 114.922 4.549 115.44 4.819C115.958 5.0782 116.358 5.4616 116.639 5.9692C116.92 6.466 117.06 7.0708 117.06 7.7836C117.06 8.8096 116.871 9.7222 116.493 10.5214C116.115 11.3206 115.58 11.947 114.889 12.4006C114.198 12.8542 113.383 13.081 112.443 13.081ZM112.686 12.0604C113.399 12.0604 114.031 11.893 114.581 11.5582C115.143 11.2126 115.58 10.7374 115.894 10.1326C116.218 9.5278 116.38 8.842 116.38 8.0752C116.38 7.2328 116.131 6.5794 115.634 6.115C115.148 5.6506 114.463 5.4184 113.577 5.4184C112.875 5.4184 112.243 5.5912 111.682 5.9368C111.12 6.2824 110.677 6.7576 110.353 7.3624C110.04 7.9564 109.883 8.6422 109.883 9.4198C109.883 10.2514 110.126 10.8994 110.612 11.3638C111.109 11.8282 111.8 12.0604 112.686 12.0604ZM115.489 13L115.975 10.5538L116.461 8.8366L116.623 7.0546L117.141 4.495H118.291L116.59 13H115.489ZM119.793 13L121.478 4.495H122.58L122.094 7.006L121.964 6.5686C122.342 5.8234 122.839 5.278 123.455 4.9324C124.081 4.5868 124.859 4.414 125.787 4.414L125.577 5.5318C125.523 5.5318 125.469 5.5318 125.415 5.5318C125.372 5.521 125.318 5.5156 125.253 5.5156C124.346 5.5156 123.595 5.7802 123.001 6.3094C122.418 6.8278 122.018 7.6162 121.802 8.6746L120.944 13H119.793ZM130.535 13L132.933 0.979599H134.083L132.884 6.9574L132.366 8.6422L132.172 10.2946L131.637 13H130.535ZM135.266 13.081C134.531 13.081 133.9 12.9514 133.37 12.6922C132.852 12.4222 132.452 12.0388 132.172 11.542C131.902 11.0344 131.761 10.4242 131.75 9.7114C131.75 8.9338 131.858 8.221 132.074 7.573C132.29 6.925 132.598 6.3688 132.998 5.9044C133.408 5.4292 133.894 5.062 134.456 4.8028C135.028 4.5436 135.665 4.414 136.367 4.414C137.102 4.414 137.744 4.5598 138.295 4.8514C138.857 5.1322 139.294 5.5426 139.607 6.0826C139.931 6.6226 140.093 7.2652 140.093 8.0104C140.093 8.7448 139.975 9.4198 139.737 10.0354C139.499 10.651 139.159 11.1856 138.716 11.6392C138.284 12.0928 137.777 12.4492 137.194 12.7084C136.61 12.9568 135.968 13.081 135.266 13.081ZM135.25 12.0604C135.962 12.0604 136.594 11.893 137.145 11.5582C137.696 11.2126 138.128 10.7374 138.441 10.1326C138.765 9.5278 138.927 8.842 138.927 8.0752C138.927 7.2328 138.684 6.5794 138.198 6.115C137.712 5.6506 137.021 5.4184 136.124 5.4184C135.422 5.4184 134.791 5.5912 134.229 5.9368C133.678 6.2824 133.241 6.7576 132.917 7.3624C132.604 7.9564 132.447 8.6422 132.447 9.4198C132.447 10.2514 132.69 10.8994 133.176 11.3638C133.662 11.8282 134.353 12.0604 135.25 12.0604ZM145.403 13.081C144.593 13.081 143.885 12.9352 143.281 12.6436C142.687 12.3412 142.228 11.92 141.904 11.38C141.59 10.84 141.434 10.1974 141.434 9.4522C141.434 8.4802 141.639 7.6162 142.049 6.8602C142.46 6.1042 143.021 5.5102 143.734 5.0782C144.447 4.6354 145.252 4.414 146.148 4.414C146.904 4.414 147.557 4.5598 148.108 4.8514C148.659 5.1322 149.086 5.5426 149.388 6.0826C149.701 6.6226 149.858 7.2706 149.858 8.0266C149.858 8.1994 149.847 8.3776 149.825 8.5612C149.804 8.734 149.777 8.9014 149.744 9.0634H142.276L142.422 8.2048H149.21L148.74 8.5288C148.848 7.8484 148.799 7.276 148.594 6.8116C148.389 6.3472 148.07 5.9962 147.638 5.7586C147.217 5.5102 146.71 5.386 146.116 5.386C145.424 5.386 144.809 5.5588 144.269 5.9044C143.729 6.2392 143.308 6.709 143.005 7.3138C142.703 7.9078 142.552 8.6044 142.552 9.4036C142.552 10.2568 142.795 10.9156 143.281 11.38C143.777 11.8336 144.517 12.0604 145.5 12.0604C146.072 12.0604 146.602 11.9686 147.088 11.785C147.574 11.5906 147.973 11.326 148.286 10.9912L148.805 11.8174C148.405 12.217 147.903 12.5302 147.298 12.757C146.704 12.973 146.072 13.081 145.403 13.081ZM153.77 13.081C153.079 13.081 152.426 12.9838 151.81 12.7894C151.194 12.595 150.719 12.3466 150.384 12.0442L150.935 11.137C151.259 11.4286 151.686 11.6608 152.215 11.8336C152.744 11.9956 153.3 12.0766 153.884 12.0766C154.694 12.0766 155.315 11.9416 155.747 11.6716C156.189 11.4016 156.411 11.029 156.411 10.5538C156.411 10.2298 156.292 9.9868 156.054 9.8248C155.828 9.652 155.531 9.5224 155.163 9.436C154.796 9.3388 154.407 9.247 153.997 9.1606C153.587 9.0742 153.198 8.9662 152.831 8.8366C152.463 8.6962 152.161 8.4856 151.923 8.2048C151.697 7.924 151.583 7.546 151.583 7.0708C151.583 6.5308 151.734 6.061 152.037 5.6614C152.35 5.2618 152.782 4.954 153.333 4.738C153.884 4.522 154.532 4.414 155.277 4.414C155.817 4.414 156.351 4.4842 156.881 4.6246C157.41 4.765 157.836 4.9594 158.16 5.2078L157.674 6.1312C157.34 5.872 156.951 5.6884 156.508 5.5804C156.065 5.4616 155.622 5.4022 155.18 5.4022C154.391 5.4022 153.781 5.548 153.349 5.8396C152.928 6.1204 152.717 6.493 152.717 6.9574C152.717 7.2814 152.831 7.5298 153.057 7.7026C153.295 7.8754 153.597 8.0104 153.965 8.1076C154.332 8.2048 154.721 8.2966 155.131 8.383C155.552 8.4586 155.941 8.5666 156.297 8.707C156.665 8.8474 156.962 9.0526 157.188 9.3226C157.426 9.5818 157.545 9.949 157.545 10.4242C157.545 10.9858 157.388 11.4664 157.075 11.866C156.762 12.2548 156.319 12.5572 155.747 12.7732C155.185 12.9784 154.526 13.081 153.77 13.081ZM161.907 13.081C161.421 13.081 161.005 12.9784 160.66 12.7732C160.314 12.5572 160.071 12.2548 159.931 11.866C159.801 11.4772 159.79 11.0128 159.898 10.4728L161.454 2.6158H162.604L161.049 10.4242C160.941 10.9534 160.978 11.3638 161.162 11.6554C161.356 11.947 161.707 12.0928 162.215 12.0928C162.453 12.0928 162.685 12.0604 162.912 11.9956C163.138 11.92 163.344 11.8066 163.527 11.6554L163.803 12.5302C163.533 12.7354 163.23 12.8812 162.895 12.9676C162.561 13.0432 162.231 13.081 161.907 13.081ZM159.38 5.4508L159.558 4.495H164.823L164.629 5.4508H159.38ZM169.371 13.081C168.561 13.081 167.853 12.9352 167.248 12.6436C166.654 12.3412 166.195 11.92 165.871 11.38C165.558 10.84 165.401 10.1974 165.401 9.4522C165.401 8.4802 165.607 7.6162 166.017 6.8602C166.428 6.1042 166.989 5.5102 167.702 5.0782C168.415 4.6354 169.219 4.414 170.116 4.414C170.872 4.414 171.525 4.5598 172.076 4.8514C172.627 5.1322 173.053 5.5426 173.356 6.0826C173.669 6.6226 173.826 7.2706 173.826 8.0266C173.826 8.1994 173.815 8.3776 173.793 8.5612C173.772 8.734 173.745 8.9014 173.712 9.0634H166.244L166.39 8.2048H173.178L172.708 8.5288C172.816 7.8484 172.767 7.276 172.562 6.8116C172.357 6.3472 172.038 5.9962 171.606 5.7586C171.185 5.5102 170.677 5.386 170.083 5.386C169.392 5.386 168.777 5.5588 168.237 5.9044C167.697 6.2392 167.275 6.709 166.973 7.3138C166.671 7.9078 166.519 8.6044 166.519 9.4036C166.519 10.2568 166.762 10.9156 167.248 11.38C167.745 11.8336 168.485 12.0604 169.468 12.0604C170.04 12.0604 170.569 11.9686 171.055 11.785C171.541 11.5906 171.941 11.326 172.254 10.9912L172.773 11.8174C172.373 12.217 171.871 12.5302 171.266 12.757C170.672 12.973 170.04 13.081 169.371 13.081ZM175.259 13L177.657 0.979599H178.807L176.41 13H175.259ZM179.61 13L182.008 0.979599H183.158L180.76 13H179.61ZM187.849 13.081C187.039 13.081 186.331 12.9352 185.726 12.6436C185.132 12.3412 184.673 11.92 184.349 11.38C184.036 10.84 183.88 10.1974 183.88 9.4522C183.88 8.4802 184.085 7.6162 184.495 6.8602C184.906 6.1042 185.467 5.5102 186.18 5.0782C186.893 4.6354 187.697 4.414 188.594 4.414C189.35 4.414 190.003 4.5598 190.554 4.8514C191.105 5.1322 191.531 5.5426 191.834 6.0826C192.147 6.6226 192.304 7.2706 192.304 8.0266C192.304 8.1994 192.293 8.3776 192.271 8.5612C192.25 8.734 192.223 8.9014 192.19 9.0634H184.722L184.868 8.2048H191.656L191.186 8.5288C191.294 7.8484 191.245 7.276 191.04 6.8116C190.835 6.3472 190.516 5.9962 190.084 5.7586C189.663 5.5102 189.155 5.386 188.561 5.386C187.87 5.386 187.255 5.5588 186.715 5.9044C186.175 6.2392 185.753 6.709 185.451 7.3138C185.149 7.9078 184.997 8.6044 184.997 9.4036C184.997 10.2568 185.24 10.9156 185.726 11.38C186.223 11.8336 186.963 12.0604 187.946 12.0604C188.518 12.0604 189.047 11.9686 189.533 11.785C190.019 11.5906 190.419 11.326 190.732 10.9912L191.251 11.8174C190.851 12.217 190.349 12.5302 189.744 12.757C189.15 12.973 188.518 13.081 187.849 13.081ZM199.586 4.414C200.353 4.414 200.979 4.5652 201.465 4.8676C201.962 5.1592 202.302 5.5858 202.486 6.1474C202.68 6.709 202.696 7.3786 202.534 8.1562L201.562 13H200.412L201.384 8.14C201.557 7.2976 201.465 6.6388 201.109 6.1636C200.763 5.6884 200.147 5.4508 199.262 5.4508C198.355 5.4508 197.599 5.6992 196.994 6.196C196.4 6.6928 196 7.438 195.795 8.4316L194.888 13H193.738L195.422 4.495H196.524L196.038 6.9412L195.795 6.52C196.205 5.7856 196.735 5.251 197.383 4.9162C198.041 4.5814 198.776 4.414 199.586 4.414ZM210.756 13L209.087 4.495H210.14L211.647 12.3844H211.128L215.632 4.495H216.604L218.159 12.3844H217.641L222.079 4.495H223.197L218.386 13H217.268L215.745 5.5804H216.102L211.857 13H210.756ZM223.163 13L224.848 4.495H225.998L224.314 13H223.163ZM225.917 2.6158C225.691 2.6158 225.502 2.5402 225.35 2.389C225.21 2.2378 225.14 2.0596 225.14 1.8544C225.14 1.6168 225.221 1.4116 225.383 1.2388C225.556 1.066 225.772 0.979599 226.031 0.979599C226.258 0.979599 226.447 1.0498 226.598 1.1902C226.749 1.3306 226.825 1.5088 226.825 1.7248C226.825 1.984 226.738 2.2 226.565 2.3728C226.393 2.5348 226.177 2.6158 225.917 2.6158ZM225.732 16.2238C225.365 16.2238 225.03 16.1752 224.728 16.078C224.414 15.9916 224.15 15.862 223.934 15.6892L224.468 14.7982C224.803 15.0898 225.23 15.2356 225.748 15.2356C226.213 15.2356 226.58 15.106 226.85 14.8468C227.131 14.5984 227.33 14.188 227.449 13.6156L229.28 4.495H230.43L228.599 13.648C228.254 15.3652 227.298 16.2238 225.732 16.2238ZM230.333 2.6158C230.106 2.6158 229.917 2.5402 229.766 2.389C229.625 2.2378 229.555 2.0596 229.555 1.8544C229.555 1.6168 229.636 1.4116 229.798 1.2388C229.971 1.066 230.187 0.979599 230.446 0.979599C230.673 0.979599 230.862 1.0498 231.013 1.1902C231.164 1.3306 231.24 1.5088 231.24 1.7248C231.24 1.984 231.154 2.2 230.981 2.3728C230.808 2.5348 230.592 2.6158 230.333 2.6158ZM3.4668 35.081C2.9808 35.081 2.565 34.9784 2.2194 34.7732C1.8738 34.5572 1.6308 34.2548 1.4904 33.866C1.3608 33.4772 1.35 33.0128 1.458 32.4728L3.0132 24.6158H4.1634L2.6082 32.4242C2.5002 32.9534 2.538 33.3638 2.7216 33.6554C2.916 33.947 3.267 34.0928 3.7746 34.0928C4.0122 34.0928 4.2444 34.0604 4.4712 33.9956C4.698 33.92 4.9032 33.8066 5.0868 33.6554L5.3622 34.5302C5.0922 34.7354 4.7898 34.8812 4.455 34.9676C4.1202 35.0432 3.7908 35.081 3.4668 35.081ZM0.9396 27.4508L1.1178 26.495H6.3828L6.1884 27.4508H0.9396ZM10.8329 35.081C10.0445 35.081 9.35866 34.9352 8.77546 34.6436C8.20306 34.3412 7.75486 33.92 7.43086 33.38C7.11766 32.84 6.96106 32.2028 6.96106 31.4684C6.96106 30.4964 7.17166 29.6324 7.59286 28.8764C8.01406 28.1096 8.59726 27.5102 9.34246 27.0782C10.0877 26.6354 10.9355 26.414 11.8859 26.414C12.6743 26.414 13.3547 26.5598 13.9271 26.8514C14.5103 27.143 14.9585 27.5588 15.2717 28.0988C15.5957 28.6388 15.7577 29.276 15.7577 30.0104C15.7577 30.9824 15.5471 31.8518 15.1259 32.6186C14.7047 33.3746 14.1215 33.974 13.3763 34.4168C12.6419 34.8596 11.7941 35.081 10.8329 35.081ZM10.9139 34.0604C11.6267 34.0604 12.2585 33.893 12.8093 33.5582C13.3709 33.2126 13.8083 32.7374 14.1215 32.1326C14.4455 31.5278 14.6075 30.842 14.6075 30.0752C14.6075 29.2328 14.3591 28.5794 13.8623 28.115C13.3763 27.6506 12.6905 27.4184 11.8049 27.4184C11.1029 27.4184 10.4711 27.5912 9.90946 27.9368C9.34786 28.2824 8.90506 28.7576 8.58106 29.3624C8.26786 29.9564 8.11126 30.6422 8.11126 31.4198C8.11126 32.2514 8.35426 32.8994 8.84026 33.3638C9.33706 33.8282 10.0283 34.0604 10.9139 34.0604ZM19.9041 35.081C19.4181 35.081 19.0023 34.9784 18.6567 34.7732C18.3111 34.5572 18.0681 34.2548 17.9277 33.866C17.7981 33.4772 17.7873 33.0128 17.8953 32.4728L19.4505 24.6158H20.6007L19.0455 32.4242C18.9375 32.9534 18.9753 33.3638 19.1589 33.6554C19.3533 33.947 19.7043 34.0928 20.2119 34.0928C20.4495 34.0928 20.6817 34.0604 20.9085 33.9956C21.1353 33.92 21.3405 33.8066 21.5241 33.6554L21.7995 34.5302C21.5295 34.7354 21.2271 34.8812 20.8923 34.9676C20.5575 35.0432 20.2281 35.081 19.9041 35.081ZM17.3769 27.4508L17.5551 26.495H22.8201L22.6257 27.4508H17.3769ZM31.1626 38.2238C30.3742 38.2238 29.656 38.1104 29.008 37.8836C28.36 37.6676 27.8146 37.3544 27.3718 36.944L28.0522 36.0692C28.3978 36.4148 28.846 36.6902 29.3968 36.8954C29.9584 37.1006 30.574 37.2032 31.2436 37.2032C32.3236 37.2032 33.1606 36.9548 33.7546 36.458C34.3486 35.9612 34.7428 35.1944 34.9372 34.1576L35.3908 31.922L35.8282 30.5288L36.0064 29.0708L36.5086 26.495H37.6102L36.1198 33.9632C35.8282 35.4644 35.2774 36.5498 34.4674 37.2194C33.6574 37.889 32.5558 38.2238 31.1626 38.2238ZM31.7296 34.676C30.9844 34.676 30.3256 34.5356 29.7532 34.2548C29.1916 33.974 28.7542 33.5798 28.441 33.0722C28.1278 32.5538 27.9712 31.9436 27.9712 31.2416C27.9712 30.5504 28.09 29.9132 28.3276 29.33C28.5652 28.7468 28.9 28.2392 29.332 27.8072C29.764 27.3644 30.277 27.0242 30.871 26.7866C31.465 26.5382 32.1184 26.414 32.8312 26.414C33.5116 26.414 34.1164 26.5328 34.6456 26.7704C35.1748 27.008 35.5906 27.3644 35.893 27.8396C36.2062 28.3148 36.3628 28.9196 36.3628 29.654C36.3736 30.5828 36.19 31.4306 35.812 32.1974C35.434 32.9534 34.8994 33.5582 34.2082 34.0118C33.517 34.4546 32.6908 34.676 31.7296 34.676ZM31.9564 33.6554C32.6692 33.6554 33.301 33.4934 33.8518 33.1694C34.4134 32.8454 34.8562 32.4026 35.1802 31.841C35.5042 31.2686 35.6662 30.6206 35.6662 29.897C35.6662 29.1194 35.4178 28.5146 34.921 28.0826C34.4242 27.6398 33.733 27.4184 32.8474 27.4184C32.1346 27.4184 31.4974 27.5804 30.9358 27.9044C30.3742 28.2284 29.9314 28.6766 29.6074 29.249C29.2942 29.8106 29.1376 30.4532 29.1376 31.1768C29.1376 31.9544 29.386 32.5646 29.8828 33.0074C30.3796 33.4394 31.0708 33.6554 31.9564 33.6554ZM39.1098 35L40.7946 26.495H41.8962L41.4102 29.006L41.2806 28.5686C41.6586 27.8234 42.1554 27.278 42.771 26.9324C43.3974 26.5868 44.175 26.414 45.1038 26.414L44.8932 27.5318C44.8392 27.5318 44.7852 27.5318 44.7312 27.5318C44.688 27.521 44.634 27.5156 44.5692 27.5156C43.662 27.5156 42.9114 27.7802 42.3174 28.3094C41.7342 28.8278 41.3346 29.6162 41.1186 30.6746L40.26 35H39.1098ZM49.1971 35.081C48.4087 35.081 47.7229 34.9352 47.1397 34.6436C46.5673 34.3412 46.1191 33.92 45.7951 33.38C45.4819 32.84 45.3253 32.2028 45.3253 31.4684C45.3253 30.4964 45.5359 29.6324 45.9571 28.8764C46.3783 28.1096 46.9615 27.5102 47.7067 27.0782C48.4519 26.6354 49.2997 26.414 50.2501 26.414C51.0385 26.414 51.7189 26.5598 52.2913 26.8514C52.8745 27.143 53.3227 27.5588 53.6359 28.0988C53.9599 28.6388 54.1219 29.276 54.1219 30.0104C54.1219 30.9824 53.9113 31.8518 53.4901 32.6186C53.0689 33.3746 52.4857 33.974 51.7405 34.4168C51.0061 34.8596 50.1583 35.081 49.1971 35.081ZM49.2781 34.0604C49.9909 34.0604 50.6227 33.893 51.1735 33.5582C51.7351 33.2126 52.1725 32.7374 52.4857 32.1326C52.8097 31.5278 52.9717 30.842 52.9717 30.0752C52.9717 29.2328 52.7233 28.5794 52.2265 28.115C51.7405 27.6506 51.0547 27.4184 50.1691 27.4184C49.4671 27.4184 48.8353 27.5912 48.2737 27.9368C47.7121 28.2824 47.2693 28.7576 46.9453 29.3624C46.6321 29.9564 46.4755 30.6422 46.4755 31.4198C46.4755 32.2514 46.7185 32.8994 47.2045 33.3638C47.7013 33.8282 48.3925 34.0604 49.2781 34.0604ZM58.2684 35.081C57.7824 35.081 57.3666 34.9784 57.021 34.7732C56.6754 34.5572 56.4324 34.2548 56.292 33.866C56.1624 33.4772 56.1516 33.0128 56.2596 32.4728L57.8148 24.6158H58.965L57.4098 32.4242C57.3018 32.9534 57.3396 33.3638 57.5232 33.6554C57.7176 33.947 58.0686 34.0928 58.5762 34.0928C58.8138 34.0928 59.046 34.0604 59.2728 33.9956C59.4996 33.92 59.7048 33.8066 59.8884 33.6554L60.1638 34.5302C59.8938 34.7354 59.5914 34.8812 59.2566 34.9676C58.9218 35.0432 58.5924 35.081 58.2684 35.081ZM55.7412 27.4508L55.9194 26.495H61.1844L60.99 27.4508H55.7412ZM65.7316 35.081C64.9216 35.081 64.2142 34.9352 63.6094 34.6436C63.0154 34.3412 62.5564 33.92 62.2324 33.38C61.9192 32.84 61.7626 32.1974 61.7626 31.4522C61.7626 30.4802 61.9678 29.6162 62.3782 28.8602C62.7886 28.1042 63.3502 27.5102 64.063 27.0782C64.7758 26.6354 65.5804 26.414 66.4768 26.414C67.2328 26.414 67.8862 26.5598 68.437 26.8514C68.9878 27.1322 69.4144 27.5426 69.7168 28.0826C70.03 28.6226 70.1866 29.2706 70.1866 30.0266C70.1866 30.1994 70.1758 30.3776 70.1542 30.5612C70.1326 30.734 70.1056 30.9014 70.0732 31.0634H62.605L62.7508 30.2048H69.5386L69.0688 30.5288C69.1768 29.8484 69.1282 29.276 68.923 28.8116C68.7178 28.3472 68.3992 27.9962 67.9672 27.7586C67.546 27.5102 67.0384 27.386 66.4444 27.386C65.7532 27.386 65.1376 27.5588 64.5976 27.9044C64.0576 28.2392 63.6364 28.709 63.334 29.3138C63.0316 29.9078 62.8804 30.6044 62.8804 31.4036C62.8804 32.2568 63.1234 32.9156 63.6094 33.38C64.1062 33.8336 64.846 34.0604 65.8288 34.0604C66.4012 34.0604 66.9304 33.9686 67.4164 33.785C67.9024 33.5906 68.302 33.326 68.6152 32.9912L69.1336 33.8174C68.734 34.217 68.2318 34.5302 67.627 34.757C67.033 34.973 66.4012 35.081 65.7316 35.081ZM78.5658 35.081C78.0798 35.081 77.664 34.9784 77.3184 34.7732C76.9728 34.5572 76.7298 34.2548 76.5894 33.866C76.4598 33.4772 76.449 33.0128 76.557 32.4728L78.1122 24.6158H79.2624L77.7072 32.4242C77.5992 32.9534 77.637 33.3638 77.8206 33.6554C78.015 33.947 78.366 34.0928 78.8736 34.0928C79.1112 34.0928 79.3434 34.0604 79.5702 33.9956C79.797 33.92 80.0022 33.8066 80.1858 33.6554L80.4612 34.5302C80.1912 34.7354 79.8888 34.8812 79.554 34.9676C79.2192 35.0432 78.8898 35.081 78.5658 35.081ZM76.0386 27.4508L76.2168 26.495H81.4818L81.2874 27.4508H76.0386ZM86.0291 35.081C85.2191 35.081 84.5117 34.9352 83.9069 34.6436C83.3129 34.3412 82.8539 33.92 82.5299 33.38C82.2167 32.84 82.0601 32.1974 82.0601 31.4522C82.0601 30.4802 82.2653 29.6162 82.6757 28.8602C83.0861 28.1042 83.6477 27.5102 84.3605 27.0782C85.0733 26.6354 85.8779 26.414 86.7743 26.414C87.5303 26.414 88.1837 26.5598 88.7345 26.8514C89.2853 27.1322 89.7119 27.5426 90.0143 28.0826C90.3275 28.6226 90.4841 29.2706 90.4841 30.0266C90.4841 30.1994 90.4733 30.3776 90.4517 30.5612C90.4301 30.734 90.4031 30.9014 90.3707 31.0634H82.9025L83.0483 30.2048H89.8361L89.3663 30.5288C89.4743 29.8484 89.4257 29.276 89.2205 28.8116C89.0153 28.3472 88.6967 27.9962 88.2647 27.7586C87.8435 27.5102 87.3359 27.386 86.7419 27.386C86.0507 27.386 85.4351 27.5588 84.8951 27.9044C84.3551 28.2392 83.9339 28.709 83.6315 29.3138C83.3291 29.9078 83.1779 30.6044 83.1779 31.4036C83.1779 32.2568 83.4209 32.9156 83.9069 33.38C84.4037 33.8336 85.1435 34.0604 86.1263 34.0604C86.6987 34.0604 87.2279 33.9686 87.7139 33.785C88.1999 33.5906 88.5995 33.326 88.9127 32.9912L89.4311 33.8174C89.0315 34.217 88.5293 34.5302 87.9245 34.757C87.3305 34.973 86.6987 35.081 86.0291 35.081ZM93.963 35L91.857 26.495H93.0072L94.9188 34.3844H94.368L99.4224 26.495H100.621L95.1294 35H93.963ZM100.54 35L102.225 26.495H103.327L102.841 29.006L102.711 28.5686C103.089 27.8234 103.586 27.278 104.201 26.9324C104.828 26.5868 105.605 26.414 106.534 26.414L106.324 27.5318C106.27 27.5318 106.216 27.5318 106.162 27.5318C106.118 27.521 106.064 27.5156 106 27.5156C105.092 27.5156 104.342 27.7802 103.748 28.3094C103.165 28.8278 102.765 29.6162 102.549 30.6746L101.69 35H100.54ZM110.725 35.081C109.915 35.081 109.207 34.9352 108.602 34.6436C108.008 34.3412 107.549 33.92 107.225 33.38C106.912 32.84 106.756 32.1974 106.756 31.4522C106.756 30.4802 106.961 29.6162 107.371 28.8602C107.782 28.1042 108.343 27.5102 109.056 27.0782C109.769 26.6354 110.573 26.414 111.47 26.414C112.226 26.414 112.879 26.5598 113.43 26.8514C113.981 27.1322 114.407 27.5426 114.71 28.0826C115.023 28.6226 115.18 29.2706 115.18 30.0266C115.18 30.1994 115.169 30.3776 115.147 30.5612C115.126 30.734 115.099 30.9014 115.066 31.0634H107.598L107.744 30.2048H114.532L114.062 30.5288C114.17 29.8484 114.121 29.276 113.916 28.8116C113.711 28.3472 113.392 27.9962 112.96 27.7586C112.539 27.5102 112.031 27.386 111.437 27.386C110.746 27.386 110.131 27.5588 109.591 27.9044C109.051 28.2392 108.629 28.709 108.327 29.3138C108.025 29.9078 107.873 30.6044 107.873 31.4036C107.873 32.2568 108.116 32.9156 108.602 33.38C109.099 33.8336 109.839 34.0604 110.822 34.0604C111.394 34.0604 111.923 33.9686 112.409 33.785C112.895 33.5906 113.295 33.326 113.608 32.9912L114.127 33.8174C113.727 34.217 113.225 34.5302 112.62 34.757C112.026 34.973 111.394 35.081 110.725 35.081ZM120.242 35.081C119.519 35.081 118.876 34.9352 118.315 34.6436C117.753 34.352 117.316 33.9362 117.002 33.3962C116.689 32.8562 116.533 32.2136 116.533 31.4684C116.533 30.7448 116.651 30.0752 116.889 29.4596C117.127 28.844 117.461 28.3094 117.893 27.8558C118.325 27.3914 118.833 27.035 119.416 26.7866C120.01 26.5382 120.653 26.414 121.344 26.414C122.089 26.414 122.721 26.549 123.239 26.819C123.758 27.0782 124.157 27.4616 124.438 27.9692C124.719 28.466 124.859 29.0708 124.859 29.7836C124.859 30.5504 124.751 31.2578 124.535 31.9058C124.33 32.5538 124.022 33.1154 123.612 33.5906C123.202 34.0658 122.71 34.433 122.138 34.6922C121.576 34.9514 120.944 35.081 120.242 35.081ZM120.485 34.0604C121.198 34.0604 121.83 33.893 122.381 33.5582C122.942 33.2126 123.38 32.7374 123.693 32.1326C124.017 31.5278 124.179 30.842 124.179 30.0752C124.179 29.2328 123.931 28.5794 123.434 28.115C122.948 27.6506 122.262 27.4184 121.376 27.4184C120.674 27.4184 120.043 27.5912 119.481 27.9368C118.919 28.2824 118.477 28.7576 118.153 29.3624C117.839 29.9564 117.683 30.6422 117.683 31.4198C117.683 32.2514 117.926 32.8994 118.412 33.3638C118.909 33.8282 119.6 34.0604 120.485 34.0604ZM123.288 35L123.774 32.5538L124.26 30.8366L124.422 29.0546L125.637 22.9796H126.787L124.39 35H123.288ZM131.481 35.081C130.671 35.081 129.963 34.9352 129.359 34.6436C128.765 34.3412 128.306 33.92 127.982 33.38C127.668 32.84 127.512 32.1974 127.512 31.4522C127.512 30.4802 127.717 29.6162 128.127 28.8602C128.538 28.1042 129.099 27.5102 129.812 27.0782C130.525 26.6354 131.33 26.414 132.226 26.414C132.982 26.414 133.635 26.5598 134.186 26.8514C134.737 27.1322 135.164 27.5426 135.466 28.0826C135.779 28.6226 135.936 29.2706 135.936 30.0266C135.936 30.1994 135.925 30.3776 135.903 30.5612C135.882 30.734 135.855 30.9014 135.822 31.0634H128.354L128.5 30.2048H135.288L134.818 30.5288C134.926 29.8484 134.877 29.276 134.672 28.8116C134.467 28.3472 134.148 27.9962 133.716 27.7586C133.295 27.5102 132.788 27.386 132.194 27.386C131.502 27.386 130.887 27.5588 130.347 27.9044C129.807 28.2392 129.386 28.709 129.083 29.3138C128.781 29.9078 128.63 30.6044 128.63 31.4036C128.63 32.2568 128.873 32.9156 129.359 33.38C129.855 33.8336 130.595 34.0604 131.578 34.0604C132.15 34.0604 132.68 33.9686 133.166 33.785C133.652 33.5906 134.051 33.326 134.364 32.9912L134.883 33.8174C134.483 34.217 133.981 34.5302 133.376 34.757C132.782 34.973 132.15 35.081 131.481 35.081ZM143.218 26.414C143.985 26.414 144.611 26.5652 145.097 26.8676C145.594 27.1592 145.934 27.5858 146.118 28.1474C146.312 28.709 146.328 29.3786 146.166 30.1562L145.194 35H144.044L145.016 30.14C145.189 29.2976 145.097 28.6388 144.741 28.1636C144.395 27.6884 143.78 27.4508 142.894 27.4508C141.987 27.4508 141.231 27.6992 140.626 28.196C140.032 28.6928 139.632 29.438 139.427 30.4316L138.52 35H137.37L139.055 26.495H140.156L139.67 28.9412L139.427 28.52C139.838 27.7856 140.367 27.251 141.015 26.9162C141.674 26.5814 142.408 26.414 143.218 26.414ZM154.166 26.414C154.932 26.414 155.559 26.5652 156.045 26.8676C156.542 27.1592 156.882 27.5858 157.065 28.1474C157.26 28.709 157.276 29.3786 157.114 30.1562L156.142 35H154.992L155.964 30.14C156.137 29.2976 156.045 28.6388 155.688 28.1636C155.343 27.6884 154.727 27.4508 153.842 27.4508C152.934 27.4508 152.178 27.6992 151.574 28.196C150.98 28.6928 150.58 29.438 150.375 30.4316L149.468 35H148.317L150.715 22.9796H151.865L150.666 28.9412L150.375 28.52C150.785 27.7856 151.314 27.251 151.962 26.9162C152.621 26.5814 153.356 26.414 154.166 26.414ZM163.153 35.081C162.343 35.081 161.636 34.9352 161.031 34.6436C160.437 34.3412 159.978 33.92 159.654 33.38C159.341 32.84 159.184 32.1974 159.184 31.4522C159.184 30.4802 159.389 29.6162 159.8 28.8602C160.21 28.1042 160.772 27.5102 161.485 27.0782C162.197 26.6354 163.002 26.414 163.898 26.414C164.654 26.414 165.308 26.5598 165.859 26.8514C166.409 27.1322 166.836 27.5426 167.138 28.0826C167.452 28.6226 167.608 29.2706 167.608 30.0266C167.608 30.1994 167.597 30.3776 167.576 30.5612C167.554 30.734 167.527 30.9014 167.495 31.0634H160.027L160.172 30.2048H166.96L166.49 30.5288C166.598 29.8484 166.55 29.276 166.345 28.8116C166.139 28.3472 165.821 27.9962 165.389 27.7586C164.968 27.5102 164.46 27.386 163.866 27.386C163.175 27.386 162.559 27.5588 162.019 27.9044C161.479 28.2392 161.058 28.709 160.756 29.3138C160.453 29.9078 160.302 30.6044 160.302 31.4036C160.302 32.2568 160.545 32.9156 161.031 33.38C161.528 33.8336 162.268 34.0604 163.25 34.0604C163.823 34.0604 164.352 33.9686 164.838 33.785C165.324 33.5906 165.724 33.326 166.037 32.9912L166.555 33.8174C166.156 34.217 165.653 34.5302 165.049 34.757C164.455 34.973 163.823 35.081 163.153 35.081ZM169.042 35L170.727 26.495H171.877L170.192 35H169.042ZM171.796 24.6158C171.569 24.6158 171.38 24.5402 171.229 24.389C171.089 24.2378 171.018 24.0596 171.018 23.8544C171.018 23.6168 171.099 23.4116 171.261 23.2388C171.434 23.066 171.65 22.9796 171.909 22.9796C172.136 22.9796 172.325 23.0498 172.476 23.1902C172.628 23.3306 172.703 23.5088 172.703 23.7248C172.703 23.984 172.617 24.2 172.444 24.3728C172.271 24.5348 172.055 24.6158 171.796 24.6158ZM177.021 35.081C176.298 35.081 175.655 34.9352 175.094 34.6436C174.532 34.352 174.095 33.9362 173.781 33.3962C173.468 32.8562 173.312 32.2136 173.312 31.4684C173.312 30.7448 173.43 30.0752 173.668 29.4596C173.906 28.844 174.24 28.3094 174.672 27.8558C175.104 27.3914 175.612 27.035 176.195 26.7866C176.789 26.5382 177.432 26.414 178.123 26.414C178.868 26.414 179.5 26.549 180.018 26.819C180.537 27.0782 180.936 27.4616 181.217 27.9692C181.498 28.466 181.638 29.0708 181.638 29.7836C181.638 30.5504 181.53 31.2578 181.314 31.9058C181.109 32.5538 180.801 33.1154 180.391 33.5906C179.981 34.0658 179.489 34.433 178.917 34.6922C178.355 34.9514 177.723 35.081 177.021 35.081ZM177.264 34.0604C177.977 34.0604 178.609 33.893 179.16 33.5582C179.721 33.2126 180.159 32.7374 180.472 32.1326C180.796 31.5278 180.958 30.842 180.958 30.0752C180.958 29.2328 180.71 28.5794 180.213 28.115C179.727 27.6506 179.041 27.4184 178.155 27.4184C177.453 27.4184 176.822 27.5912 176.26 27.9368C175.698 28.2824 175.256 28.7576 174.932 29.3624C174.618 29.9564 174.462 30.6422 174.462 31.4198C174.462 32.2514 174.705 32.8994 175.191 33.3638C175.688 33.8282 176.379 34.0604 177.264 34.0604ZM180.067 35L180.553 32.5538L181.039 30.8366L181.201 29.0546L182.416 22.9796H183.566L181.169 35H180.067ZM192.403 35.081C191.614 35.081 190.928 34.9352 190.345 34.6436C189.773 34.3412 189.325 33.92 189.001 33.38C188.687 32.84 188.531 32.2028 188.531 31.4684C188.531 30.4964 188.741 29.6324 189.163 28.8764C189.584 28.1096 190.167 27.5102 190.912 27.0782C191.657 26.6354 192.505 26.414 193.456 26.414C194.244 26.414 194.924 26.5598 195.497 26.8514C196.08 27.143 196.528 27.5588 196.841 28.0988C197.165 28.6388 197.327 29.276 197.327 30.0104C197.327 30.9824 197.117 31.8518 196.696 32.6186C196.274 33.3746 195.691 33.974 194.946 34.4168C194.212 34.8596 193.364 35.081 192.403 35.081ZM192.484 34.0604C193.196 34.0604 193.828 33.893 194.379 33.5582C194.941 33.2126 195.378 32.7374 195.691 32.1326C196.015 31.5278 196.177 30.842 196.177 30.0752C196.177 29.2328 195.929 28.5794 195.432 28.115C194.946 27.6506 194.26 27.4184 193.375 27.4184C192.673 27.4184 192.041 27.5912 191.479 27.9368C190.918 28.2824 190.475 28.7576 190.151 29.3624C189.838 29.9564 189.681 30.6422 189.681 31.4198C189.681 32.2514 189.924 32.8994 190.41 33.3638C190.907 33.8282 191.598 34.0604 192.484 34.0604ZM204.617 26.414C205.383 26.414 206.01 26.5652 206.496 26.8676C206.993 27.1592 207.333 27.5858 207.516 28.1474C207.711 28.709 207.727 29.3786 207.565 30.1562L206.593 35H205.443L206.415 30.14C206.588 29.2976 206.496 28.6388 206.139 28.1636C205.794 27.6884 205.178 27.4508 204.293 27.4508C203.385 27.4508 202.629 27.6992 202.025 28.196C201.431 28.6928 201.031 29.438 200.826 30.4316L199.919 35H198.768L200.453 26.495H201.555L201.069 28.9412L200.826 28.52C201.236 27.7856 201.765 27.251 202.413 26.9162C203.072 26.5814 203.807 26.414 204.617 26.414ZM208.776 35L208.922 34.2386L215.953 27.062L216.212 27.4508H210.396L210.591 26.495H217.314L217.152 27.2402L210.137 34.433L209.829 34.0442H215.904L215.71 35H208.776ZM221.736 35.081C220.926 35.081 220.218 34.9352 219.614 34.6436C219.02 34.3412 218.561 33.92 218.237 33.38C217.923 32.84 217.767 32.1974 217.767 31.4522C217.767 30.4802 217.972 29.6162 218.382 28.8602C218.793 28.1042 219.354 27.5102 220.067 27.0782C220.78 26.6354 221.585 26.414 222.481 26.414C223.237 26.414 223.89 26.5598 224.441 26.8514C224.992 27.1322 225.419 27.5426 225.721 28.0826C226.034 28.6226 226.191 29.2706 226.191 30.0266C226.191 30.1994 226.18 30.3776 226.158 30.5612C226.137 30.734 226.11 30.9014 226.077 31.0634H218.609L218.755 30.2048H225.543L225.073 30.5288C225.181 29.8484 225.132 29.276 224.927 28.8116C224.722 28.3472 224.403 27.9962 223.971 27.7586C223.55 27.5102 223.043 27.386 222.449 27.386C221.757 27.386 221.142 27.5588 220.602 27.9044C220.062 28.2392 219.641 28.709 219.338 29.3138C219.036 29.9078 218.885 30.6044 218.885 31.4036C218.885 32.2568 219.128 32.9156 219.614 33.38C220.11 33.8336 220.85 34.0604 221.833 34.0604C222.405 34.0604 222.935 33.9686 223.421 33.785C223.907 33.5906 224.306 33.326 224.619 32.9912L225.138 33.8174C224.738 34.217 224.236 34.5302 223.631 34.757C223.037 34.973 222.405 35.081 221.736 35.081ZM2.1384 54.732L2.3652 53.3226L8.5536 48.495H10.1898L5.5404 52.1076L4.9086 52.5936L2.1384 54.732ZM0.7614 57L3.159 44.9796H4.3092L1.9116 57H0.7614ZM7.4034 57L4.7142 52.5774L5.508 51.7188L8.748 57H7.4034ZM13.8568 57.081C13.0468 57.081 12.3394 56.9352 11.7346 56.6436C11.1406 56.3412 10.6816 55.92 10.3576 55.38C10.0444 54.84 9.88782 54.1974 9.88782 53.4522C9.88782 52.4802 10.093 51.6162 10.5034 50.8602C10.9138 50.1042 11.4754 49.5102 12.1882 49.0782C12.901 48.6354 13.7056 48.414 14.602 48.414C15.358 48.414 16.0114 48.5598 16.5622 48.8514C17.113 49.1322 17.5396 49.5426 17.842 50.0826C18.1552 50.6226 18.3118 51.2706 18.3118 52.0266C18.3118 52.1994 18.301 52.3776 18.2794 52.5612C18.2578 52.734 18.2308 52.9014 18.1984 53.0634H10.7302L10.876 52.2048H17.6638L17.194 52.5288C17.302 51.8484 17.2534 51.276 17.0482 50.8116C16.843 50.3472 16.5244 49.9962 16.0924 49.7586C15.6712 49.5102 15.1636 49.386 14.5696 49.386C13.8784 49.386 13.2628 49.5588 12.7228 49.9044C12.1828 50.2392 11.7616 50.709 11.4592 51.3138C11.1568 51.9078 11.0056 52.6044 11.0056 53.4036C11.0056 54.2568 11.2486 54.9156 11.7346 55.38C12.2314 55.8336 12.9712 56.0604 13.954 56.0604C14.5264 56.0604 15.0556 55.9686 15.5416 55.785C16.0276 55.5906 16.4272 55.326 16.7404 54.9912L17.2588 55.8174C16.8592 56.217 16.357 56.5302 15.7522 56.757C15.1582 56.973 14.5264 57.081 13.8568 57.081ZM19.7458 57L21.4306 48.495H22.5322L22.0462 51.006L21.9166 50.5686C22.2946 49.8234 22.7914 49.278 23.407 48.9324C24.0334 48.5868 24.811 48.414 25.7398 48.414L25.5292 49.5318C25.4752 49.5318 25.4212 49.5318 25.3672 49.5318C25.324 49.521 25.27 49.5156 25.2052 49.5156C24.298 49.5156 23.5474 49.7802 22.9534 50.3094C22.3702 50.8278 21.9706 51.6162 21.7546 52.6746L20.896 57H19.7458ZM28.6949 57.081C28.0037 57.081 27.3503 56.9838 26.7347 56.7894C26.1191 56.595 25.6439 56.3466 25.3091 56.0442L25.8599 55.137C26.1839 55.4286 26.6105 55.6608 27.1397 55.8336C27.6689 55.9956 28.2251 56.0766 28.8083 56.0766C29.6183 56.0766 30.2393 55.9416 30.6713 55.6716C31.1141 55.4016 31.3355 55.029 31.3355 54.5538C31.3355 54.2298 31.2167 53.9868 30.9791 53.8248C30.7523 53.652 30.4553 53.5224 30.0881 53.436C29.7209 53.3388 29.3321 53.247 28.9217 53.1606C28.5113 53.0742 28.1225 52.9662 27.7553 52.8366C27.3881 52.6962 27.0857 52.4856 26.8481 52.2048C26.6213 51.924 26.5079 51.546 26.5079 51.0708C26.5079 50.5308 26.6591 50.061 26.9615 49.6614C27.2747 49.2618 27.7067 48.954 28.2575 48.738C28.8083 48.522 29.4563 48.414 30.2015 48.414C30.7415 48.414 31.2761 48.4842 31.8053 48.6246C32.3345 48.765 32.7611 48.9594 33.0851 49.2078L32.5991 50.1312C32.2643 49.872 31.8755 49.6884 31.4327 49.5804C30.9899 49.4616 30.5471 49.4022 30.1043 49.4022C29.3159 49.4022 28.7057 49.548 28.2737 49.8396C27.8525 50.1204 27.6419 50.493 27.6419 50.9574C27.6419 51.2814 27.7553 51.5298 27.9821 51.7026C28.2197 51.8754 28.5221 52.0104 28.8893 52.1076C29.2565 52.2048 29.6453 52.2966 30.0557 52.383C30.4769 52.4586 30.8657 52.5666 31.2221 52.707C31.5893 52.8474 31.8863 53.0526 32.1131 53.3226C32.3507 53.5818 32.4695 53.949 32.4695 54.4242C32.4695 54.9858 32.3129 55.4664 31.9997 55.866C31.6865 56.2548 31.2437 56.5572 30.6713 56.7732C30.1097 56.9784 29.4509 57.081 28.6949 57.081ZM36.8318 57.081C36.3458 57.081 35.93 56.9784 35.5844 56.7732C35.2388 56.5572 34.9958 56.2548 34.8554 55.866C34.7258 55.4772 34.715 55.0128 34.823 54.4728L36.3782 46.6158H37.5284L35.9732 54.4242C35.8652 54.9534 35.903 55.3638 36.0866 55.6554C36.281 55.947 36.632 56.0928 37.1396 56.0928C37.3772 56.0928 37.6094 56.0604 37.8362 55.9956C38.063 55.92 38.2682 55.8066 38.4518 55.6554L38.7272 56.5302C38.4572 56.7354 38.1548 56.8812 37.82 56.9676C37.4852 57.0432 37.1558 57.081 36.8318 57.081ZM34.3046 49.4508L34.4828 48.495H39.7478L39.5534 49.4508H34.3046ZM43.5499 60.2238C42.7615 60.2238 42.0433 60.1104 41.3953 59.8836C40.7473 59.6676 40.2019 59.3544 39.7591 58.944L40.4395 58.0692C40.7851 58.4148 41.2333 58.6902 41.7841 58.8954C42.3457 59.1006 42.9613 59.2032 43.6309 59.2032C44.7109 59.2032 45.5479 58.9548 46.1419 58.458C46.7359 57.9612 47.1301 57.1944 47.3245 56.1576L47.7781 53.922L48.2155 52.5288L48.3937 51.0708L48.8959 48.495H49.9975L48.5071 55.9632C48.2155 57.4644 47.6647 58.5498 46.8547 59.2194C46.0447 59.889 44.9431 60.2238 43.5499 60.2238ZM44.1169 56.676C43.3717 56.676 42.7129 56.5356 42.1405 56.2548C41.5789 55.974 41.1415 55.5798 40.8283 55.0722C40.5151 54.5538 40.3585 53.9436 40.3585 53.2416C40.3585 52.5504 40.4773 51.9132 40.7149 51.33C40.9525 50.7468 41.2873 50.2392 41.7193 49.8072C42.1513 49.3644 42.6643 49.0242 43.2583 48.7866C43.8523 48.5382 44.5057 48.414 45.2185 48.414C45.8989 48.414 46.5037 48.5328 47.0329 48.7704C47.5621 49.008 47.9779 49.3644 48.2803 49.8396C48.5935 50.3148 48.7501 50.9196 48.7501 51.654C48.7609 52.5828 48.5773 53.4306 48.1993 54.1974C47.8213 54.9534 47.2867 55.5582 46.5955 56.0118C45.9043 56.4546 45.0781 56.676 44.1169 56.676ZM44.3437 55.6554C45.0565 55.6554 45.6883 55.4934 46.2391 55.1694C46.8007 54.8454 47.2435 54.4026 47.5675 53.841C47.8915 53.2686 48.0535 52.6206 48.0535 51.897C48.0535 51.1194 47.8051 50.5146 47.3083 50.0826C46.8115 49.6398 46.1203 49.4184 45.2347 49.4184C44.5219 49.4184 43.8847 49.5804 43.3231 49.9044C42.7615 50.2284 42.3187 50.6766 41.9947 51.249C41.6815 51.8106 41.5249 52.4532 41.5249 53.1768C41.5249 53.9544 41.7733 54.5646 42.2701 55.0074C42.7669 55.4394 43.4581 55.6554 44.3437 55.6554ZM55.3851 57.081C54.5751 57.081 53.8677 56.9352 53.2629 56.6436C52.6689 56.3412 52.2099 55.92 51.8859 55.38C51.5727 54.84 51.4161 54.1974 51.4161 53.4522C51.4161 52.4802 51.6213 51.6162 52.0317 50.8602C52.4421 50.1042 53.0037 49.5102 53.7165 49.0782C54.4293 48.6354 55.2339 48.414 56.1303 48.414C56.8863 48.414 57.5397 48.5598 58.0905 48.8514C58.6413 49.1322 59.0679 49.5426 59.3703 50.0826C59.6835 50.6226 59.8401 51.2706 59.8401 52.0266C59.8401 52.1994 59.8293 52.3776 59.8077 52.5612C59.7861 52.734 59.7591 52.9014 59.7267 53.0634H52.2585L52.4043 52.2048H59.1921L58.7223 52.5288C58.8303 51.8484 58.7817 51.276 58.5765 50.8116C58.3713 50.3472 58.0527 49.9962 57.6207 49.7586C57.1995 49.5102 56.6919 49.386 56.0979 49.386C55.4067 49.386 54.7911 49.5588 54.2511 49.9044C53.7111 50.2392 53.2899 50.709 52.9875 51.3138C52.6851 51.9078 52.5339 52.6044 52.5339 53.4036C52.5339 54.2568 52.7769 54.9156 53.2629 55.38C53.7597 55.8336 54.4995 56.0604 55.4823 56.0604C56.0547 56.0604 56.5839 55.9686 57.0699 55.785C57.5559 55.5906 57.9555 55.326 58.2687 54.9912L58.7871 55.8174C58.3875 56.217 57.8853 56.5302 57.2805 56.757C56.6865 56.973 56.0547 57.081 55.3851 57.081ZM63.7527 57.081C63.0615 57.081 62.4081 56.9838 61.7925 56.7894C61.1769 56.595 60.7017 56.3466 60.3669 56.0442L60.9177 55.137C61.2417 55.4286 61.6683 55.6608 62.1975 55.8336C62.7267 55.9956 63.2829 56.0766 63.8661 56.0766C64.6761 56.0766 65.2971 55.9416 65.7291 55.6716C66.1719 55.4016 66.3933 55.029 66.3933 54.5538C66.3933 54.2298 66.2745 53.9868 66.0369 53.8248C65.8101 53.652 65.5131 53.5224 65.1459 53.436C64.7787 53.3388 64.3899 53.247 63.9795 53.1606C63.5691 53.0742 63.1803 52.9662 62.8131 52.8366C62.4459 52.6962 62.1435 52.4856 61.9059 52.2048C61.6791 51.924 61.5657 51.546 61.5657 51.0708C61.5657 50.5308 61.7169 50.061 62.0193 49.6614C62.3325 49.2618 62.7645 48.954 63.3153 48.738C63.8661 48.522 64.5141 48.414 65.2593 48.414C65.7993 48.414 66.3339 48.4842 66.8631 48.6246C67.3923 48.765 67.8189 48.9594 68.1429 49.2078L67.6569 50.1312C67.3221 49.872 66.9333 49.6884 66.4905 49.5804C66.0477 49.4616 65.6049 49.4022 65.1621 49.4022C64.3737 49.4022 63.7635 49.548 63.3315 49.8396C62.9103 50.1204 62.6997 50.493 62.6997 50.9574C62.6997 51.2814 62.8131 51.5298 63.0399 51.7026C63.2775 51.8754 63.5799 52.0104 63.9471 52.1076C64.3143 52.2048 64.7031 52.2966 65.1135 52.383C65.5347 52.4586 65.9235 52.5666 66.2799 52.707C66.6471 52.8474 66.9441 53.0526 67.1709 53.3226C67.4085 53.5818 67.5273 53.949 67.5273 54.4242C67.5273 54.9858 67.3707 55.4664 67.0575 55.866C66.7443 56.2548 66.3015 56.5572 65.7291 56.7732C65.1675 56.9784 64.5087 57.081 63.7527 57.081ZM73.0399 57.081C72.2299 57.081 71.5279 56.9352 70.9339 56.6436C70.3507 56.3412 69.8971 55.92 69.5731 55.38C69.2599 54.84 69.1033 54.2028 69.1033 53.4684C69.1033 52.4964 69.3139 51.6324 69.7351 50.8764C70.1563 50.1096 70.7395 49.5102 71.4847 49.0782C72.2407 48.6354 73.0993 48.414 74.0605 48.414C74.8489 48.414 75.5239 48.5598 76.0855 48.8514C76.6579 49.1322 77.1007 49.5534 77.4139 50.115L76.4419 50.682C76.2043 50.25 75.8749 49.9314 75.4537 49.7262C75.0433 49.521 74.5465 49.4184 73.9633 49.4184C73.2505 49.4184 72.6133 49.5912 72.0517 49.9368C71.4901 50.2824 71.0473 50.7576 70.7233 51.3624C70.4101 51.9564 70.2535 52.6422 70.2535 53.4198C70.2535 54.2514 70.4965 54.8994 70.9825 55.3638C71.4793 55.8282 72.1813 56.0604 73.0885 56.0604C73.6393 56.0604 74.1469 55.9578 74.6113 55.7526C75.0865 55.5366 75.4753 55.2288 75.7777 54.8292L76.6039 55.461C76.2367 55.9686 75.7345 56.3682 75.0973 56.6598C74.4601 56.9406 73.7743 57.081 73.0399 57.081ZM84.0342 48.414C84.801 48.414 85.4274 48.5652 85.9134 48.8676C86.4102 49.1592 86.7504 49.5858 86.934 50.1474C87.1284 50.709 87.1446 51.3786 86.9826 52.1562L86.0106 57H84.8604L85.8324 52.14C86.0052 51.2976 85.9134 50.6388 85.557 50.1636C85.2114 49.6884 84.5958 49.4508 83.7102 49.4508C82.803 49.4508 82.047 49.6992 81.4422 50.196C80.8482 50.6928 80.4486 51.438 80.2434 52.4316L79.3362 57H78.186L80.5836 44.9796H81.7338L80.535 50.9412L80.2434 50.52C80.6538 49.7856 81.183 49.251 81.831 48.9162C82.4898 48.5814 83.2242 48.414 84.0342 48.414ZM93.0217 57.081C92.2117 57.081 91.5043 56.9352 90.8995 56.6436C90.3055 56.3412 89.8465 55.92 89.5225 55.38C89.2093 54.84 89.0527 54.1974 89.0527 53.4522C89.0527 52.4802 89.2579 51.6162 89.6683 50.8602C90.0787 50.1042 90.6403 49.5102 91.3531 49.0782C92.0659 48.6354 92.8705 48.414 93.7669 48.414C94.5229 48.414 95.1763 48.5598 95.7271 48.8514C96.2779 49.1322 96.7045 49.5426 97.0069 50.0826C97.3201 50.6226 97.4767 51.2706 97.4767 52.0266C97.4767 52.1994 97.4659 52.3776 97.4443 52.5612C97.4227 52.734 97.3957 52.9014 97.3633 53.0634H89.8951L90.0409 52.2048H96.8287L96.3589 52.5288C96.4669 51.8484 96.4183 51.276 96.2131 50.8116C96.0079 50.3472 95.6893 49.9962 95.2573 49.7586C94.8361 49.5102 94.3285 49.386 93.7345 49.386C93.0433 49.386 92.4277 49.5588 91.8877 49.9044C91.3477 50.2392 90.9265 50.709 90.6241 51.3138C90.3217 51.9078 90.1705 52.6044 90.1705 53.4036C90.1705 54.2568 90.4135 54.9156 90.8995 55.38C91.3963 55.8336 92.1361 56.0604 93.1189 56.0604C93.6913 56.0604 94.2205 55.9686 94.7065 55.785C95.1925 55.5906 95.5921 55.326 95.9053 54.9912L96.4237 55.8174C96.0241 56.217 95.5219 56.5302 94.9171 56.757C94.3231 56.973 93.6913 57.081 93.0217 57.081ZM104.759 48.414C105.526 48.414 106.152 48.5652 106.638 48.8676C107.135 49.1592 107.475 49.5858 107.659 50.1474C107.853 50.709 107.869 51.3786 107.707 52.1562L106.735 57H105.585L106.557 52.14C106.73 51.2976 106.638 50.6388 106.282 50.1636C105.936 49.6884 105.32 49.4508 104.435 49.4508C103.528 49.4508 102.772 49.6992 102.167 50.196C101.573 50.6928 101.173 51.438 100.968 52.4316L100.061 57H98.9106L100.595 48.495H101.697L101.211 50.9412L100.968 50.52C101.378 49.7856 101.908 49.251 102.556 48.9162C103.214 48.5814 103.949 48.414 104.759 48.414ZM111.235 54.732L111.462 53.3226L117.65 48.495H119.287L114.637 52.1076L114.005 52.5936L111.235 54.732ZM109.858 57L112.256 44.9796H113.406L111.008 57H109.858ZM116.5 57L113.811 52.5774L114.605 51.7188L117.845 57H116.5ZM122.954 57.081C122.144 57.081 121.436 56.9352 120.832 56.6436C120.238 56.3412 119.779 55.92 119.455 55.38C119.141 54.84 118.985 54.1974 118.985 53.4522C118.985 52.4802 119.19 51.6162 119.6 50.8602C120.011 50.1042 120.572 49.5102 121.285 49.0782C121.998 48.6354 122.803 48.414 123.699 48.414C124.455 48.414 125.108 48.5598 125.659 48.8514C126.21 49.1322 126.637 49.5426 126.939 50.0826C127.252 50.6226 127.409 51.2706 127.409 52.0266C127.409 52.1994 127.398 52.3776 127.376 52.5612C127.355 52.734 127.328 52.9014 127.295 53.0634H119.827L119.973 52.2048H126.761L126.291 52.5288C126.399 51.8484 126.35 51.276 126.145 50.8116C125.94 50.3472 125.621 49.9962 125.189 49.7586C124.768 49.5102 124.261 49.386 123.667 49.386C122.975 49.386 122.36 49.5588 121.82 49.9044C121.28 50.2392 120.859 50.709 120.556 51.3138C120.254 51.9078 120.103 52.6044 120.103 53.4036C120.103 54.2568 120.346 54.9156 120.832 55.38C121.328 55.8336 122.068 56.0604 123.051 56.0604C123.623 56.0604 124.153 55.9686 124.639 55.785C125.125 55.5906 125.524 55.326 125.837 54.9912L126.356 55.8174C125.956 56.217 125.454 56.5302 124.849 56.757C124.255 56.973 123.623 57.081 122.954 57.081ZM134.691 48.414C135.458 48.414 136.084 48.5652 136.57 48.8676C137.067 49.1592 137.407 49.5858 137.591 50.1474C137.785 50.709 137.801 51.3786 137.639 52.1562L136.667 57H135.517L136.489 52.14C136.662 51.2976 136.57 50.6388 136.214 50.1636C135.868 49.6884 135.252 49.4508 134.367 49.4508C133.46 49.4508 132.704 49.6992 132.099 50.196C131.505 50.6928 131.105 51.438 130.9 52.4316L129.993 57H128.843L130.527 48.495H131.629L131.143 50.9412L130.9 50.52C131.31 49.7856 131.84 49.251 132.488 48.9162C133.146 48.5814 133.881 48.414 134.691 48.414ZM144.03 57L146.428 44.9796H147.578L146.379 50.9574L145.861 52.6422L145.666 54.2946L145.132 57H144.03ZM148.761 57.081C148.026 57.081 147.394 56.9514 146.865 56.6922C146.347 56.4222 145.947 56.0388 145.666 55.542C145.396 55.0344 145.256 54.4242 145.245 53.7114C145.245 52.9338 145.353 52.221 145.569 51.573C145.785 50.925 146.093 50.3688 146.493 49.9044C146.903 49.4292 147.389 49.062 147.951 48.8028C148.523 48.5436 149.16 48.414 149.862 48.414C150.597 48.414 151.239 48.5598 151.79 48.8514C152.352 49.1322 152.789 49.5426 153.102 50.0826C153.426 50.6226 153.588 51.2652 153.588 52.0104C153.588 52.7448 153.469 53.4198 153.232 54.0354C152.994 54.651 152.654 55.1856 152.211 55.6392C151.779 56.0928 151.272 56.4492 150.688 56.7084C150.105 56.9568 149.463 57.081 148.761 57.081ZM148.744 56.0604C149.457 56.0604 150.089 55.893 150.64 55.5582C151.191 55.2126 151.623 54.7374 151.936 54.1326C152.26 53.5278 152.422 52.842 152.422 52.0752C152.422 51.2328 152.179 50.5794 151.693 50.115C151.207 49.6506 150.516 49.4184 149.619 49.4184C148.917 49.4184 148.285 49.5912 147.724 49.9368C147.173 50.2824 146.736 50.7576 146.412 51.3624C146.098 51.9564 145.942 52.6422 145.942 53.4198C145.942 54.2514 146.185 54.8994 146.671 55.3638C147.157 55.8282 147.848 56.0604 148.744 56.0604ZM155.009 57L156.694 48.495H157.844L156.16 57H155.009ZM157.763 46.6158C157.537 46.6158 157.348 46.5402 157.196 46.389C157.056 46.2378 156.986 46.0596 156.986 45.8544C156.986 45.6168 157.067 45.4116 157.229 45.2388C157.402 45.066 157.618 44.9796 157.877 44.9796C158.104 44.9796 158.293 45.0498 158.444 45.1902C158.595 45.3306 158.671 45.5088 158.671 45.7248C158.671 45.984 158.584 46.2 158.411 46.3728C158.239 46.5348 158.023 46.6158 157.763 46.6158ZM157.578 60.2238C157.211 60.2238 156.876 60.1752 156.574 60.078C156.26 59.9916 155.996 59.862 155.78 59.6892L156.314 58.7982C156.649 59.0898 157.076 59.2356 157.594 59.2356C158.059 59.2356 158.426 59.106 158.696 58.8468C158.977 58.5984 159.176 58.188 159.295 57.6156L161.126 48.495H162.276L160.445 57.648C160.1 59.3652 159.144 60.2238 157.578 60.2238ZM162.179 46.6158C161.952 46.6158 161.763 46.5402 161.612 46.389C161.471 46.2378 161.401 46.0596 161.401 45.8544C161.401 45.6168 161.482 45.4116 161.644 45.2388C161.817 45.066 162.033 44.9796 162.292 44.9796C162.519 44.9796 162.708 45.0498 162.859 45.1902C163.01 45.3306 163.086 45.5088 163.086 45.7248C163.086 45.984 163 46.2 162.827 46.3728C162.654 46.5348 162.438 46.6158 162.179 46.6158ZM171.593 57.0972C171.042 57.0972 170.497 57.0378 169.957 56.919C169.428 56.7894 168.947 56.6166 168.515 56.4006C168.083 56.1738 167.738 55.9254 167.478 55.6554L168.062 54.7158C168.321 54.9858 168.639 55.2234 169.017 55.4286C169.406 55.6338 169.833 55.7958 170.297 55.9146C170.762 56.0226 171.226 56.0766 171.69 56.0766C172.36 56.0766 172.943 55.9902 173.44 55.8174C173.948 55.6446 174.342 55.3908 174.623 55.056C174.903 54.7212 175.044 54.3162 175.044 53.841C175.044 53.463 174.936 53.1606 174.72 52.9338C174.504 52.6962 174.223 52.5072 173.877 52.3668C173.532 52.2156 173.148 52.0806 172.727 51.9618C172.306 51.843 171.885 51.7134 171.464 51.573C171.042 51.4326 170.654 51.2598 170.297 51.0546C169.952 50.8494 169.671 50.5794 169.455 50.2446C169.25 49.9098 169.147 49.4886 169.147 48.981C169.147 48.2682 169.341 47.658 169.73 47.1504C170.119 46.632 170.654 46.2378 171.334 45.9678C172.014 45.6978 172.797 45.5628 173.683 45.5628C174.353 45.5628 174.995 45.6438 175.611 45.8058C176.237 45.9678 176.766 46.2108 177.198 46.5348L176.696 47.5068C176.286 47.2044 175.816 46.9776 175.287 46.8264C174.758 46.6644 174.201 46.5834 173.618 46.5834C172.959 46.5834 172.382 46.6752 171.885 46.8588C171.388 47.0424 170.999 47.307 170.718 47.6526C170.448 47.9874 170.313 48.3924 170.313 48.8676C170.313 49.2456 170.416 49.5534 170.621 49.791C170.837 50.0286 171.118 50.223 171.464 50.3742C171.82 50.5254 172.209 50.6658 172.63 50.7954C173.051 50.9142 173.472 51.0438 173.894 51.1842C174.315 51.3138 174.698 51.4812 175.044 51.6864C175.4 51.8808 175.686 52.14 175.902 52.464C176.118 52.7772 176.226 53.1822 176.226 53.679C176.226 54.4026 176.027 55.0236 175.627 55.542C175.227 56.0496 174.677 56.4384 173.975 56.7084C173.283 56.9676 172.49 57.0972 171.593 57.0972ZM180.3 57L182.358 46.6968H178.356L178.567 45.66H187.736L187.525 46.6968H183.54L181.483 57H180.3ZM189.716 50.7306H195.71L195.516 51.7512H189.522L189.716 50.7306ZM188.793 55.9632H195.613L195.402 57H187.399L189.667 45.66H197.443L197.233 46.6968H190.639L188.793 55.9632ZM198.236 57L200.504 45.66H204.587C205.872 45.66 206.865 45.9408 207.567 46.5024C208.28 47.064 208.637 47.8524 208.637 48.8676C208.637 49.8288 208.421 50.6496 207.989 51.33C207.567 51.9996 206.963 52.5126 206.174 52.869C205.386 53.2254 204.452 53.4036 203.372 53.4036H199.629L200.261 52.8528L199.435 57H198.236ZM205.996 57L203.679 52.8852H204.959L207.292 57H205.996ZM200.229 52.95L199.824 52.3668H203.388C204.673 52.3668 205.667 52.0806 206.369 51.5082C207.081 50.9358 207.438 50.0934 207.438 48.981C207.438 48.2358 207.184 47.6688 206.676 47.28C206.169 46.8912 205.445 46.6968 204.506 46.6968H200.99L201.606 46.1136L200.229 52.95ZM211.579 54.1488L211.758 52.6746L219.939 45.66H221.51L215.386 50.925L214.674 51.5082L211.579 54.1488ZM209.943 57L212.211 45.66H213.394L211.126 57H209.943ZM218.173 57L214.317 51.3624L215.127 50.5686L219.517 57H218.173ZM219.203 57L226.655 45.66H227.838L230.754 57H229.555L226.898 46.3242H227.384L220.499 57H219.203ZM221.844 53.9706L222.394 52.9986H228.988L229.166 53.9706H221.844ZM232.63 57L234.898 45.66H239.207C240.352 45.66 241.318 45.8544 242.107 46.2432C242.906 46.6212 243.511 47.1558 243.921 47.847C244.342 48.5274 244.553 49.3374 244.553 50.277C244.553 51.2706 244.385 52.1832 244.051 53.0148C243.727 53.8356 243.251 54.543 242.625 55.137C242.009 55.731 241.27 56.19 240.406 56.514C239.542 56.838 238.575 57 237.506 57H232.63ZM234.023 55.9632H237.538C238.737 55.9632 239.768 55.7202 240.632 55.2342C241.507 54.7482 242.177 54.084 242.641 53.2416C243.116 52.3884 243.354 51.4164 243.354 50.3256C243.354 49.602 243.197 48.9702 242.884 48.4302C242.571 47.8794 242.096 47.4528 241.459 47.1504C240.832 46.848 240.038 46.6968 239.077 46.6968H235.87L234.023 55.9632ZM251.295 57.0972C250.182 57.0972 249.232 56.9028 248.444 56.514C247.655 56.1144 247.056 55.5636 246.645 54.8616C246.246 54.1488 246.046 53.3226 246.046 52.383C246.046 51.4542 246.203 50.5794 246.516 49.7586C246.829 48.9378 247.283 48.2142 247.877 47.5878C248.481 46.9506 249.205 46.4538 250.047 46.0974C250.89 45.741 251.835 45.5628 252.882 45.5628C254.006 45.5628 254.956 45.7626 255.734 46.1622C256.522 46.551 257.116 47.1018 257.516 47.8146C257.926 48.5166 258.131 49.3374 258.131 50.277C258.131 51.2058 257.975 52.0806 257.661 52.9014C257.348 53.7222 256.889 54.4512 256.284 55.0884C255.69 55.7148 254.972 56.2062 254.13 56.5626C253.287 56.919 252.342 57.0972 251.295 57.0972ZM251.408 56.028C252.251 56.028 253.012 55.8822 253.692 55.5906C254.373 55.2882 254.956 54.8724 255.442 54.3432C255.928 53.814 256.301 53.2092 256.56 52.5288C256.819 51.8376 256.949 51.1032 256.949 50.3256C256.949 49.5912 256.787 48.9486 256.463 48.3978C256.149 47.847 255.685 47.415 255.069 47.1018C254.454 46.7886 253.687 46.632 252.769 46.632C251.927 46.632 251.165 46.7832 250.485 47.0856C249.804 47.3772 249.221 47.7876 248.735 48.3168C248.26 48.846 247.887 49.4562 247.617 50.1474C247.358 50.8278 247.229 51.5568 247.229 52.3344C247.229 53.058 247.385 53.7006 247.698 54.2622C248.022 54.813 248.492 55.245 249.108 55.5582C249.723 55.8714 250.49 56.028 251.408 56.028ZM260.03 48.9324L261.326 45.9516L261.44 46.6644C261.202 46.6644 261.002 46.5834 260.84 46.4214C260.678 46.2594 260.597 46.0596 260.597 45.822C260.597 45.552 260.689 45.3306 260.873 45.1578C261.056 44.985 261.267 44.8986 261.504 44.8986C261.742 44.8986 261.936 44.9796 262.088 45.1416C262.25 45.2928 262.331 45.4926 262.331 45.741C262.331 45.8814 262.304 46.0164 262.25 46.146C262.206 46.2648 262.136 46.416 262.039 46.5996L260.808 48.9324H260.03ZM262.784 48.9324L264.08 45.9516L264.194 46.6644C263.956 46.6644 263.756 46.5834 263.594 46.4214C263.432 46.2594 263.351 46.0596 263.351 45.822C263.351 45.552 263.443 45.3306 263.627 45.1578C263.81 44.985 264.021 44.8986 264.258 44.8986C264.496 44.8986 264.69 44.9796 264.842 45.1416C265.004 45.2928 265.085 45.4926 265.085 45.741C265.085 45.8814 265.058 46.0164 265.004 46.146C264.96 46.2648 264.89 46.416 264.793 46.5996L263.562 48.9324H262.784Z" fill="#40434E"/>
</svg>
