<?xml version="1.0" encoding="utf-8"?>
<!-- Generator: Adobe Illustrator 26.5.3, SVG Export Plug-In . SVG Version: 6.00 Build 0)  -->
<svg version="1.1" id="Layer_2_00000124879565371718863040000017195979955799683210_"
	 xmlns="http://www.w3.org/2000/svg" xmlns:xlink="http://www.w3.org/1999/xlink" x="0px" y="0px" viewBox="0 0 251.3 102.4"
	 style="enable-background:new 0 0 251.3 102.4;" xml:space="preserve">
<style type="text/css">
	.st0{fill:#FFFFFF;}
</style>
<g id="Layer_1-2">
	<path class="st0" d="M196.7,54.2h-2.1c-0.4,0-0.6-0.2-0.6-0.6V31.6c0-0.4,0.2-0.6,0.6-0.6h2.1c0.4,0,0.6,0.2,0.6,0.6v22.1
		C197.3,54,197.1,54.2,196.7,54.2z M180.8,45h5.9c0.2,0,0.3-0.1,0.3-0.3v-2.1c0-0.8-0.2-1.4-0.6-1.8c-0.4-0.4-1-0.6-1.8-0.6h-1.8
		c-0.8,0-1.4,0.2-1.8,0.6c-0.4,0.4-0.6,1-0.6,1.8v2.1C180.5,44.9,180.6,45,180.8,45z M189.5,54.2h-7.1c-1.6,0-2.9-0.5-3.8-1.3
		c-0.9-0.9-1.3-2.2-1.3-3.8v-6.6c0-1.6,0.4-2.9,1.3-3.8c0.9-0.9,2.2-1.3,3.8-1.3h2.7c1.6,0,2.9,0.5,3.8,1.3c0.9,0.9,1.4,2.1,1.4,3.8
		v4.2c0,0.4-0.2,0.6-0.6,0.6h-8.8c-0.2,0-0.4,0.1-0.4,0.3V49c0,1.6,0.8,2.4,2.4,2.4h6.7c0.4,0,0.6,0.2,0.6,0.6v1.7
		C190.1,54,189.9,54.2,189.5,54.2L189.5,54.2z M164.5,45h5.9c0.2,0,0.3-0.1,0.3-0.3v-2.1c0-0.8-0.2-1.4-0.6-1.8
		c-0.4-0.4-1-0.6-1.8-0.6h-1.8c-0.8,0-1.4,0.2-1.8,0.6c-0.4,0.4-0.6,1-0.6,1.8v2.1C164.2,44.9,164.3,45,164.5,45z M173.2,54.2h-7.1
		c-1.6,0-2.9-0.5-3.8-1.3c-0.9-0.9-1.3-2.2-1.3-3.8v-6.6c0-1.6,0.4-2.9,1.3-3.8c0.9-0.9,2.2-1.3,3.8-1.3h2.7c1.6,0,2.9,0.5,3.8,1.3
		c0.9,0.9,1.4,2.1,1.4,3.8v4.2c0,0.4-0.2,0.6-0.6,0.6h-8.8c-0.2,0-0.4,0.1-0.4,0.3V49c0,1.6,0.8,2.4,2.4,2.4h6.7
		c0.4,0,0.6,0.2,0.6,0.6v1.7C173.9,54,173.7,54.2,173.2,54.2L173.2,54.2z M146.9,54.2h-2.1c-0.4,0-0.6-0.2-0.6-0.6V37.9
		c0-0.4,0.2-0.6,0.6-0.6h2.1c0.4,0,0.6,0.2,0.6,0.6v1.2h0.1c0.5-1.2,1.6-1.8,3.3-1.8h1.4c1.6,0,2.8,0.4,3.7,1.3s1.3,2.1,1.3,3.8
		v11.2c0,0.4-0.2,0.6-0.6,0.6h-2.1c-0.4,0-0.6-0.2-0.6-0.6v-11c0-1.6-0.8-2.4-2.4-2.4h-1.6c-1.8,0-2.7,0.9-2.7,2.8v10.7
		C147.5,54,147.3,54.2,146.9,54.2L146.9,54.2z M132.9,51.4h2c1.6,0,2.4-0.8,2.4-2.4v-6.4c0-1.6-0.8-2.4-2.4-2.4h-2
		c-0.8,0-1.4,0.2-1.8,0.6c-0.4,0.4-0.6,1-0.6,1.8V49c0,0.8,0.2,1.5,0.6,1.8C131.5,51.2,132.1,51.4,132.9,51.4z M135.3,54.2h-2.9
		c-1.6,0-2.9-0.5-3.8-1.3c-0.9-0.9-1.3-2.2-1.3-3.8v-6.6c0-1.6,0.4-2.9,1.3-3.8c0.9-0.9,2.2-1.3,3.8-1.3h2.9c1.6,0,2.9,0.5,3.8,1.3
		c0.9,0.9,1.4,2.1,1.4,3.8v6.6c0,1.6-0.5,2.9-1.4,3.8C138.2,53.8,136.9,54.2,135.3,54.2z M119.3,54.2h-6.1c-0.4,0-0.6-0.2-0.6-0.6
		V52c0-0.3,0.2-0.5,0.6-0.5h5.5c1.4,0,2.2-0.5,2.2-1.5v-0.4c0-0.9-0.5-1.5-1.6-2l-3.6-1.7c-1.1-0.5-1.9-1.1-2.4-1.8
		c-0.5-0.6-0.8-1.5-0.8-2.5c0-2.8,1.6-4.3,4.7-4.3h5.5c0.3,0,0.5,0.2,0.5,0.6v1.6c0,0.4-0.2,0.6-0.5,0.6H118c-0.7,0-1.2,0.1-1.5,0.4
		c-0.3,0.2-0.5,0.5-0.5,0.9v0.4c0,0.7,0.6,1.3,1.7,1.8l3.6,1.8c1.1,0.5,1.9,1.1,2.3,1.8c0.4,0.7,0.7,1.6,0.7,2.7
		C124.2,52.8,122.6,54.2,119.3,54.2L119.3,54.2z M104.9,54.2h-2.1c-0.4,0-0.6-0.2-0.6-0.6V37.9c0-0.4,0.2-0.6,0.6-0.6h2.1
		c0.4,0,0.6,0.2,0.6,0.6v1.2h0.1c0.2-0.5,0.6-1,1.2-1.3c0.6-0.3,1.3-0.5,2.1-0.5h1.2c0.4,0,0.6,0.2,0.6,0.6v1.7
		c0,0.4-0.2,0.6-0.6,0.5h-2c-1.8,0-2.7,1-2.7,3v10.5C105.5,54,105.3,54.2,104.9,54.2L104.9,54.2z M89.2,45h5.9
		c0.2,0,0.3-0.1,0.3-0.3v-2.1c0-0.8-0.2-1.4-0.6-1.8c-0.4-0.4-1-0.6-1.8-0.6h-1.8c-0.8,0-1.4,0.2-1.8,0.6c-0.4,0.4-0.6,1-0.6,1.8
		v2.1C88.9,44.9,89,45,89.2,45z M97.9,54.2h-7.1c-1.6,0-2.9-0.5-3.8-1.3c-0.9-0.9-1.3-2.2-1.3-3.8v-6.6c0-1.6,0.4-2.9,1.3-3.8
		c0.9-0.9,2.2-1.3,3.8-1.3h2.7c1.6,0,2.9,0.5,3.8,1.3c0.9,0.9,1.3,2.1,1.3,3.8v4.2c0,0.4-0.2,0.6-0.6,0.6h-8.8
		c-0.2,0-0.4,0.1-0.4,0.3V49c0,1.6,0.8,2.4,2.4,2.4h6.7c0.4,0,0.6,0.2,0.6,0.6v1.7C98.5,54,98.3,54.2,97.9,54.2L97.9,54.2z
		 M74.8,51.4h1.8c1.6,0,2.4-0.8,2.4-2.4v-6.3c0-1.6-0.8-2.4-2.4-2.4h-1.8c-1.8,0-2.7,0.9-2.7,2.8v5.6C72.1,50.5,73,51.4,74.8,51.4
		L74.8,51.4z M71.5,58.9h-2.1c-0.4,0-0.6-0.2-0.6-0.6V37.9c0-0.4,0.2-0.6,0.6-0.6h2.1c0.4,0,0.6,0.2,0.6,0.6v1.2h0.1
		c0.5-1.2,1.6-1.8,3.3-1.8h1.7c1.6,0,2.8,0.4,3.6,1.3c0.9,0.9,1.3,2.1,1.3,3.8v6.6c0,1.6-0.4,2.9-1.3,3.8c-0.8,0.9-2.1,1.3-3.6,1.3
		h-1.7c-1.7,0-2.8-0.6-3.3-1.8h-0.1v5.8C72.1,58.7,71.9,58.9,71.5,58.9z M52.6,54.2h-2.1c-0.4,0-0.6-0.2-0.6-0.6V37.9
		c0-0.4,0.2-0.6,0.6-0.6h2.1c0.4,0,0.6,0.2,0.6,0.6v1.2h0.1c0.2-0.5,0.6-1,1.2-1.3c0.6-0.3,1.3-0.5,2.1-0.5h1.2
		c0.4,0,0.6,0.2,0.6,0.6v1.7c0,0.4-0.2,0.6-0.6,0.5h-2c-1.8,0-2.7,1-2.7,3v10.5C53.2,54,53,54.2,52.6,54.2L52.6,54.2z M38.6,51.4h2
		c1.6,0,2.4-0.8,2.4-2.4v-6.4c0-1.6-0.8-2.4-2.4-2.4h-2c-0.8,0-1.4,0.2-1.8,0.6c-0.4,0.4-0.6,1-0.6,1.8V49c0,0.8,0.2,1.5,0.6,1.8
		C37.2,51.2,37.8,51.4,38.6,51.4z M41,54.2h-2.9c-1.6,0-2.9-0.5-3.8-1.3C33.5,52,33,50.7,33,49.1v-6.6c0-1.6,0.4-2.9,1.3-3.8
		c0.9-0.9,2.2-1.3,3.8-1.3H41c1.6,0,2.9,0.5,3.8,1.3c0.9,0.9,1.4,2.1,1.4,3.8v6.6c0,1.6-0.5,2.9-1.4,3.8
		C43.9,53.8,42.6,54.2,41,54.2z M22,51.4h2c1.6,0,2.4-0.8,2.4-2.4v-6.4c0-1.6-0.8-2.4-2.4-2.4h-2c-0.8,0-1.4,0.2-1.8,0.6
		c-0.4,0.4-0.6,1-0.6,1.8V49c0,0.8,0.2,1.5,0.6,1.8C20.5,51.2,21.1,51.4,22,51.4z M24.4,54.2h-2.9c-1.6,0-2.9-0.5-3.8-1.3
		c-0.9-0.9-1.3-2.2-1.3-3.8v-6.6c0-1.6,0.4-2.9,1.3-3.8c0.9-0.9,2.2-1.3,3.8-1.3h2.9c1.6,0,2.9,0.5,3.8,1.3c0.9,0.9,1.4,2.1,1.4,3.8
		v6.6c0,1.6-0.5,2.9-1.4,3.8C27.3,53.8,26,54.2,24.4,54.2z M0.9,37.4h2.2c0.3,0,0.6,0.2,0.6,0.6l3.4,13.3h0.2l3.4-13.3
		c0.1-0.4,0.3-0.6,0.7-0.6h2.2c0.4,0,0.5,0.2,0.4,0.6L9.6,53.6c-0.1,0.4-0.3,0.6-0.7,0.6H5.7c-0.4,0-0.6-0.2-0.7-0.6L0.5,37.9
		C0.4,37.6,0.5,37.4,0.9,37.4z M241.2,23.2h-2.1c-0.4,0-0.6-0.2-0.6-0.6V0.6c0-0.4,0.2-0.6,0.6-0.6h2.1c0.4,0,0.6,0.2,0.6,0.6v22.1
		C241.8,23,241.6,23.2,241.2,23.2z M248.2,6.4h2.4c0.2,0,0.3,0.1,0.4,0.2c0.1,0.1,0.1,0.3-0.1,0.5l-4.6,7.4v0.1l5,8
		c0.1,0.2,0.1,0.3,0,0.5c-0.1,0.1-0.2,0.2-0.5,0.2h-2.1c-0.5,0-0.9-0.2-1.1-0.6l-4.6-7.6c-0.1-0.3-0.1-0.6,0-0.9l4.3-7.2
		C247.4,6.5,247.7,6.4,248.2,6.4L248.2,6.4z M224.2,23.2h-2.1c-0.4,0-0.6-0.2-0.6-0.6V6.9c0-0.4,0.2-0.6,0.6-0.6h2.1
		c0.4,0,0.6,0.2,0.6,0.6v1.2h0.1c0.5-1.2,1.6-1.8,3.3-1.8h1.4c1.6,0,2.8,0.4,3.7,1.3s1.3,2.1,1.3,3.8v11.1c0,0.4-0.2,0.6-0.6,0.6
		H232c-0.4,0-0.6-0.2-0.6-0.6v-11c0-1.6-0.8-2.4-2.4-2.4h-1.6c-1.8,0-2.7,0.9-2.7,2.8v10.7C224.7,23,224.6,23.2,224.2,23.2
		L224.2,23.2z M208.5,14h5.9c0.2,0,0.3-0.1,0.3-0.3v-2.1c0-0.8-0.2-1.4-0.6-1.8c-0.4-0.4-1-0.6-1.8-0.6h-1.8c-0.8,0-1.4,0.2-1.8,0.6
		c-0.4,0.4-0.6,1-0.6,1.8v2.1C208.1,13.9,208.3,14,208.5,14z M217.2,23.2h-7.1c-1.6,0-2.9-0.5-3.8-1.4c-0.9-0.9-1.3-2.2-1.3-3.8
		v-6.6c0-1.6,0.4-2.9,1.3-3.8c0.9-0.9,2.2-1.3,3.8-1.3h2.7c1.6,0,2.9,0.4,3.8,1.3c0.9,0.9,1.4,2.1,1.4,3.8v4.2
		c0,0.4-0.2,0.6-0.6,0.6h-8.8c-0.2,0-0.4,0.1-0.4,0.3V18c0,1.6,0.8,2.4,2.4,2.4h6.7c0.4,0,0.6,0.2,0.6,0.6v1.6
		C217.8,23,217.6,23.2,217.2,23.2L217.2,23.2z M190.9,23.2h-2.1c-0.4,0-0.6-0.2-0.6-0.6V0.6c0-0.4,0.2-0.6,0.6-0.6h2.1
		c0.4,0,0.6,0.2,0.6,0.6v7.6h0.1c0.5-1.2,1.6-1.8,3.3-1.8h1.4c1.6,0,2.8,0.4,3.7,1.3s1.3,2.1,1.3,3.8v11.1c0,0.4-0.2,0.6-0.6,0.6
		h-2.1c-0.4,0-0.6-0.2-0.6-0.6v-11c0-1.6-0.8-2.4-2.4-2.4h-1.6c-1.8,0-2.7,0.9-2.7,2.8v10.7C191.4,23,191.2,23.2,190.9,23.2
		L190.9,23.2z M185.1,21v1.7c0,0.4-0.2,0.5-0.6,0.5h-4.9c-1.6,0-2.9-0.5-3.8-1.4c-0.9-0.9-1.3-2.2-1.3-3.8v-6.6
		c0-1.6,0.4-2.9,1.3-3.8c0.9-0.9,2.2-1.3,3.8-1.3h4.9c0.4,0,0.6,0.2,0.6,0.6v1.7c0,0.4-0.2,0.5-0.6,0.5h-4.4c-1.6,0-2.4,0.8-2.4,2.4
		V18c0,1.6,0.8,2.4,2.4,2.4h4.4C184.9,20.4,185.1,20.6,185.1,21L185.1,21z M166.5,23.2h-6.1c-0.4,0-0.6-0.2-0.6-0.6V21
		c0-0.4,0.2-0.5,0.6-0.5h5.5c1.4,0,2.1-0.5,2.1-1.5v-0.4c0-0.9-0.5-1.5-1.6-2l-3.6-1.7c-1.1-0.5-1.9-1.1-2.4-1.8
		c-0.5-0.6-0.8-1.5-0.8-2.5c0-2.8,1.6-4.3,4.7-4.3h5.5c0.4,0,0.5,0.2,0.5,0.6v1.6c0,0.4-0.2,0.6-0.5,0.6h-4.8
		c-0.7,0-1.2,0.1-1.5,0.4c-0.4,0.2-0.5,0.5-0.5,0.9v0.4c0,0.7,0.6,1.3,1.7,1.9l3.6,1.9c1.1,0.5,1.9,1.1,2.3,1.8
		c0.4,0.7,0.7,1.6,0.7,2.7C171.4,21.8,169.8,23.2,166.5,23.2L166.5,23.2z M147.4,14h5.9c0.2,0,0.3-0.1,0.3-0.3v-2.1
		c0-0.8-0.2-1.4-0.6-1.8c-0.4-0.4-1-0.6-1.8-0.6h-1.8c-0.8,0-1.4,0.2-1.8,0.6c-0.4,0.4-0.6,1-0.6,1.8v2.1
		C147.1,13.9,147.2,14,147.4,14z M156.2,23.2H149c-1.6,0-2.9-0.5-3.8-1.4c-0.9-0.9-1.3-2.2-1.3-3.8v-6.6c0-1.6,0.4-2.9,1.3-3.8
		c0.9-0.9,2.2-1.3,3.8-1.3h2.7c1.6,0,2.9,0.4,3.8,1.3c0.9,0.9,1.4,2.1,1.4,3.8v4.2c0,0.4-0.2,0.6-0.6,0.6h-8.8
		c-0.2,0-0.4,0.1-0.4,0.3V18c0,1.6,0.8,2.4,2.4,2.4h6.7c0.4,0,0.6,0.2,0.6,0.6v1.6C156.8,23,156.6,23.2,156.2,23.2L156.2,23.2z
		 M136.9,16.8V9.5c0-0.2-0.1-0.3-0.4-0.3h-3.9c-1.6,0-2.3,0.8-2.3,2.4v5.5c0,1.6,0.8,2.4,2.3,2.4h1.6
		C136,19.5,136.9,18.6,136.9,16.8L136.9,16.8z M133.4,22.4h-1.5c-1.6,0-2.8-0.4-3.7-1.3c-0.8-0.9-1.2-2.2-1.2-3.8v-5.8
		c0-1.6,0.4-2.9,1.4-3.8c0.9-0.9,2.2-1.3,3.8-1.3h7.4c0.4,0,0.6,0.2,0.6,0.6v16.3c0,1.6-0.5,2.9-1.4,3.7c-0.9,0.9-2.2,1.4-3.8,1.4
		h-6.2c-0.4,0-0.6-0.2-0.6-0.5v-1.7c0-0.4,0.2-0.6,0.6-0.6h5.7c1.6,0,2.4-0.8,2.4-2.4v-2.5h-0.1C136.2,21.8,135.1,22.4,133.4,22.4
		L133.4,22.4z M116.2,9.2h-1.6c-0.2,0-0.4,0-0.5-0.1c-0.1-0.1-0.1-0.2-0.1-0.4V6.9c0-0.4,0.2-0.6,0.6-0.6h1.6c0.2,0,0.3-0.1,0.3-0.3
		v-3c0-0.4,0.2-0.6,0.6-0.6h2.1c0.4,0,0.6,0.2,0.6,0.6v3c0,0.2,0.1,0.3,0.4,0.3h3.1c0.4,0,0.6,0.2,0.6,0.6v1.7
		c0,0.4-0.2,0.5-0.6,0.5h-3.1c-0.2,0-0.4,0.1-0.4,0.3V18c0,1.6,0.8,2.4,2.5,2.4h1.3c0.4,0,0.6,0.2,0.6,0.6v1.7
		c0,0.4-0.2,0.5-0.6,0.5h-1.8c-1.6,0-2.9-0.4-3.8-1.3c-0.9-0.9-1.4-2.1-1.4-3.7V9.5C116.5,9.3,116.4,9.2,116.2,9.2L116.2,9.2z
		 M107.4,23.2h-6.1c-0.4,0-0.6-0.2-0.6-0.6V21c0-0.4,0.2-0.5,0.6-0.5h5.5c1.4,0,2.2-0.5,2.2-1.5v-0.4c0-0.9-0.5-1.5-1.6-2l-3.6-1.7
		c-1.1-0.5-1.9-1.1-2.4-1.8c-0.5-0.6-0.8-1.5-0.8-2.5c0-2.8,1.6-4.3,4.7-4.3h5.5c0.3,0,0.5,0.2,0.5,0.6v1.6c0,0.4-0.2,0.6-0.5,0.6
		H106c-0.7,0-1.2,0.1-1.5,0.4c-0.3,0.2-0.5,0.5-0.5,0.9v0.4c0,0.7,0.6,1.3,1.7,1.9l3.6,1.9c1.1,0.5,1.9,1.1,2.3,1.8
		c0.4,0.7,0.7,1.6,0.7,2.7C112.3,21.8,110.7,23.2,107.4,23.2L107.4,23.2z M93,23.2h-2.1c-0.4,0-0.6-0.2-0.6-0.6V6.9
		c0-0.4,0.2-0.6,0.6-0.6H93c0.4,0,0.6,0.2,0.6,0.6v1.3h0.1c0.2-0.6,0.6-1,1.2-1.3c0.6-0.3,1.3-0.5,2.1-0.5h1.2
		c0.4,0,0.6,0.2,0.6,0.6v1.7c0,0.4-0.2,0.6-0.6,0.5h-2c-1.8,0-2.7,1-2.7,3v10.5C93.5,23,93.3,23.2,93,23.2L93,23.2z M77.3,14h5.9
		c0.2,0,0.3-0.1,0.3-0.3v-2.1c0-0.8-0.2-1.4-0.6-1.8c-0.4-0.4-1-0.6-1.8-0.6h-1.8c-0.8,0-1.4,0.2-1.8,0.6c-0.4,0.4-0.6,1-0.6,1.8
		v2.1C76.9,13.9,77,14,77.3,14L77.3,14z M86,23.2h-7.1c-1.6,0-2.9-0.5-3.8-1.4c-0.9-0.9-1.3-2.2-1.3-3.8v-6.6c0-1.6,0.4-2.9,1.3-3.8
		c0.9-0.9,2.2-1.3,3.8-1.3h2.7c1.6,0,2.9,0.4,3.8,1.3c0.9,0.9,1.3,2.1,1.3,3.8v4.2c0,0.4-0.2,0.6-0.6,0.6h-8.8
		c-0.2,0-0.4,0.1-0.4,0.3V18c0,1.6,0.8,2.4,2.4,2.4H86c0.4,0,0.6,0.2,0.6,0.6v1.6C86.6,23,86.4,23.2,86,23.2L86,23.2z M61.7,23.2
		h-2.1c-0.4,0-0.6-0.2-0.6-0.6V0.6C59,0.2,59.2,0,59.6,0h2.1c0.4,0,0.6,0.2,0.6,0.6v22.1C62.2,23,62,23.2,61.7,23.2z M68.6,6.4H71
		c0.2,0,0.3,0.1,0.4,0.2c0.1,0.1,0.1,0.3-0.1,0.5l-4.7,7.4v0.1l5,8c0.1,0.2,0.1,0.3,0,0.5c-0.1,0.1-0.2,0.2-0.5,0.2h-2.2
		c-0.5,0-0.9-0.2-1.1-0.6L63.3,15c-0.2-0.3-0.2-0.6,0-0.9l4.3-7.2C67.8,6.6,68.1,6.4,68.6,6.4L68.6,6.4z M36.7,23.2h-2.1
		c-0.4,0-0.6-0.2-0.6-0.6V6.9c0-0.4,0.2-0.6,0.6-0.6h2.1c0.4,0,0.6,0.2,0.6,0.6v1.2h0.1c0.5-1.2,1.6-1.8,3.3-1.8h1.5
		c1.6,0,2.8,0.4,3.7,1.3s1.3,2.1,1.3,3.8v11.1c0,0.4-0.2,0.6-0.6,0.6h-2.1c-0.4,0-0.6-0.2-0.6-0.6v-11c0-1.6-0.8-2.4-2.4-2.4H40
		c-1.8,0-2.7,0.9-2.7,2.8v10.7C37.3,23,37.1,23.2,36.7,23.2L36.7,23.2z M21,14h5.9c0.2,0,0.3-0.1,0.3-0.3v-2.1
		c0-0.8-0.2-1.4-0.6-1.8c-0.4-0.4-1-0.6-1.8-0.6h-1.8c-0.8,0-1.4,0.2-1.8,0.6c-0.4,0.4-0.6,1-0.6,1.8v2.1C20.7,13.9,20.8,14,21,14z
		 M29.7,23.2h-7.1c-1.6,0-2.9-0.5-3.8-1.4c-0.9-0.9-1.3-2.2-1.3-3.8v-6.6c0-1.6,0.4-2.9,1.3-3.8c0.9-0.9,2.2-1.3,3.8-1.3h2.7
		c1.6,0,2.9,0.4,3.8,1.3c0.9,0.9,1.4,2.1,1.4,3.8v4.2c0,0.4-0.2,0.6-0.6,0.6H21c-0.2,0-0.4,0.1-0.4,0.3V18c0,1.6,0.8,2.4,2.4,2.4
		h6.7c0.4,0,0.6,0.2,0.6,0.6v1.6C30.4,23,30.2,23.2,29.7,23.2L29.7,23.2z M13.4,23.2H2.8c-0.4,0-0.6-0.2-0.6-0.6V2.5
		C2.3,2.2,2.5,2,2.8,2h10.6c0.4,0,0.5,0.2,0.5,0.6v1.7c0,0.4-0.2,0.6-0.5,0.6H5.9c-0.3,0-0.4,0.1-0.4,0.3v5.6c0,0.2,0.1,0.3,0.4,0.3
		h6.4c0.4,0,0.6,0.2,0.6,0.6v1.7c0,0.4-0.2,0.6-0.6,0.6H5.9c-0.3,0-0.4,0.1-0.4,0.3V20c0,0.2,0.1,0.4,0.4,0.4h7.5
		c0.4,0,0.5,0.2,0.5,0.6v1.7C13.9,23,13.7,23.2,13.4,23.2L13.4,23.2z"/>
	<path class="st0" d="M193.1,99.3c-0.4,0-0.7-0.1-0.9-0.4s-0.4-0.5-0.4-0.9s0.1-0.6,0.4-0.9c0.2-0.2,0.6-0.4,0.9-0.4
		s0.7,0.1,0.9,0.4c0.2,0.2,0.4,0.5,0.4,0.9s-0.1,0.6-0.4,0.9C193.8,99.2,193.5,99.3,193.1,99.3z M192.3,95.5L192,88h2.4l-0.4,7.5
		H192.3L192.3,95.5z M186.1,90.6c0.7,0,1.3,0.1,1.8,0.4c0.5,0.3,1,0.7,1.3,1.2c0.3,0.5,0.5,1.2,0.5,2.1v4.9h-2v-4.6
		c0-0.8-0.2-1.3-0.5-1.7c-0.4-0.4-0.9-0.6-1.5-0.6c-0.5,0-0.9,0.1-1.2,0.3s-0.6,0.5-0.9,0.9c-0.2,0.4-0.3,0.8-0.3,1.4v4.3h-2v-8.5
		h1.9V93l-0.3-0.7c0.3-0.5,0.7-1,1.3-1.2C184.7,90.7,185.4,90.6,186.1,90.6L186.1,90.6z M175.3,99.3c-0.9,0-1.8-0.2-2.5-0.6
		c-0.7-0.4-1.2-0.9-1.6-1.6c-0.4-0.7-0.6-1.4-0.6-2.3s0.2-1.6,0.6-2.3c0.4-0.7,0.9-1.2,1.6-1.6c0.7-0.4,1.4-0.6,2.3-0.6
		s1.6,0.2,2.2,0.5s1.2,0.9,1.5,1.5s0.6,1.4,0.6,2.3c0,0.1,0,0.2,0,0.3c0,0.1,0,0.2,0,0.3h-7.1v-1.3h6.1l-0.8,0.4
		c0-0.5-0.1-0.9-0.3-1.3c-0.2-0.4-0.5-0.7-0.9-0.9c-0.4-0.2-0.8-0.3-1.3-0.3s-0.9,0.1-1.3,0.3c-0.4,0.2-0.6,0.5-0.9,0.9
		c-0.2,0.4-0.3,0.8-0.3,1.3V95c0,0.5,0.1,1,0.4,1.4s0.6,0.7,1,0.9s0.9,0.3,1.5,0.3c0.5,0,0.9-0.1,1.3-0.2c0.4-0.2,0.7-0.4,1-0.7
		l1.1,1.2c-0.4,0.4-0.9,0.8-1.5,1C176.7,99.2,176.1,99.3,175.3,99.3L175.3,99.3z M167.9,99.2l-3.1-3.9l1.3-1.6l4.3,5.5H167.9z
		 M161.5,99.2V87.3h2v11.9H161.5z M163.1,97.3l0.1-2.5l4.5-4.1h2.4l-3.8,3.8l-1.1,0.9L163.1,97.3L163.1,97.3z M155.4,90.6
		c0.7,0,1.3,0.1,1.8,0.4c0.5,0.3,1,0.7,1.3,1.2c0.3,0.5,0.5,1.2,0.5,2.1v4.9h-2v-4.6c0-0.8-0.2-1.3-0.5-1.7
		c-0.4-0.4-0.9-0.6-1.5-0.6c-0.5,0-0.9,0.1-1.2,0.3s-0.6,0.5-0.9,0.9c-0.2,0.4-0.3,0.8-0.3,1.4v4.3h-2v-8.5h1.9V93l-0.3-0.7
		c0.3-0.5,0.7-1,1.3-1.2C154,90.7,154.6,90.6,155.4,90.6L155.4,90.6z M144.6,99.3c-0.9,0-1.8-0.2-2.5-0.6c-0.7-0.4-1.2-0.9-1.6-1.6
		c-0.4-0.7-0.6-1.4-0.6-2.3s0.2-1.6,0.6-2.3c0.4-0.7,0.9-1.2,1.6-1.6c0.7-0.4,1.4-0.6,2.3-0.6s1.6,0.2,2.2,0.5s1.2,0.9,1.5,1.5
		s0.6,1.4,0.6,2.3c0,0.1,0,0.2,0,0.3c0,0.1,0,0.2,0,0.3h-7.1v-1.3h6.1l-0.8,0.4c0-0.5-0.1-0.9-0.3-1.3c-0.2-0.4-0.5-0.7-0.9-0.9
		c-0.4-0.2-0.8-0.3-1.3-0.3s-0.9,0.1-1.3,0.3c-0.4,0.2-0.6,0.5-0.9,0.9c-0.2,0.4-0.3,0.8-0.3,1.3V95c0,0.5,0.1,1,0.4,1.4
		s0.6,0.7,1,0.9s0.9,0.3,1.5,0.3c0.5,0,0.9-0.1,1.3-0.2c0.4-0.2,0.7-0.4,1-0.7l1.1,1.2c-0.4,0.4-0.9,0.8-1.5,1
		C146,99.2,145.3,99.3,144.6,99.3L144.6,99.3z M134.5,90.6c0.7,0,1.3,0.1,1.8,0.4c0.5,0.3,1,0.7,1.3,1.2c0.3,0.5,0.5,1.2,0.5,2.1
		v4.9h-2v-4.6c0-0.8-0.2-1.3-0.5-1.7c-0.4-0.4-0.9-0.6-1.5-0.6c-0.5,0-0.9,0.1-1.2,0.3s-0.6,0.5-0.9,0.9c-0.2,0.4-0.3,0.8-0.3,1.4
		v4.3h-2V87.3h2V93l-0.4-0.7c0.3-0.5,0.7-1,1.3-1.2C133,90.7,133.7,90.6,134.5,90.6L134.5,90.6z M124.3,99.3c-0.9,0-1.7-0.2-2.4-0.6
		c-0.7-0.4-1.2-0.9-1.6-1.6s-0.6-1.4-0.6-2.3s0.2-1.6,0.6-2.3c0.4-0.7,0.9-1.2,1.6-1.6c0.7-0.4,1.5-0.6,2.4-0.6
		c0.8,0,1.6,0.2,2.2,0.5c0.6,0.3,1.1,0.8,1.5,1.5l-1.5,0.9c-0.3-0.4-0.6-0.7-0.9-0.9c-0.4-0.2-0.8-0.3-1.2-0.3
		c-0.5,0-0.9,0.1-1.3,0.3s-0.7,0.5-0.9,0.9c-0.2,0.4-0.3,0.9-0.3,1.4s0.1,1,0.3,1.4c0.2,0.4,0.5,0.7,0.9,0.9
		c0.4,0.2,0.8,0.3,1.3,0.3c0.4,0,0.8-0.1,1.2-0.3c0.4-0.2,0.7-0.5,0.9-0.9l1.5,0.9c-0.3,0.6-0.8,1.1-1.5,1.5
		C125.9,99.1,125.1,99.3,124.3,99.3L124.3,99.3z M114.8,99.3c-0.7,0-1.4-0.1-2.1-0.3c-0.7-0.2-1.2-0.4-1.6-0.7l0.8-1.5
		c0.4,0.2,0.8,0.4,1.4,0.6c0.5,0.2,1.1,0.2,1.6,0.2c0.6,0,1.1-0.1,1.4-0.3c0.3-0.2,0.4-0.4,0.4-0.7c0-0.2-0.1-0.4-0.3-0.5
		c-0.2-0.1-0.4-0.2-0.8-0.3c-0.3-0.1-0.7-0.1-1-0.2c-0.4-0.1-0.8-0.1-1.1-0.2c-0.4-0.1-0.7-0.2-1-0.4c-0.3-0.2-0.6-0.4-0.8-0.7
		s-0.3-0.7-0.3-1.2c0-0.5,0.2-1,0.5-1.4c0.3-0.4,0.7-0.7,1.3-0.9c0.6-0.2,1.2-0.3,2-0.3c0.6,0,1.2,0.1,1.7,0.2
		c0.6,0.1,1.1,0.3,1.5,0.5l-0.8,1.5c-0.4-0.2-0.8-0.4-1.2-0.5c-0.4-0.1-0.8-0.1-1.2-0.1c-0.6,0-1.1,0.1-1.4,0.3
		c-0.3,0.2-0.4,0.4-0.4,0.7c0,0.3,0.1,0.4,0.3,0.6c0.2,0.1,0.4,0.2,0.8,0.3s0.7,0.1,1,0.2c0.4,0,0.8,0.1,1.1,0.2
		c0.4,0.1,0.7,0.2,1,0.4c0.3,0.2,0.6,0.4,0.8,0.7c0.2,0.3,0.3,0.7,0.3,1.2c0,0.5-0.2,1-0.5,1.4c-0.3,0.4-0.8,0.7-1.3,0.9
		C116.3,99.2,115.6,99.3,114.8,99.3L114.8,99.3z M106.2,99.3c-0.9,0-1.8-0.2-2.5-0.6c-0.7-0.4-1.2-0.9-1.7-1.6
		c-0.4-0.7-0.6-1.4-0.6-2.3s0.2-1.6,0.6-2.3c0.4-0.7,0.9-1.2,1.6-1.6c0.7-0.4,1.4-0.6,2.3-0.6s1.6,0.2,2.2,0.5s1.2,0.9,1.5,1.5
		s0.6,1.4,0.6,2.3c0,0.1,0,0.2,0,0.3c0,0.1,0,0.2,0,0.3h-7.1v-1.3h6.1l-0.8,0.4c0-0.5-0.1-0.9-0.3-1.3c-0.2-0.4-0.5-0.7-0.9-0.9
		c-0.4-0.2-0.8-0.3-1.3-0.3s-0.9,0.1-1.3,0.3c-0.4,0.2-0.7,0.5-0.9,0.9c-0.2,0.4-0.3,0.8-0.3,1.3V95c0,0.5,0.1,1,0.3,1.4
		c0.2,0.4,0.6,0.7,1,0.9c0.4,0.2,0.9,0.3,1.5,0.3c0.5,0,0.9-0.1,1.3-0.2c0.4-0.2,0.7-0.4,1-0.7l1.1,1.2c-0.4,0.4-0.9,0.8-1.5,1
		C107.6,99.2,106.9,99.3,106.2,99.3L106.2,99.3z M95,97.1c0.5,0,0.9-0.1,1.3-0.3c0.4-0.2,0.7-0.5,0.9-0.9c0.2-0.4,0.3-0.8,0.3-1.3
		s-0.1-0.9-0.3-1.3c-0.2-0.4-0.5-0.7-0.9-0.8c-0.4-0.2-0.8-0.3-1.3-0.3s-0.9,0.1-1.4,0.3c-0.4,0.2-0.7,0.5-0.9,0.8
		c-0.2,0.4-0.3,0.8-0.3,1.3s0.1,0.9,0.3,1.3c0.2,0.4,0.5,0.7,0.9,0.9C94.1,97,94.5,97.1,95,97.1z M94.7,98.8c-0.8,0-1.6-0.2-2.2-0.5
		c-0.7-0.3-1.2-0.8-1.6-1.5c-0.4-0.6-0.6-1.3-0.6-2.2s0.2-1.5,0.6-2.2c0.4-0.6,0.9-1.1,1.6-1.4c0.7-0.3,1.4-0.5,2.2-0.5
		c0.7,0,1.4,0.1,1.9,0.4c0.6,0.3,1,0.7,1.4,1.3c0.3,0.6,0.5,1.4,0.5,2.3S98.4,96.4,98,97c-0.3,0.6-0.8,1.1-1.4,1.4
		C96.1,98.7,95.4,98.8,94.7,98.8L94.7,98.8z M95,102.4c-0.8,0-1.6-0.1-2.3-0.3c-0.8-0.2-1.4-0.5-1.8-0.9l0.9-1.5
		c0.4,0.3,0.8,0.6,1.4,0.7c0.6,0.2,1.2,0.3,1.7,0.3c0.9,0,1.6-0.2,2.1-0.7c0.4-0.4,0.7-1.1,0.7-1.9v-1.5l0.2-1.9l-0.1-1.9v-2.1h1.9
		v7.2c0,1.6-0.4,2.7-1.2,3.4C97.6,102,96.5,102.4,95,102.4L95,102.4z M85.5,99.3c-0.7,0-1.4-0.1-2.1-0.3c-0.7-0.2-1.2-0.4-1.6-0.7
		l0.8-1.5c0.4,0.2,0.8,0.4,1.4,0.6c0.5,0.2,1.1,0.2,1.6,0.2c0.6,0,1.1-0.1,1.4-0.3c0.3-0.2,0.4-0.4,0.4-0.7c0-0.2-0.1-0.4-0.3-0.5
		c-0.2-0.1-0.4-0.2-0.8-0.3c-0.3-0.1-0.7-0.1-1-0.2c-0.4-0.1-0.8-0.1-1.1-0.2c-0.4-0.1-0.7-0.2-1-0.4c-0.3-0.2-0.6-0.4-0.8-0.7
		s-0.3-0.7-0.3-1.2c0-0.5,0.2-1,0.5-1.4c0.3-0.4,0.7-0.7,1.3-0.9c0.6-0.2,1.2-0.3,2-0.3c0.6,0,1.2,0.1,1.7,0.2
		c0.6,0.1,1.1,0.3,1.5,0.5l-0.8,1.5c-0.4-0.2-0.8-0.4-1.2-0.5c-0.4-0.1-0.8-0.1-1.2-0.1c-0.6,0-1.1,0.1-1.4,0.3
		c-0.3,0.2-0.4,0.4-0.4,0.7c0,0.3,0.1,0.4,0.3,0.6c0.2,0.1,0.4,0.2,0.8,0.3s0.7,0.1,1,0.2c0.4,0,0.8,0.1,1.1,0.2
		c0.4,0.1,0.7,0.2,1,0.4c0.3,0.2,0.6,0.4,0.8,0.7c0.2,0.3,0.3,0.7,0.3,1.2c0,0.5-0.2,1-0.5,1.4c-0.3,0.4-0.8,0.7-1.3,0.9
		C87,99.2,86.3,99.3,85.5,99.3L85.5,99.3z M78.2,99.2V87.3h2v11.9H78.2z M72.3,99.3c-0.9,0-1.8-0.2-2.5-0.6
		c-0.7-0.4-1.2-0.9-1.7-1.6c-0.4-0.7-0.6-1.4-0.6-2.3s0.2-1.6,0.6-2.3c0.4-0.7,0.9-1.2,1.6-1.6c0.7-0.4,1.4-0.6,2.3-0.6
		s1.6,0.2,2.2,0.5s1.2,0.9,1.5,1.5c0.4,0.7,0.6,1.4,0.6,2.3c0,0.1,0,0.2,0,0.3c0,0.1,0,0.2,0,0.3h-7.1v-1.3h6.1l-0.8,0.4
		c0-0.5-0.1-0.9-0.3-1.3c-0.2-0.4-0.5-0.7-0.9-0.9c-0.4-0.2-0.8-0.3-1.3-0.3s-0.9,0.1-1.3,0.3c-0.4,0.2-0.7,0.5-0.9,0.9
		c-0.2,0.4-0.3,0.8-0.3,1.3V95c0,0.5,0.1,1,0.3,1.4c0.2,0.4,0.6,0.7,1,0.9s0.9,0.3,1.5,0.3c0.5,0,0.9-0.1,1.3-0.2
		c0.4-0.2,0.7-0.4,1-0.7l1.1,1.2c-0.4,0.4-0.9,0.8-1.5,1C73.7,99.2,73,99.3,72.3,99.3L72.3,99.3z M62.3,99.3c-1,0-1.8-0.2-2.5-0.6
		c-0.7-0.4-1.2-0.9-1.7-1.6c-0.4-0.7-0.6-1.4-0.6-2.3s0.2-1.6,0.6-2.3c0.4-0.7,0.9-1.2,1.6-1.6c0.7-0.4,1.4-0.6,2.3-0.6
		s1.6,0.2,2.2,0.5s1.2,0.9,1.5,1.5c0.4,0.7,0.6,1.4,0.6,2.3c0,0.1,0,0.2,0,0.3c0,0.1,0,0.2,0,0.3h-7.1v-1.3h6.1l-0.8,0.4
		c0-0.5-0.1-0.9-0.3-1.3c-0.2-0.4-0.5-0.7-0.9-0.9c-0.4-0.2-0.8-0.3-1.3-0.3s-0.9,0.1-1.3,0.3c-0.4,0.2-0.7,0.5-0.9,0.9
		c-0.2,0.4-0.3,0.8-0.3,1.3V95c0,0.5,0.1,1,0.3,1.4s0.6,0.7,1,0.9s0.9,0.3,1.5,0.3c0.5,0,0.9-0.1,1.3-0.2c0.4-0.2,0.7-0.4,1-0.7
		l1.1,1.2c-0.4,0.4-0.9,0.8-1.5,1C63.7,99.2,63.1,99.3,62.3,99.3L62.3,99.3z M52.2,90.6c0.7,0,1.3,0.1,1.8,0.4
		c0.5,0.3,1,0.7,1.3,1.2c0.3,0.5,0.5,1.2,0.5,2.1v4.9h-2v-4.6c0-0.8-0.2-1.3-0.5-1.7c-0.3-0.4-0.8-0.6-1.5-0.6
		c-0.5,0-0.9,0.1-1.2,0.3s-0.7,0.5-0.8,0.9c-0.2,0.4-0.3,0.8-0.3,1.4v4.3h-2v-8.5h1.9V93l-0.3-0.7c0.3-0.5,0.7-1,1.3-1.2
		C50.8,90.7,51.4,90.6,52.2,90.6L52.2,90.6z M40.9,97.6c0.5,0,0.9-0.1,1.3-0.3s0.7-0.5,0.9-0.9s0.3-0.9,0.3-1.4s-0.1-1-0.3-1.4
		c-0.2-0.4-0.5-0.7-0.9-0.9c-0.4-0.2-0.8-0.3-1.3-0.3s-0.9,0.1-1.3,0.3c-0.4,0.2-0.7,0.5-0.9,0.9c-0.2,0.4-0.3,0.9-0.3,1.4
		s0.1,1,0.3,1.4c0.2,0.4,0.5,0.7,0.9,0.9C40,97.5,40.4,97.6,40.9,97.6z M40.9,99.3c-0.9,0-1.7-0.2-2.3-0.6c-0.7-0.4-1.2-0.9-1.6-1.6
		s-0.6-1.4-0.6-2.3s0.2-1.6,0.6-2.3c0.4-0.7,0.9-1.2,1.6-1.6c0.7-0.4,1.5-0.6,2.3-0.6s1.7,0.2,2.3,0.6c0.7,0.4,1.2,0.9,1.6,1.5
		s0.6,1.4,0.6,2.3s-0.2,1.6-0.6,2.3c-0.4,0.7-0.9,1.2-1.6,1.6C42.5,99.1,41.8,99.3,40.9,99.3z M31.4,99.3c-0.7,0-1.4-0.1-2.1-0.3
		c-0.6-0.2-1.2-0.4-1.5-0.7l0.8-1.5c0.4,0.2,0.8,0.4,1.4,0.6c0.5,0.2,1.1,0.2,1.6,0.2c0.6,0,1.1-0.1,1.4-0.3
		c0.3-0.2,0.4-0.4,0.4-0.7c0-0.2-0.1-0.4-0.3-0.5c-0.2-0.1-0.4-0.2-0.8-0.3c-0.3-0.1-0.7-0.1-1-0.2c-0.4-0.1-0.8-0.1-1.1-0.2
		c-0.4-0.1-0.7-0.2-1-0.4c-0.3-0.2-0.6-0.4-0.8-0.7s-0.3-0.7-0.3-1.2c0-0.5,0.1-1,0.5-1.4c0.3-0.4,0.7-0.7,1.3-0.9
		c0.6-0.2,1.2-0.3,2-0.3c0.6,0,1.2,0.1,1.7,0.2c0.6,0.1,1.1,0.3,1.5,0.5l-0.8,1.5c-0.4-0.2-0.8-0.4-1.2-0.5
		c-0.4-0.1-0.8-0.1-1.2-0.1c-0.6,0-1.1,0.1-1.4,0.3c-0.3,0.2-0.4,0.4-0.4,0.7c0,0.3,0.1,0.4,0.3,0.6c0.2,0.1,0.4,0.2,0.8,0.3
		s0.6,0.1,1,0.2c0.4,0,0.8,0.1,1.1,0.2c0.4,0.1,0.7,0.2,1,0.4c0.3,0.2,0.6,0.4,0.8,0.7s0.3,0.7,0.3,1.2c0,0.5-0.2,1-0.5,1.4
		c-0.3,0.4-0.8,0.7-1.3,0.9C32.9,99.2,32.3,99.3,31.4,99.3L31.4,99.3z M22.1,99.2v-8.5H24V93l-0.2-0.7c0.3-0.6,0.7-1,1.2-1.3
		c0.5-0.3,1.2-0.4,2.1-0.4v1.9c-0.1,0-0.2,0-0.2,0c-0.1,0-0.1,0-0.2,0c-0.8,0-1.4,0.2-1.8,0.7c-0.5,0.4-0.7,1.1-0.7,2v4.1L22.1,99.2
		L22.1,99.2z M16.1,99.3c-0.9,0-1.8-0.2-2.5-0.6c-0.7-0.4-1.2-0.9-1.6-1.6c-0.4-0.7-0.6-1.4-0.6-2.3s0.2-1.6,0.6-2.3
		c0.4-0.7,0.9-1.2,1.6-1.6c0.7-0.4,1.4-0.6,2.3-0.6c0.9,0,1.6,0.2,2.2,0.5s1.2,0.9,1.5,1.5c0.4,0.7,0.6,1.4,0.6,2.3
		c0,0.1,0,0.2,0,0.3c0,0.1,0,0.2,0,0.3H13v-1.3h6.1l-0.8,0.4c0-0.5-0.1-0.9-0.3-1.3c-0.2-0.4-0.5-0.7-0.9-0.9
		c-0.4-0.2-0.8-0.3-1.3-0.3s-0.9,0.1-1.3,0.3c-0.4,0.2-0.6,0.5-0.9,0.9c-0.2,0.4-0.3,0.8-0.3,1.3V95c0,0.5,0.1,1,0.4,1.4
		s0.6,0.7,1,0.9s0.9,0.3,1.5,0.3c0.5,0,0.9-0.1,1.3-0.2c0.4-0.2,0.7-0.4,1-0.7l1.1,1.2c-0.4,0.4-0.9,0.8-1.5,1
		C17.5,99.2,16.9,99.3,16.1,99.3L16.1,99.3z M5.7,97.6c0.5,0,0.9-0.1,1.3-0.3c0.4-0.2,0.7-0.5,0.9-0.9c0.2-0.4,0.3-0.9,0.3-1.4
		s-0.1-1-0.3-1.4c-0.2-0.4-0.5-0.7-0.9-0.9c-0.4-0.2-0.8-0.3-1.3-0.3s-0.9,0.1-1.3,0.3c-0.4,0.2-0.7,0.5-0.9,0.9
		c-0.2,0.4-0.3,0.9-0.3,1.4s0.1,1,0.3,1.4c0.2,0.4,0.5,0.7,0.9,0.9C4.8,97.5,5.2,97.6,5.7,97.6z M1.2,102.3V90.7h1.9v2L3,94.9
		l0.2,2.3v5.1L1.2,102.3L1.2,102.3z M5.9,99.3c-0.7,0-1.3-0.2-1.9-0.5S3,98,2.6,97.4c-0.3-0.7-0.5-1.5-0.5-2.5s0.2-1.8,0.5-2.5
		C3,91.8,3.4,91.4,4,91.1c0.6-0.3,1.2-0.5,1.9-0.5c0.8,0,1.6,0.2,2.2,0.5c0.6,0.4,1.2,0.9,1.5,1.5c0.4,0.7,0.6,1.4,0.6,2.3
		s-0.2,1.7-0.6,2.3c-0.4,0.7-0.9,1.2-1.5,1.5C7.5,99.1,6.7,99.3,5.9,99.3z M232.7,79.3c-0.9,0-1.8-0.2-2.5-0.6
		c-0.7-0.4-1.2-0.9-1.6-1.6c-0.4-0.7-0.6-1.4-0.6-2.3s0.2-1.6,0.6-2.3c0.4-0.7,0.9-1.2,1.6-1.6c0.7-0.4,1.4-0.6,2.3-0.6
		s1.6,0.2,2.2,0.5s1.2,0.9,1.5,1.5c0.4,0.7,0.6,1.4,0.6,2.3c0,0.1,0,0.2,0,0.3c0,0.1,0,0.2,0,0.3h-7.1v-1.3h6.1l-0.8,0.4
		c0-0.5-0.1-0.9-0.3-1.3c-0.2-0.4-0.5-0.7-0.9-0.9c-0.4-0.2-0.8-0.3-1.3-0.3s-0.9,0.1-1.3,0.3c-0.4,0.2-0.6,0.5-0.9,0.9
		c-0.2,0.4-0.3,0.8-0.3,1.3V75c0,0.5,0.1,1,0.4,1.4s0.6,0.7,1,0.9s0.9,0.3,1.5,0.3c0.5,0,0.9-0.1,1.3-0.2c0.4-0.2,0.7-0.4,1-0.7
		l1.1,1.2c-0.4,0.4-0.9,0.8-1.5,1C234.1,79.2,233.4,79.3,232.7,79.3L232.7,79.3z M219.6,79.2v-1.3l5.3-6.4l0.4,0.7h-5.5v-1.6h7.1
		v1.3l-5.3,6.4l-0.4-0.7h5.8v1.6H219.6z M213.9,77.6c0.5,0,0.9-0.1,1.3-0.3s0.7-0.5,0.9-0.9s0.3-0.9,0.3-1.4s-0.1-1-0.3-1.4
		c-0.2-0.4-0.5-0.7-0.9-0.9c-0.4-0.2-0.8-0.3-1.3-0.3s-0.9,0.1-1.3,0.3c-0.4,0.2-0.7,0.5-0.9,0.9c-0.2,0.4-0.3,0.9-0.3,1.4
		s0.1,1,0.3,1.4c0.2,0.4,0.5,0.7,0.9,0.9C213,77.5,213.5,77.6,213.9,77.6z M213.9,79.3c-0.9,0-1.6-0.2-2.3-0.6
		c-0.7-0.4-1.2-0.9-1.6-1.6s-0.6-1.4-0.6-2.3s0.2-1.6,0.6-2.3c0.4-0.7,0.9-1.2,1.6-1.6c0.7-0.4,1.5-0.6,2.3-0.6s1.7,0.2,2.4,0.6
		c0.7,0.4,1.2,0.9,1.6,1.5s0.6,1.4,0.6,2.3s-0.2,1.6-0.6,2.3c-0.4,0.7-0.9,1.2-1.6,1.6C215.6,79.1,214.8,79.3,213.9,79.3z
		 M205.5,79.2V67.3h2v11.9H205.5z M199.5,79.3c-0.9,0-1.8-0.2-2.5-0.6c-0.7-0.4-1.2-0.9-1.6-1.6c-0.4-0.7-0.6-1.4-0.6-2.3
		s0.2-1.6,0.6-2.3c0.4-0.7,0.9-1.2,1.6-1.6c0.7-0.4,1.4-0.6,2.3-0.6s1.6,0.2,2.2,0.5s1.2,0.9,1.5,1.5s0.6,1.4,0.6,2.3
		c0,0.1,0,0.2,0,0.3c0,0.1,0,0.2,0,0.3h-7.1v-1.3h6.1l-0.8,0.4c0-0.5-0.1-0.9-0.3-1.3s-0.5-0.7-0.9-0.9c-0.4-0.2-0.8-0.3-1.3-0.3
		s-0.9,0.1-1.3,0.3c-0.4,0.2-0.6,0.5-0.9,0.9c-0.2,0.4-0.3,0.8-0.3,1.3V75c0,0.5,0.1,1,0.4,1.4s0.6,0.7,1,0.9s0.9,0.3,1.5,0.3
		c0.5,0,0.9-0.1,1.3-0.2c0.4-0.2,0.7-0.4,1-0.7l1.1,1.2c-0.4,0.4-0.9,0.8-1.5,1C200.9,79.2,200.2,79.3,199.5,79.3L199.5,79.3z
		 M188.3,77.1c0.5,0,0.9-0.1,1.3-0.3c0.4-0.2,0.7-0.5,0.9-0.9c0.2-0.4,0.3-0.8,0.3-1.3s-0.1-0.9-0.3-1.3c-0.2-0.4-0.5-0.7-0.9-0.8
		c-0.4-0.2-0.8-0.3-1.3-0.3s-0.9,0.1-1.4,0.3c-0.4,0.2-0.7,0.5-0.9,0.8c-0.2,0.4-0.3,0.8-0.3,1.3s0.1,0.9,0.3,1.3
		c0.2,0.4,0.5,0.7,0.9,0.9C187.4,77,187.8,77.1,188.3,77.1z M188,78.8c-0.8,0-1.6-0.2-2.2-0.5c-0.6-0.3-1.2-0.8-1.6-1.5
		c-0.4-0.6-0.6-1.3-0.6-2.2s0.2-1.5,0.6-2.2c0.4-0.6,0.9-1.1,1.6-1.4c0.7-0.3,1.4-0.5,2.2-0.5c0.7,0,1.4,0.1,1.9,0.4s1,0.7,1.4,1.3
		c0.4,0.6,0.5,1.4,0.5,2.3s-0.2,1.7-0.5,2.3c-0.3,0.6-0.8,1.1-1.4,1.4C189.4,78.7,188.7,78.8,188,78.8L188,78.8z M188.3,82.4
		c-0.8,0-1.6-0.1-2.3-0.3c-0.8-0.2-1.4-0.5-1.8-0.9l0.9-1.5c0.4,0.3,0.8,0.6,1.4,0.7c0.6,0.2,1.2,0.3,1.7,0.3c0.9,0,1.6-0.2,2.1-0.7
		c0.4-0.4,0.7-1.1,0.7-1.9v-1.5l0.2-1.9l-0.1-1.9v-2.1h1.9v7.2c0,1.6-0.4,2.7-1.2,3.4C190.9,82.1,189.8,82.4,188.3,82.4L188.3,82.4z
		 M177.8,79.2v-8.5h1.9V73l-0.2-0.7c0.3-0.6,0.7-1,1.2-1.3c0.6-0.3,1.2-0.4,2.1-0.4v1.9c-0.1,0-0.2,0-0.2,0c-0.1,0-0.1,0-0.2,0
		c-0.8,0-1.4,0.2-1.8,0.7c-0.4,0.4-0.7,1.1-0.7,2v4.1L177.8,79.2L177.8,79.2z M171.4,77.6c0.5,0,0.9-0.1,1.3-0.3s0.7-0.5,0.9-0.9
		s0.3-0.9,0.3-1.4s-0.1-1-0.3-1.4c-0.2-0.4-0.5-0.7-0.9-0.9c-0.4-0.2-0.8-0.3-1.3-0.3s-0.9,0.1-1.3,0.3c-0.4,0.2-0.7,0.5-0.9,0.9
		c-0.2,0.4-0.3,0.9-0.3,1.4s0.1,1,0.3,1.4c0.2,0.4,0.5,0.7,0.9,0.9C170.4,77.5,170.9,77.6,171.4,77.6z M171.4,79.3
		c-0.9,0-1.6-0.2-2.3-0.6c-0.7-0.4-1.2-0.9-1.6-1.6s-0.6-1.4-0.6-2.3s0.2-1.6,0.6-2.3c0.4-0.7,0.9-1.2,1.6-1.6
		c0.7-0.4,1.5-0.6,2.3-0.6s1.7,0.2,2.4,0.6c0.7,0.4,1.2,0.9,1.6,1.5s0.6,1.4,0.6,2.3s-0.2,1.6-0.6,2.3c-0.4,0.7-0.9,1.2-1.6,1.6
		C173,79.1,172.2,79.3,171.4,79.3z M158.4,79.2v-1.3l5.3-6.4l0.4,0.7h-5.5v-1.6h7.1v1.3l-5.3,6.4l-0.4-0.7h5.8v1.6H158.4z
		 M148.6,70.6c0.7,0,1.3,0.1,1.8,0.4c0.5,0.3,1,0.7,1.3,1.2c0.3,0.5,0.5,1.2,0.5,2.1v4.9h-2v-4.6c0-0.8-0.2-1.3-0.5-1.7
		c-0.4-0.4-0.9-0.6-1.5-0.6c-0.5,0-0.9,0.1-1.2,0.3s-0.6,0.5-0.9,0.9c-0.2,0.4-0.3,0.8-0.3,1.4v4.3h-2v-8.5h1.9V73l-0.3-0.7
		c0.3-0.5,0.7-1,1.3-1.2C147.2,70.7,147.9,70.6,148.6,70.6L148.6,70.6z M140.2,69.3c-0.4,0-0.7-0.1-0.9-0.3
		c-0.2-0.2-0.4-0.5-0.4-0.8s0.1-0.6,0.4-0.8c0.2-0.2,0.6-0.3,0.9-0.3s0.7,0.1,0.9,0.3c0.2,0.2,0.4,0.5,0.4,0.8
		c0,0.3-0.1,0.7-0.4,0.9C140.9,69.1,140.5,69.3,140.2,69.3L140.2,69.3z M139.1,79.2v-8.5h2v8.5H139.1z M127.5,77.1
		c0.5,0,0.9-0.1,1.3-0.3c0.4-0.2,0.7-0.5,0.9-0.9c0.2-0.4,0.3-0.8,0.3-1.3s-0.1-0.9-0.3-1.3c-0.2-0.4-0.5-0.7-0.9-0.8
		c-0.4-0.2-0.8-0.3-1.3-0.3s-0.9,0.1-1.4,0.3c-0.4,0.2-0.7,0.5-0.9,0.8c-0.2,0.4-0.3,0.8-0.3,1.3s0.1,0.9,0.3,1.3
		c0.2,0.4,0.5,0.7,0.9,0.9C126.6,77,127,77.1,127.5,77.1z M127.2,78.8c-0.8,0-1.6-0.2-2.2-0.5c-0.7-0.3-1.2-0.8-1.6-1.5
		c-0.4-0.6-0.6-1.3-0.6-2.2s0.2-1.5,0.6-2.2c0.4-0.6,0.9-1.1,1.6-1.4c0.7-0.3,1.4-0.5,2.2-0.5c0.7,0,1.4,0.1,1.9,0.4s1,0.7,1.4,1.3
		c0.4,0.6,0.5,1.4,0.5,2.3s-0.2,1.7-0.5,2.3c-0.3,0.6-0.8,1.1-1.4,1.4C128.6,78.7,128,78.8,127.2,78.8L127.2,78.8z M127.5,82.4
		c-0.8,0-1.6-0.1-2.3-0.3c-0.8-0.2-1.4-0.5-1.8-0.9l0.9-1.5c0.4,0.3,0.8,0.6,1.4,0.7c0.6,0.2,1.2,0.3,1.7,0.3c0.9,0,1.6-0.2,2.1-0.7
		c0.4-0.4,0.7-1.1,0.7-1.9v-1.5l0.2-1.9l-0.1-1.9v-2.1h1.9v7.2c0,1.6-0.4,2.7-1.2,3.4C130.1,82.1,129,82.4,127.5,82.4L127.5,82.4z
		 M117.5,70.6c0.7,0,1.3,0.1,1.8,0.4c0.5,0.3,1,0.7,1.3,1.2c0.3,0.5,0.5,1.2,0.5,2.1v4.9h-2v-4.6c0-0.8-0.2-1.3-0.5-1.7
		c-0.3-0.4-0.8-0.6-1.5-0.6c-0.5,0-0.9,0.1-1.2,0.3s-0.7,0.5-0.8,0.9c-0.2,0.4-0.3,0.8-0.3,1.4v4.3h-2v-8.5h1.9V73l-0.3-0.7
		c0.3-0.5,0.7-1,1.3-1.2C116.1,70.7,116.8,70.6,117.5,70.6L117.5,70.6z M109,69.3c-0.4,0-0.7-0.1-0.9-0.3c-0.2-0.2-0.3-0.5-0.3-0.8
		s0.1-0.6,0.3-0.8c0.2-0.2,0.6-0.3,0.9-0.3s0.7,0.1,0.9,0.3c0.2,0.2,0.4,0.5,0.4,0.8c0,0.3-0.1,0.7-0.3,0.9
		C109.7,69.1,109.4,69.3,109,69.3L109,69.3z M108,79.2v-8.5h2v8.5H108z M101.4,79.2v-8.5h1.9V73l-0.2-0.7c0.3-0.6,0.7-1,1.2-1.3
		c0.6-0.3,1.2-0.4,2.1-0.4v1.9c-0.1,0-0.2,0-0.2,0c-0.1,0-0.2,0-0.2,0c-0.8,0-1.4,0.2-1.8,0.7c-0.4,0.4-0.7,1.1-0.7,2v4.1
		L101.4,79.2L101.4,79.2z M94.2,79.3c-0.6,0-1.2-0.1-1.7-0.3c-0.5-0.2-0.8-0.5-1.1-0.9c-0.3-0.4-0.4-0.8-0.4-1.3s0.1-0.9,0.3-1.3
		c0.2-0.4,0.6-0.7,1.1-0.9s1.2-0.3,2.1-0.3h2.5v1.3h-2.3c-0.7,0-1.1,0.1-1.4,0.3c-0.2,0.2-0.3,0.5-0.3,0.8c0,0.4,0.1,0.7,0.4,0.9
		s0.7,0.3,1.2,0.3s0.9-0.1,1.3-0.3c0.4-0.2,0.7-0.6,0.8-1l0.3,1.2c-0.2,0.5-0.5,0.9-1,1.2C95.6,79.2,95,79.3,94.2,79.3L94.2,79.3z
		 M96.9,79.2v-1.7l-0.1-0.4v-3c0-0.6-0.2-1-0.5-1.4c-0.3-0.3-0.9-0.5-1.6-0.5c-0.5,0-0.9,0.1-1.4,0.2c-0.5,0.2-0.8,0.4-1.2,0.6
		l-0.8-1.5c0.5-0.3,1-0.6,1.6-0.8c0.6-0.2,1.3-0.3,2-0.3c1.2,0,2.2,0.3,2.9,0.9c0.7,0.6,1,1.5,1,2.7v5L96.9,79.2L96.9,79.2z
		 M85,79.2l-3.7-8.5h2.1l3.2,7.5h-1l3.3-7.5h1.9L87,79.2H85L85,79.2z M75.7,79.2v-8.5h1.9V73l-0.2-0.7c0.3-0.6,0.7-1,1.2-1.3
		c0.6-0.3,1.2-0.4,2.1-0.4v1.9c-0.1,0-0.2,0-0.2,0c-0.1,0-0.2,0-0.2,0c-0.8,0-1.4,0.2-1.8,0.7c-0.4,0.4-0.7,1.1-0.7,2v4.1L75.7,79.2
		L75.7,79.2z M69.8,79.3c-0.9,0-1.8-0.2-2.5-0.6c-0.7-0.4-1.2-0.9-1.7-1.6c-0.4-0.7-0.6-1.4-0.6-2.3s0.2-1.6,0.6-2.3
		c0.4-0.7,0.9-1.2,1.6-1.6c0.7-0.4,1.4-0.6,2.3-0.6s1.6,0.2,2.2,0.5s1.2,0.9,1.5,1.5c0.4,0.7,0.6,1.4,0.6,2.3c0,0.1,0,0.2,0,0.3
		c0,0.1,0,0.2,0,0.3h-7.1v-1.3h6.1l-0.8,0.4c0-0.5-0.1-0.9-0.3-1.3s-0.5-0.7-0.9-0.9c-0.4-0.2-0.8-0.3-1.3-0.3s-0.9,0.1-1.3,0.3
		c-0.4,0.2-0.7,0.5-0.9,0.9c-0.2,0.4-0.3,0.8-0.3,1.3V75c0,0.5,0.1,1,0.3,1.4c0.2,0.4,0.6,0.7,1,0.9s0.9,0.3,1.5,0.3
		c0.5,0,0.9-0.1,1.3-0.2c0.4-0.2,0.7-0.4,1-0.7l1.1,1.2c-0.4,0.4-0.9,0.8-1.5,1C71.2,79.2,70.5,79.3,69.8,79.3L69.8,79.3z
		 M54.6,79.2v-8.5h1.9V73l-0.2-0.7c0.3-0.6,0.7-1,1.2-1.3c0.5-0.3,1.2-0.4,2.1-0.4v1.9c-0.1,0-0.2,0-0.2,0c-0.1,0-0.2,0-0.2,0
		c-0.8,0-1.4,0.2-1.8,0.7c-0.5,0.4-0.7,1.1-0.7,2v4.1L54.6,79.2L54.6,79.2z M47.5,79.3c-0.6,0-1.2-0.1-1.7-0.3
		c-0.5-0.2-0.8-0.5-1.1-0.9c-0.3-0.4-0.4-0.8-0.4-1.3s0.1-0.9,0.3-1.3c0.2-0.4,0.6-0.7,1.1-0.9s1.2-0.3,2.1-0.3h2.5v1.3H48
		c-0.7,0-1.1,0.1-1.4,0.3c-0.2,0.2-0.3,0.5-0.3,0.8c0,0.4,0.1,0.7,0.4,0.9s0.7,0.3,1.2,0.3s0.9-0.1,1.3-0.3c0.4-0.2,0.7-0.6,0.8-1
		l0.3,1.2c-0.2,0.5-0.5,0.9-1,1.2C48.9,79.2,48.3,79.3,47.5,79.3L47.5,79.3z M50.2,79.2v-1.7l-0.1-0.4v-3c0-0.6-0.2-1-0.5-1.4
		c-0.3-0.3-0.9-0.5-1.6-0.5c-0.5,0-1,0.1-1.4,0.2c-0.5,0.2-0.8,0.4-1.2,0.6l-0.8-1.5c0.5-0.3,1-0.6,1.6-0.8c0.6-0.2,1.3-0.3,2-0.3
		c1.2,0,2.2,0.3,2.9,0.9c0.7,0.6,1,1.5,1,2.7v5L50.2,79.2L50.2,79.2z M37.8,79.3c-0.6,0-1.2-0.1-1.7-0.3c-0.5-0.2-0.8-0.5-1.1-0.9
		c-0.3-0.4-0.4-0.8-0.4-1.3s0.1-0.9,0.3-1.3c0.2-0.4,0.6-0.7,1.1-0.9s1.2-0.3,2.1-0.3h2.5v1.3h-2.3c-0.7,0-1.1,0.1-1.4,0.3
		c-0.2,0.2-0.3,0.5-0.3,0.8c0,0.4,0.1,0.7,0.4,0.9s0.7,0.3,1.2,0.3s0.9-0.1,1.3-0.3c0.4-0.2,0.7-0.6,0.8-1l0.3,1.2
		c-0.2,0.5-0.5,0.9-1,1.2C39.2,79.2,38.5,79.3,37.8,79.3L37.8,79.3z M40.5,79.2v-1.7l-0.1-0.4v-3c0-0.6-0.2-1-0.5-1.4
		c-0.3-0.3-0.9-0.5-1.6-0.5c-0.5,0-1,0.1-1.4,0.2c-0.5,0.2-0.8,0.4-1.2,0.6l-0.8-1.5c0.5-0.3,1-0.6,1.6-0.8c0.6-0.2,1.3-0.3,2-0.3
		c1.2,0,2.2,0.3,2.9,0.9c0.7,0.6,1,1.5,1,2.7v5L40.5,79.2L40.5,79.2z M31.6,69.3c-0.4,0-0.7-0.1-0.9-0.3c-0.2-0.2-0.4-0.5-0.4-0.8
		s0.1-0.6,0.4-0.8c0.2-0.2,0.5-0.3,0.9-0.3s0.7,0.1,0.9,0.3c0.2,0.2,0.4,0.5,0.4,0.8c0,0.3-0.1,0.7-0.3,0.9
		C32.3,69.1,32,69.3,31.6,69.3L31.6,69.3z M29.6,82.4c-0.4,0-0.7,0-1.1-0.1c-0.3-0.1-0.6-0.2-0.9-0.4l0.6-1.5
		c0.3,0.2,0.7,0.3,1.2,0.3c0.4,0,0.6-0.1,0.9-0.3c0.2-0.2,0.3-0.6,0.3-1v-8.8h2v8.7c0,0.9-0.3,1.7-0.8,2.2
		C31.3,82.1,30.6,82.4,29.6,82.4L29.6,82.4z M16.3,74.4v-1.6h7.4v1.6C23.7,74.4,16.3,74.4,16.3,74.4z M19.2,77.2V70h1.7v7.2H19.2z
		 M10.4,79.4c-0.8,0-1.6-0.1-2.3-0.3c-0.8-0.2-1.4-0.6-1.9-1L7,76.4c0.4,0.3,0.9,0.6,1.5,0.8c0.6,0.2,1.2,0.3,1.8,0.3
		c0.7,0,1.3-0.2,1.7-0.5c0.4-0.3,0.6-0.7,0.6-1.2c0-0.3-0.1-0.7-0.3-0.9c-0.2-0.3-0.5-0.5-0.9-0.6c-0.4-0.1-1-0.2-1.8-0.2H7L7.6,68
		h6.6v1.7H8.3l1.1-1L9,73.3l-1.1-1h2.3c1.1,0,2,0.2,2.7,0.4c0.7,0.3,1.2,0.7,1.5,1.2c0.3,0.5,0.5,1.1,0.5,1.8s-0.2,1.2-0.5,1.8
		s-0.8,1-1.5,1.3C12.2,79.2,11.4,79.3,10.4,79.4L10.4,79.4z M2.4,79.2V68.8l0.9,0.9H0V68h4.4v11.2C4.4,79.2,2.4,79.2,2.4,79.2z"/>
</g>
</svg>
