<svg width="281" height="116" viewBox="0 0 281 116" fill="none" xmlns="http://www.w3.org/2000/svg">
<path d="M3.825 20H2.25C1.96667 20 1.825 19.8583 1.825 19.575V4.35C1.825 4.06667 1.96667 3.925 2.25 3.925H8.1C9.31667 3.925 10.2667 4.275 10.95 4.975C11.65 5.65833 12 6.60833 12 7.825V9.925C12 11.8417 11.2083 13.05 9.625 13.55V13.65L12.4 19.5C12.5833 19.8333 12.475 20 12.075 20H10.525C10.125 20 9.86667 19.8583 9.75 19.575L7.075 13.825H4.55C4.35 13.825 4.25 13.9083 4.25 14.075V19.575C4.25 19.8583 4.10833 20 3.825 20ZM4.525 11.825H7.7C8.93333 11.825 9.55 11.2167 9.55 10V7.9C9.55 6.66667 8.93333 6.05 7.7 6.05H4.525C4.34167 6.05 4.25 6.13333 4.25 6.3V11.575C4.25 11.7417 4.34167 11.825 4.525 11.825ZM24.1498 20H18.7498C17.5165 20 16.5581 19.6583 15.8748 18.975C15.2081 18.2917 14.8748 17.3417 14.8748 16.125V11.125C14.8748 9.89167 15.2081 8.94167 15.8748 8.275C16.5581 7.59167 17.5165 7.25 18.7498 7.25H20.7998C22.0331 7.25 22.9915 7.59167 23.6748 8.275C24.3581 8.94167 24.6998 9.89167 24.6998 11.125V14.3C24.6998 14.6 24.5498 14.75 24.2498 14.75H17.5498C17.3665 14.75 17.2748 14.8333 17.2748 15V16.075C17.2748 17.2917 17.8831 17.9 19.0998 17.9H24.1498C24.4498 17.9 24.5998 18.05 24.5998 18.35V19.6C24.5998 19.8667 24.4498 20 24.1498 20ZM17.5498 13.05H22.0248C22.1915 13.05 22.2748 12.9667 22.2748 12.8V11.2C22.2748 10.5667 22.1331 10.1083 21.8498 9.825C21.5665 9.525 21.1081 9.375 20.4748 9.375H19.0998C18.4665 9.375 18.0081 9.525 17.7248 9.825C17.4415 10.1083 17.2998 10.5667 17.2998 11.2V12.8C17.2998 12.9667 17.3831 13.05 17.5498 13.05ZM32.1039 19.375H30.9789C29.7789 19.375 28.8539 19.0417 28.2039 18.375C27.5706 17.6917 27.2539 16.7333 27.2539 15.5V11.125C27.2539 9.89167 27.5956 8.94167 28.2789 8.275C28.9622 7.59167 29.9122 7.25 31.1289 7.25H36.7289C37.0289 7.25 37.1789 7.39167 37.1789 7.675V20.05C37.1789 21.2667 36.8289 22.2083 36.1289 22.875C35.4456 23.5583 34.4956 23.9 33.2789 23.9H28.5789C28.2956 23.9 28.1539 23.7667 28.1539 23.5V22.2C28.1539 21.9167 28.2956 21.775 28.5789 21.775H32.9039C34.1206 21.775 34.7289 21.1583 34.7289 19.925V18.025H34.6289C34.2122 18.925 33.3706 19.375 32.1039 19.375ZM34.7289 15.125V9.625C34.7289 9.45833 34.6372 9.375 34.4539 9.375H31.4789C30.2956 9.375 29.7039 9.99167 29.7039 11.225V15.375C29.7039 16.6083 30.2956 17.225 31.4789 17.225H32.6789C34.0456 17.225 34.7289 16.525 34.7289 15.125ZM49.3207 20H43.9207C42.6874 20 41.729 19.6583 41.0457 18.975C40.379 18.2917 40.0457 17.3417 40.0457 16.125V11.125C40.0457 9.89167 40.379 8.94167 41.0457 8.275C41.729 7.59167 42.6874 7.25 43.9207 7.25H45.9707C47.204 7.25 48.1624 7.59167 48.8457 8.275C49.529 8.94167 49.8707 9.89167 49.8707 11.125V14.3C49.8707 14.6 49.7207 14.75 49.4207 14.75H42.7207C42.5374 14.75 42.4457 14.8333 42.4457 15V16.075C42.4457 17.2917 43.054 17.9 44.2707 17.9H49.3207C49.6207 17.9 49.7707 18.05 49.7707 18.35V19.6C49.7707 19.8667 49.6207 20 49.3207 20ZM42.7207 13.05H47.1957C47.3624 13.05 47.4457 12.9667 47.4457 12.8V11.2C47.4457 10.5667 47.304 10.1083 47.0207 9.825C46.7374 9.525 46.279 9.375 45.6457 9.375H44.2707C43.6374 9.375 43.179 9.525 42.8957 9.825C42.6124 10.1083 42.4707 10.5667 42.4707 11.2V12.8C42.4707 12.9667 42.554 13.05 42.7207 13.05ZM54.7498 20H53.1748C52.8915 20 52.7498 19.8583 52.7498 19.575V2.85C52.7498 2.56667 52.8915 2.425 53.1748 2.425H54.7498C55.0331 2.425 55.1748 2.56667 55.1748 2.85V19.575C55.1748 19.8583 55.0331 20 54.7498 20ZM64.5418 5.125V2.85C64.5418 2.58333 64.6751 2.45 64.9418 2.45H66.5668C66.8335 2.45 66.9668 2.58333 66.9668 2.85V5.125C66.9668 5.40833 66.8335 5.55 66.5668 5.55H64.9418C64.6751 5.55 64.5418 5.40833 64.5418 5.125ZM63.0668 23.9H61.7418C61.4585 23.9 61.3168 23.7583 61.3168 23.475V22.2C61.3168 21.9167 61.4585 21.775 61.7418 21.775H62.3918C63.1751 21.775 63.7251 21.6083 64.0418 21.275C64.3751 20.9417 64.5418 20.3833 64.5418 19.6V7.675C64.5418 7.39167 64.6835 7.25 64.9668 7.25H66.5418C66.8251 7.25 66.9668 7.39167 66.9668 7.675V20.025C66.9668 21.2417 66.6168 22.1917 65.9168 22.875C65.2335 23.5583 64.2835 23.9 63.0668 23.9ZM79.2768 20H73.8768C72.6434 20 71.6851 19.6583 71.0018 18.975C70.3351 18.2917 70.0018 17.3417 70.0018 16.125V11.125C70.0018 9.89167 70.3351 8.94167 71.0018 8.275C71.6851 7.59167 72.6434 7.25 73.8768 7.25H75.9268C77.1601 7.25 78.1184 7.59167 78.8018 8.275C79.4851 8.94167 79.8268 9.89167 79.8268 11.125V14.3C79.8268 14.6 79.6768 14.75 79.3768 14.75H72.6768C72.4934 14.75 72.4018 14.8333 72.4018 15V16.075C72.4018 17.2917 73.0101 17.9 74.2268 17.9H79.2768C79.5768 17.9 79.7268 18.05 79.7268 18.35V19.6C79.7268 19.8667 79.5768 20 79.2768 20ZM72.6768 13.05H77.1518C77.3184 13.05 77.4018 12.9667 77.4018 12.8V11.2C77.4018 10.5667 77.2601 10.1083 76.9768 9.825C76.6934 9.525 76.2351 9.375 75.6018 9.375H74.2268C73.5934 9.375 73.1351 9.525 72.8518 9.825C72.5684 10.1083 72.4268 10.5667 72.4268 11.2V12.8C72.4268 12.9667 72.5101 13.05 72.6768 13.05ZM95.7879 7.25H97.5879C97.7379 7.25 97.8379 7.3 97.8879 7.4C97.9546 7.48333 97.9379 7.6 97.8379 7.75L94.3129 13.35V13.45L98.1129 19.5C98.1962 19.6333 98.2046 19.75 98.1379 19.85C98.0879 19.95 97.9712 20 97.7879 20H96.1629C95.7796 20 95.4962 19.8583 95.3129 19.575L91.7879 13.8C91.6712 13.5833 91.6712 13.3583 91.7879 13.125L95.0629 7.65C95.2129 7.38333 95.4546 7.25 95.7879 7.25ZM90.5379 20H88.9629C88.6796 20 88.5379 19.8583 88.5379 19.575V2.85C88.5379 2.56667 88.6796 2.425 88.9629 2.425H90.5379C90.8212 2.425 90.9629 2.56667 90.9629 2.85V19.575C90.9629 19.8583 90.8212 20 90.5379 20ZM108.964 20H103.564C102.331 20 101.373 19.6583 100.689 18.975C100.023 18.2917 99.6893 17.3417 99.6893 16.125V11.125C99.6893 9.89167 100.023 8.94167 100.689 8.275C101.373 7.59167 102.331 7.25 103.564 7.25H105.614C106.848 7.25 107.806 7.59167 108.489 8.275C109.173 8.94167 109.514 9.89167 109.514 11.125V14.3C109.514 14.6 109.364 14.75 109.064 14.75H102.364C102.181 14.75 102.089 14.8333 102.089 15V16.075C102.089 17.2917 102.698 17.9 103.914 17.9H108.964C109.264 17.9 109.414 18.05 109.414 18.35V19.6C109.414 19.8667 109.264 20 108.964 20ZM102.364 13.05H106.839C107.006 13.05 107.089 12.9667 107.089 12.8V11.2C107.089 10.5667 106.948 10.1083 106.664 9.825C106.381 9.525 105.923 9.375 105.289 9.375H103.914C103.281 9.375 102.823 9.525 102.539 9.825C102.256 10.1083 102.114 10.5667 102.114 11.2V12.8C102.114 12.9667 102.198 13.05 102.364 13.05ZM114.268 20H112.693C112.41 20 112.268 19.8583 112.268 19.575V7.675C112.268 7.39167 112.41 7.25 112.693 7.25H114.268C114.552 7.25 114.693 7.39167 114.693 7.675V8.625H114.793C114.96 8.20833 115.277 7.875 115.743 7.625C116.227 7.375 116.76 7.25 117.343 7.25H118.268C118.552 7.25 118.693 7.39167 118.693 7.675V8.975C118.693 9.29167 118.552 9.425 118.268 9.375H116.768C115.385 9.375 114.693 10.1333 114.693 11.65V19.575C114.693 19.8583 114.552 20 114.268 20ZM125.192 20H120.592C120.309 20 120.167 19.8583 120.167 19.575V18.35C120.167 18.0833 120.309 17.95 120.592 17.95H124.792C125.876 17.95 126.417 17.575 126.417 16.825V16.525C126.417 15.8583 126.026 15.35 125.242 15L122.517 13.7C121.667 13.3 121.051 12.8583 120.667 12.375C120.284 11.8917 120.092 11.2583 120.092 10.475C120.092 8.325 121.284 7.25 123.667 7.25H127.817C128.084 7.25 128.217 7.39167 128.217 7.675V8.9C128.217 9.18333 128.084 9.325 127.817 9.325H124.167C123.667 9.325 123.284 9.41667 123.017 9.6C122.751 9.76667 122.617 9.99167 122.617 10.275V10.55C122.617 11.0833 123.042 11.55 123.892 11.95L126.642 13.35C127.509 13.7333 128.101 14.1917 128.417 14.725C128.751 15.2417 128.917 15.9167 128.917 16.75C128.917 18.9167 127.676 20 125.192 20ZM131.882 9.375H130.682C130.515 9.375 130.398 9.35 130.332 9.3C130.282 9.23333 130.257 9.125 130.257 8.975V7.675C130.257 7.39167 130.398 7.25 130.682 7.25H131.882C132.048 7.25 132.132 7.16667 132.132 7V4.75C132.132 4.46667 132.282 4.325 132.582 4.325H134.157C134.44 4.325 134.582 4.46667 134.582 4.75V7C134.582 7.16667 134.673 7.25 134.857 7.25H137.182C137.482 7.25 137.632 7.39167 137.632 7.675V8.975C137.632 9.24167 137.482 9.375 137.182 9.375H134.857C134.673 9.375 134.582 9.45833 134.582 9.625V16.05C134.582 17.2667 135.207 17.875 136.457 17.875H137.432C137.732 17.875 137.882 18.0167 137.882 18.3V19.6C137.882 19.8667 137.732 20 137.432 20H136.082C134.848 20 133.882 19.6667 133.182 19C132.482 18.3333 132.132 17.3917 132.132 16.175V9.625C132.132 9.45833 132.048 9.375 131.882 9.375ZM144.921 19.375H143.796C142.596 19.375 141.671 19.0417 141.021 18.375C140.388 17.6917 140.071 16.7333 140.071 15.5V11.125C140.071 9.89167 140.413 8.94167 141.096 8.275C141.78 7.59167 142.73 7.25 143.946 7.25H149.546C149.846 7.25 149.996 7.39167 149.996 7.675V20.05C149.996 21.2667 149.646 22.2083 148.946 22.875C148.263 23.5583 147.313 23.9 146.096 23.9H141.396C141.113 23.9 140.971 23.7667 140.971 23.5V22.2C140.971 21.9167 141.113 21.775 141.396 21.775H145.721C146.938 21.775 147.546 21.1583 147.546 19.925V18.025H147.446C147.03 18.925 146.188 19.375 144.921 19.375ZM147.546 15.125V9.625C147.546 9.45833 147.455 9.375 147.271 9.375H144.296C143.113 9.375 142.521 9.99167 142.521 11.225V15.375C142.521 16.6083 143.113 17.225 144.296 17.225H145.496C146.863 17.225 147.546 16.525 147.546 15.125ZM162.138 20H156.738C155.505 20 154.546 19.6583 153.863 18.975C153.196 18.2917 152.863 17.3417 152.863 16.125V11.125C152.863 9.89167 153.196 8.94167 153.863 8.275C154.546 7.59167 155.505 7.25 156.738 7.25H158.788C160.021 7.25 160.98 7.59167 161.663 8.275C162.346 8.94167 162.688 9.89167 162.688 11.125V14.3C162.688 14.6 162.538 14.75 162.238 14.75H155.538C155.355 14.75 155.263 14.8333 155.263 15V16.075C155.263 17.2917 155.871 17.9 157.088 17.9H162.138C162.438 17.9 162.588 18.05 162.588 18.35V19.6C162.588 19.8667 162.438 20 162.138 20ZM155.538 13.05H160.013C160.18 13.05 160.263 12.9667 160.263 12.8V11.2C160.263 10.5667 160.121 10.1083 159.838 9.825C159.555 9.525 159.096 9.375 158.463 9.375H157.088C156.455 9.375 155.996 9.525 155.713 9.825C155.43 10.1083 155.288 10.5667 155.288 11.2V12.8C155.288 12.9667 155.371 13.05 155.538 13.05ZM169.992 20H165.392C165.109 20 164.967 19.8583 164.967 19.575V18.35C164.967 18.0833 165.109 17.95 165.392 17.95H169.592C170.676 17.95 171.217 17.575 171.217 16.825V16.525C171.217 15.8583 170.826 15.35 170.042 15L167.317 13.7C166.467 13.3 165.851 12.8583 165.467 12.375C165.084 11.8917 164.892 11.2583 164.892 10.475C164.892 8.325 166.084 7.25 168.467 7.25H172.617C172.884 7.25 173.017 7.39167 173.017 7.675V8.9C173.017 9.18333 172.884 9.325 172.617 9.325H168.967C168.467 9.325 168.084 9.41667 167.817 9.6C167.551 9.76667 167.417 9.99167 167.417 10.275V10.55C167.417 11.0833 167.842 11.55 168.692 11.95L171.442 13.35C172.309 13.7333 172.901 14.1917 173.217 14.725C173.551 15.2417 173.717 15.9167 173.717 16.75C173.717 18.9167 172.476 20 169.992 20ZM184.056 18.3V19.6C184.056 19.8667 183.906 20 183.606 20H179.931C178.698 20 177.74 19.6583 177.056 18.975C176.39 18.2917 176.056 17.3417 176.056 16.125V11.125C176.056 9.89167 176.39 8.94167 177.056 8.275C177.74 7.59167 178.698 7.25 179.931 7.25H183.606C183.906 7.25 184.056 7.39167 184.056 7.675V8.975C184.056 9.24167 183.906 9.375 183.606 9.375H180.281C179.081 9.375 178.481 9.99167 178.481 11.225V16.025C178.481 17.2583 179.081 17.875 180.281 17.875H183.606C183.906 17.875 184.056 18.0167 184.056 18.3ZM188.438 20H186.863C186.58 20 186.438 19.8583 186.438 19.575V2.85C186.438 2.56667 186.58 2.425 186.863 2.425H188.438C188.722 2.425 188.863 2.56667 188.863 2.85V8.575H188.963C189.363 7.69167 190.205 7.25 191.488 7.25H192.588C193.805 7.25 194.738 7.58333 195.388 8.25C196.038 8.91667 196.363 9.875 196.363 11.125V19.575C196.363 19.8583 196.213 20 195.913 20H194.338C194.055 20 193.913 19.8583 193.913 19.575V11.225C193.913 9.99167 193.305 9.375 192.088 9.375H190.913C189.547 9.375 188.863 10.0833 188.863 11.5V19.575C188.863 19.8583 188.722 20 188.438 20ZM208.378 20H202.978C201.745 20 200.787 19.6583 200.103 18.975C199.437 18.2917 199.103 17.3417 199.103 16.125V11.125C199.103 9.89167 199.437 8.94167 200.103 8.275C200.787 7.59167 201.745 7.25 202.978 7.25H205.028C206.262 7.25 207.22 7.59167 207.903 8.275C208.587 8.94167 208.928 9.89167 208.928 11.125V14.3C208.928 14.6 208.778 14.75 208.478 14.75H201.778C201.595 14.75 201.503 14.8333 201.503 15V16.075C201.503 17.2917 202.112 17.9 203.328 17.9H208.378C208.678 17.9 208.828 18.05 208.828 18.35V19.6C208.828 19.8667 208.678 20 208.378 20ZM201.778 13.05H206.253C206.42 13.05 206.503 12.9667 206.503 12.8V11.2C206.503 10.5667 206.362 10.1083 206.078 9.825C205.795 9.525 205.337 9.375 204.703 9.375H203.328C202.695 9.375 202.237 9.525 201.953 9.825C201.67 10.1083 201.528 10.5667 201.528 11.2V12.8C201.528 12.9667 201.612 13.05 201.778 13.05ZM213.682 20H212.107C211.824 20 211.682 19.8583 211.682 19.575V7.675C211.682 7.39167 211.824 7.25 212.107 7.25H213.682C213.966 7.25 214.107 7.39167 214.107 7.675V8.575H214.207C214.607 7.69167 215.449 7.25 216.732 7.25H217.832C219.049 7.25 219.982 7.58333 220.632 8.25C221.282 8.91667 221.607 9.875 221.607 11.125V19.575C221.607 19.8583 221.457 20 221.157 20H219.582C219.299 20 219.157 19.8583 219.157 19.575V11.225C219.157 9.99167 218.549 9.375 217.332 9.375H216.157C214.791 9.375 214.107 10.0833 214.107 11.5V19.575C214.107 19.8583 213.966 20 213.682 20ZM231.847 7.25H233.647C233.797 7.25 233.897 7.3 233.947 7.4C234.014 7.48333 233.997 7.6 233.897 7.75L230.372 13.35V13.45L234.172 19.5C234.256 19.6333 234.264 19.75 234.197 19.85C234.147 19.95 234.031 20 233.847 20H232.222C231.839 20 231.556 19.8583 231.372 19.575L227.847 13.8C227.731 13.5833 227.731 13.3583 227.847 13.125L231.122 7.65C231.272 7.38333 231.514 7.25 231.847 7.25ZM226.597 20H225.022C224.739 20 224.597 19.8583 224.597 19.575V2.85C224.597 2.56667 224.739 2.425 225.022 2.425H226.597C226.881 2.425 227.022 2.56667 227.022 2.85V19.575C227.022 19.8583 226.881 20 226.597 20ZM245.024 20H239.624C238.39 20 237.432 19.6583 236.749 18.975C236.082 18.2917 235.749 17.3417 235.749 16.125V11.125C235.749 9.89167 236.082 8.94167 236.749 8.275C237.432 7.59167 238.39 7.25 239.624 7.25H241.674C242.907 7.25 243.865 7.59167 244.549 8.275C245.232 8.94167 245.574 9.89167 245.574 11.125V14.3C245.574 14.6 245.424 14.75 245.124 14.75H238.424C238.24 14.75 238.149 14.8333 238.149 15V16.075C238.149 17.2917 238.757 17.9 239.974 17.9H245.024C245.324 17.9 245.474 18.05 245.474 18.35V19.6C245.474 19.8667 245.324 20 245.024 20ZM238.424 13.05H242.899C243.065 13.05 243.149 12.9667 243.149 12.8V11.2C243.149 10.5667 243.007 10.1083 242.724 9.825C242.44 9.525 241.982 9.375 241.349 9.375H239.974C239.34 9.375 238.882 9.525 238.599 9.825C238.315 10.1083 238.174 10.5667 238.174 11.2V12.8C238.174 12.9667 238.257 13.05 238.424 13.05ZM250.328 20H248.753C248.47 20 248.328 19.8583 248.328 19.575V7.675C248.328 7.39167 248.47 7.25 248.753 7.25H250.328C250.611 7.25 250.753 7.39167 250.753 7.675V8.575H250.853C251.253 7.69167 252.095 7.25 253.378 7.25H254.478C255.695 7.25 256.628 7.58333 257.278 8.25C257.928 8.91667 258.253 9.875 258.253 11.125V19.575C258.253 19.8583 258.103 20 257.803 20H256.228C255.945 20 255.803 19.8583 255.803 19.575V11.225C255.803 9.99167 255.195 9.375 253.978 9.375H252.803C251.436 9.375 250.753 10.0833 250.753 11.5V19.575C250.753 19.8583 250.611 20 250.328 20ZM10.6 46H5.2C3.96667 46 3.00833 45.6583 2.325 44.975C1.65833 44.2917 1.325 43.3417 1.325 42.125V37.125C1.325 35.8917 1.65833 34.9417 2.325 34.275C3.00833 33.5917 3.96667 33.25 5.2 33.25H7.25C8.48333 33.25 9.44167 33.5917 10.125 34.275C10.8083 34.9417 11.15 35.8917 11.15 37.125V40.3C11.15 40.6 11 40.75 10.7 40.75H4C3.81667 40.75 3.725 40.8333 3.725 41V42.075C3.725 43.2917 4.33333 43.9 5.55 43.9H10.6C10.9 43.9 11.05 44.05 11.05 44.35V45.6C11.05 45.8667 10.9 46 10.6 46ZM4 39.05H8.475C8.64167 39.05 8.725 38.9667 8.725 38.8V37.2C8.725 36.5667 8.58333 36.1083 8.3 35.825C8.01667 35.525 7.55833 35.375 6.925 35.375H5.55C4.91667 35.375 4.45833 35.525 4.175 35.825C3.89167 36.1083 3.75 36.5667 3.75 37.2V38.8C3.75 38.9667 3.83333 39.05 4 39.05ZM22.9291 46H17.5291C16.2958 46 15.3374 45.6583 14.6541 44.975C13.9874 44.2917 13.6541 43.3417 13.6541 42.125V37.125C13.6541 35.8917 13.9874 34.9417 14.6541 34.275C15.3374 33.5917 16.2958 33.25 17.5291 33.25H19.5791C20.8124 33.25 21.7708 33.5917 22.4541 34.275C23.1374 34.9417 23.4791 35.8917 23.4791 37.125V40.3C23.4791 40.6 23.3291 40.75 23.0291 40.75H16.3291C16.1458 40.75 16.0541 40.8333 16.0541 41V42.075C16.0541 43.2917 16.6624 43.9 17.8791 43.9H22.9291C23.2291 43.9 23.3791 44.05 23.3791 44.35V45.6C23.3791 45.8667 23.2291 46 22.9291 46ZM16.3291 39.05H20.8041C20.9708 39.05 21.0541 38.9667 21.0541 38.8V37.2C21.0541 36.5667 20.9124 36.1083 20.6291 35.825C20.3458 35.525 19.8874 35.375 19.2541 35.375H17.8791C17.2458 35.375 16.7874 35.525 16.5041 35.825C16.2208 36.1083 16.0791 36.5667 16.0791 37.2V38.8C16.0791 38.9667 16.1624 39.05 16.3291 39.05ZM28.2332 46H26.6582C26.3749 46 26.2332 45.8583 26.2332 45.575V33.675C26.2332 33.3917 26.3749 33.25 26.6582 33.25H28.2332C28.5165 33.25 28.6582 33.3917 28.6582 33.675V34.575H28.7582C29.1582 33.6917 29.9999 33.25 31.2832 33.25H32.3832C33.5999 33.25 34.5332 33.5833 35.1832 34.25C35.8332 34.9167 36.1582 35.875 36.1582 37.125V45.575C36.1582 45.8583 36.0082 46 35.7082 46H34.1332C33.8499 46 33.7082 45.8583 33.7082 45.575V37.225C33.7082 35.9917 33.0999 35.375 31.8832 35.375H30.7082C29.3415 35.375 28.6582 36.0833 28.6582 37.5V45.575C28.6582 45.8583 28.5165 46 28.2332 46ZM38.3482 33.25H40.0232C40.2899 33.25 40.4482 33.3917 40.4982 33.675L43.0982 43.725H43.2732L45.8232 33.675C45.8899 33.3917 46.0649 33.25 46.3482 33.25H47.9982C48.2982 33.25 48.3982 33.3917 48.2982 33.675L44.9232 45.55C44.8566 45.85 44.6732 46 44.3732 46H41.9732C41.6732 46 41.4899 45.85 41.4232 45.55L38.0482 33.675C37.9816 33.3917 38.0816 33.25 38.3482 33.25ZM56.1793 46H53.9793C52.746 46 51.7876 45.6583 51.1043 44.975C50.4376 44.2917 50.1043 43.3417 50.1043 42.125V37.125C50.1043 35.8917 50.4376 34.9417 51.1043 34.275C51.7876 33.5917 52.746 33.25 53.9793 33.25H56.1793C57.396 33.25 58.346 33.5917 59.0293 34.275C59.7293 34.9417 60.0793 35.8917 60.0793 37.125V42.125C60.0793 43.3417 59.7293 44.2917 59.0293 44.975C58.346 45.6583 57.396 46 56.1793 46ZM54.3293 43.875H55.8543C57.0543 43.875 57.6543 43.2667 57.6543 42.05V37.2C57.6543 35.9833 57.0543 35.375 55.8543 35.375H54.3293C53.696 35.375 53.2376 35.525 52.9543 35.825C52.671 36.1083 52.5293 36.5667 52.5293 37.2V42.05C52.5293 42.6833 52.671 43.15 52.9543 43.45C53.2376 43.7333 53.696 43.875 54.3293 43.875ZM67.677 46H66.552C65.352 46 64.427 45.6667 63.777 45C63.1436 44.3167 62.827 43.3583 62.827 42.125V33.675C62.827 33.3917 62.9686 33.25 63.252 33.25H64.827C65.1103 33.25 65.252 33.3917 65.252 33.675V42.025C65.252 43.2583 65.852 43.875 67.052 43.875H68.252C69.6186 43.875 70.302 43.1667 70.302 41.75V33.675C70.302 33.3917 70.4436 33.25 70.727 33.25H72.302C72.602 33.25 72.752 33.3917 72.752 33.675V45.575C72.752 45.8583 72.602 46 72.302 46H70.727C70.4436 46 70.302 45.8583 70.302 45.575V44.675H70.202C69.802 45.5583 68.9603 46 67.677 46ZM80.617 46H79.342C78.142 46 77.217 45.6667 76.567 45C75.9337 44.3167 75.617 43.3583 75.617 42.125V37.125C75.617 35.875 75.9337 34.9167 76.567 34.25C77.217 33.5833 78.142 33.25 79.342 33.25H80.617C81.9003 33.25 82.7337 33.6917 83.117 34.575H83.217V28.85C83.217 28.5667 83.3587 28.425 83.642 28.425H85.242C85.5253 28.425 85.667 28.5667 85.667 28.85V45.575C85.667 45.8583 85.5253 46 85.242 46H83.642C83.3587 46 83.217 45.8583 83.217 45.575V44.675H83.117C82.7337 45.5583 81.9003 46 80.617 46ZM83.217 41.75V37.5C83.217 36.0833 82.5337 35.375 81.167 35.375H79.842C78.642 35.375 78.042 35.9917 78.042 37.225V42.025C78.042 43.2583 78.642 43.875 79.842 43.875H81.167C82.5337 43.875 83.217 43.1667 83.217 41.75ZM88.9314 31.125V28.85C88.9314 28.5833 89.0648 28.45 89.3314 28.45H90.9564C91.2231 28.45 91.3564 28.5833 91.3564 28.85V31.125C91.3564 31.4083 91.2231 31.55 90.9564 31.55H89.3314C89.0648 31.55 88.9314 31.4083 88.9314 31.125ZM88.9314 45.575V33.675C88.9314 33.3917 89.0648 33.25 89.3314 33.25H90.9314C91.2148 33.25 91.3564 33.3917 91.3564 33.675V45.575C91.3564 45.7417 91.3231 45.8583 91.2564 45.925C91.2064 45.975 91.1064 46 90.9564 46H89.3564C89.0731 46 88.9314 45.8583 88.9314 45.575ZM99.2914 45.375H98.1664C96.9664 45.375 96.0414 45.0417 95.3914 44.375C94.7581 43.6917 94.4414 42.7333 94.4414 41.5V37.125C94.4414 35.8917 94.7831 34.9417 95.4664 34.275C96.1497 33.5917 97.0997 33.25 98.3164 33.25H103.916C104.216 33.25 104.366 33.3917 104.366 33.675V46.05C104.366 47.2667 104.016 48.2083 103.316 48.875C102.633 49.5583 101.683 49.9 100.466 49.9H95.7664C95.4831 49.9 95.3414 49.7667 95.3414 49.5V48.2C95.3414 47.9167 95.4831 47.775 95.7664 47.775H100.091C101.308 47.775 101.916 47.1583 101.916 45.925V44.025H101.816C101.4 44.925 100.558 45.375 99.2914 45.375ZM101.916 41.125V35.625C101.916 35.4583 101.825 35.375 101.641 35.375H98.6664C97.4831 35.375 96.8914 35.9917 96.8914 37.225V41.375C96.8914 42.6083 97.4831 43.225 98.6664 43.225H99.8664C101.233 43.225 101.916 42.525 101.916 41.125ZM116.14 43.875H119.24C120.44 43.875 121.04 43.2583 121.04 42.025V37.125C121.04 35.8917 120.44 35.275 119.24 35.275H117.915C116.549 35.275 115.865 35.975 115.865 37.375V43.6C115.865 43.7833 115.957 43.875 116.14 43.875ZM113.44 45.575V28.85C113.44 28.5667 113.582 28.425 113.865 28.425H115.44C115.724 28.425 115.865 28.5667 115.865 28.85V34.5H115.965C116.382 33.6 117.224 33.15 118.49 33.15H119.59C120.824 33.15 121.782 33.4917 122.465 34.175C123.149 34.8417 123.49 35.7833 123.49 37V42.125C123.49 43.3417 123.149 44.2917 122.465 44.975C121.782 45.6583 120.824 46 119.59 46H113.865C113.582 46 113.44 45.8583 113.44 45.575ZM126.505 31.125V28.85C126.505 28.5833 126.638 28.45 126.905 28.45H128.53C128.796 28.45 128.93 28.5833 128.93 28.85V31.125C128.93 31.4083 128.796 31.55 128.53 31.55H126.905C126.638 31.55 126.505 31.4083 126.505 31.125ZM126.505 45.575V33.675C126.505 33.3917 126.638 33.25 126.905 33.25H128.505C128.788 33.25 128.93 33.3917 128.93 33.675V45.575C128.93 45.7417 128.896 45.8583 128.83 45.925C128.78 45.975 128.68 46 128.53 46H126.93C126.646 46 126.505 45.8583 126.505 45.575ZM132.34 31.125V28.85C132.34 28.5833 132.473 28.45 132.74 28.45H134.365C134.631 28.45 134.765 28.5833 134.765 28.85V31.125C134.765 31.4083 134.631 31.55 134.365 31.55H132.74C132.473 31.55 132.34 31.4083 132.34 31.125ZM130.865 49.9H129.54C129.256 49.9 129.115 49.7583 129.115 49.475V48.2C129.115 47.9167 129.256 47.775 129.54 47.775H130.19C130.973 47.775 131.523 47.6083 131.84 47.275C132.173 46.9417 132.34 46.3833 132.34 45.6V33.675C132.34 33.3917 132.481 33.25 132.765 33.25H134.34C134.623 33.25 134.765 33.3917 134.765 33.675V46.025C134.765 47.2417 134.415 48.1917 133.715 48.875C133.031 49.5583 132.081 49.9 130.865 49.9ZM143.957 42.1V41.45C143.957 41.1667 144.098 41.025 144.382 41.025H145.982C146.265 41.025 146.407 41.1667 146.407 41.45V41.9C146.407 42.6 146.557 43.1083 146.857 43.425C147.173 43.725 147.69 43.875 148.407 43.875H150.132C150.848 43.875 151.365 43.7167 151.682 43.4C151.998 43.0667 152.157 42.5333 152.157 41.8V41.225C152.157 40.6917 151.948 40.275 151.532 39.975C151.132 39.6583 150.632 39.4583 150.032 39.375C149.432 39.275 148.773 39.1417 148.057 38.975C147.34 38.8083 146.682 38.6167 146.082 38.4C145.482 38.1833 144.973 37.775 144.557 37.175C144.157 36.575 143.957 35.8083 143.957 34.875V33.825C143.957 32.6083 144.298 31.6583 144.982 30.975C145.682 30.275 146.64 29.925 147.857 29.925H150.507C151.74 29.925 152.698 30.275 153.382 30.975C154.082 31.6583 154.432 32.6083 154.432 33.825V34.375C154.432 34.6583 154.29 34.8 154.007 34.8H152.407C152.123 34.8 151.982 34.6583 151.982 34.375V34.05C151.982 33.3333 151.823 32.825 151.507 32.525C151.207 32.2083 150.698 32.05 149.982 32.05H148.407C147.69 32.05 147.173 32.2167 146.857 32.55C146.557 32.8667 146.407 33.4167 146.407 34.2V34.975C146.407 35.725 146.948 36.2333 148.032 36.5C148.515 36.6167 149.04 36.7167 149.607 36.8C150.19 36.8833 150.773 37.0083 151.357 37.175C151.94 37.3417 152.473 37.5667 152.957 37.85C153.44 38.1167 153.832 38.5333 154.132 39.1C154.432 39.65 154.582 40.325 154.582 41.125V42.1C154.582 43.3167 154.232 44.275 153.532 44.975C152.848 45.6583 151.898 46 150.682 46H147.882C146.665 46 145.707 45.6583 145.007 44.975C144.307 44.275 143.957 43.3167 143.957 42.1ZM162.353 46H160.778C160.478 46 160.328 45.8583 160.328 45.575V32.3C160.328 32.1333 160.245 32.05 160.078 32.05H156.928C156.628 32.05 156.478 31.9083 156.478 31.625V30.35C156.478 30.0667 156.628 29.925 156.928 29.925H166.203C166.503 29.925 166.653 30.0667 166.653 30.35V31.625C166.653 31.9083 166.503 32.05 166.203 32.05H163.053C162.87 32.05 162.778 32.1333 162.778 32.3V45.575C162.778 45.8583 162.636 46 162.353 46ZM177.218 46H169.218C168.934 46 168.793 45.8583 168.793 45.575V30.35C168.793 30.0667 168.934 29.925 169.218 29.925H177.218C177.484 29.925 177.618 30.0667 177.618 30.35V31.625C177.618 31.9083 177.484 32.05 177.218 32.05H171.518C171.318 32.05 171.218 32.1333 171.218 32.3V36.525C171.218 36.6917 171.318 36.775 171.518 36.775H176.343C176.643 36.775 176.793 36.9167 176.793 37.2V38.475C176.793 38.7583 176.643 38.9 176.343 38.9H171.518C171.318 38.9 171.218 38.9833 171.218 39.15V43.6C171.218 43.7833 171.318 43.875 171.518 43.875H177.218C177.484 43.875 177.618 44.0167 177.618 44.3V45.575C177.618 45.8583 177.484 46 177.218 46ZM182.804 46H181.229C180.946 46 180.804 45.8583 180.804 45.575V30.35C180.804 30.0667 180.946 29.925 181.229 29.925H187.079C188.296 29.925 189.246 30.275 189.929 30.975C190.629 31.6583 190.979 32.6083 190.979 33.825V35.925C190.979 37.8417 190.188 39.05 188.604 39.55V39.65L191.379 45.5C191.563 45.8333 191.454 46 191.054 46H189.504C189.104 46 188.846 45.8583 188.729 45.575L186.054 39.825H183.529C183.329 39.825 183.229 39.9083 183.229 40.075V45.575C183.229 45.8583 183.088 46 182.804 46ZM183.504 37.825H186.679C187.913 37.825 188.529 37.2167 188.529 36V33.9C188.529 32.6667 187.913 32.05 186.679 32.05H183.504C183.321 32.05 183.229 32.1333 183.229 32.3V37.575C183.229 37.7417 183.321 37.825 183.504 37.825ZM196.354 46H194.779C194.496 46 194.354 45.8583 194.354 45.575V30.35C194.354 30.0667 194.496 29.925 194.779 29.925H196.354C196.638 29.925 196.779 30.0667 196.779 30.35V38.275H196.854C197.021 37.825 197.238 37.4083 197.504 37.025L202.279 30.35C202.463 30.0667 202.729 29.925 203.079 29.925H204.929C205.279 29.925 205.338 30.0833 205.104 30.4L200.229 37.025L205.729 45.5C205.929 45.8333 205.829 46 205.429 46H204.029C203.579 46 203.263 45.8583 203.079 45.575L198.754 38.8L196.779 41.125V45.575C196.779 45.8583 196.638 46 196.354 46ZM208.926 46H207.126C206.892 46 206.809 45.8583 206.876 45.575L211.226 30.35C211.309 30.0667 211.509 29.925 211.826 29.925H214.326C214.659 29.925 214.859 30.0667 214.926 30.35L219.276 45.575C219.342 45.8583 219.251 46 219.001 46H217.226C217.076 46 216.967 45.975 216.901 45.925C216.851 45.8583 216.809 45.7417 216.776 45.575L215.826 42.325H210.326L209.376 45.575C209.309 45.8583 209.159 46 208.926 46ZM213.026 32.325L210.826 40.325H215.351L213.126 32.325H213.026ZM224.447 43.875H227.972C229.172 43.875 229.772 43.2583 229.772 42.025V33.9C229.772 32.6667 229.172 32.05 227.972 32.05H224.447C224.264 32.05 224.172 32.1333 224.172 32.3V43.6C224.172 43.7833 224.264 43.875 224.447 43.875ZM221.747 45.575V30.35C221.747 30.0667 221.889 29.925 222.172 29.925H228.322C229.539 29.925 230.489 30.2667 231.172 30.95C231.872 31.6167 232.222 32.5667 232.222 33.8V42.125C232.222 43.3417 231.872 44.2917 231.172 44.975C230.489 45.6583 229.539 46 228.322 46H222.172C221.889 46 221.747 45.8583 221.747 45.575ZM239.589 43.875H241.764C242.981 43.875 243.589 43.2583 243.589 42.025V33.9C243.589 32.6667 242.981 32.05 241.764 32.05H239.589C238.389 32.05 237.789 32.6667 237.789 33.9V42.025C237.789 43.2583 238.389 43.875 239.589 43.875ZM242.139 46H239.239C238.006 46 237.047 45.6583 236.364 44.975C235.697 44.2917 235.364 43.3417 235.364 42.125V33.8C235.364 32.5667 235.697 31.6167 236.364 30.95C237.047 30.2667 238.006 29.925 239.239 29.925H242.139C243.372 29.925 244.331 30.2667 245.014 30.95C245.697 31.6167 246.039 32.5667 246.039 33.8V42.125C246.039 43.3417 245.697 44.2917 245.014 44.975C244.331 45.6583 243.372 46 242.139 46Z" fill="white"/>
<path d="M6.184 72V62.9L6.982 63.726H4.112V62.2H8.004V72H6.184ZM13.196 72.14C12.5054 72.14 11.8287 72.042 11.166 71.846C10.5127 71.6407 9.96203 71.3607 9.51403 71.006L10.284 69.592C10.6387 69.8813 11.068 70.1147 11.572 70.292C12.0854 70.4693 12.6174 70.558 13.168 70.558C13.812 70.558 14.316 70.4227 14.68 70.152C15.0534 69.8813 15.24 69.5173 15.24 69.06C15.24 68.752 15.1607 68.4813 15.002 68.248C14.8527 68.0147 14.582 67.8373 14.19 67.716C13.8074 67.5947 13.28 67.534 12.608 67.534H10.242L10.746 62.2H16.5V63.726H11.418L12.37 62.858L11.992 66.848L11.04 65.994H13.014C13.9847 65.994 14.764 66.1247 15.352 66.386C15.9494 66.638 16.3834 66.9927 16.654 67.45C16.934 67.898 17.074 68.4113 17.074 68.99C17.074 69.5593 16.934 70.082 16.654 70.558C16.374 71.034 15.9447 71.4167 15.366 71.706C14.7967 71.9953 14.0734 72.14 13.196 72.14ZM20.8958 70.25V63.95H22.3938V70.25H20.8958ZM18.4178 67.8V66.4H24.8718V67.8H18.4178ZM30.0128 74.814C29.6861 74.814 29.3781 74.7767 29.0888 74.702C28.7901 74.6367 28.5381 74.5293 28.3328 74.38L28.8368 73.078C29.1074 73.274 29.4481 73.372 29.8588 73.372C30.1761 73.372 30.4234 73.2693 30.6008 73.064C30.7781 72.868 30.8668 72.574 30.8668 72.182V64.524H32.6168V72.14C32.6168 72.9613 32.3881 73.61 31.9308 74.086C31.4828 74.5713 30.8434 74.814 30.0128 74.814ZM31.7348 63.292C31.4081 63.292 31.1374 63.1893 30.9228 62.984C30.7174 62.7787 30.6148 62.5313 30.6148 62.242C30.6148 61.9433 30.7174 61.696 30.9228 61.5C31.1374 61.2947 31.4081 61.192 31.7348 61.192C32.0614 61.192 32.3274 61.29 32.5328 61.486C32.7474 61.6727 32.8548 61.9107 32.8548 62.2C32.8548 62.508 32.7521 62.7693 32.5468 62.984C32.3414 63.1893 32.0708 63.292 31.7348 63.292ZM39.5177 72V70.488L39.4197 70.166V67.52C39.4197 67.0067 39.2657 66.61 38.9577 66.33C38.6497 66.0407 38.183 65.896 37.5577 65.896C37.1377 65.896 36.7223 65.9613 36.3117 66.092C35.9103 66.2227 35.5697 66.4047 35.2897 66.638L34.6037 65.364C35.005 65.056 35.481 64.8273 36.0317 64.678C36.5917 64.5193 37.1703 64.44 37.7677 64.44C38.8503 64.44 39.6857 64.7013 40.2737 65.224C40.871 65.7373 41.1697 66.5353 41.1697 67.618V72H39.5177ZM37.1657 72.098C36.6057 72.098 36.1157 72.0047 35.6957 71.818C35.2757 71.622 34.949 71.356 34.7157 71.02C34.4917 70.6747 34.3797 70.2873 34.3797 69.858C34.3797 69.438 34.4777 69.06 34.6737 68.724C34.879 68.388 35.2103 68.122 35.6677 67.926C36.125 67.73 36.7317 67.632 37.4877 67.632H39.6577V68.794H37.6137C37.0163 68.794 36.615 68.892 36.4097 69.088C36.2043 69.2747 36.1017 69.508 36.1017 69.788C36.1017 70.1053 36.2277 70.3573 36.4797 70.544C36.7317 70.7307 37.0817 70.824 37.5297 70.824C37.959 70.824 38.3417 70.726 38.6777 70.53C39.023 70.334 39.2703 70.0447 39.4197 69.662L39.7137 70.712C39.5457 71.1507 39.2423 71.4913 38.8037 71.734C38.3743 71.9767 37.8283 72.098 37.1657 72.098ZM48.0216 72V70.488L47.9236 70.166V67.52C47.9236 67.0067 47.7696 66.61 47.4616 66.33C47.1536 66.0407 46.6869 65.896 46.0616 65.896C45.6416 65.896 45.2262 65.9613 44.8156 66.092C44.4142 66.2227 44.0736 66.4047 43.7936 66.638L43.1076 65.364C43.5089 65.056 43.9849 64.8273 44.5356 64.678C45.0956 64.5193 45.6742 64.44 46.2716 64.44C47.3542 64.44 48.1896 64.7013 48.7776 65.224C49.3749 65.7373 49.6736 66.5353 49.6736 67.618V72H48.0216ZM45.6696 72.098C45.1096 72.098 44.6196 72.0047 44.1996 71.818C43.7796 71.622 43.4529 71.356 43.2196 71.02C42.9956 70.6747 42.8836 70.2873 42.8836 69.858C42.8836 69.438 42.9816 69.06 43.1776 68.724C43.3829 68.388 43.7142 68.122 44.1716 67.926C44.6289 67.73 45.2356 67.632 45.9916 67.632H48.1616V68.794H46.1176C45.5202 68.794 45.1189 68.892 44.9136 69.088C44.7082 69.2747 44.6056 69.508 44.6056 69.788C44.6056 70.1053 44.7316 70.3573 44.9836 70.544C45.2356 70.7307 45.5856 70.824 46.0336 70.824C46.4629 70.824 46.8456 70.726 47.1816 70.53C47.5269 70.334 47.7742 70.0447 47.9236 69.662L48.2176 70.712C48.0496 71.1507 47.7462 71.4913 47.3076 71.734C46.8782 71.9767 46.3322 72.098 45.6696 72.098ZM51.9195 72V64.524H53.5855V66.582L53.3895 65.98C53.6135 65.476 53.9635 65.0933 54.4395 64.832C54.9248 64.5707 55.5268 64.44 56.2455 64.44V66.106C56.1708 66.0873 56.1008 66.078 56.0355 66.078C55.9702 66.0687 55.9048 66.064 55.8395 66.064C55.1768 66.064 54.6495 66.26 54.2575 66.652C53.8655 67.0347 53.6695 67.6087 53.6695 68.374V72H51.9195ZM65.1815 72.098C64.3509 72.098 63.6229 71.9347 62.9975 71.608C62.3815 71.272 61.9009 70.8147 61.5555 70.236C61.2195 69.6573 61.0515 68.9993 61.0515 68.262C61.0515 67.5153 61.2149 66.8573 61.5415 66.288C61.8775 65.7093 62.3349 65.2567 62.9135 64.93C63.5015 64.6033 64.1689 64.44 64.9155 64.44C65.6435 64.44 66.2922 64.5987 66.8615 64.916C67.4309 65.2333 67.8789 65.6813 68.2055 66.26C68.5322 66.8387 68.6955 67.52 68.6955 68.304C68.6955 68.3787 68.6909 68.4627 68.6815 68.556C68.6815 68.6493 68.6769 68.738 68.6675 68.822H62.4375V67.66H67.7435L67.0575 68.024C67.0669 67.5947 66.9782 67.2167 66.7915 66.89C66.6049 66.5633 66.3482 66.3067 66.0215 66.12C65.7042 65.9333 65.3355 65.84 64.9155 65.84C64.4862 65.84 64.1082 65.9333 63.7815 66.12C63.4642 66.3067 63.2122 66.568 63.0255 66.904C62.8482 67.2307 62.7595 67.618 62.7595 68.066V68.346C62.7595 68.794 62.8622 69.1907 63.0675 69.536C63.2729 69.8813 63.5622 70.1473 63.9355 70.334C64.3089 70.5207 64.7382 70.614 65.2235 70.614C65.6435 70.614 66.0215 70.5487 66.3575 70.418C66.6935 70.2873 66.9922 70.082 67.2535 69.802L68.1915 70.88C67.8555 71.272 67.4309 71.5753 66.9175 71.79C66.4135 71.9953 65.8349 72.098 65.1815 72.098ZM70.3765 72V64.524H72.0425V66.582L71.8465 65.98C72.0705 65.476 72.4205 65.0933 72.8965 64.832C73.3818 64.5707 73.9838 64.44 74.7025 64.44V66.106C74.6278 66.0873 74.5578 66.078 74.4925 66.078C74.4272 66.0687 74.3618 66.064 74.2965 66.064C73.6338 66.064 73.1065 66.26 72.7145 66.652C72.3225 67.0347 72.1265 67.6087 72.1265 68.374V72H70.3765ZM78.4485 72L75.2425 64.524H77.0625L79.8205 71.118H78.9245L81.7805 64.524H83.4605L80.2545 72H78.4485ZM88.9278 72V70.488L88.8298 70.166V67.52C88.8298 67.0067 88.6758 66.61 88.3678 66.33C88.0598 66.0407 87.5932 65.896 86.9678 65.896C86.5478 65.896 86.1325 65.9613 85.7218 66.092C85.3205 66.2227 84.9798 66.4047 84.6998 66.638L84.0138 65.364C84.4152 65.056 84.8912 64.8273 85.4418 64.678C86.0018 64.5193 86.5805 64.44 87.1778 64.44C88.2605 64.44 89.0958 64.7013 89.6838 65.224C90.2812 65.7373 90.5798 66.5353 90.5798 67.618V72H88.9278ZM86.5758 72.098C86.0158 72.098 85.5258 72.0047 85.1058 71.818C84.6858 71.622 84.3592 71.356 84.1258 71.02C83.9018 70.6747 83.7898 70.2873 83.7898 69.858C83.7898 69.438 83.8878 69.06 84.0838 68.724C84.2892 68.388 84.6205 68.122 85.0778 67.926C85.5352 67.73 86.1418 67.632 86.8978 67.632H89.0678V68.794H87.0238C86.4265 68.794 86.0252 68.892 85.8198 69.088C85.6145 69.2747 85.5118 69.508 85.5118 69.788C85.5118 70.1053 85.6378 70.3573 85.8898 70.544C86.1418 70.7307 86.4918 70.824 86.9398 70.824C87.3692 70.824 87.7518 70.726 88.0878 70.53C88.4332 70.334 88.6805 70.0447 88.8298 69.662L89.1238 70.712C88.9558 71.1507 88.6525 71.4913 88.2138 71.734C87.7845 71.9767 87.2385 72.098 86.5758 72.098ZM92.8257 72V64.524H94.4917V66.582L94.2957 65.98C94.5197 65.476 94.8697 65.0933 95.3457 64.832C95.8311 64.5707 96.4331 64.44 97.1517 64.44V66.106C97.0771 66.0873 97.0071 66.078 96.9417 66.078C96.8764 66.0687 96.8111 66.064 96.7457 66.064C96.0831 66.064 95.5557 66.26 95.1637 66.652C94.7717 67.0347 94.5757 67.6087 94.5757 68.374V72H92.8257ZM98.6363 72V64.524H100.386V72H98.6363ZM99.5183 63.292C99.1916 63.292 98.9209 63.1893 98.7063 62.984C98.5009 62.7787 98.3983 62.5313 98.3983 62.242C98.3983 61.9433 98.5009 61.696 98.7063 61.5C98.9209 61.2947 99.1916 61.192 99.5183 61.192C99.8449 61.192 100.111 61.29 100.316 61.486C100.531 61.6727 100.638 61.9107 100.638 62.2C100.638 62.508 100.536 62.7693 100.33 62.984C100.125 63.1893 99.8543 63.292 99.5183 63.292ZM106.925 64.44C107.522 64.44 108.054 64.5567 108.521 64.79C108.997 65.0233 109.37 65.3827 109.641 65.868C109.912 66.344 110.047 66.96 110.047 67.716V72H108.297V67.94C108.297 67.2773 108.138 66.7827 107.821 66.456C107.513 66.1293 107.079 65.966 106.519 65.966C106.108 65.966 105.744 66.05 105.427 66.218C105.11 66.386 104.862 66.638 104.685 66.974C104.517 67.3007 104.433 67.716 104.433 68.22V72H102.683V64.524H104.349V66.54L104.055 65.924C104.316 65.448 104.694 65.084 105.189 64.832C105.693 64.5707 106.272 64.44 106.925 64.44ZM115.669 74.814C114.978 74.814 114.301 74.7207 113.639 74.534C112.985 74.3567 112.449 74.0953 112.029 73.75L112.813 72.434C113.139 72.7047 113.55 72.9193 114.045 73.078C114.549 73.246 115.057 73.33 115.571 73.33C116.392 73.33 116.994 73.1387 117.377 72.756C117.759 72.3827 117.951 71.818 117.951 71.062V69.732L118.091 68.038L118.035 66.344V64.524H119.701V70.866C119.701 72.2193 119.355 73.2133 118.665 73.848C117.974 74.492 116.975 74.814 115.669 74.814ZM115.445 71.664C114.735 71.664 114.091 71.5147 113.513 71.216C112.943 70.908 112.491 70.4833 112.155 69.942C111.828 69.4007 111.665 68.766 111.665 68.038C111.665 67.3193 111.828 66.6893 112.155 66.148C112.491 65.6067 112.943 65.1867 113.513 64.888C114.091 64.5893 114.735 64.44 115.445 64.44C116.079 64.44 116.649 64.566 117.153 64.818C117.657 65.07 118.058 65.462 118.357 65.994C118.665 66.526 118.819 67.2073 118.819 68.038C118.819 68.8687 118.665 69.5547 118.357 70.096C118.058 70.628 117.657 71.0247 117.153 71.286C116.649 71.538 116.079 71.664 115.445 71.664ZM115.711 70.18C116.149 70.18 116.541 70.0913 116.887 69.914C117.232 69.7273 117.498 69.4753 117.685 69.158C117.881 68.8313 117.979 68.458 117.979 68.038C117.979 67.618 117.881 67.2493 117.685 66.932C117.498 66.6053 117.232 66.358 116.887 66.19C116.541 66.0127 116.149 65.924 115.711 65.924C115.272 65.924 114.875 66.0127 114.521 66.19C114.175 66.358 113.905 66.6053 113.709 66.932C113.522 67.2493 113.429 67.618 113.429 68.038C113.429 68.458 113.522 68.8313 113.709 69.158C113.905 69.4753 114.175 69.7273 114.521 69.914C114.875 70.0913 115.272 70.18 115.711 70.18ZM125.871 72V64.524H127.621V72H125.871ZM126.753 63.292C126.426 63.292 126.155 63.1893 125.941 62.984C125.735 62.7787 125.633 62.5313 125.633 62.242C125.633 61.9433 125.735 61.696 125.941 61.5C126.155 61.2947 126.426 61.192 126.753 61.192C127.079 61.192 127.345 61.29 127.551 61.486C127.765 61.6727 127.873 61.9107 127.873 62.2C127.873 62.508 127.77 62.7693 127.565 62.984C127.359 63.1893 127.089 63.292 126.753 63.292ZM134.16 64.44C134.757 64.44 135.289 64.5567 135.756 64.79C136.232 65.0233 136.605 65.3827 136.876 65.868C137.146 66.344 137.282 66.96 137.282 67.716V72H135.532V67.94C135.532 67.2773 135.373 66.7827 135.056 66.456C134.748 66.1293 134.314 65.966 133.754 65.966C133.343 65.966 132.979 66.05 132.662 66.218C132.344 66.386 132.097 66.638 131.92 66.974C131.752 67.3007 131.668 67.716 131.668 68.22V72H129.918V64.524H131.584V66.54L131.29 65.924C131.551 65.448 131.929 65.084 132.424 64.832C132.928 64.5707 133.506 64.44 134.16 64.44ZM142.755 72V70.894L147.361 65.322L147.683 65.924H142.839V64.524H149.083V65.63L144.477 71.202L144.127 70.6H149.209V72H142.755ZM154.072 72.098C153.307 72.098 152.626 71.9347 152.028 71.608C151.431 71.272 150.96 70.8147 150.614 70.236C150.269 69.6573 150.096 68.9993 150.096 68.262C150.096 67.5153 150.269 66.8573 150.614 66.288C150.96 65.7093 151.431 65.2567 152.028 64.93C152.626 64.6033 153.307 64.44 154.072 64.44C154.847 64.44 155.533 64.6033 156.13 64.93C156.737 65.2567 157.208 65.7047 157.544 66.274C157.89 66.8433 158.062 67.506 158.062 68.262C158.062 68.9993 157.89 69.6573 157.544 70.236C157.208 70.8147 156.737 71.272 156.13 71.608C155.533 71.9347 154.847 72.098 154.072 72.098ZM154.072 70.6C154.502 70.6 154.884 70.5067 155.22 70.32C155.556 70.1333 155.818 69.8627 156.004 69.508C156.2 69.1533 156.298 68.738 156.298 68.262C156.298 67.7767 156.2 67.3613 156.004 67.016C155.818 66.6613 155.556 66.3907 155.22 66.204C154.884 66.0173 154.506 65.924 154.086 65.924C153.657 65.924 153.274 66.0173 152.938 66.204C152.612 66.3907 152.35 66.6613 152.154 67.016C151.958 67.3613 151.86 67.7767 151.86 68.262C151.86 68.738 151.958 69.1533 152.154 69.508C152.35 69.8627 152.612 70.1333 152.938 70.32C153.274 70.5067 153.652 70.6 154.072 70.6ZM159.736 72V64.524H161.402V66.582L161.206 65.98C161.43 65.476 161.78 65.0933 162.256 64.832C162.741 64.5707 163.343 64.44 164.062 64.44V66.106C163.987 66.0873 163.917 66.078 163.852 66.078C163.787 66.0687 163.721 66.064 163.656 66.064C162.993 66.064 162.466 66.26 162.074 66.652C161.682 67.0347 161.486 67.6087 161.486 68.374V72H159.736ZM168.866 74.814C168.175 74.814 167.499 74.7207 166.836 74.534C166.183 74.3567 165.646 74.0953 165.226 73.75L166.01 72.434C166.337 72.7047 166.747 72.9193 167.242 73.078C167.746 73.246 168.255 73.33 168.768 73.33C169.589 73.33 170.191 73.1387 170.574 72.756C170.957 72.3827 171.148 71.818 171.148 71.062V69.732L171.288 68.038L171.232 66.344V64.524H172.898V70.866C172.898 72.2193 172.553 73.2133 171.862 73.848C171.171 74.492 170.173 74.814 168.866 74.814ZM168.642 71.664C167.933 71.664 167.289 71.5147 166.71 71.216C166.141 70.908 165.688 70.4833 165.352 69.942C165.025 69.4007 164.862 68.766 164.862 68.038C164.862 67.3193 165.025 66.6893 165.352 66.148C165.688 65.6067 166.141 65.1867 166.71 64.888C167.289 64.5893 167.933 64.44 168.642 64.44C169.277 64.44 169.846 64.566 170.35 64.818C170.854 65.07 171.255 65.462 171.554 65.994C171.862 66.526 172.016 67.2073 172.016 68.038C172.016 68.8687 171.862 69.5547 171.554 70.096C171.255 70.628 170.854 71.0247 170.35 71.286C169.846 71.538 169.277 71.664 168.642 71.664ZM168.908 70.18C169.347 70.18 169.739 70.0913 170.084 69.914C170.429 69.7273 170.695 69.4753 170.882 69.158C171.078 68.8313 171.176 68.458 171.176 68.038C171.176 67.618 171.078 67.2493 170.882 66.932C170.695 66.6053 170.429 66.358 170.084 66.19C169.739 66.0127 169.347 65.924 168.908 65.924C168.469 65.924 168.073 66.0127 167.718 66.19C167.373 66.358 167.102 66.6053 166.906 66.932C166.719 67.2493 166.626 67.618 166.626 68.038C166.626 68.458 166.719 68.8313 166.906 69.158C167.102 69.4753 167.373 69.7273 167.718 69.914C168.073 70.0913 168.469 70.18 168.908 70.18ZM178.713 72.098C177.882 72.098 177.154 71.9347 176.529 71.608C175.913 71.272 175.432 70.8147 175.087 70.236C174.751 69.6573 174.583 68.9993 174.583 68.262C174.583 67.5153 174.746 66.8573 175.073 66.288C175.409 65.7093 175.866 65.2567 176.445 64.93C177.033 64.6033 177.7 64.44 178.447 64.44C179.175 64.44 179.823 64.5987 180.393 64.916C180.962 65.2333 181.41 65.6813 181.737 66.26C182.063 66.8387 182.227 67.52 182.227 68.304C182.227 68.3787 182.222 68.4627 182.213 68.556C182.213 68.6493 182.208 68.738 182.199 68.822H175.969V67.66H181.275L180.589 68.024C180.598 67.5947 180.509 67.2167 180.323 66.89C180.136 66.5633 179.879 66.3067 179.553 66.12C179.235 65.9333 178.867 65.84 178.447 65.84C178.017 65.84 177.639 65.9333 177.313 66.12C176.995 66.3067 176.743 66.568 176.557 66.904C176.379 67.2307 176.291 67.618 176.291 68.066V68.346C176.291 68.794 176.393 69.1907 176.599 69.536C176.804 69.8813 177.093 70.1473 177.467 70.334C177.84 70.5207 178.269 70.614 178.755 70.614C179.175 70.614 179.553 70.5487 179.889 70.418C180.225 70.2873 180.523 70.082 180.785 69.802L181.723 70.88C181.387 71.272 180.962 71.5753 180.449 71.79C179.945 71.9953 179.366 72.098 178.713 72.098ZM183.908 72V61.612H185.658V72H183.908ZM191.315 72.098C190.549 72.098 189.868 71.9347 189.271 71.608C188.673 71.272 188.202 70.8147 187.857 70.236C187.511 69.6573 187.339 68.9993 187.339 68.262C187.339 67.5153 187.511 66.8573 187.857 66.288C188.202 65.7093 188.673 65.2567 189.271 64.93C189.868 64.6033 190.549 64.44 191.315 64.44C192.089 64.44 192.775 64.6033 193.373 64.93C193.979 65.2567 194.451 65.7047 194.787 66.274C195.132 66.8433 195.305 67.506 195.305 68.262C195.305 68.9993 195.132 69.6573 194.787 70.236C194.451 70.8147 193.979 71.272 193.373 71.608C192.775 71.9347 192.089 72.098 191.315 72.098ZM191.315 70.6C191.744 70.6 192.127 70.5067 192.463 70.32C192.799 70.1333 193.06 69.8627 193.247 69.508C193.443 69.1533 193.541 68.738 193.541 68.262C193.541 67.7767 193.443 67.3613 193.247 67.016C193.06 66.6613 192.799 66.3907 192.463 66.204C192.127 66.0173 191.749 65.924 191.329 65.924C190.899 65.924 190.517 66.0173 190.181 66.204C189.854 66.3907 189.593 66.6613 189.397 67.016C189.201 67.3613 189.103 67.7767 189.103 68.262C189.103 68.738 189.201 69.1533 189.397 69.508C189.593 69.8627 189.854 70.1333 190.181 70.32C190.517 70.5067 190.895 70.6 191.315 70.6ZM196.253 72V70.894L200.859 65.322L201.181 65.924H196.337V64.524H202.581V65.63L197.975 71.202L197.625 70.6H202.707V72H196.253ZM207.725 72.098C206.894 72.098 206.166 71.9347 205.541 71.608C204.925 71.272 204.444 70.8147 204.099 70.236C203.763 69.6573 203.595 68.9993 203.595 68.262C203.595 67.5153 203.758 66.8573 204.085 66.288C204.421 65.7093 204.878 65.2567 205.457 64.93C206.045 64.6033 206.712 64.44 207.459 64.44C208.187 64.44 208.835 64.5987 209.405 64.916C209.974 65.2333 210.422 65.6813 210.749 66.26C211.075 66.8387 211.239 67.52 211.239 68.304C211.239 68.3787 211.234 68.4627 211.225 68.556C211.225 68.6493 211.22 68.738 211.211 68.822H204.981V67.66H210.287L209.601 68.024C209.61 67.5947 209.521 67.2167 209.335 66.89C209.148 66.5633 208.891 66.3067 208.565 66.12C208.247 65.9333 207.879 65.84 207.459 65.84C207.029 65.84 206.651 65.9333 206.325 66.12C206.007 66.3067 205.755 66.568 205.569 66.904C205.391 67.2307 205.303 67.618 205.303 68.066V68.346C205.303 68.794 205.405 69.1907 205.611 69.536C205.816 69.8813 206.105 70.1473 206.479 70.334C206.852 70.5207 207.281 70.614 207.767 70.614C208.187 70.614 208.565 70.5487 208.901 70.418C209.237 70.2873 209.535 70.082 209.797 69.802L210.735 70.88C210.399 71.272 209.974 71.5753 209.461 71.79C208.957 71.9953 208.378 72.098 207.725 72.098ZM9.292 89.098C8.68533 89.098 8.13 88.958 7.626 88.678C7.13133 88.398 6.73467 87.978 6.436 87.418C6.14667 86.8487 6.002 86.13 6.002 85.262C6.002 84.3847 6.142 83.666 6.422 83.106C6.71133 82.546 7.10333 82.1307 7.598 81.86C8.09267 81.58 8.65733 81.44 9.292 81.44C10.0293 81.44 10.678 81.5987 11.238 81.916C11.8073 82.2333 12.2553 82.6767 12.582 83.246C12.918 83.8153 13.086 84.4873 13.086 85.262C13.086 86.0367 12.918 86.7133 12.582 87.292C12.2553 87.8613 11.8073 88.3047 11.238 88.622C10.678 88.9393 10.0293 89.098 9.292 89.098ZM5.148 91.716V81.524H6.814V83.288L6.758 85.276L6.898 87.264V91.716H5.148ZM9.096 87.6C9.516 87.6 9.88933 87.5067 10.216 87.32C10.552 87.1333 10.818 86.8627 11.014 86.508C11.21 86.1533 11.308 85.738 11.308 85.262C11.308 84.7767 11.21 84.3613 11.014 84.016C10.818 83.6613 10.552 83.3907 10.216 83.204C9.88933 83.0173 9.516 82.924 9.096 82.924C8.676 82.924 8.298 83.0173 7.962 83.204C7.626 83.3907 7.36 83.6613 7.164 84.016C6.968 84.3613 6.87 84.7767 6.87 85.262C6.87 85.738 6.968 86.1533 7.164 86.508C7.36 86.8627 7.626 87.1333 7.962 87.32C8.298 87.5067 8.676 87.6 9.096 87.6ZM18.2597 89.098C17.429 89.098 16.701 88.9347 16.0757 88.608C15.4597 88.272 14.979 87.8147 14.6337 87.236C14.2977 86.6573 14.1297 85.9993 14.1297 85.262C14.1297 84.5153 14.293 83.8573 14.6197 83.288C14.9557 82.7093 15.413 82.2567 15.9917 81.93C16.5797 81.6033 17.247 81.44 17.9937 81.44C18.7217 81.44 19.3703 81.5987 19.9397 81.916C20.509 82.2333 20.957 82.6813 21.2837 83.26C21.6103 83.8387 21.7737 84.52 21.7737 85.304C21.7737 85.3787 21.769 85.4627 21.7597 85.556C21.7597 85.6493 21.755 85.738 21.7457 85.822H15.5157V84.66H20.8217L20.1357 85.024C20.145 84.5947 20.0563 84.2167 19.8697 83.89C19.683 83.5633 19.4263 83.3067 19.0997 83.12C18.7823 82.9333 18.4137 82.84 17.9937 82.84C17.5643 82.84 17.1863 82.9333 16.8597 83.12C16.5423 83.3067 16.2903 83.568 16.1037 83.904C15.9263 84.2307 15.8377 84.618 15.8377 85.066V85.346C15.8377 85.794 15.9403 86.1907 16.1457 86.536C16.351 86.8813 16.6403 87.1473 17.0137 87.334C17.387 87.5207 17.8163 87.614 18.3017 87.614C18.7217 87.614 19.0997 87.5487 19.4357 87.418C19.7717 87.2873 20.0703 87.082 20.3317 86.802L21.2697 87.88C20.9337 88.272 20.509 88.5753 19.9957 88.79C19.4917 88.9953 18.913 89.098 18.2597 89.098ZM23.4546 89V81.524H25.1206V83.582L24.9246 82.98C25.1486 82.476 25.4986 82.0933 25.9746 81.832C26.46 81.5707 27.062 81.44 27.7806 81.44V83.106C27.706 83.0873 27.636 83.078 27.5706 83.078C27.5053 83.0687 27.44 83.064 27.3746 83.064C26.712 83.064 26.1846 83.26 25.7926 83.652C25.4006 84.0347 25.2046 84.6087 25.2046 85.374V89H23.4546ZM31.6435 89.098C31.0182 89.098 30.4162 89.0187 29.8375 88.86C29.2682 88.692 28.8155 88.4913 28.4795 88.258L29.1515 86.928C29.4875 87.1427 29.8889 87.32 30.3555 87.46C30.8222 87.6 31.2889 87.67 31.7555 87.67C32.3062 87.67 32.7029 87.5953 32.9455 87.446C33.1975 87.2967 33.3235 87.096 33.3235 86.844C33.3235 86.6387 33.2395 86.4847 33.0715 86.382C32.9035 86.27 32.6842 86.186 32.4135 86.13C32.1429 86.074 31.8395 86.0227 31.5035 85.976C31.1769 85.9293 30.8455 85.8687 30.5095 85.794C30.1829 85.71 29.8842 85.5933 29.6135 85.444C29.3429 85.2853 29.1235 85.0753 28.9555 84.814C28.7875 84.5527 28.7035 84.2073 28.7035 83.778C28.7035 83.302 28.8389 82.8913 29.1095 82.546C29.3802 82.1913 29.7582 81.9207 30.2435 81.734C30.7382 81.538 31.3215 81.44 31.9935 81.44C32.4975 81.44 33.0062 81.496 33.5195 81.608C34.0329 81.72 34.4575 81.8787 34.7935 82.084L34.1215 83.414C33.7669 83.1993 33.4075 83.0547 33.0435 82.98C32.6889 82.896 32.3342 82.854 31.9795 82.854C31.4475 82.854 31.0509 82.9333 30.7895 83.092C30.5375 83.2507 30.4115 83.4513 30.4115 83.694C30.4115 83.918 30.4955 84.086 30.6635 84.198C30.8315 84.31 31.0509 84.3987 31.3215 84.464C31.5922 84.5293 31.8909 84.5853 32.2175 84.632C32.5535 84.6693 32.8849 84.73 33.2115 84.814C33.5382 84.898 33.8369 85.0147 34.1075 85.164C34.3875 85.304 34.6115 85.5047 34.7795 85.766C34.9475 86.0273 35.0315 86.368 35.0315 86.788C35.0315 87.2547 34.8915 87.6607 34.6115 88.006C34.3409 88.3513 33.9535 88.622 33.4495 88.818C32.9455 89.0047 32.3435 89.098 31.6435 89.098ZM39.8986 89.098C39.1333 89.098 38.452 88.9347 37.8546 88.608C37.2573 88.272 36.786 87.8147 36.4406 87.236C36.0953 86.6573 35.9226 85.9993 35.9226 85.262C35.9226 84.5153 36.0953 83.8573 36.4406 83.288C36.786 82.7093 37.2573 82.2567 37.8546 81.93C38.452 81.6033 39.1333 81.44 39.8986 81.44C40.6733 81.44 41.3593 81.6033 41.9566 81.93C42.5633 82.2567 43.0346 82.7047 43.3706 83.274C43.716 83.8433 43.8886 84.506 43.8886 85.262C43.8886 85.9993 43.716 86.6573 43.3706 87.236C43.0346 87.8147 42.5633 88.272 41.9566 88.608C41.3593 88.9347 40.6733 89.098 39.8986 89.098ZM39.8986 87.6C40.328 87.6 40.7106 87.5067 41.0466 87.32C41.3826 87.1333 41.644 86.8627 41.8306 86.508C42.0266 86.1533 42.1246 85.738 42.1246 85.262C42.1246 84.7767 42.0266 84.3613 41.8306 84.016C41.644 83.6613 41.3826 83.3907 41.0466 83.204C40.7106 83.0173 40.3326 82.924 39.9126 82.924C39.4833 82.924 39.1006 83.0173 38.7646 83.204C38.438 83.3907 38.1766 83.6613 37.9806 84.016C37.7846 84.3613 37.6866 84.7767 37.6866 85.262C37.6866 85.738 37.7846 86.1533 37.9806 86.508C38.1766 86.8627 38.438 87.1333 38.7646 87.32C39.1006 87.5067 39.4786 87.6 39.8986 87.6ZM49.8041 81.44C50.4014 81.44 50.9334 81.5567 51.4001 81.79C51.8761 82.0233 52.2494 82.3827 52.5201 82.868C52.7907 83.344 52.9261 83.96 52.9261 84.716V89H51.1761V84.94C51.1761 84.2773 51.0174 83.7827 50.7001 83.456C50.3921 83.1293 49.9581 82.966 49.3981 82.966C48.9874 82.966 48.6234 83.05 48.3061 83.218C47.9887 83.386 47.7414 83.638 47.5641 83.974C47.3961 84.3007 47.3121 84.716 47.3121 85.22V89H45.5621V81.524H47.2281V83.54L46.9341 82.924C47.1954 82.448 47.5734 82.084 48.0681 81.832C48.5721 81.5707 49.1507 81.44 49.8041 81.44ZM58.6737 89.098C57.8431 89.098 57.1151 88.9347 56.4897 88.608C55.8737 88.272 55.3931 87.8147 55.0477 87.236C54.7117 86.6573 54.5437 85.9993 54.5437 85.262C54.5437 84.5153 54.7071 83.8573 55.0337 83.288C55.3697 82.7093 55.8271 82.2567 56.4057 81.93C56.9937 81.6033 57.6611 81.44 58.4077 81.44C59.1357 81.44 59.7844 81.5987 60.3537 81.916C60.9231 82.2333 61.3711 82.6813 61.6977 83.26C62.0244 83.8387 62.1877 84.52 62.1877 85.304C62.1877 85.3787 62.1831 85.4627 62.1737 85.556C62.1737 85.6493 62.1691 85.738 62.1597 85.822H55.9297V84.66H61.2357L60.5497 85.024C60.5591 84.5947 60.4704 84.2167 60.2837 83.89C60.0971 83.5633 59.8404 83.3067 59.5137 83.12C59.1964 82.9333 58.8277 82.84 58.4077 82.84C57.9784 82.84 57.6004 82.9333 57.2737 83.12C56.9564 83.3067 56.7044 83.568 56.5177 83.904C56.3404 84.2307 56.2517 84.618 56.2517 85.066V85.346C56.2517 85.794 56.3544 86.1907 56.5597 86.536C56.7651 86.8813 57.0544 87.1473 57.4277 87.334C57.8011 87.5207 58.2304 87.614 58.7157 87.614C59.1357 87.614 59.5137 87.5487 59.8497 87.418C60.1857 87.2873 60.4844 87.082 60.7457 86.802L61.6837 87.88C61.3477 88.272 60.9231 88.5753 60.4097 88.79C59.9057 88.9953 59.3271 89.098 58.6737 89.098ZM67.3827 89.098C66.552 89.098 65.824 88.9347 65.1987 88.608C64.5827 88.272 64.102 87.8147 63.7567 87.236C63.4207 86.6573 63.2527 85.9993 63.2527 85.262C63.2527 84.5153 63.416 83.8573 63.7427 83.288C64.0787 82.7093 64.536 82.2567 65.1147 81.93C65.7027 81.6033 66.37 81.44 67.1167 81.44C67.8447 81.44 68.4934 81.5987 69.0627 81.916C69.632 82.2333 70.08 82.6813 70.4067 83.26C70.7334 83.8387 70.8967 84.52 70.8967 85.304C70.8967 85.3787 70.892 85.4627 70.8827 85.556C70.8827 85.6493 70.878 85.738 70.8687 85.822H64.6387V84.66H69.9447L69.2587 85.024C69.268 84.5947 69.1794 84.2167 68.9927 83.89C68.806 83.5633 68.5494 83.3067 68.2227 83.12C67.9054 82.9333 67.5367 82.84 67.1167 82.84C66.6874 82.84 66.3094 82.9333 65.9827 83.12C65.6654 83.3067 65.4134 83.568 65.2267 83.904C65.0494 84.2307 64.9607 84.618 64.9607 85.066V85.346C64.9607 85.794 65.0634 86.1907 65.2687 86.536C65.474 86.8813 65.7634 87.1473 66.1367 87.334C66.51 87.5207 66.9394 87.614 67.4247 87.614C67.8447 87.614 68.2227 87.5487 68.5587 87.418C68.8947 87.2873 69.1934 87.082 69.4547 86.802L70.3927 87.88C70.0567 88.272 69.632 88.5753 69.1187 88.79C68.6147 88.9953 68.036 89.098 67.3827 89.098ZM72.5777 89V78.612H74.3277V89H72.5777ZM78.9346 89.098C78.3092 89.098 77.7072 89.0187 77.1286 88.86C76.5592 88.692 76.1066 88.4913 75.7706 88.258L76.4426 86.928C76.7786 87.1427 77.1799 87.32 77.6466 87.46C78.1132 87.6 78.5799 87.67 79.0466 87.67C79.5972 87.67 79.9939 87.5953 80.2366 87.446C80.4886 87.2967 80.6146 87.096 80.6146 86.844C80.6146 86.6387 80.5306 86.4847 80.3626 86.382C80.1946 86.27 79.9752 86.186 79.7046 86.13C79.4339 86.074 79.1306 86.0227 78.7946 85.976C78.4679 85.9293 78.1366 85.8687 77.8006 85.794C77.4739 85.71 77.1752 85.5933 76.9046 85.444C76.6339 85.2853 76.4146 85.0753 76.2466 84.814C76.0786 84.5527 75.9946 84.2073 75.9946 83.778C75.9946 83.302 76.1299 82.8913 76.4006 82.546C76.6712 82.1913 77.0492 81.9207 77.5346 81.734C78.0292 81.538 78.6126 81.44 79.2846 81.44C79.7886 81.44 80.2972 81.496 80.8106 81.608C81.3239 81.72 81.7486 81.8787 82.0846 82.084L81.4126 83.414C81.0579 83.1993 80.6986 83.0547 80.3346 82.98C79.9799 82.896 79.6252 82.854 79.2706 82.854C78.7386 82.854 78.3419 82.9333 78.0806 83.092C77.8286 83.2507 77.7026 83.4513 77.7026 83.694C77.7026 83.918 77.7866 84.086 77.9546 84.198C78.1226 84.31 78.3419 84.3987 78.6126 84.464C78.8832 84.5293 79.1819 84.5853 79.5086 84.632C79.8446 84.6693 80.1759 84.73 80.5026 84.814C80.8292 84.898 81.1279 85.0147 81.3986 85.164C81.6786 85.304 81.9026 85.5047 82.0706 85.766C82.2386 86.0273 82.3226 86.368 82.3226 86.788C82.3226 87.2547 82.1826 87.6607 81.9026 88.006C81.6319 88.3513 81.2446 88.622 80.7406 88.818C80.2366 89.0047 79.6346 89.098 78.9346 89.098ZM87.2176 91.814C86.527 91.814 85.8503 91.7207 85.1876 91.534C84.5343 91.3567 83.9976 91.0953 83.5776 90.75L84.3616 89.434C84.6883 89.7047 85.099 89.9193 85.5936 90.078C86.0976 90.246 86.6063 90.33 87.1196 90.33C87.941 90.33 88.543 90.1387 88.9256 89.756C89.3083 89.3827 89.4996 88.818 89.4996 88.062V86.732L89.6396 85.038L89.5836 83.344V81.524H91.2496V87.866C91.2496 89.2193 90.9043 90.2133 90.2136 90.848C89.523 91.492 88.5243 91.814 87.2176 91.814ZM86.9936 88.664C86.2843 88.664 85.6403 88.5147 85.0616 88.216C84.4923 87.908 84.0396 87.4833 83.7036 86.942C83.377 86.4007 83.2136 85.766 83.2136 85.038C83.2136 84.3193 83.377 83.6893 83.7036 83.148C84.0396 82.6067 84.4923 82.1867 85.0616 81.888C85.6403 81.5893 86.2843 81.44 86.9936 81.44C87.6283 81.44 88.1976 81.566 88.7016 81.818C89.2056 82.07 89.607 82.462 89.9056 82.994C90.2136 83.526 90.3676 84.2073 90.3676 85.038C90.3676 85.8687 90.2136 86.5547 89.9056 87.096C89.607 87.628 89.2056 88.0247 88.7016 88.286C88.1976 88.538 87.6283 88.664 86.9936 88.664ZM87.2596 87.18C87.6983 87.18 88.0903 87.0913 88.4356 86.914C88.781 86.7273 89.047 86.4753 89.2336 86.158C89.4296 85.8313 89.5276 85.458 89.5276 85.038C89.5276 84.618 89.4296 84.2493 89.2336 83.932C89.047 83.6053 88.781 83.358 88.4356 83.19C88.0903 83.0127 87.6983 82.924 87.2596 82.924C86.821 82.924 86.4243 83.0127 86.0696 83.19C85.7243 83.358 85.4536 83.6053 85.2576 83.932C85.071 84.2493 84.9776 84.618 84.9776 85.038C84.9776 85.458 85.071 85.8313 85.2576 86.158C85.4536 86.4753 85.7243 86.7273 86.0696 86.914C86.4243 87.0913 86.821 87.18 87.2596 87.18ZM97.0643 89.098C96.2337 89.098 95.5057 88.9347 94.8803 88.608C94.2643 88.272 93.7837 87.8147 93.4383 87.236C93.1023 86.6573 92.9343 85.9993 92.9343 85.262C92.9343 84.5153 93.0977 83.8573 93.4243 83.288C93.7603 82.7093 94.2177 82.2567 94.7963 81.93C95.3843 81.6033 96.0517 81.44 96.7983 81.44C97.5263 81.44 98.175 81.5987 98.7443 81.916C99.3137 82.2333 99.7617 82.6813 100.088 83.26C100.415 83.8387 100.578 84.52 100.578 85.304C100.578 85.3787 100.574 85.4627 100.564 85.556C100.564 85.6493 100.56 85.738 100.55 85.822H94.3203V84.66H99.6263L98.9403 85.024C98.9497 84.5947 98.861 84.2167 98.6743 83.89C98.4877 83.5633 98.231 83.3067 97.9043 83.12C97.587 82.9333 97.2183 82.84 96.7983 82.84C96.369 82.84 95.991 82.9333 95.6643 83.12C95.347 83.3067 95.095 83.568 94.9083 83.904C94.731 84.2307 94.6423 84.618 94.6423 85.066V85.346C94.6423 85.794 94.745 86.1907 94.9503 86.536C95.1557 86.8813 95.445 87.1473 95.8183 87.334C96.1917 87.5207 96.621 87.614 97.1063 87.614C97.5263 87.614 97.9043 87.5487 98.2403 87.418C98.5763 87.2873 98.875 87.082 99.1363 86.802L100.074 87.88C99.7383 88.272 99.3137 88.5753 98.8003 88.79C98.2963 88.9953 97.7177 89.098 97.0643 89.098ZM104.569 89.098C103.944 89.098 103.342 89.0187 102.763 88.86C102.194 88.692 101.741 88.4913 101.405 88.258L102.077 86.928C102.413 87.1427 102.815 87.32 103.281 87.46C103.748 87.6 104.215 87.67 104.681 87.67C105.232 87.67 105.629 87.5953 105.871 87.446C106.123 87.2967 106.249 87.096 106.249 86.844C106.249 86.6387 106.165 86.4847 105.997 86.382C105.829 86.27 105.61 86.186 105.339 86.13C105.069 86.074 104.765 86.0227 104.429 85.976C104.103 85.9293 103.771 85.8687 103.435 85.794C103.109 85.71 102.81 85.5933 102.539 85.444C102.269 85.2853 102.049 85.0753 101.881 84.814C101.713 84.5527 101.629 84.2073 101.629 83.778C101.629 83.302 101.765 82.8913 102.035 82.546C102.306 82.1913 102.684 81.9207 103.169 81.734C103.664 81.538 104.247 81.44 104.919 81.44C105.423 81.44 105.932 81.496 106.445 81.608C106.959 81.72 107.383 81.8787 107.719 82.084L107.047 83.414C106.693 83.1993 106.333 83.0547 105.969 82.98C105.615 82.896 105.26 82.854 104.905 82.854C104.373 82.854 103.977 82.9333 103.715 83.092C103.463 83.2507 103.337 83.4513 103.337 83.694C103.337 83.918 103.421 84.086 103.589 84.198C103.757 84.31 103.977 84.3987 104.247 84.464C104.518 84.5293 104.817 84.5853 105.143 84.632C105.479 84.6693 105.811 84.73 106.137 84.814C106.464 84.898 106.763 85.0147 107.033 85.164C107.313 85.304 107.537 85.5047 107.705 85.766C107.873 86.0273 107.957 86.368 107.957 86.788C107.957 87.2547 107.817 87.6607 107.537 88.006C107.267 88.3513 106.879 88.622 106.375 88.818C105.871 89.0047 105.269 89.098 104.569 89.098ZM112.894 89.098C112.11 89.098 111.41 88.9347 110.794 88.608C110.188 88.272 109.712 87.8147 109.366 87.236C109.021 86.6573 108.848 85.9993 108.848 85.262C108.848 84.5153 109.021 83.8573 109.366 83.288C109.712 82.7093 110.188 82.2567 110.794 81.93C111.41 81.6033 112.11 81.44 112.894 81.44C113.622 81.44 114.262 81.5893 114.812 81.888C115.372 82.1773 115.797 82.6067 116.086 83.176L114.742 83.96C114.518 83.6053 114.243 83.344 113.916 83.176C113.599 83.008 113.254 82.924 112.88 82.924C112.451 82.924 112.064 83.0173 111.718 83.204C111.373 83.3907 111.102 83.6613 110.906 84.016C110.71 84.3613 110.612 84.7767 110.612 85.262C110.612 85.7473 110.71 86.1673 110.906 86.522C111.102 86.8673 111.373 87.1333 111.718 87.32C112.064 87.5067 112.451 87.6 112.88 87.6C113.254 87.6 113.599 87.516 113.916 87.348C114.243 87.18 114.518 86.9187 114.742 86.564L116.086 87.348C115.797 87.908 115.372 88.342 114.812 88.65C114.262 88.9487 113.622 89.098 112.894 89.098ZM121.773 81.44C122.37 81.44 122.902 81.5567 123.369 81.79C123.845 82.0233 124.218 82.3827 124.489 82.868C124.759 83.344 124.895 83.96 124.895 84.716V89H123.145V84.94C123.145 84.2773 122.986 83.7827 122.669 83.456C122.361 83.1293 121.927 82.966 121.367 82.966C120.956 82.966 120.592 83.05 120.275 83.218C119.957 83.386 119.71 83.638 119.533 83.974C119.365 84.3007 119.281 84.716 119.281 85.22V89H117.531V78.612H119.281V83.54L118.903 82.924C119.164 82.448 119.542 82.084 120.037 81.832C120.541 81.5707 121.119 81.44 121.773 81.44ZM130.642 89.098C129.812 89.098 129.084 88.9347 128.458 88.608C127.842 88.272 127.362 87.8147 127.016 87.236C126.68 86.6573 126.512 85.9993 126.512 85.262C126.512 84.5153 126.676 83.8573 127.002 83.288C127.338 82.7093 127.796 82.2567 128.374 81.93C128.962 81.6033 129.63 81.44 130.376 81.44C131.104 81.44 131.753 81.5987 132.322 81.916C132.892 82.2333 133.34 82.6813 133.666 83.26C133.993 83.8387 134.156 84.52 134.156 85.304C134.156 85.3787 134.152 85.4627 134.142 85.556C134.142 85.6493 134.138 85.738 134.128 85.822H127.898V84.66H133.204L132.518 85.024C132.528 84.5947 132.439 84.2167 132.252 83.89C132.066 83.5633 131.809 83.3067 131.482 83.12C131.165 82.9333 130.796 82.84 130.376 82.84C129.947 82.84 129.569 82.9333 129.242 83.12C128.925 83.3067 128.673 83.568 128.486 83.904C128.309 84.2307 128.22 84.618 128.22 85.066V85.346C128.22 85.794 128.323 86.1907 128.528 86.536C128.734 86.8813 129.023 87.1473 129.396 87.334C129.77 87.5207 130.199 87.614 130.684 87.614C131.104 87.614 131.482 87.5487 131.818 87.418C132.154 87.2873 132.453 87.082 132.714 86.802L133.652 87.88C133.316 88.272 132.892 88.5753 132.378 88.79C131.874 88.9953 131.296 89.098 130.642 89.098ZM140.079 81.44C140.677 81.44 141.209 81.5567 141.675 81.79C142.151 82.0233 142.525 82.3827 142.795 82.868C143.066 83.344 143.201 83.96 143.201 84.716V89H141.451V84.94C141.451 84.2773 141.293 83.7827 140.975 83.456C140.667 83.1293 140.233 82.966 139.673 82.966C139.263 82.966 138.899 83.05 138.581 83.218C138.264 83.386 138.017 83.638 137.839 83.974C137.671 84.3007 137.587 84.716 137.587 85.22V89H135.837V81.524H137.503V83.54L137.209 82.924C137.471 82.448 137.849 82.084 138.343 81.832C138.847 81.5707 139.426 81.44 140.079 81.44ZM146.849 87.334L146.891 85.136L150.797 81.524H152.897L149.579 84.856L148.655 85.626L146.849 87.334ZM145.421 89V78.612H147.171V89H145.421ZM151.063 89L148.333 85.626L149.439 84.226L153.191 89H151.063ZM157.521 89.098C156.691 89.098 155.963 88.9347 155.337 88.608C154.721 88.272 154.241 87.8147 153.895 87.236C153.559 86.6573 153.391 85.9993 153.391 85.262C153.391 84.5153 153.555 83.8573 153.881 83.288C154.217 82.7093 154.675 82.2567 155.253 81.93C155.841 81.6033 156.509 81.44 157.255 81.44C157.983 81.44 158.632 81.5987 159.201 81.916C159.771 82.2333 160.219 82.6813 160.545 83.26C160.872 83.8387 161.035 84.52 161.035 85.304C161.035 85.3787 161.031 85.4627 161.021 85.556C161.021 85.6493 161.017 85.738 161.007 85.822H154.777V84.66H160.083L159.397 85.024C159.407 84.5947 159.318 84.2167 159.131 83.89C158.945 83.5633 158.688 83.3067 158.361 83.12C158.044 82.9333 157.675 82.84 157.255 82.84C156.826 82.84 156.448 82.9333 156.121 83.12C155.804 83.3067 155.552 83.568 155.365 83.904C155.188 84.2307 155.099 84.618 155.099 85.066V85.346C155.099 85.794 155.202 86.1907 155.407 86.536C155.613 86.8813 155.902 87.1473 156.275 87.334C156.649 87.5207 157.078 87.614 157.563 87.614C157.983 87.614 158.361 87.5487 158.697 87.418C159.033 87.2873 159.332 87.082 159.593 86.802L160.531 87.88C160.195 88.272 159.771 88.5753 159.257 88.79C158.753 88.9953 158.175 89.098 157.521 89.098ZM166.958 81.44C167.556 81.44 168.088 81.5567 168.554 81.79C169.03 82.0233 169.404 82.3827 169.674 82.868C169.945 83.344 170.08 83.96 170.08 84.716V89H168.33V84.94C168.33 84.2773 168.172 83.7827 167.854 83.456C167.546 83.1293 167.112 82.966 166.552 82.966C166.142 82.966 165.778 83.05 165.46 83.218C165.143 83.386 164.896 83.638 164.718 83.974C164.55 84.3007 164.466 84.716 164.466 85.22V89H162.716V81.524H164.382V83.54L164.088 82.924C164.35 82.448 164.728 82.084 165.222 81.832C165.726 81.5707 166.305 81.44 166.958 81.44ZM172.412 85.752L172.076 79.2H174.148L173.798 85.752H172.412ZM173.112 89.098C172.786 89.098 172.515 88.9907 172.3 88.776C172.086 88.5613 171.978 88.3047 171.978 88.006C171.978 87.7073 172.086 87.4553 172.3 87.25C172.515 87.0353 172.786 86.928 173.112 86.928C173.439 86.928 173.705 87.0353 173.91 87.25C174.116 87.4553 174.218 87.7073 174.218 88.006C174.218 88.3047 174.116 88.5613 173.91 88.776C173.705 88.9907 173.439 89.098 173.112 89.098Z" fill="white"/>
</svg>
