<?xml version="1.0" encoding="UTF-8"?><svg id="Layer_2" xmlns="http://www.w3.org/2000/svg" viewBox="0 0 259.54 167.23"><defs><style>.cls-1{fill:#fff;}.cls-2{fill:#40434e;}</style></defs><g id="Layer_1-2"><path class="cls-1" d="M101.3,139.24H7.66C3.42,139.24,0,135.43,0,130.75L.21,8.46C.22,3.78,3.65,0,7.87,0H251.88c4.23,0,7.66,3.79,7.66,8.47v122.23c0,4.68-3.43,8.47-7.66,8.47h-90.37c-2.03,0-3.98,.89-5.42,2.48l-20.88,23.09c-2.99,3.31-7.84,3.31-10.84,0l-23.07-25.51"/><path class="cls-2" d="M243.59,74.63c.63,0,1.21-.1,1.74-.31,.54-.22,1-.52,1.39-.91,.4-.4,.71-.86,.93-1.38,.22-.53,.33-1.11,.33-1.74s-.11-1.2-.33-1.72c-.22-.53-.53-.99-.93-1.38-.39-.4-.85-.7-1.39-.91-.53-.22-1.11-.33-1.74-.33s-1.21,.11-1.75,.33c-.54,.21-1.01,.51-1.41,.91-.39,.39-.7,.85-.93,1.38-.22,.52-.33,1.09-.33,1.72s.11,1.19,.33,1.72c.23,.53,.54,.99,.93,1.39,.4,.39,.87,.69,1.41,.91,.54,.21,1.12,.31,1.75,.31Zm0,.99c-.79,0-1.52-.13-2.2-.39-.67-.27-1.25-.64-1.75-1.12-.49-.49-.87-1.05-1.15-1.69-.27-.65-.4-1.36-.4-2.13s.13-1.47,.4-2.11c.28-.65,.66-1.21,1.15-1.69,.5-.49,1.08-.86,1.75-1.12,.67-.27,1.4-.4,2.2-.4s1.52,.13,2.19,.4c.67,.26,1.25,.63,1.74,1.11,.5,.48,.88,1.04,1.15,1.69,.28,.65,.42,1.36,.42,2.13s-.14,1.48-.42,2.13c-.27,.65-.65,1.21-1.15,1.69-.49,.48-1.07,.85-1.74,1.12-.67,.26-1.4,.39-2.19,.39Zm-15.85-1.05h3.1c.93,0,1.73-.18,2.41-.54,.69-.37,1.22-.87,1.6-1.51,.38-.65,.57-1.39,.57-2.23s-.19-1.59-.57-2.23c-.38-.64-.91-1.14-1.6-1.5-.68-.37-1.48-.55-2.41-.55h-3.1v8.57Zm-1.11,.96v-10.49h4.27c1.12,0,2.1,.22,2.94,.67,.85,.44,1.51,1.05,1.98,1.84,.47,.79,.7,1.7,.7,2.73s-.23,1.94-.7,2.73c-.47,.79-1.13,1.41-1.98,1.86-.84,.44-1.82,.66-2.94,.66h-4.27Zm-10.53-2.8l.33-.9h6.1l.33,.9h-6.76Zm-1.89,2.8l4.79-10.49h1.09l4.79,10.49h-1.17l-4.4-9.84h.45l-4.4,9.84h-1.15Zm-1.03,0l-4.52-5.21,.75-.81,5.09,6.02h-1.32Zm-7.53,0v-10.49h1.11v10.49h-1.11Zm.96-2.61l-.04-1.35,6.35-6.53h1.27l-4.63,4.85-.63,.67-2.32,2.35Zm-10.68-1.14l-.49-.52h3.28c1.05,0,1.84-.23,2.38-.69,.55-.46,.82-1.1,.82-1.93s-.27-1.49-.82-1.95c-.54-.46-1.33-.69-2.38-.69h-3.28l.49-.52v6.31Zm6.05,3.75l-2.7-3.8h1.2l2.71,3.8h-1.21Zm-7.16,0v-10.49h3.92c.89,0,1.65,.14,2.29,.43,.64,.28,1.13,.69,1.47,1.23,.35,.53,.52,1.17,.52,1.93s-.17,1.38-.52,1.92c-.34,.53-.83,.94-1.47,1.23-.64,.28-1.4,.42-2.29,.42h-3.31l.49-.51v3.83h-1.11Zm-8.91-.96h6.31v.96h-7.42v-10.49h7.19v.96h-6.08v8.57Zm-.12-4.84h5.54v.94h-5.54v-.94Zm-7.55,5.8v-9.53h-3.69v-.96h8.48v.96h-3.69v9.53h-1.11Zm-8.22,.09c-.78,0-1.53-.12-2.25-.37-.71-.26-1.26-.59-1.65-.99l.43-.85c.37,.36,.86,.66,1.48,.91,.63,.24,1.29,.36,1.98,.36s1.19-.08,1.6-.24c.42-.17,.72-.39,.91-.67,.2-.28,.3-.59,.3-.93,0-.41-.12-.74-.36-.99-.23-.25-.53-.44-.91-.58-.38-.15-.8-.28-1.26-.39s-.92-.22-1.38-.34c-.46-.13-.88-.3-1.27-.51-.38-.21-.69-.48-.93-.82-.23-.35-.34-.8-.34-1.36,0-.52,.13-.99,.4-1.42,.28-.44,.7-.79,1.27-1.05,.57-.27,1.3-.4,2.19-.4,.59,0,1.17,.08,1.75,.25,.58,.16,1.08,.38,1.5,.67l-.37,.88c-.45-.3-.93-.52-1.44-.66-.5-.14-.98-.21-1.45-.21-.63,0-1.15,.08-1.56,.25-.41,.17-.71,.4-.91,.69-.19,.28-.28,.6-.28,.96,0,.41,.11,.74,.34,.99,.24,.25,.55,.44,.93,.58,.39,.14,.81,.26,1.27,.37,.46,.11,.91,.23,1.36,.36,.46,.13,.88,.3,1.26,.51,.39,.2,.7,.47,.93,.81,.24,.34,.36,.78,.36,1.33,0,.51-.14,.98-.42,1.42-.28,.43-.71,.78-1.29,1.05-.57,.26-1.3,.39-2.2,.39Zm-10.53-9.69c-.22,0-.4-.07-.55-.22-.15-.15-.22-.33-.22-.54s.07-.38,.22-.52c.15-.15,.33-.22,.55-.22s.4,.07,.55,.21,.22,.31,.22,.52-.07,.4-.22,.55c-.14,.15-.32,.22-.55,.22Zm-1.78,12.58c-.32,0-.62-.04-.91-.13-.3-.08-.55-.2-.75-.37l.37-.81c.32,.27,.73,.4,1.23,.4,.42,0,.74-.12,.96-.37,.23-.25,.34-.62,.34-1.11v-8.45h1.06v8.45c0,.73-.2,1.31-.6,1.74-.39,.44-.96,.66-1.71,.66Zm-2.32-12.58c-.22,0-.4-.07-.55-.22s-.22-.33-.22-.54,.07-.38,.22-.52c.15-.15,.33-.22,.55-.22s.4,.07,.55,.21,.22,.31,.22,.52-.07,.4-.22,.55c-.14,.15-.32,.22-.55,.22Zm-.54,9.6v-7.86h1.06v7.86h-1.06Zm-6.17-.87c.56,0,1.06-.12,1.5-.37,.44-.26,.79-.62,1.05-1.08,.26-.47,.39-1.01,.39-1.62s-.13-1.16-.39-1.62-.61-.81-1.05-1.06c-.44-.26-.94-.39-1.5-.39s-1.06,.13-1.51,.39c-.44,.25-.79,.6-1.05,1.06-.25,.46-.37,1-.37,1.62s.12,1.15,.37,1.62c.26,.46,.61,.82,1.05,1.08,.45,.25,.95,.37,1.51,.37Zm-3.98,.87v-11.12h1.06v5.57l-.15,1.59,.1,1.59v2.37h-1.02Zm4.06,.07c-.69,0-1.31-.15-1.86-.46-.55-.32-.98-.78-1.3-1.38s-.48-1.32-.48-2.17,.16-1.58,.48-2.17c.33-.6,.77-1.05,1.32-1.36,.55-.31,1.16-.46,1.84-.46,.75,0,1.42,.17,2.01,.51,.6,.33,1.07,.79,1.41,1.39,.34,.6,.51,1.3,.51,2.1s-.17,1.49-.51,2.1c-.34,.6-.81,1.07-1.41,1.41-.59,.34-1.26,.51-2.01,.51Zm-14.09-8.01c.64,0,1.2,.12,1.68,.37,.49,.24,.87,.61,1.14,1.11,.28,.5,.42,1.13,.42,1.89v4.57h-1.06v-4.46c0-.83-.21-1.45-.63-1.87-.41-.43-.99-.64-1.74-.64-.56,0-1.05,.11-1.47,.34-.41,.22-.73,.54-.96,.97-.22,.42-.33,.93-.33,1.53v4.13h-1.06v-7.86h1.02v2.16l-.16-.4c.25-.57,.65-1.01,1.2-1.33,.55-.33,1.2-.49,1.96-.49Zm-9.71,8.01c-.82,0-1.54-.17-2.16-.51-.62-.35-1.1-.82-1.45-1.42-.35-.61-.52-1.3-.52-2.08s.16-1.47,.49-2.07c.34-.6,.8-1.07,1.38-1.41,.59-.35,1.25-.52,1.98-.52s1.39,.17,1.96,.51c.58,.33,1.03,.8,1.36,1.41,.33,.6,.49,1.29,.49,2.08,0,.05,0,.1-.01,.16v.16h-6.85v-.79h6.28l-.42,.31c0-.57-.12-1.07-.37-1.51-.24-.45-.57-.8-.99-1.05-.42-.25-.9-.37-1.45-.37s-1.02,.12-1.45,.37c-.43,.25-.76,.6-1,1.05-.24,.45-.36,.96-.36,1.54v.16c0,.6,.13,1.13,.39,1.59,.27,.45,.64,.8,1.11,1.06,.48,.25,1.02,.37,1.63,.37,.48,0,.92-.08,1.33-.25,.42-.17,.78-.43,1.08-.78l.6,.69c-.35,.42-.79,.74-1.32,.96-.52,.22-1.09,.33-1.72,.33Zm-5.92-.07l-3.28-4.09,.69-.82,3.89,4.91h-1.3Zm-6.1,0v-11.12h1.06v11.12h-1.06Zm.84-2.04l.03-1.36,4.9-4.46h1.3l-3.46,3.31-.6,.51-2.17,2.01Zm-6.95-5.9c.64,0,1.2,.12,1.68,.37,.49,.24,.87,.61,1.14,1.11,.28,.5,.42,1.13,.42,1.89v4.57h-1.06v-4.46c0-.83-.21-1.45-.63-1.87-.41-.43-.99-.64-1.74-.64-.56,0-1.05,.11-1.47,.34-.41,.22-.73,.54-.96,.97-.22,.42-.33,.93-.33,1.53v4.13h-1.06v-7.86h1.02v2.16l-.16-.4c.25-.57,.65-1.01,1.2-1.33,.55-.33,1.2-.49,1.96-.49Zm-9.71,8.01c-.82,0-1.54-.17-2.16-.51-.62-.35-1.1-.82-1.45-1.42-.35-.61-.52-1.3-.52-2.08s.16-1.47,.49-2.07c.34-.6,.8-1.07,1.38-1.41,.59-.35,1.25-.52,1.98-.52s1.39,.17,1.96,.51c.58,.33,1.03,.8,1.36,1.41,.33,.6,.49,1.29,.49,2.08,0,.05,0,.1-.01,.16v.16h-6.85v-.79h6.28l-.42,.31c0-.57-.12-1.07-.37-1.51-.24-.45-.57-.8-.99-1.05-.42-.25-.9-.37-1.45-.37s-1.02,.12-1.45,.37c-.43,.25-.76,.6-1,1.05s-.36,.96-.36,1.54v.16c0,.6,.13,1.13,.39,1.59,.27,.45,.64,.8,1.11,1.06,.48,.25,1.02,.37,1.63,.37,.48,0,.92-.08,1.33-.25,.42-.17,.78-.43,1.08-.78l.6,.69c-.35,.42-.79,.74-1.32,.96-.52,.22-1.09,.33-1.72,.33Zm-9.45-8.01c.64,0,1.2,.12,1.68,.37,.49,.24,.87,.61,1.14,1.11,.28,.5,.42,1.13,.42,1.89v4.57h-1.06v-4.46c0-.83-.21-1.45-.63-1.87-.41-.43-.99-.64-1.74-.64-.56,0-1.05,.11-1.47,.34-.41,.22-.73,.54-.96,.97-.22,.42-.33,.93-.33,1.53v4.13h-1.06v-11.12h1.06v5.41l-.21-.4c.25-.57,.65-1.01,1.2-1.33,.55-.33,1.2-.49,1.96-.49Zm-9.07,8.01c-.78,0-1.48-.17-2.1-.51-.61-.35-1.09-.82-1.44-1.42-.35-.61-.52-1.3-.52-2.08s.17-1.48,.52-2.08,.83-1.07,1.44-1.41c.62-.34,1.32-.51,2.1-.51,.67,0,1.27,.13,1.81,.39,.54,.26,.96,.65,1.27,1.17l-.79,.54c-.27-.4-.6-.69-1-.88-.4-.19-.83-.28-1.3-.28-.56,0-1.06,.13-1.51,.39-.45,.25-.8,.6-1.06,1.06s-.39,1-.39,1.62,.13,1.16,.39,1.62c.26,.46,.61,.82,1.06,1.08,.45,.25,.95,.37,1.51,.37,.47,0,.9-.09,1.3-.28,.4-.19,.73-.48,1-.87l.79,.54c-.31,.51-.73,.9-1.27,1.17-.54,.26-1.14,.39-1.81,.39Zm-8.47,0c-.65,0-1.26-.09-1.84-.27-.58-.19-1.03-.42-1.36-.7l.48-.84c.32,.24,.73,.45,1.23,.63,.5,.17,1.02,.25,1.57,.25,.75,0,1.29-.11,1.62-.34,.33-.24,.49-.55,.49-.94,0-.29-.09-.51-.28-.67-.18-.17-.42-.29-.72-.37-.3-.09-.63-.16-1-.22-.37-.06-.74-.13-1.11-.21-.36-.08-.69-.19-.99-.34-.3-.16-.54-.37-.73-.64-.18-.27-.27-.63-.27-1.08s.12-.81,.36-1.15,.59-.6,1.05-.79c.47-.2,1.04-.3,1.71-.3,.51,0,1.02,.07,1.53,.21,.51,.13,.93,.3,1.26,.52l-.46,.85c-.35-.24-.72-.41-1.12-.51-.4-.11-.8-.16-1.2-.16-.71,0-1.23,.12-1.57,.37-.33,.24-.49,.55-.49,.93,0,.3,.09,.53,.27,.7,.19,.17,.43,.3,.73,.4,.31,.09,.64,.16,1,.22,.37,.06,.73,.13,1.09,.22,.37,.08,.7,.19,1,.34,.31,.14,.55,.34,.73,.61,.19,.26,.28,.6,.28,1.03,0,.46-.13,.86-.39,1.2-.25,.33-.62,.59-1.11,.78-.48,.18-1.06,.27-1.75,.27Zm-7.81,0c-.82,0-1.54-.17-2.16-.51-.62-.35-1.1-.82-1.45-1.42-.35-.61-.52-1.3-.52-2.08s.16-1.47,.49-2.07c.34-.6,.8-1.07,1.38-1.41,.59-.35,1.25-.52,1.98-.52s1.39,.17,1.96,.51c.58,.33,1.03,.8,1.36,1.41,.33,.6,.49,1.29,.49,2.08,0,.05,0,.1-.01,.16v.16h-6.85v-.79h6.28l-.42,.31c0-.57-.12-1.07-.37-1.51-.24-.45-.57-.8-.99-1.05-.42-.25-.9-.37-1.45-.37s-1.02,.12-1.45,.37c-.43,.25-.76,.6-1,1.05s-.36,.96-.36,1.54v.16c0,.6,.13,1.13,.39,1.59,.27,.45,.64,.8,1.11,1.06,.48,.25,1.02,.37,1.63,.37,.48,0,.92-.08,1.33-.25,.42-.17,.78-.43,1.08-.78l.6,.69c-.35,.42-.79,.74-1.32,.96-.52,.22-1.09,.33-1.72,.33Zm-10.33-1.32c.58,0,1.09-.12,1.54-.36,.45-.25,.8-.59,1.06-1.02,.26-.44,.39-.94,.39-1.51s-.13-1.07-.39-1.5c-.26-.43-.61-.76-1.06-1-.45-.25-.96-.37-1.54-.37s-1.08,.12-1.54,.37c-.45,.24-.8,.57-1.06,1-.25,.43-.37,.93-.37,1.5s.12,1.07,.37,1.51c.26,.43,.61,.77,1.06,1.02,.46,.24,.97,.36,1.54,.36Zm-.1,.94c-.75,0-1.42-.16-2.02-.48-.6-.33-1.07-.78-1.42-1.36-.34-.58-.51-1.24-.51-1.99s.17-1.41,.51-1.98c.35-.58,.82-1.03,1.42-1.35,.6-.32,1.27-.48,2.02-.48,.7,0,1.33,.14,1.89,.43,.56,.29,1,.72,1.33,1.29,.33,.57,.49,1.26,.49,2.08s-.16,1.51-.49,2.08-.77,1-1.33,1.3c-.56,.3-1.19,.45-1.89,.45Zm.19,3.28c-.72,0-1.41-.1-2.07-.31-.66-.21-1.19-.51-1.6-.9l.54-.81c.37,.33,.82,.59,1.36,.78,.55,.2,1.13,.3,1.74,.3,1,0,1.73-.23,2.2-.7,.47-.46,.7-1.18,.7-2.16v-1.96l.15-1.35-.1-1.35v-2.38h1.02v6.91c0,1.36-.33,2.35-1,2.98-.66,.64-1.64,.96-2.94,.96Zm-10.39-9.96v-.88h4.87v.88h-4.87Zm3.72,7.06c-.74,0-1.31-.2-1.71-.6-.4-.4-.6-.96-.6-1.69v-7.39h1.06v7.33c0,.46,.11,.81,.34,1.06,.24,.25,.58,.37,1.02,.37,.47,0,.86-.13,1.17-.4l.37,.76c-.21,.19-.46,.33-.76,.42-.29,.09-.59,.13-.9,.13Zm-7.69,0c-.65,0-1.26-.09-1.84-.27-.58-.19-1.03-.42-1.36-.7l.48-.84c.32,.24,.73,.45,1.23,.63,.5,.17,1.02,.25,1.57,.25,.75,0,1.29-.11,1.62-.34,.33-.24,.49-.55,.49-.94,0-.29-.09-.51-.28-.67-.18-.17-.42-.29-.72-.37-.3-.09-.63-.16-1-.22-.37-.06-.74-.13-1.11-.21-.36-.08-.69-.19-.99-.34-.3-.16-.54-.37-.73-.64-.18-.27-.27-.63-.27-1.08s.12-.81,.36-1.15,.59-.6,1.05-.79c.47-.2,1.04-.3,1.71-.3,.51,0,1.02,.07,1.53,.21,.51,.13,.93,.3,1.26,.52l-.46,.85c-.35-.24-.72-.41-1.12-.51-.4-.11-.8-.16-1.2-.16-.71,0-1.23,.12-1.57,.37-.33,.24-.49,.55-.49,.93,0,.3,.09,.53,.27,.7,.19,.17,.43,.3,.73,.4,.31,.09,.64,.16,1,.22,.37,.06,.73,.13,1.09,.22,.37,.08,.7,.19,1,.34,.31,.14,.55,.34,.73,.61,.19,.26,.28,.6,.28,1.03,0,.46-.13,.86-.39,1.2-.25,.33-.62,.59-1.11,.78-.48,.18-1.06,.27-1.75,.27Zm-8.1-.07v-7.86h1.02v2.14l-.1-.37c.22-.6,.59-1.05,1.11-1.36,.52-.32,1.16-.48,1.93-.48v1.03h-.12s-.08-.01-.12-.01c-.83,0-1.48,.25-1.95,.76-.47,.5-.7,1.21-.7,2.14v4.01h-1.06Zm-5.7,.07c-.82,0-1.54-.17-2.16-.51-.62-.35-1.1-.82-1.45-1.42-.35-.61-.52-1.3-.52-2.08s.16-1.47,.49-2.07c.34-.6,.8-1.07,1.38-1.41,.59-.35,1.25-.52,1.98-.52s1.39,.17,1.96,.51c.58,.33,1.03,.8,1.36,1.41,.33,.6,.49,1.29,.49,2.08,0,.05,0,.1-.01,.16v.16h-6.85v-.79h6.28l-.42,.31c0-.57-.12-1.07-.37-1.51-.24-.45-.57-.8-.99-1.05-.42-.25-.9-.37-1.45-.37s-1.02,.12-1.45,.37c-.43,.25-.76,.6-1,1.05s-.36,.96-.36,1.54v.16c0,.6,.13,1.13,.39,1.59,.27,.45,.64,.8,1.11,1.06,.48,.25,1.02,.37,1.63,.37,.48,0,.92-.08,1.33-.25,.42-.17,.78-.43,1.08-.78l.6,.69c-.35,.42-.79,.74-1.32,.96-.52,.22-1.09,.33-1.72,.33Zm-5.92-.07l-3.28-4.09,.69-.82,3.89,4.91h-1.3Zm-6.1,0v-11.12h1.06v11.12h-1.06Zm.84-2.04l.03-1.36,4.9-4.46h1.3l-3.46,3.31-.6,.51-2.17,2.01Zm203.24-17.86c-.82,0-1.54-.17-2.16-.51-.62-.35-1.1-.82-1.45-1.42-.35-.61-.52-1.3-.52-2.08s.16-1.47,.49-2.07c.34-.6,.8-1.07,1.38-1.41,.59-.35,1.25-.52,1.98-.52s1.39,.17,1.96,.51c.58,.33,1.03,.8,1.36,1.41,.33,.6,.49,1.29,.49,2.08,0,.05,0,.1-.01,.16v.16h-6.85v-.79h6.28l-.42,.31c0-.57-.12-1.07-.37-1.51-.24-.45-.57-.8-.99-1.05-.42-.25-.9-.37-1.45-.37s-1.02,.12-1.45,.37-.76,.6-1,1.05c-.24,.45-.36,.96-.36,1.54v.16c0,.6,.13,1.13,.39,1.59,.27,.45,.64,.8,1.11,1.06,.48,.25,1.02,.37,1.63,.37,.48,0,.92-.08,1.33-.25,.42-.17,.78-.43,1.08-.78l.6,.69c-.35,.42-.79,.74-1.32,.96-.52,.22-1.09,.33-1.72,.33Zm-11.71-.07v-.7l5.24-6.64,.22,.36h-5.38v-.88h6.22v.69l-5.23,6.65-.27-.36h5.6v.88h-6.41Zm-5.25-7.94c.64,0,1.2,.12,1.68,.37,.49,.24,.87,.61,1.14,1.11,.28,.5,.42,1.13,.42,1.89v4.57h-1.06v-4.46c0-.83-.21-1.45-.63-1.87-.41-.43-.99-.64-1.74-.64-.56,0-1.05,.11-1.47,.34-.41,.22-.73,.54-.96,.97-.22,.42-.33,.93-.33,1.53v4.13h-1.06v-7.86h1.02v2.16l-.16-.4c.25-.57,.65-1.01,1.2-1.33,.55-.33,1.2-.49,1.96-.49Zm-10.2,7.07c.57,0,1.07-.12,1.51-.37,.44-.26,.78-.62,1.03-1.08,.26-.47,.39-1.01,.39-1.62s-.13-1.16-.39-1.62c-.25-.46-.59-.81-1.03-1.06-.44-.26-.94-.39-1.5-.39s-1.06,.13-1.5,.39c-.44,.25-.79,.6-1.05,1.06s-.39,1-.39,1.62,.13,1.15,.39,1.62c.26,.46,.61,.82,1.05,1.08,.44,.25,.93,.37,1.48,.37Zm0,.94c-.76,0-1.44-.17-2.05-.51-.6-.35-1.07-.82-1.42-1.42-.35-.61-.52-1.3-.52-2.08s.17-1.48,.52-2.08c.35-.6,.82-1.07,1.42-1.41,.6-.34,1.28-.51,2.05-.51s1.47,.17,2.07,.51c.61,.34,1.08,.81,1.42,1.41,.35,.6,.52,1.29,.52,2.08s-.17,1.47-.52,2.08c-.34,.6-.81,1.07-1.42,1.42-.61,.34-1.3,.51-2.07,.51Zm-11.11-.07v-2.37l.1-1.59-.15-1.59v-5.57h1.06v11.12h-1.02Zm-2.97-.87c.56,0,1.06-.12,1.5-.37,.45-.26,.8-.62,1.05-1.08,.26-.47,.39-1.01,.39-1.62s-.13-1.16-.39-1.62c-.25-.46-.6-.81-1.05-1.06-.44-.26-.94-.39-1.5-.39s-1.04,.13-1.48,.39c-.44,.25-.79,.6-1.05,1.06s-.39,1-.39,1.62,.13,1.15,.39,1.62c.26,.46,.61,.82,1.05,1.08,.44,.25,.93,.37,1.48,.37Zm-.07,.94c-.75,0-1.42-.17-2.02-.51-.59-.34-1.05-.81-1.39-1.41-.34-.61-.51-1.31-.51-2.1s.17-1.5,.51-2.1c.34-.6,.8-1.06,1.39-1.39,.6-.34,1.27-.51,2.02-.51,.69,0,1.3,.15,1.84,.46,.55,.31,.98,.76,1.3,1.36,.33,.59,.49,1.31,.49,2.17s-.16,1.57-.48,2.17c-.32,.6-.75,1.06-1.3,1.38-.54,.31-1.16,.46-1.86,.46Zm-6.61-9.68c-.22,0-.4-.07-.55-.22s-.22-.33-.22-.54,.07-.38,.22-.52c.15-.15,.33-.22,.55-.22s.4,.07,.55,.21,.22,.31,.22,.52-.07,.4-.22,.55c-.14,.15-.32,.22-.55,.22Zm-.54,9.6v-7.86h1.06v7.86h-1.06Zm-5.7,.07c-.82,0-1.54-.17-2.16-.51-.62-.35-1.1-.82-1.45-1.42-.35-.61-.52-1.3-.52-2.08s.16-1.47,.49-2.07c.34-.6,.8-1.07,1.38-1.41,.59-.35,1.25-.52,1.98-.52s1.39,.17,1.96,.51c.58,.33,1.03,.8,1.36,1.41,.33,.6,.49,1.29,.49,2.08,0,.05,0,.1-.01,.16v.16h-6.85v-.79h6.28l-.42,.31c0-.57-.12-1.07-.37-1.51-.24-.45-.57-.8-.99-1.05-.42-.25-.9-.37-1.45-.37s-1.02,.12-1.45,.37-.76,.6-1,1.05c-.24,.45-.36,.96-.36,1.54v.16c0,.6,.13,1.13,.39,1.59,.27,.45,.64,.8,1.11,1.06,.48,.25,1.02,.37,1.63,.37,.48,0,.92-.08,1.33-.25,.42-.17,.78-.43,1.08-.78l.6,.69c-.35,.42-.79,.74-1.32,.96-.52,.22-1.09,.33-1.72,.33Zm-9.45-8.01c.64,0,1.2,.12,1.68,.37,.49,.24,.87,.61,1.14,1.11,.28,.5,.42,1.13,.42,1.89v4.57h-1.06v-4.46c0-.83-.21-1.45-.63-1.87-.41-.43-.99-.64-1.74-.64-.56,0-1.05,.11-1.47,.34-.41,.22-.73,.54-.96,.97-.22,.42-.33,.93-.33,1.53v4.13h-1.06v-11.12h1.06v5.41l-.21-.4c.25-.57,.65-1.01,1.2-1.33,.55-.33,1.2-.49,1.96-.49Zm-10.12,0c.64,0,1.2,.12,1.68,.37,.49,.24,.87,.61,1.14,1.11,.28,.5,.42,1.13,.42,1.89v4.57h-1.06v-4.46c0-.83-.21-1.45-.63-1.87-.41-.43-.99-.64-1.74-.64-.56,0-1.05,.11-1.47,.34-.41,.22-.73,.54-.96,.97-.22,.42-.33,.93-.33,1.53v4.13h-1.06v-7.86h1.02v2.16l-.16-.4c.25-.57,.65-1.01,1.2-1.33,.55-.33,1.2-.49,1.96-.49Zm-9.71,8.01c-.82,0-1.54-.17-2.16-.51-.62-.35-1.1-.82-1.45-1.42-.35-.61-.52-1.3-.52-2.08s.16-1.47,.49-2.07c.34-.6,.8-1.07,1.38-1.41,.59-.35,1.25-.52,1.98-.52s1.39,.17,1.96,.51c.58,.33,1.03,.8,1.36,1.41,.33,.6,.49,1.29,.49,2.08,0,.05,0,.1-.01,.16v.16h-6.85v-.79h6.28l-.42,.31c0-.57-.12-1.07-.37-1.51-.24-.45-.57-.8-.99-1.05-.42-.25-.9-.37-1.45-.37s-1.02,.12-1.45,.37-.76,.6-1,1.05c-.24,.45-.36,.96-.36,1.54v.16c0,.6,.13,1.13,.39,1.59,.27,.45,.64,.8,1.11,1.06,.48,.25,1.02,.37,1.63,.37,.48,0,.92-.08,1.33-.25,.42-.17,.78-.43,1.08-.78l.6,.69c-.35,.42-.79,.74-1.32,.96-.52,.22-1.09,.33-1.72,.33Zm-7.32-.07v-2.37l.1-1.59-.15-1.59v-5.57h1.06v11.12h-1.02Zm-2.97-.87c.56,0,1.06-.12,1.5-.37,.45-.26,.8-.62,1.05-1.08,.26-.47,.39-1.01,.39-1.62s-.13-1.16-.39-1.62c-.25-.46-.6-.81-1.05-1.06-.44-.26-.94-.39-1.5-.39s-1.04,.13-1.48,.39c-.44,.25-.79,.6-1.05,1.06-.26,.46-.39,1-.39,1.62s.13,1.15,.39,1.62c.26,.46,.61,.82,1.05,1.08,.44,.25,.93,.37,1.48,.37Zm-.07,.94c-.75,0-1.42-.17-2.02-.51-.59-.34-1.05-.81-1.39-1.41-.34-.61-.51-1.31-.51-2.1s.17-1.5,.51-2.1c.34-.6,.8-1.06,1.39-1.39,.6-.34,1.27-.51,2.02-.51,.69,0,1.3,.15,1.84,.46,.55,.31,.98,.76,1.3,1.36,.33,.59,.49,1.31,.49,2.17s-.16,1.57-.48,2.17c-.32,.6-.75,1.06-1.3,1.38-.54,.31-1.16,.46-1.86,.46Zm-8.83,0c-.82,0-1.54-.17-2.16-.51-.62-.35-1.1-.82-1.45-1.42-.35-.61-.52-1.3-.52-2.08s.16-1.47,.49-2.07c.34-.6,.8-1.07,1.38-1.41,.59-.35,1.25-.52,1.98-.52s1.39,.17,1.96,.51c.58,.33,1.03,.8,1.36,1.41,.33,.6,.49,1.29,.49,2.08,0,.05,0,.1-.01,.16v.16h-6.85v-.79h6.28l-.42,.31c0-.57-.12-1.07-.37-1.51-.24-.45-.57-.8-.99-1.05-.42-.25-.9-.37-1.45-.37s-1.02,.12-1.45,.37c-.43,.25-.76,.6-1,1.05-.24,.45-.36,.96-.36,1.54v.16c0,.6,.13,1.13,.39,1.59,.27,.45,.64,.8,1.11,1.06,.48,.25,1.02,.37,1.63,.37,.48,0,.92-.08,1.33-.25,.42-.17,.78-.43,1.08-.78l.6,.69c-.35,.42-.79,.74-1.32,.96-.52,.22-1.09,.33-1.72,.33Zm-9.16-.07v-7.86h1.02v2.14l-.1-.37c.22-.6,.59-1.05,1.11-1.36,.52-.32,1.16-.48,1.93-.48v1.03h-.12s-.08-.01-.12-.01c-.83,0-1.48,.25-1.95,.76-.47,.5-.7,1.21-.7,2.14v4.01h-1.06Zm-6.1,0l-3.49-7.86h1.11l3.21,7.3h-.52l3.25-7.3h1.05l-3.51,7.86h-1.09Zm-7.58,.07c-.82,0-1.54-.17-2.16-.51-.62-.35-1.1-.82-1.45-1.42-.35-.61-.52-1.3-.52-2.08s.16-1.47,.49-2.07c.34-.6,.8-1.07,1.38-1.41,.59-.35,1.25-.52,1.98-.52s1.39,.17,1.96,.51c.58,.33,1.03,.8,1.36,1.41,.33,.6,.49,1.29,.49,2.08,0,.05,0,.1-.01,.16v.16h-6.85v-.79h6.28l-.42,.31c0-.57-.12-1.07-.37-1.51-.24-.45-.57-.8-.99-1.05s-.9-.37-1.45-.37-1.02,.12-1.45,.37-.76,.6-1,1.05c-.24,.45-.36,.96-.36,1.54v.16c0,.6,.13,1.13,.39,1.59,.27,.45,.64,.8,1.11,1.06,.48,.25,1.02,.37,1.63,.37,.48,0,.92-.08,1.33-.25,.42-.17,.78-.43,1.08-.78l.6,.69c-.35,.42-.79,.74-1.32,.96-.52,.22-1.09,.33-1.72,.33Zm-10.38-7.06v-.88h4.87v.88h-4.87Zm3.72,7.06c-.74,0-1.31-.2-1.71-.6-.4-.4-.6-.96-.6-1.69v-7.39h1.06v7.33c0,.46,.11,.81,.34,1.06,.24,.25,.58,.37,1.02,.37,.47,0,.86-.13,1.17-.4l.37,.76c-.21,.19-.46,.33-.76,.42-.29,.09-.59,.13-.9,.13Zm-12.11,0c-.82,0-1.54-.17-2.16-.51-.62-.35-1.1-.82-1.45-1.42-.35-.61-.52-1.3-.52-2.08s.16-1.47,.49-2.07c.34-.6,.8-1.07,1.38-1.41,.59-.35,1.25-.52,1.98-.52s1.39,.17,1.96,.51c.58,.33,1.03,.8,1.36,1.41,.33,.6,.49,1.29,.49,2.08,0,.05,0,.1-.01,.16v.16h-6.85v-.79h6.28l-.42,.31c0-.57-.12-1.07-.37-1.51-.24-.45-.57-.8-.99-1.05s-.9-.37-1.45-.37-1.02,.12-1.45,.37-.76,.6-1,1.05c-.24,.45-.36,.96-.36,1.54v.16c0,.6,.13,1.13,.39,1.59,.27,.45,.64,.8,1.11,1.06,.48,.25,1.02,.37,1.63,.37,.48,0,.92-.08,1.33-.25,.42-.17,.78-.43,1.08-.78l.6,.69c-.35,.42-.79,.74-1.32,.96-.52,.22-1.09,.33-1.72,.33Zm-10.38-7.06v-.88h4.87v.88h-4.87Zm3.72,7.06c-.74,0-1.31-.2-1.71-.6-.4-.4-.6-.96-.6-1.69v-7.39h1.06v7.33c0,.46,.11,.81,.34,1.06,.24,.25,.58,.37,1.02,.37,.47,0,.86-.13,1.17-.4l.37,.76c-.21,.19-.46,.33-.76,.42-.29,.09-.59,.13-.9,.13Zm-8.67-.94c.57,0,1.07-.12,1.51-.37,.44-.26,.78-.62,1.03-1.08,.26-.47,.39-1.01,.39-1.62s-.13-1.16-.39-1.62c-.25-.46-.59-.81-1.03-1.06-.44-.26-.94-.39-1.5-.39s-1.06,.13-1.5,.39c-.44,.25-.79,.6-1.05,1.06-.26,.46-.39,1-.39,1.62s.13,1.15,.39,1.62c.26,.46,.61,.82,1.05,1.08,.44,.25,.93,.37,1.48,.37Zm0,.94c-.76,0-1.44-.17-2.05-.51-.6-.35-1.07-.82-1.42-1.42-.35-.61-.52-1.3-.52-2.08s.17-1.48,.52-2.08c.35-.6,.82-1.07,1.42-1.41,.6-.34,1.28-.51,2.05-.51s1.47,.17,2.07,.51c.61,.34,1.08,.81,1.42,1.41,.35,.6,.52,1.29,.52,2.08s-.17,1.47-.52,2.08c-.34,.6-.81,1.07-1.42,1.42-.61,.34-1.3,.51-2.07,.51Zm-9.03-.07v-7.86h1.02v2.14l-.1-.37c.22-.6,.59-1.05,1.11-1.36,.52-.32,1.16-.48,1.93-.48v1.03h-.12s-.08-.01-.12-.01c-.83,0-1.48,.25-1.95,.76-.47,.5-.7,1.21-.7,2.14v4.01h-1.06Zm-6.99-1.24c.58,0,1.09-.12,1.54-.36,.45-.25,.8-.59,1.06-1.02,.26-.44,.39-.94,.39-1.51s-.13-1.07-.39-1.5-.61-.76-1.06-1c-.45-.25-.96-.37-1.54-.37s-1.08,.12-1.54,.37c-.45,.24-.8,.57-1.06,1-.25,.43-.37,.93-.37,1.5s.12,1.07,.37,1.51c.26,.43,.61,.77,1.06,1.02,.46,.24,.97,.36,1.54,.36Zm-.1,.94c-.75,0-1.42-.16-2.02-.48-.6-.33-1.07-.78-1.42-1.36-.34-.58-.51-1.24-.51-1.99s.17-1.41,.51-1.98c.35-.58,.82-1.03,1.42-1.35,.6-.32,1.27-.48,2.02-.48,.7,0,1.33,.14,1.89,.43s1,.72,1.33,1.29c.33,.57,.49,1.26,.49,2.08s-.16,1.51-.49,2.08c-.33,.57-.77,1-1.33,1.3-.56,.3-1.19,.45-1.89,.45Zm.19,3.28c-.72,0-1.41-.1-2.07-.31-.66-.21-1.19-.51-1.6-.9l.54-.81c.37,.33,.82,.59,1.36,.78,.55,.2,1.13,.3,1.74,.3,1,0,1.73-.23,2.2-.7,.47-.46,.7-1.18,.7-2.16v-1.96l.15-1.35-.1-1.35v-2.38h1.02v6.91c0,1.36-.33,2.35-1,2.98-.66,.64-1.64,.96-2.94,.96Zm-14.59-9.96v-.88h4.87v.88h-4.87Zm3.72,7.06c-.74,0-1.31-.2-1.71-.6-.4-.4-.6-.96-.6-1.69v-7.39h1.06v7.33c0,.46,.11,.81,.34,1.06,.24,.25,.58,.37,1.02,.37,.47,0,.86-.13,1.17-.4l.37,.76c-.21,.19-.46,.33-.76,.42-.29,.09-.59,.13-.9,.13Zm-8.67-.94c.57,0,1.07-.12,1.51-.37,.44-.26,.78-.62,1.03-1.08,.26-.47,.39-1.01,.39-1.62s-.13-1.16-.39-1.62c-.25-.46-.59-.81-1.03-1.06-.44-.26-.94-.39-1.5-.39s-1.06,.13-1.5,.39c-.44,.25-.79,.6-1.05,1.06-.26,.46-.39,1-.39,1.62s.13,1.15,.39,1.62c.26,.46,.61,.82,1.05,1.08,.44,.25,.93,.37,1.48,.37Zm0,.94c-.76,0-1.44-.17-2.05-.51-.6-.35-1.07-.82-1.42-1.42-.35-.61-.52-1.3-.52-2.08s.17-1.48,.52-2.08c.35-.6,.82-1.07,1.42-1.41s1.28-.51,2.05-.51,1.47,.17,2.07,.51c.61,.34,1.08,.81,1.42,1.41,.35,.6,.52,1.29,.52,2.08s-.17,1.47-.52,2.08c-.34,.6-.81,1.07-1.42,1.42-.61,.34-1.3,.51-2.07,.51Zm-10.24-7.06v-.88h4.87v.88h-4.87Zm3.72,7.06c-.74,0-1.31-.2-1.71-.6-.4-.4-.6-.96-.6-1.69v-7.39h1.06v7.33c0,.46,.11,.81,.34,1.06,.24,.25,.58,.37,1.02,.37,.47,0,.86-.13,1.17-.4l.37,.76c-.21,.19-.46,.33-.76,.42-.29,.09-.59,.13-.9,.13ZM213.01,25.98c-.22,0-.4-.07-.55-.22-.15-.15-.22-.33-.22-.54s.07-.38,.22-.52c.15-.15,.33-.22,.55-.22s.4,.07,.55,.21,.22,.31,.22,.52-.07,.4-.22,.55c-.14,.15-.32,.22-.55,.22Zm-1.78,12.58c-.32,0-.62-.04-.91-.13-.3-.08-.55-.2-.75-.37l.37-.81c.32,.27,.73,.4,1.23,.4,.42,0,.74-.12,.96-.37,.23-.25,.34-.62,.34-1.11v-8.45h1.06v8.45c0,.73-.2,1.31-.6,1.74-.39,.44-.96,.66-1.71,.66Zm-2.32-12.58c-.22,0-.4-.07-.55-.22s-.22-.33-.22-.54,.07-.38,.22-.52c.15-.15,.33-.22,.55-.22s.4,.07,.55,.21,.22,.31,.22,.52-.07,.4-.22,.55c-.14,.15-.32,.22-.55,.22Zm-.54,9.6v-7.86h1.06v7.86h-1.06Zm-11.56,0l-2.97-7.86h1.02l2.7,7.3h-.46l2.77-7.3h.91l2.74,7.3h-.46l2.74-7.3h.97l-2.98,7.86h-1l-2.64-6.86h.31l-2.65,6.86h-1Zm-11.63-7.94c.64,0,1.2,.12,1.68,.37,.49,.24,.87,.61,1.14,1.11,.28,.5,.42,1.13,.42,1.89v4.57h-1.06v-4.46c0-.83-.21-1.45-.63-1.87-.41-.43-.99-.64-1.74-.64-.56,0-1.05,.11-1.47,.34-.41,.22-.73,.54-.96,.97-.22,.42-.33,.93-.33,1.53v4.13h-1.06v-7.86h1.02v2.16l-.16-.4c.25-.57,.65-1.01,1.2-1.33,.55-.33,1.2-.49,1.96-.49Zm-9.71,8.01c-.82,0-1.54-.17-2.16-.51-.62-.35-1.1-.82-1.45-1.42-.35-.61-.52-1.3-.52-2.08s.16-1.47,.49-2.07c.34-.6,.8-1.07,1.38-1.41,.59-.35,1.25-.52,1.98-.52s1.39,.17,1.96,.51c.58,.33,1.03,.8,1.36,1.41,.33,.6,.49,1.29,.49,2.08,0,.05,0,.1-.01,.16v.16h-6.85v-.79h6.28l-.42,.31c0-.57-.12-1.07-.37-1.51-.24-.45-.57-.8-.99-1.05-.42-.25-.9-.37-1.45-.37s-1.02,.12-1.45,.37c-.43,.25-.76,.6-1,1.05-.24,.45-.36,.96-.36,1.54v.16c0,.6,.13,1.13,.39,1.59,.27,.45,.64,.8,1.11,1.06,.48,.25,1.02,.37,1.63,.37,.48,0,.92-.08,1.33-.25,.42-.17,.78-.43,1.08-.78l.6,.69c-.35,.42-.79,.74-1.32,.96-.52,.22-1.09,.33-1.72,.33Zm-7.36-.07v-11.12h1.06v11.12h-1.06Zm-4.02,0v-11.12h1.06v11.12h-1.06Zm-5.7,.07c-.82,0-1.54-.17-2.16-.51-.62-.35-1.1-.82-1.45-1.42-.35-.61-.52-1.3-.52-2.08s.16-1.47,.49-2.07c.34-.6,.8-1.07,1.38-1.41,.59-.35,1.25-.52,1.98-.52s1.39,.17,1.96,.51c.58,.33,1.03,.8,1.36,1.41,.33,.6,.49,1.29,.49,2.08,0,.05,0,.1-.01,.16v.16h-6.85v-.79h6.28l-.42,.31c0-.57-.12-1.07-.37-1.51-.24-.45-.57-.8-.99-1.05-.42-.25-.9-.37-1.45-.37s-1.02,.12-1.45,.37c-.43,.25-.76,.6-1,1.05-.24,.45-.36,.96-.36,1.54v.16c0,.6,.13,1.13,.39,1.59,.27,.45,.64,.8,1.11,1.06,.48,.25,1.02,.37,1.63,.37,.48,0,.92-.08,1.33-.25,.42-.17,.78-.43,1.08-.78l.6,.69c-.35,.42-.79,.74-1.32,.96-.52,.22-1.09,.33-1.72,.33Zm-10.38-7.06v-.88h4.87v.88h-4.87Zm3.72,7.06c-.74,0-1.31-.2-1.71-.6s-.6-.96-.6-1.69v-7.39h1.06v7.33c0,.46,.11,.81,.34,1.06,.24,.25,.58,.37,1.02,.37,.47,0,.86-.13,1.17-.4l.37,.76c-.21,.19-.46,.33-.76,.42-.29,.09-.59,.13-.9,.13Zm-7.69,0c-.65,0-1.26-.09-1.84-.27-.58-.19-1.03-.42-1.36-.7l.48-.84c.32,.24,.73,.45,1.23,.63,.5,.17,1.02,.25,1.57,.25,.75,0,1.29-.11,1.62-.34,.33-.24,.49-.55,.49-.94,0-.29-.09-.51-.28-.67-.18-.17-.42-.29-.72-.37-.3-.09-.63-.16-1-.22-.37-.06-.74-.13-1.11-.21-.36-.08-.69-.19-.99-.34-.3-.16-.54-.37-.73-.64-.18-.27-.27-.63-.27-1.08s.12-.81,.36-1.15c.24-.34,.59-.6,1.05-.79,.47-.2,1.04-.3,1.71-.3,.51,0,1.02,.07,1.53,.21,.51,.13,.93,.3,1.26,.52l-.46,.85c-.35-.24-.72-.41-1.12-.51-.4-.11-.8-.16-1.2-.16-.71,0-1.23,.12-1.57,.37-.33,.24-.49,.55-.49,.93,0,.3,.09,.53,.27,.7,.19,.17,.43,.3,.73,.4,.31,.09,.64,.16,1,.22,.37,.06,.73,.13,1.09,.22,.37,.08,.7,.19,1,.34,.31,.14,.55,.34,.73,.61,.19,.26,.28,.6,.28,1.03,0,.46-.13,.86-.39,1.2-.25,.33-.62,.59-1.11,.78-.48,.18-1.06,.27-1.75,.27Zm-7.81,0c-.82,0-1.54-.17-2.16-.51-.62-.35-1.1-.82-1.45-1.42-.35-.61-.52-1.3-.52-2.08s.16-1.47,.49-2.07c.34-.6,.8-1.07,1.38-1.41,.59-.35,1.25-.52,1.98-.52s1.39,.17,1.96,.51c.58,.33,1.03,.8,1.36,1.41,.33,.6,.49,1.29,.49,2.08,0,.05,0,.1-.01,.16v.16h-6.85v-.79h6.28l-.42,.31c0-.57-.12-1.07-.37-1.51-.24-.45-.57-.8-.99-1.05-.42-.25-.9-.37-1.45-.37s-1.02,.12-1.45,.37c-.43,.25-.76,.6-1,1.05-.24,.45-.36,.96-.36,1.54v.16c0,.6,.13,1.13,.39,1.59,.27,.45,.64,.8,1.11,1.06,.48,.25,1.02,.37,1.63,.37,.48,0,.92-.08,1.33-.25,.42-.17,.78-.43,1.08-.78l.6,.69c-.35,.42-.79,.74-1.32,.96-.52,.22-1.09,.33-1.72,.33Zm-9.51-.94c.56,0,1.06-.12,1.5-.37,.44-.26,.79-.62,1.05-1.08,.26-.47,.39-1.01,.39-1.62s-.13-1.16-.39-1.62c-.26-.46-.61-.81-1.05-1.06-.44-.26-.94-.39-1.5-.39s-1.06,.13-1.51,.39c-.44,.25-.79,.6-1.05,1.06-.25,.46-.37,1-.37,1.62s.12,1.15,.37,1.62c.26,.46,.61,.82,1.05,1.08,.45,.25,.95,.37,1.51,.37Zm-3.98,.87v-11.12h1.06v5.57l-.15,1.59,.1,1.59v2.37h-1.02Zm4.06,.07c-.69,0-1.31-.15-1.86-.46-.55-.32-.98-.78-1.3-1.38-.32-.6-.48-1.32-.48-2.17s.16-1.58,.48-2.17c.33-.6,.77-1.05,1.32-1.36,.55-.31,1.16-.46,1.84-.46,.75,0,1.42,.17,2.01,.51,.6,.33,1.07,.79,1.41,1.39,.34,.6,.51,1.3,.51,2.1s-.17,1.49-.51,2.1c-.34,.6-.81,1.07-1.41,1.41-.59,.34-1.26,.51-2.01,.51Zm-13.99-.07v-7.86h1.02v2.14l-.1-.37c.22-.6,.59-1.05,1.11-1.36,.52-.32,1.16-.48,1.93-.48v1.03h-.12s-.08-.01-.12-.01c-.83,0-1.48,.25-1.95,.76-.47,.5-.7,1.21-.7,2.14v4.01h-1.06Zm-6.62,.07c-.59,0-1.1-.09-1.54-.28-.43-.2-.76-.47-.99-.81-.23-.35-.34-.75-.34-1.2,0-.41,.09-.78,.28-1.11,.2-.34,.52-.61,.96-.81,.45-.21,1.05-.31,1.8-.31h2.71v.79h-2.68c-.76,0-1.29,.13-1.59,.4-.29,.27-.43,.6-.43,1,0,.45,.17,.81,.52,1.08,.35,.27,.84,.4,1.47,.4s1.11-.13,1.54-.4c.44-.28,.76-.68,.96-1.2l.24,.73c-.2,.52-.55,.93-1.05,1.24-.49,.31-1.11,.46-1.86,.46Zm2.71-.07v-1.74l-.04-.28v-2.91c0-.67-.19-1.18-.57-1.54-.37-.36-.92-.54-1.66-.54-.51,0-.99,.08-1.45,.25-.46,.17-.85,.39-1.17,.67l-.48-.79c.4-.34,.88-.6,1.44-.78,.56-.19,1.15-.28,1.77-.28,1.02,0,1.8,.25,2.35,.76,.56,.5,.84,1.26,.84,2.29v4.88h-1.02Zm-11.55,.07c-.59,0-1.1-.09-1.54-.28-.43-.2-.76-.47-.99-.81-.23-.35-.34-.75-.34-1.2,0-.41,.09-.78,.28-1.11,.2-.34,.52-.61,.96-.81,.45-.21,1.05-.31,1.8-.31h2.71v.79h-2.68c-.76,0-1.29,.13-1.59,.4-.29,.27-.43,.6-.43,1,0,.45,.17,.81,.52,1.08,.35,.27,.84,.4,1.47,.4s1.11-.13,1.54-.4c.44-.28,.76-.68,.96-1.2l.24,.73c-.2,.52-.55,.93-1.05,1.24-.49,.31-1.11,.46-1.86,.46Zm2.71-.07v-1.74l-.04-.28v-2.91c0-.67-.19-1.18-.57-1.54-.37-.36-.92-.54-1.66-.54-.51,0-.99,.08-1.45,.25-.46,.17-.85,.39-1.17,.67l-.48-.79c.4-.34,.88-.6,1.44-.78,.56-.19,1.15-.28,1.77-.28,1.02,0,1.8,.25,2.35,.76,.56,.5,.84,1.26,.84,2.29v4.88h-1.02Zm-8.43-9.6c-.22,0-.4-.07-.55-.22s-.22-.33-.22-.54,.07-.38,.22-.52c.15-.15,.33-.22,.55-.22s.4,.07,.55,.21,.22,.31,.22,.52-.07,.4-.22,.55c-.14,.15-.32,.22-.55,.22Zm-1.78,12.58c-.32,0-.62-.04-.91-.13-.3-.08-.55-.2-.75-.37l.37-.81c.32,.27,.73,.4,1.23,.4,.42,0,.74-.12,.96-.37,.23-.25,.34-.62,.34-1.11v-8.45h1.06v8.45c0,.73-.2,1.31-.6,1.74-.39,.44-.96,.66-1.71,.66Zm-9.2-3.88c.62,0,1.16-.16,1.62-.49,.46-.34,.82-.83,1.08-1.47,.26-.65,.39-1.44,.39-2.38s-.13-1.73-.39-2.37c-.26-.65-.62-1.14-1.08-1.47-.46-.34-1-.51-1.62-.51s-1.13,.17-1.6,.51c-.47,.33-.83,.82-1.09,1.47-.26,.64-.39,1.43-.39,2.37s.13,1.73,.39,2.38c.26,.64,.62,1.13,1.09,1.47,.47,.33,1,.49,1.6,.49Zm0,.99c-.81,0-1.53-.21-2.16-.63-.63-.43-1.12-1.04-1.48-1.83-.36-.8-.54-1.76-.54-2.88s.18-2.07,.54-2.86c.36-.8,.85-1.41,1.48-1.83,.63-.43,1.35-.64,2.16-.64s1.53,.21,2.16,.64c.63,.42,1.12,1.03,1.48,1.83,.37,.79,.55,1.74,.55,2.86s-.18,2.08-.55,2.88c-.36,.79-.85,1.4-1.48,1.83-.63,.42-1.35,.63-2.16,.63Zm-7.76-.09v-10.04l.48,.51h-2.95v-.96h3.55v10.49h-1.08Zm-11.66,.07c-.59,0-1.1-.09-1.54-.28-.43-.2-.76-.47-.99-.81-.23-.35-.34-.75-.34-1.2,0-.41,.09-.78,.28-1.11,.2-.34,.52-.61,.96-.81,.45-.21,1.05-.31,1.8-.31h2.71v.79h-2.68c-.76,0-1.29,.13-1.59,.4-.29,.27-.43,.6-.43,1,0,.45,.17,.81,.52,1.08,.35,.27,.84,.4,1.47,.4s1.11-.13,1.54-.4c.44-.28,.76-.68,.96-1.2l.24,.73c-.2,.52-.55,.93-1.05,1.24-.49,.31-1.11,.46-1.86,.46Zm2.71-.07v-1.74l-.04-.28v-2.91c0-.67-.19-1.18-.57-1.54-.37-.36-.92-.54-1.66-.54-.51,0-.99,.08-1.45,.25-.46,.17-.85,.39-1.17,.67l-.48-.79c.4-.34,.88-.6,1.44-.78,.56-.19,1.15-.28,1.77-.28,1.02,0,1.8,.25,2.35,.76,.56,.5,.84,1.26,.84,2.29v4.88h-1.02Zm-11.04-7.94c.64,0,1.2,.12,1.68,.37,.49,.24,.87,.61,1.14,1.11,.28,.5,.42,1.13,.42,1.89v4.57h-1.06v-4.46c0-.83-.21-1.45-.63-1.87-.41-.43-.99-.64-1.74-.64-.56,0-1.05,.11-1.47,.34-.41,.22-.73,.54-.96,.97-.22,.42-.33,.93-.33,1.53v4.13h-1.06v-7.86h1.02v2.16l-.16-.4c.25-.57,.65-1.01,1.2-1.33,.55-.33,1.2-.49,1.96-.49Zm-7.51-1.66c-.22,0-.4-.07-.55-.22-.15-.15-.22-.33-.22-.54s.07-.38,.22-.52c.15-.15,.33-.22,.55-.22s.4,.07,.55,.21c.15,.14,.22,.31,.22,.52s-.07,.4-.22,.55c-.14,.15-.32,.22-.55,.22Zm-1.78,12.58c-.32,0-.62-.04-.91-.13-.3-.08-.55-.2-.75-.37l.37-.81c.32,.27,.73,.4,1.23,.4,.42,0,.74-.12,.96-.37,.23-.25,.34-.62,.34-1.11v-8.45h1.06v8.45c0,.73-.2,1.31-.6,1.74-.39,.44-.96,.66-1.71,.66Zm-2.32-12.58c-.22,0-.4-.07-.55-.22s-.22-.33-.22-.54,.07-.38,.22-.52c.15-.15,.33-.22,.55-.22s.4,.07,.55,.21c.15,.14,.22,.31,.22,.52s-.07,.4-.22,.55c-.14,.15-.32,.22-.55,.22Zm-.54,9.6v-7.86h1.06v7.86h-1.06Zm-6.17-.87c.56,0,1.06-.12,1.5-.37,.44-.26,.79-.62,1.05-1.08,.26-.47,.39-1.01,.39-1.62s-.13-1.16-.39-1.62c-.26-.46-.61-.81-1.05-1.06-.44-.26-.94-.39-1.5-.39s-1.06,.13-1.51,.39c-.44,.25-.79,.6-1.05,1.06-.25,.46-.37,1-.37,1.62s.12,1.15,.37,1.62c.26,.46,.61,.82,1.05,1.08,.45,.25,.95,.37,1.51,.37Zm-3.98,.87v-11.12h1.06v5.57l-.15,1.59,.1,1.59v2.37h-1.02Zm4.06,.07c-.69,0-1.31-.15-1.86-.46-.55-.32-.98-.78-1.3-1.38-.32-.6-.48-1.32-.48-2.17s.16-1.58,.48-2.17c.33-.6,.77-1.05,1.32-1.36,.55-.31,1.16-.46,1.84-.46,.75,0,1.42,.17,2.01,.51,.6,.33,1.07,.79,1.41,1.39,.34,.6,.51,1.3,.51,2.1s-.17,1.49-.51,2.1c-.34,.6-.81,1.07-1.41,1.41-.59,.34-1.26,.51-2.01,.51Zm-12-.07v-11.12h1.06v11.12h-1.06Zm-10.3-2.8l.33-.9h6.1l.33,.9h-6.76Zm-1.89,2.8l4.79-10.49h1.09l4.79,10.49h-1.17l-4.4-9.84h.45l-4.4,9.84h-1.15Z"/></g></svg>