<?xml version="1.0" encoding="UTF-8"?>
<svg id="Layer_2" data-name="Layer 2" xmlns="http://www.w3.org/2000/svg" viewBox="0 0 202.21 57.72">
  <defs>
    <style>
      .cls-1 {
        fill: #fff;
      }
    </style>
  </defs>
  <g id="Layer_1-2" data-name="Layer 1">
    <g>
      <path class="cls-1" d="M.41,1.95H5.68V20.9H.41V1.95Z"/>
      <path class="cls-1" d="M21.5,19.11v1.79h-5.14V1.14h5.14v7.06c1-1.22,2.25-2.27,4.44-2.27,3.49,0,6.5,2.9,6.5,7.58v.05c0,4.76-3,7.66-6.47,7.66-2.22,0-3.52-1-4.47-2.11Zm5.87-5.52v-.05c0-1.92-1.33-3.3-3-3.3s-2.98,1.38-2.98,3.3v.05c0,1.95,1.33,3.33,2.98,3.33s3-1.35,3-3.33Z"/>
      <path class="cls-1" d="M34.06,13.64v-.05c0-4.28,3.06-7.66,7.39-7.66,5.06,0,7.39,3.71,7.39,8.01,0,.32,0,.7-.03,1.06h-9.8c.41,1.6,1.57,2.41,3.17,2.41,1.22,0,2.19-.46,3.25-1.49l2.84,2.35c-1.41,1.79-3.44,2.98-6.36,2.98-4.6,0-7.85-3.06-7.85-7.61Zm9.96-1.27c-.19-1.62-1.14-2.65-2.54-2.65s-2.27,1.06-2.54,2.65h5.09Z"/>
      <path class="cls-1" d="M50.11,17.51l6.77-7.17h-6.52V6.25h13.35v3.38l-6.79,7.17h6.79v4.09h-13.59v-3.38Z"/>
      <path class="cls-1" d="M72.86,17.51l6.77-7.17h-6.52V6.25h13.35v3.38l-6.79,7.17h6.79v4.09h-13.59v-3.38Z"/>
      <path class="cls-1" d="M93.76,19.11v1.79h-5.14V1.14h5.14v7.06c1-1.22,2.25-2.27,4.44-2.27,3.49,0,6.5,2.9,6.5,7.58v.05c0,4.76-3,7.66-6.47,7.66-2.22,0-3.52-1-4.47-2.11Zm5.87-5.52v-.05c0-1.92-1.33-3.3-3-3.3s-2.98,1.38-2.98,3.3v.05c0,1.95,1.33,3.33,2.98,3.33s3-1.35,3-3.33Z"/>
      <path class="cls-1" d="M106.92,6.25h5.14v2.95c.84-2,2.19-3.3,4.63-3.19v5.41h-.43c-2.68,0-4.2,1.54-4.2,4.93v4.55h-5.14V6.25Z"/>
      <path class="cls-1" d="M117.64,13.64v-.05c0-4.17,3.41-7.66,8.12-7.66s8.07,3.44,8.07,7.61v.05c0,4.17-3.41,7.66-8.12,7.66s-8.07-3.44-8.07-7.61Zm11.18,0v-.05c0-1.79-1.3-3.3-3.11-3.3s-3.06,1.49-3.06,3.25v.05c0,1.79,1.3,3.3,3.11,3.3s3.06-1.49,3.06-3.25Z"/>
      <path class="cls-1" d="M133.91,25.12v-3.41c.22,.03,.46,.03,.68,.03,1,0,1.52-.43,1.52-1.71V6.25h5.14v14c0,3.71-1.89,5.06-5.22,5.06-.81,0-1.49-.11-2.11-.19Zm2.08-23.98h5.36v3.79h-5.36V1.14Z"/>
      <path class="cls-1" d="M144.17,6.25h5.14v2.06c.95-1.22,2.3-2.38,4.39-2.38,3.11,0,4.98,2.06,4.98,5.39v9.58h-5.14v-7.93c0-1.6-.84-2.46-2.06-2.46s-2.17,.87-2.17,2.46v7.93h-5.14V6.25Z"/>
      <path class="cls-1" d="M161.44,6.25h5.14v14.64h-5.14V6.25Zm3.3-6.25l4.79,1.54-3.98,3.46h-3.63l2.82-5.01Z"/>
      <path class="cls-1" d="M169.46,1.14h5.14v7.12c.95-1.22,2.3-2.33,4.39-2.33,3.11,0,4.98,2.06,4.98,5.39v9.58h-5.14v-7.93c0-1.6-.84-2.46-2.06-2.46s-2.17,.87-2.17,2.46v7.93h-5.14V1.14Z"/>
      <path class="cls-1" d="M186.03,13.64v-.05c0-4.17,3.41-7.66,8.12-7.66s8.07,3.44,8.07,7.61v.05c0,4.17-3.41,7.66-8.12,7.66s-8.07-3.44-8.07-7.61Zm11.18,0v-.05c0-1.79-1.3-3.3-3.11-3.3s-3.06,1.49-3.06,3.25v.05c0,1.79,1.3,3.3,3.11,3.3s3.06-1.49,3.06-3.25Z"/>
      <path class="cls-1" d="M0,38.74H5.14v1.95c1-1.22,2.25-2.27,4.44-2.27,3.49,0,6.5,2.9,6.5,7.58v.05c0,4.76-3,7.66-6.47,7.66-2.22,0-3.52-1-4.47-2.11v6.12H0v-18.98Zm11.02,7.34v-.05c0-1.92-1.33-3.3-3-3.3s-2.98,1.38-2.98,3.3v.05c0,1.95,1.33,3.33,2.98,3.33s3-1.35,3-3.33Z"/>
      <path class="cls-1" d="M18.3,38.74h5.14v2.95c.84-2,2.19-3.3,4.63-3.19v5.41h-.43c-2.68,0-4.2,1.54-4.2,4.93v4.55h-5.14v-14.64Z"/>
      <path class="cls-1" d="M45.13,38.82v14.57h-4.01v-1.73c-.56,.63-1.23,1.11-2,1.45-.78,.33-1.62,.5-2.52,.5-1.91,0-3.43-.55-4.55-1.65-1.12-1.1-1.68-2.73-1.68-4.9v-8.23h4.22v7.61c0,2.35,.98,3.52,2.95,3.52,1.01,0,1.82-.33,2.44-.99,.61-.66,.92-1.64,.92-2.94v-7.2h4.22Zm-9.79-2.41c-.64-.63-.96-1.41-.96-2.33s.32-1.7,.96-2.33,1.43-.95,2.37-.95,1.76,.32,2.41,.95c.65,.63,.97,1.41,.97,2.33s-.33,1.7-.97,2.33c-.65,.63-1.45,.95-2.41,.95s-1.73-.32-2.37-.95Zm3.55-1.15c.32-.32,.47-.71,.47-1.18s-.16-.86-.47-1.18c-.32-.32-.71-.47-1.18-.47s-.83,.16-1.15,.47-.47,.71-.47,1.18,.15,.86,.46,1.18c.31,.32,.69,.47,1.16,.47s.86-.16,1.18-.47Z"/>
      <path class="cls-1" d="M48.49,33.63h5.14v10.02l3.98-4.9h5.82l-5.09,5.87,5.22,8.77h-5.66l-2.95-4.98-1.33,1.54v3.44h-5.14v-19.76Z"/>
      <path class="cls-1" d="M63.81,49.19v-.05c0-3.03,2.3-4.6,5.74-4.6,1.35,0,2.68,.27,3.52,.57v-.24c0-1.52-.95-2.38-2.92-2.38-1.54,0-2.73,.3-4.03,.81l-1.06-3.63c1.65-.68,3.41-1.14,5.93-1.14s4.41,.62,5.58,1.79c1.11,1.08,1.57,2.6,1.57,4.66v8.42h-5.09v-1.52c-1,1.11-2.38,1.84-4.3,1.84-2.79,0-4.93-1.6-4.93-4.52Zm9.31-1.11v-.68c-.51-.22-1.25-.38-2-.38-1.49,0-2.35,.73-2.35,1.81v.05c0,1,.76,1.6,1.81,1.6,1.49,0,2.54-.95,2.54-2.41Z"/>
      <path class="cls-1" d="M80.25,50l6.77-7.17h-6.52v-4.09h13.35v3.38l-6.79,7.17h6.79v4.09h-13.59v-3.38Z"/>
      <path class="cls-1" d="M95.9,48.32v-9.58h5.14v7.93c0,1.6,.84,2.46,2.08,2.46s2.14-.87,2.14-2.46v-7.93h5.14v14.64h-5.14v-2c-.95,1.22-2.3,2.33-4.38,2.33-3.11,0-4.98-2.06-4.98-5.39Z"/>
    </g>
  </g>
</svg>