<?xml version="1.0" encoding="UTF-8"?>
<svg id="Layer_2" data-name="Layer 2" xmlns="http://www.w3.org/2000/svg" viewBox="0 0 238.73 63.5">
  <defs>
    <style>
      .cls-1 {
        fill: #fff;
      }
    </style>
  </defs>
  <g id="Layer_1-2" data-name="Layer 1">
    <g>
      <path class="cls-1" d="M0,12.75l2.06-2.45c1.31,1.05,2.78,1.6,4.32,1.6,.99,0,1.52-.34,1.52-.91v-.04c0-.55-.44-.86-2.25-1.27-2.83-.65-5.02-1.45-5.02-4.19v-.04C.63,2.97,2.59,1.18,5.79,1.18c2.26,0,4.03,.61,5.48,1.77l-1.85,2.61c-1.22-.86-2.55-1.31-3.73-1.31-.89,0-1.33,.38-1.33,.86v.04c0,.61,.46,.88,2.3,1.29,3.06,.67,4.97,1.66,4.97,4.15v.04c0,2.72-2.15,4.34-5.38,4.34-2.36,0-4.6-.74-6.24-2.21Z"/>
      <path class="cls-1" d="M13.64,11.53V7.34h-1.22v-2.91h1.22V1.83h3.62v2.61h2.4v2.91h-2.4v3.48c0,.72,.32,1.03,.99,1.03,.48,0,.93-.13,1.37-.34v2.84c-.65,.36-1.5,.59-2.51,.59-2.17,0-3.46-.95-3.46-3.41Z"/>
      <path class="cls-1" d="M23.28,3.18L20.81,.29h2.4l1.64,1.45,1.64-1.45h2.4l-2.47,2.89h-3.12Zm5.02,1.07v3.25c-.32-.04-.55-.06-.82-.06-1.47,0-2.47,.74-2.47,2.55v4.74h-3.62V4.41h3.44v1.24c.74-.93,1.94-1.41,3.46-1.41Z"/>
      <path class="cls-1" d="M29.22,9.63v-.04c0-3.01,2.15-5.38,5.19-5.38,3.56,0,5.2,2.61,5.2,5.63,0,.23,0,.49-.02,.74h-6.89c.29,1.12,1.1,1.69,2.23,1.69,.86,0,1.54-.32,2.28-1.05l2,1.66c-.99,1.26-2.42,2.09-4.47,2.09-3.24,0-5.52-2.15-5.52-5.35Zm7-.89c-.13-1.14-.8-1.86-1.79-1.86s-1.6,.74-1.79,1.86h3.58Z"/>
      <path class="cls-1" d="M41.22,.84h3.62V14.73h-3.62V.84Z"/>
      <path class="cls-1" d="M50.46,13.47v1.26h-3.62V.84h3.62V5.8c.7-.86,1.58-1.6,3.12-1.6,2.46,0,4.57,2.04,4.57,5.33v.04c0,3.35-2.11,5.39-4.55,5.39-1.56,0-2.47-.7-3.14-1.48Zm4.13-3.88v-.04c0-1.35-.93-2.32-2.11-2.32s-2.09,.97-2.09,2.32v.04c0,1.37,.93,2.34,2.09,2.34s2.11-.95,2.11-2.34Z"/>
      <path class="cls-1" d="M59.19,11.78v-.04c0-2.13,1.62-3.23,4.03-3.23,.95,0,1.88,.19,2.47,.4v-.17c0-1.07-.67-1.67-2.05-1.67-1.08,0-1.92,.21-2.83,.57l-.74-2.55c1.16-.48,2.4-.8,4.17-.8s3.1,.44,3.92,1.26c.78,.76,1.1,1.83,1.1,3.27v5.92h-3.58v-1.07c-.7,.78-1.67,1.29-3.03,1.29-1.96,0-3.46-1.12-3.46-3.18Zm6.54-.78v-.48c-.36-.15-.88-.27-1.41-.27-1.05,0-1.66,.51-1.66,1.27v.04c0,.7,.53,1.12,1.28,1.12,1.05,0,1.79-.67,1.79-1.69Z"/>
      <path class="cls-1" d="M76.37,4.43h3.62v1.37c.7-.86,1.58-1.6,3.12-1.6,2.46,0,4.57,2.04,4.57,5.33v.04c0,3.35-2.11,5.39-4.55,5.39-1.56,0-2.47-.7-3.14-1.48v4.3h-3.62V4.43Zm7.74,5.16v-.04c0-1.35-.93-2.32-2.11-2.32s-2.09,.97-2.09,2.32v.04c0,1.37,.93,2.34,2.09,2.34s2.11-.95,2.11-2.34Z"/>
      <path class="cls-1" d="M89.23,4.43h3.62v2.07c.59-1.41,1.54-2.32,3.25-2.25v3.81h-.3c-1.88,0-2.95,1.08-2.95,3.46v3.2h-3.62V4.43Z"/>
      <path class="cls-1" d="M96.76,9.63v-.04c0-2.93,2.4-5.38,5.71-5.38s5.67,2.42,5.67,5.35v.04c0,2.93-2.4,5.39-5.71,5.39s-5.67-2.42-5.67-5.35Zm7.86,0v-.04c0-1.26-.91-2.32-2.19-2.32s-2.15,1.05-2.15,2.28v.04c0,1.26,.91,2.32,2.19,2.32s2.15-1.05,2.15-2.28Z"/>
      <path class="cls-1" d="M114.92,.84h3.62V7.88l2.8-3.44h4.09l-3.58,4.13,3.67,6.17h-3.98l-2.07-3.5-.93,1.08v2.42h-3.62V.84Z"/>
      <path class="cls-1" d="M125.69,11.78v-.04c0-2.13,1.62-3.23,4.03-3.23,.95,0,1.88,.19,2.47,.4v-.17c0-1.07-.67-1.67-2.05-1.67-1.08,0-1.92,.21-2.83,.57l-.74-2.55c1.16-.48,2.4-.8,4.17-.8s3.1,.44,3.92,1.26c.78,.76,1.1,1.83,1.1,3.27v5.92h-3.58v-1.07c-.7,.78-1.67,1.29-3.03,1.29-1.96,0-3.46-1.12-3.46-3.18Zm6.54-.78v-.48c-.36-.15-.88-.27-1.41-.27-1.05,0-1.66,.51-1.66,1.27v.04c0,.7,.53,1.12,1.28,1.12,1.05,0,1.79-.67,1.79-1.69Z"/>
      <path class="cls-1" d="M137.23,12.35l4.76-5.04h-4.59v-2.87h9.38v2.38l-4.78,5.04h4.78v2.87h-9.55v-2.38Zm.89-11.93h2.32l1.6,1.16,1.6-1.16h2.28l-2.44,3.14h-2.93l-2.44-3.14Z"/>
      <path class="cls-1" d="M147.92,9.63v-.04c0-3.35,2.09-5.38,4.53-5.38,1.56,0,2.47,.7,3.16,1.48V.84h3.62V14.73h-3.62v-1.37c-.7,.86-1.6,1.6-3.14,1.6-2.44,0-4.55-2.04-4.55-5.33Zm7.74-.04v-.04c0-1.35-.93-2.32-2.09-2.32s-2.11,.95-2.11,2.32v.04c0,1.37,.95,2.34,2.11,2.34s2.09-.97,2.09-2.34Z"/>
      <path class="cls-1" d="M160.74,9.63v-.04c0-3.01,2.15-5.38,5.19-5.38,3.56,0,5.2,2.61,5.2,5.63,0,.23,0,.49-.02,.74h-6.89c.29,1.12,1.1,1.69,2.23,1.69,.86,0,1.54-.32,2.28-1.05l2,1.66c-.99,1.26-2.42,2.09-4.47,2.09-3.24,0-5.52-2.15-5.52-5.35Zm7-.89c-.13-1.14-.8-1.86-1.79-1.86s-1.6,.74-1.79,1.86h3.58Zm-1.24-8.73l3.37,1.08-2.8,2.44h-2.55l1.98-3.52Z"/>
      <path class="cls-1" d="M172.67,.84h3.62V5.84c.67-.86,1.62-1.64,3.08-1.64,2.19,0,3.5,1.45,3.5,3.79v6.74h-3.62v-5.58c0-1.12-.59-1.73-1.45-1.73s-1.52,.61-1.52,1.73v5.58h-3.62V.84Z"/>
      <path class="cls-1" d="M184.31,9.63v-.04c0-2.93,2.4-5.38,5.71-5.38s5.67,2.42,5.67,5.35v.04c0,2.93-2.4,5.39-5.71,5.39s-5.67-2.42-5.67-5.35Zm7.86,0v-.04c0-1.26-.91-2.32-2.19-2.32s-2.15,1.05-2.15,2.28v.04c0,1.26,.91,2.32,2.19,2.32s2.15-1.05,2.15-2.28Z"/>
      <path class="cls-1" d="M202.47,4.43h3.62v1.37c.7-.86,1.58-1.6,3.12-1.6,2.46,0,4.57,2.04,4.57,5.33v.04c0,3.35-2.11,5.39-4.55,5.39-1.56,0-2.47-.7-3.14-1.48v4.3h-3.62V4.43Zm7.74,5.16v-.04c0-1.35-.93-2.32-2.11-2.32s-2.09,.97-2.09,2.32v.04c0,1.37,.93,2.34,2.09,2.34s2.11-.95,2.11-2.34Z"/>
      <path class="cls-1" d="M214.91,9.63v-.04c0-2.93,2.4-5.38,5.71-5.38s5.67,2.42,5.67,5.35v.04c0,2.93-2.4,5.39-5.71,5.39s-5.67-2.42-5.67-5.35Zm7.86,0v-.04c0-1.26-.91-2.32-2.19-2.32s-2.15,1.05-2.15,2.28v.04c0,1.26,.91,2.32,2.19,2.32s2.15-1.05,2.15-2.28Z"/>
      <path class="cls-1" d="M227.43,9.63v-.04c0-3.35,2.09-5.38,4.53-5.38,1.56,0,2.47,.7,3.16,1.48V.84h3.62V14.73h-3.62v-1.37c-.7,.86-1.6,1.6-3.14,1.6-2.44,0-4.55-2.04-4.55-5.33Zm7.74-.04v-.04c0-1.35-.93-2.32-2.09-2.32s-2.11,.95-2.11,2.32v.04c0,1.37,.95,2.34,2.11,2.34s2.09-.97,2.09-2.34Z"/>
      <path class="cls-1" d="M.8,28.7h3.62v1.37c.7-.86,1.58-1.6,3.12-1.6,2.46,0,4.57,2.04,4.57,5.33v.04c0,3.35-2.11,5.39-4.55,5.39-1.56,0-2.47-.7-3.14-1.48v4.3H.8v-13.34Zm7.74,5.16v-.04c0-1.35-.93-2.32-2.11-2.32s-2.09,.97-2.09,2.32v.04c0,1.37,.93,2.34,2.09,2.34s2.11-.95,2.11-2.34Z"/>
      <path class="cls-1" d="M13.66,28.7h3.62v2.07c.59-1.41,1.54-2.32,3.25-2.25v3.81h-.3c-1.88,0-2.95,1.08-2.95,3.46v3.2h-3.62v-10.29Z"/>
      <path class="cls-1" d="M21.19,33.89v-.04c0-2.93,2.4-5.38,5.71-5.38s5.67,2.42,5.67,5.35v.04c0,2.93-2.4,5.39-5.71,5.39s-5.67-2.42-5.67-5.35Zm7.86,0v-.04c0-1.26-.91-2.32-2.19-2.32s-2.15,1.05-2.15,2.28v.04c0,1.26,.91,2.32,2.19,2.32s2.15-1.05,2.15-2.28Z"/>
      <path class="cls-1" d="M34.64,31.59h-1.2v-2.83h1.2v-.23c0-1.18,.27-2.05,.88-2.66,.63-.63,1.47-.89,2.68-.89,1.1,0,1.79,.11,2.36,.29v2.55c-.42-.13-.84-.21-1.35-.21-.67,0-1.03,.3-1.03,.97v.25h2.36v2.78h-2.3v7.4h-3.6v-7.4Z"/>
      <path class="cls-1" d="M41.07,33.89v-.04c0-3.01,2.15-5.38,5.19-5.38,3.56,0,5.2,2.61,5.2,5.63,0,.23,0,.49-.02,.74h-6.89c.29,1.12,1.1,1.69,2.23,1.69,.86,0,1.54-.32,2.28-1.05l2,1.66c-.99,1.26-2.42,2.09-4.47,2.09-3.24,0-5.52-2.15-5.52-5.35Zm7-.89c-.13-1.14-.8-1.86-1.79-1.86s-1.6,.74-1.79,1.86h3.58Z"/>
      <path class="cls-1" d="M52.21,37.7l1.35-2.19c1.18,.78,2.47,1.18,3.54,1.18,.63,0,.91-.19,.91-.55v-.04c0-.4-.57-.57-1.66-.88-2.04-.53-3.65-1.22-3.65-3.29v-.04c0-2.19,1.75-3.41,4.13-3.41,1.5,0,3.06,.44,4.24,1.2l-1.24,2.28c-1.07-.59-2.23-.95-3.04-.95-.55,0-.84,.21-.84,.49v.04c0,.4,.59,.59,1.67,.91,2.04,.57,3.65,1.27,3.65,3.27v.04c0,2.26-1.69,3.44-4.21,3.44-1.73,0-3.44-.5-4.87-1.52Z"/>
      <path class="cls-1" d="M62.77,25.1h3.77v2.66h-3.77v-2.66Zm.08,3.6h3.62v10.29h-3.62v-10.29Z"/>
      <path class="cls-1" d="M68.06,33.89v-.04c0-2.93,2.4-5.38,5.71-5.38s5.67,2.42,5.67,5.35v.04c0,2.93-2.4,5.39-5.71,5.39s-5.67-2.42-5.67-5.35Zm7.86,0v-.04c0-1.26-.91-2.32-2.19-2.32s-2.15,1.05-2.15,2.28v.04c0,1.26,.91,2.32,2.19,2.32s2.15-1.05,2.15-2.28Z"/>
      <path class="cls-1" d="M80.95,28.7h3.62v1.45c.67-.86,1.62-1.67,3.08-1.67,2.19,0,3.5,1.45,3.5,3.79v6.74h-3.62v-5.58c0-1.12-.59-1.73-1.45-1.73s-1.52,.61-1.52,1.73v5.58h-3.62v-10.29Z"/>
      <path class="cls-1" d="M92.5,36.04v-.04c0-2.13,1.62-3.23,4.03-3.23,.95,0,1.88,.19,2.47,.4v-.17c0-1.07-.67-1.67-2.05-1.67-1.08,0-1.92,.21-2.83,.57l-.74-2.55c1.16-.48,2.4-.8,4.17-.8s3.1,.44,3.92,1.26c.78,.76,1.1,1.83,1.1,3.27v5.92h-3.58v-1.07c-.7,.78-1.67,1.29-3.03,1.29-1.96,0-3.46-1.12-3.46-3.18Zm6.54-.78v-.48c-.36-.15-.88-.27-1.41-.27-1.05,0-1.66,.51-1.66,1.27v.04c0,.7,.53,1.12,1.28,1.12,1.05,0,1.79-.67,1.79-1.69Zm-.91-11l3.37,1.08-2.8,2.44h-2.55l1.98-3.52Z"/>
      <path class="cls-1" d="M104.48,25.1h3.62v13.89h-3.62v-13.89Z"/>
      <path class="cls-1" d="M110.11,28.7h3.62v1.45c.67-.86,1.62-1.67,3.08-1.67,2.19,0,3.5,1.45,3.5,3.79v6.74h-3.62v-5.58c0-1.12-.59-1.73-1.45-1.73s-1.52,.61-1.52,1.73v5.58h-3.62v-10.29Z"/>
      <path class="cls-1" d="M122.25,28.7h3.62v10.29h-3.62v-10.29Zm2.32-4.4l3.37,1.08-2.8,2.44h-2.55l1.98-3.52Z"/>
      <path class="cls-1" d="M127.88,28.7h3.62v1.41c.67-.86,1.62-1.64,3.06-1.64,1.37,0,2.42,.61,2.97,1.67,.89-1.03,1.94-1.67,3.44-1.67,2.19,0,3.52,1.37,3.52,3.77v6.75h-3.62v-5.59c0-1.12-.55-1.71-1.41-1.71s-1.48,.59-1.48,1.71v5.59h-3.62v-5.59c0-1.12-.55-1.71-1.41-1.71s-1.46,.59-1.46,1.71v5.59h-3.62v-10.29Z"/>
      <path class="cls-1" d="M.42,58.15v-.04c0-3.35,2.09-5.38,4.53-5.38,1.56,0,2.47,.7,3.16,1.48v-4.85h3.62v13.89h-3.62v-1.37c-.7,.86-1.6,1.6-3.14,1.6-2.44,0-4.55-2.04-4.55-5.33Zm7.74-.04v-.04c0-1.35-.93-2.32-2.09-2.32s-2.11,.95-2.11,2.32v.04c0,1.37,.95,2.34,2.11,2.34s2.09-.97,2.09-2.34Z"/>
      <path class="cls-1" d="M13.24,58.15v-.04c0-2.93,2.4-5.38,5.71-5.38s5.67,2.42,5.67,5.35v.04c0,2.93-2.4,5.39-5.71,5.39s-5.67-2.42-5.67-5.35Zm7.86,0v-.04c0-1.26-.91-2.32-2.19-2.32s-2.15,1.05-2.15,2.28v.04c0,1.26,.91,2.32,2.19,2.32s2.15-1.05,2.15-2.28Z"/>
      <path class="cls-1" d="M26.13,49.36h3.62v5c.67-.86,1.62-1.64,3.08-1.64,2.19,0,3.5,1.45,3.5,3.79v6.74h-3.62v-5.58c0-1.12-.59-1.73-1.45-1.73s-1.52,.61-1.52,1.73v5.58h-3.62v-13.89Z"/>
      <path class="cls-1" d="M38.27,49.36h3.62v13.89h-3.62v-13.89Z"/>
      <path class="cls-1" d="M43.48,58.15v-.04c0-3.01,2.15-5.38,5.19-5.38,3.56,0,5.2,2.61,5.2,5.63,0,.23,0,.49-.02,.74h-6.89c.29,1.12,1.1,1.69,2.23,1.69,.86,0,1.54-.32,2.28-1.05l2,1.66c-.99,1.26-2.42,2.09-4.47,2.09-3.24,0-5.52-2.15-5.52-5.35Zm7-.89c-.13-1.14-.8-1.86-1.79-1.86s-1.6,.74-1.79,1.86h3.58Z"/>
      <path class="cls-1" d="M55.03,58.15v-.04c0-3.35,2.09-5.38,4.53-5.38,1.56,0,2.47,.7,3.16,1.48v-4.85h3.62v13.89h-3.62v-1.37c-.7,.86-1.6,1.6-3.14,1.6-2.44,0-4.55-2.04-4.55-5.33Zm7.74-.04v-.04c0-1.35-.93-2.32-2.09-2.32s-2.11,.95-2.11,2.32v.04c0,1.37,.95,2.34,2.11,2.34s2.09-.97,2.09-2.34Z"/>
      <path class="cls-1" d="M67.85,58.15v-.04c0-3.01,2.15-5.38,5.19-5.38,3.56,0,5.2,2.61,5.2,5.63,0,.23,0,.49-.02,.74h-6.89c.29,1.12,1.1,1.69,2.23,1.69,.86,0,1.54-.32,2.28-1.05l2,1.66c-.99,1.26-2.42,2.09-4.47,2.09-3.24,0-5.52-2.15-5.52-5.35Zm7-.89c-.13-1.14-.8-1.86-1.79-1.86s-1.6,.74-1.79,1.86h3.58Z"/>
      <path class="cls-1" d="M79.77,52.96h3.62v1.41c.67-.86,1.62-1.64,3.06-1.64,1.37,0,2.42,.61,2.97,1.67,.89-1.03,1.94-1.67,3.44-1.67,2.19,0,3.52,1.37,3.52,3.77v6.75h-3.62v-5.59c0-1.12-.55-1.71-1.41-1.71s-1.48,.59-1.48,1.71v5.59h-3.62v-5.59c0-1.12-.55-1.71-1.41-1.71s-1.46,.59-1.46,1.71v5.59h-3.62v-10.29Z"/>
    </g>
  </g>
</svg>