<?xml version="1.0" encoding="UTF-8"?>
<svg id="Layer_2" data-name="Layer 2" xmlns="http://www.w3.org/2000/svg" viewBox="0 0 236.62 61.24">
  <defs>
    <style>
      .cls-1 {
        fill: #fff;
      }
    </style>
  </defs>
  <g id="Layer_1-2" data-name="Layer 1">
    <g>
      <path class="cls-1" d="M.95,1.32h3.32l5.29,6.79V1.32h3.52V14.17h-3.12L4.48,7.12v7.05H.95V1.32Z"/>
      <path class="cls-1" d="M14.75,9.25v-.04c0-2.9,2.07-5.19,5.01-5.19,3.43,0,5.01,2.51,5.01,5.43,0,.22,0,.48-.02,.72h-6.64c.28,1.08,1.06,1.63,2.15,1.63,.83,0,1.49-.31,2.2-1.01l1.93,1.6c-.95,1.21-2.33,2.02-4.31,2.02-3.12,0-5.32-2.07-5.32-5.16Zm6.75-.86c-.13-1.1-.77-1.8-1.73-1.8s-1.54,.72-1.72,1.8h3.45Z"/>
      <path class="cls-1" d="M24.85,17.03v-2.31c.15,.02,.31,.02,.46,.02,.68,0,1.03-.29,1.03-1.16V4.24h3.49V13.73c0,2.51-1.29,3.43-3.54,3.43-.55,0-1.01-.07-1.43-.13ZM26.26,.77h3.63V3.34h-3.63V.77Z"/>
      <path class="cls-1" d="M31.81,4.24h3.49v1.36c.64-.83,1.56-1.58,2.96-1.58,1.32,0,2.33,.59,2.86,1.62,.86-.99,1.87-1.62,3.32-1.62,2.11,0,3.4,1.32,3.4,3.63v6.52h-3.49v-5.4c0-1.08-.53-1.65-1.36-1.65s-1.43,.57-1.43,1.65v5.4h-3.49v-5.4c0-1.08-.53-1.65-1.36-1.65s-1.41,.57-1.41,1.65v5.4h-3.49V4.24Z"/>
      <path class="cls-1" d="M49.22,9.25v-.04c0-2.83,2.31-5.19,5.51-5.19s5.47,2.33,5.47,5.16v.04c0,2.83-2.31,5.19-5.51,5.19s-5.47-2.33-5.47-5.16Zm7.58,0v-.04c0-1.21-.88-2.24-2.11-2.24s-2.07,1.01-2.07,2.2v.04c0,1.21,.88,2.24,2.11,2.24s2.07-1.01,2.07-2.2Z"/>
      <path class="cls-1" d="M61.3,9.25v-.04c0-3.23,2.02-5.19,4.37-5.19,1.51,0,2.39,.68,3.05,1.43V.77h3.49V14.17h-3.49v-1.32c-.68,.83-1.54,1.54-3.03,1.54-2.35,0-4.39-1.96-4.39-5.14Zm7.47-.04v-.04c0-1.3-.9-2.24-2.02-2.24s-2.04,.92-2.04,2.24v.04c0,1.32,.92,2.26,2.04,2.26s2.02-.94,2.02-2.26Z"/>
      <path class="cls-1" d="M73.67,9.25v-.04c0-2.9,2.07-5.19,5.01-5.19,3.43,0,5.01,2.51,5.01,5.43,0,.22,0,.48-.02,.72h-6.64c.28,1.08,1.06,1.63,2.15,1.63,.83,0,1.49-.31,2.2-1.01l1.93,1.6c-.95,1.21-2.33,2.02-4.31,2.02-3.12,0-5.32-2.07-5.32-5.16Zm6.75-.86c-.13-1.1-.77-1.8-1.73-1.8s-1.54,.72-1.72,1.8h3.45Z"/>
      <path class="cls-1" d="M85.17,4.24h3.49v2c.57-1.36,1.49-2.24,3.14-2.17v3.67h-.29c-1.82,0-2.85,1.05-2.85,3.34v3.08h-3.49V4.24Z"/>
      <path class="cls-1" d="M93.03,4.24h3.49v1.4c.64-.83,1.56-1.62,2.97-1.62,2.11,0,3.38,1.4,3.38,3.65v6.5h-3.49v-5.38c0-1.08-.57-1.67-1.39-1.67s-1.47,.59-1.47,1.67v5.38h-3.49V4.24Z"/>
      <path class="cls-1" d="M114.96,10.08h-7.23c.29,1.01,1.16,1.6,2.44,1.6,.97,0,1.62-.28,2.29-.86l1.84,1.91c-.95,1.06-2.35,1.62-4.24,1.62-3.54,0-5.84-2.18-5.84-5.16s2.33-5.12,5.47-5.12c2.94,0,5.32,1.87,5.32,5.16,0,.26-.04,.59-.05,.86Zm-6.85-7.05l-2.39-2.79h2.31l1.58,1.4,1.58-1.4h2.31l-2.39,2.79h-3.01Zm-.44,5.21h4.08c-.18-1.05-.95-1.71-2.04-1.71s-1.84,.66-2.04,1.71Z"/>
      <path class="cls-1" d="M115.03,17.03v-2.31c.15,.02,.31,.02,.46,.02,.68,0,1.03-.29,1.03-1.16V4.24h3.49V13.73c0,2.51-1.29,3.43-3.54,3.43-.55,0-1.01-.07-1.43-.13Zm1.41-16.26h3.63V3.34h-3.63V.77Z"/>
      <path class="cls-1" d="M121.24,12.92l1.3-2.11c1.14,.75,2.39,1.14,3.41,1.14,.61,0,.88-.18,.88-.53v-.04c0-.39-.55-.55-1.6-.84-1.96-.51-3.52-1.17-3.52-3.18v-.04c0-2.11,1.69-3.29,3.98-3.29,1.45,0,2.96,.42,4.09,1.16l-1.19,2.2c-1.03-.57-2.15-.92-2.94-.92-.53,0-.81,.2-.81,.48v.04c0,.39,.57,.57,1.62,.88,1.96,.55,3.52,1.23,3.52,3.16v.04c0,2.18-1.63,3.32-4.06,3.32-1.67,0-3.32-.48-4.7-1.47Zm.81-12.56h2.24l1.54,1.12,1.54-1.12h2.2l-2.35,3.03h-2.83l-2.35-3.03Z"/>
      <path class="cls-1" d="M131.5,4.24h3.49V14.17h-3.49V4.24Zm2.24-4.24l3.25,1.05-2.7,2.35h-2.46l1.91-3.4Z"/>
      <path class="cls-1" d="M141.26,12.92l1.3-2.11c1.14,.75,2.39,1.14,3.41,1.14,.61,0,.88-.18,.88-.53v-.04c0-.39-.55-.55-1.6-.84-1.96-.51-3.52-1.17-3.52-3.18v-.04c0-2.11,1.69-3.29,3.98-3.29,1.45,0,2.96,.42,4.09,1.16l-1.19,2.2c-1.03-.57-2.15-.92-2.94-.92-.53,0-.81,.2-.81,.48v.04c0,.39,.57,.57,1.62,.88,1.96,.55,3.52,1.23,3.52,3.16v.04c0,2.18-1.63,3.32-4.06,3.32-1.67,0-3.32-.48-4.7-1.47Z"/>
      <path class="cls-1" d="M151.87,11.09V7.05h-1.17v-2.81h1.17V1.73h3.49v2.52h2.31v2.81h-2.31v3.36c0,.7,.31,.99,.96,.99,.46,0,.9-.13,1.32-.33v2.73c-.62,.35-1.45,.57-2.42,.57-2.09,0-3.34-.92-3.34-3.29Z"/>
      <path class="cls-1" d="M161.17,3.03l-2.39-2.79h2.31l1.58,1.4,1.58-1.4h2.31l-2.39,2.79h-3.01Zm4.85,1.03v3.14c-.31-.04-.53-.05-.79-.05-1.41,0-2.39,.72-2.39,2.46v4.57h-3.49V4.22h3.32v1.19c.72-.9,1.87-1.36,3.34-1.36Z"/>
      <path class="cls-1" d="M166.9,9.25v-.04c0-2.9,2.07-5.19,5.01-5.19,3.43,0,5.01,2.51,5.01,5.43,0,.22,0,.48-.02,.72h-6.64c.28,1.08,1.06,1.63,2.15,1.63,.83,0,1.49-.31,2.2-1.01l1.93,1.6c-.95,1.21-2.33,2.02-4.31,2.02-3.12,0-5.32-2.07-5.32-5.16Zm6.75-.86c-.13-1.1-.77-1.8-1.73-1.8s-1.54,.72-1.72,1.8h3.45Z"/>
      <path class="cls-1" d="M178.48,.77h3.49V14.17h-3.49V.77Z"/>
      <path class="cls-1" d="M183.91,4.24h3.49v1.4c.64-.83,1.56-1.62,2.97-1.62,2.11,0,3.38,1.4,3.38,3.65v6.5h-3.49v-5.38c0-1.08-.57-1.67-1.39-1.67s-1.47,.59-1.47,1.67v5.38h-3.49V4.24Z"/>
      <path class="cls-1" d="M195.55,.77h3.63V3.34h-3.63V.77Zm.07,3.47h3.49V14.17h-3.49V4.24Z"/>
      <path class="cls-1" d="M200.65,9.25v-.04c0-2.81,2.18-5.18,5.32-5.18,2.04,0,3.4,.88,4.24,2.22l-2.37,1.76c-.48-.66-1.01-1.05-1.85-1.05-1.12,0-1.95,.99-1.95,2.2v.04c0,1.28,.81,2.26,1.98,2.26,.83,0,1.36-.39,1.91-1.03l2.33,1.69c-.92,1.36-2.24,2.28-4.42,2.28-2.99,0-5.2-2.35-5.2-5.16Z"/>
      <path class="cls-1" d="M210.81,9.25v-.04c0-2.9,2.07-5.19,5.01-5.19,3.43,0,5.01,2.51,5.01,5.43,0,.22,0,.48-.02,.72h-6.64c.28,1.08,1.06,1.63,2.15,1.63,.83,0,1.49-.31,2.2-1.01l1.93,1.6c-.95,1.21-2.33,2.02-4.31,2.02-3.12,0-5.32-2.07-5.32-5.16Zm6.75-.86c-.13-1.1-.77-1.8-1.73-1.8s-1.54,.72-1.72,1.8h3.45Z"/>
      <path class="cls-1" d="M226.91,11.33v-.04c0-2.06,1.56-3.12,3.89-3.12,.92,0,1.82,.18,2.39,.39v-.17c0-1.03-.64-1.62-1.98-1.62-1.05,0-1.85,.2-2.74,.55l-.72-2.46c1.12-.46,2.31-.77,4.02-.77s2.99,.42,3.78,1.21c.75,.73,1.07,1.76,1.07,3.16v5.71h-3.45v-1.03c-.68,.75-1.62,1.25-2.92,1.25-1.89,0-3.34-1.08-3.34-3.07Zm6.31-.75v-.46c-.35-.15-.84-.26-1.36-.26-1.01,0-1.6,.5-1.6,1.23v.04c0,.68,.51,1.08,1.23,1.08,1.01,0,1.73-.64,1.73-1.63Z"/>
      <path class="cls-1" d="M.75,27.65h3.49v1.4c.64-.83,1.56-1.62,2.97-1.62,2.11,0,3.38,1.4,3.38,3.65v6.5h-3.49v-5.38c0-1.08-.57-1.67-1.39-1.67s-1.47,.59-1.47,1.67v5.38H.75v-9.93Z"/>
      <path class="cls-1" d="M11.98,32.66v-.04c0-2.9,2.07-5.19,5.01-5.19,3.43,0,5.01,2.51,5.01,5.43,0,.22,0,.48-.02,.72h-6.64c.28,1.08,1.06,1.63,2.15,1.63,.83,0,1.49-.31,2.2-1.01l1.93,1.6c-.95,1.21-2.33,2.02-4.31,2.02-3.12,0-5.32-2.07-5.32-5.16Zm6.75-.86c-.13-1.1-.77-1.8-1.73-1.8s-1.54,.72-1.72,1.8h3.45Z"/>
      <path class="cls-1" d="M22.08,40.44v-2.31c.15,.02,.31,.02,.46,.02,.68,0,1.03-.29,1.03-1.16v-9.34h3.49v9.49c0,2.51-1.29,3.43-3.54,3.43-.55,0-1.01-.07-1.43-.13Zm1.41-16.26h3.63v2.57h-3.63v-2.57Z"/>
      <path class="cls-1" d="M28.28,27.65h3.67l1.91,5.8,1.91-5.8h3.62l-3.96,10h-3.18l-3.96-10Z"/>
      <path class="cls-1" d="M50.8,33.49h-7.23c.29,1.01,1.16,1.6,2.44,1.6,.97,0,1.62-.28,2.29-.86l1.84,1.91c-.95,1.06-2.35,1.62-4.24,1.62-3.54,0-5.84-2.18-5.84-5.16s2.33-5.12,5.47-5.12c2.94,0,5.32,1.87,5.32,5.16,0,.26-.04,.59-.05,.86Zm-6.85-7.05l-2.39-2.79h2.31l1.58,1.4,1.58-1.4h2.31l-2.39,2.79h-3.01Zm-.44,5.21h4.08c-.18-1.05-.95-1.71-2.04-1.71s-1.84,.66-2.04,1.71Z"/>
      <path class="cls-1" d="M52.89,34.5v-4.04h-1.17v-2.81h1.17v-2.52h3.49v2.52h2.31v2.81h-2.31v3.36c0,.7,.31,.99,.96,.99,.46,0,.9-.13,1.32-.33v2.73c-.62,.35-1.45,.57-2.42,.57-2.09,0-3.34-.92-3.34-3.29Z"/>
      <path class="cls-1" d="M59.44,36.33l1.3-2.11c1.14,.75,2.39,1.14,3.41,1.14,.61,0,.88-.18,.88-.53v-.04c0-.39-.55-.55-1.6-.84-1.96-.51-3.52-1.17-3.52-3.18v-.04c0-2.11,1.69-3.29,3.98-3.29,1.45,0,2.96,.42,4.09,1.16l-1.19,2.2c-1.03-.57-2.15-.92-2.94-.92-.53,0-.81,.2-.81,.48v.04c0,.39,.57,.57,1.62,.88,1.96,.55,3.52,1.23,3.52,3.16v.04c0,2.18-1.63,3.32-4.06,3.32-1.67,0-3.32-.48-4.7-1.47Zm.81-12.56h2.24l1.54,1.12,1.54-1.12h2.2l-2.35,3.03h-2.83l-2.35-3.03Z"/>
      <path class="cls-1" d="M69.7,27.65h3.49v9.93h-3.49v-9.93Zm2.24-4.24l3.25,1.05-2.7,2.35h-2.46l1.91-3.4Z"/>
      <path class="cls-1" d="M79.47,27.65h3.67l1.91,5.8,1.91-5.8h3.62l-3.96,10h-3.18l-3.96-10Z"/>
      <path class="cls-1" d="M91.43,39.71l1.08-2.44c.55,.33,1.14,.53,1.52,.53,.35,0,.59-.09,.81-.4l-3.89-9.75h3.65l1.98,5.98,1.87-5.98h3.58l-3.63,9.69c-.86,2.31-1.8,3.23-3.78,3.23-1.23,0-2.28-.35-3.19-.86Zm5.38-16.3l3.25,1.05-2.7,2.35h-2.46l1.91-3.4Z"/>
      <path class="cls-1" d="M106.67,36.37v1.21h-3.49v-13.4h3.49v4.79c.68-.83,1.52-1.54,3.01-1.54,2.37,0,4.41,1.96,4.41,5.14v.04c0,3.23-2.04,5.19-4.39,5.19-1.51,0-2.39-.68-3.03-1.43Zm3.98-3.74v-.04c0-1.3-.9-2.24-2.04-2.24s-2.02,.94-2.02,2.24v.04c0,1.32,.9,2.26,2.02,2.26s2.04-.92,2.04-2.26Z"/>
      <path class="cls-1" d="M125.88,33.49h-7.23c.29,1.01,1.16,1.6,2.44,1.6,.97,0,1.62-.28,2.29-.86l1.84,1.91c-.95,1.06-2.35,1.62-4.24,1.62-3.54,0-5.84-2.18-5.84-5.16s2.33-5.12,5.47-5.12c2.94,0,5.32,1.87,5.32,5.16,0,.26-.04,.59-.05,.86Zm-6.85-7.05l-2.39-2.79h2.31l1.58,1.4,1.58-1.4h2.31l-2.39,2.79h-3.01Zm-.44,5.21h4.08c-.18-1.05-.95-1.71-2.04-1.71s-1.84,.66-2.04,1.71Z"/>
      <path class="cls-1" d="M127.37,27.65h3.49v2c.57-1.36,1.49-2.24,3.14-2.17v3.67h-.29c-1.82,0-2.85,1.05-2.85,3.34v3.08h-3.49v-9.93Z"/>
      <path class="cls-1" d="M139.96,35.28l4.59-4.86h-4.42v-2.77h9.05v2.29l-4.61,4.86h4.61v2.77h-9.22v-2.29Z"/>
      <path class="cls-1" d="M154.12,36.37v1.21h-3.49v-13.4h3.49v4.79c.68-.83,1.52-1.54,3.01-1.54,2.37,0,4.41,1.96,4.41,5.14v.04c0,3.23-2.04,5.19-4.39,5.19-1.51,0-2.39-.68-3.03-1.43Zm3.98-3.74v-.04c0-1.3-.9-2.24-2.04-2.24s-2.02,.94-2.02,2.24v.04c0,1.32,.9,2.26,2.02,2.26s2.04-.92,2.04-2.26Z"/>
      <path class="cls-1" d="M163.04,27.65h3.49v2c.57-1.36,1.49-2.24,3.14-2.17v3.67h-.29c-1.82,0-2.85,1.05-2.85,3.34v3.08h-3.49v-9.93Z"/>
      <path class="cls-1" d="M169.94,34.73v-.04c0-2.06,1.56-3.12,3.89-3.12,.92,0,1.82,.18,2.39,.39v-.17c0-1.03-.64-1.62-1.98-1.62-1.05,0-1.85,.2-2.74,.55l-.72-2.46c1.12-.46,2.31-.77,4.02-.77s2.99,.42,3.78,1.21c.75,.73,1.07,1.76,1.07,3.16v5.71h-3.45v-1.03c-.68,.75-1.62,1.25-2.92,1.25-1.89,0-3.34-1.08-3.34-3.07Zm6.31-.75v-.46c-.35-.15-.84-.26-1.36-.26-1.01,0-1.6,.5-1.6,1.23v.04c0,.68,.51,1.08,1.23,1.08,1.01,0,1.73-.64,1.73-1.63Z"/>
      <path class="cls-1" d="M181.43,27.65h3.49v1.4c.64-.83,1.56-1.62,2.97-1.62,2.11,0,3.38,1.4,3.38,3.65v6.5h-3.49v-5.38c0-1.08-.57-1.67-1.39-1.67s-1.47,.59-1.47,1.67v5.38h-3.49v-9.93Z"/>
      <path class="cls-1" d="M193.14,27.65h3.49v9.93h-3.49v-9.93Zm2.24-4.24l3.25,1.05-2.7,2.35h-2.46l1.91-3.4Z"/>
      <path class="cls-1" d="M0,51.06H3.67l1.91,5.8,1.91-5.8h3.62l-3.96,10H3.96L0,51.06Z"/>
      <path class="cls-1" d="M27.27,56.73l2.31,2.09c-1.25,1.56-3.16,2.42-5.53,2.42-4.08,0-7.07-2.77-7.07-6.68s2.99-6.68,7.07-6.68c2.37,0,4.28,.86,5.53,2.42l-2.31,2.09c-.81-.97-1.8-1.51-3.03-1.51-2.11,0-3.58,1.47-3.58,3.67s1.47,3.67,3.58,3.67c1.23,0,2.22-.53,3.03-1.51Zm-4.77-9.66l-2.39-2.79h2.31l1.58,1.4,1.58-1.4h2.31l-2.39,2.79h-3.01Z"/>
      <path class="cls-1" d="M31.05,48.14h6.08c1.96,0,3.32,.51,4.19,1.4,.75,.73,1.14,1.73,1.14,2.99v.04c0,1.96-1.05,3.27-2.64,3.95l3.07,4.48h-4.11l-2.59-3.89h-1.56v3.89h-3.56v-12.85Zm5.91,6.17c1.21,0,1.91-.59,1.91-1.52v-.04c0-1.01-.73-1.52-1.93-1.52h-2.33v3.08h2.35Z"/>
    </g>
  </g>
</svg>