<?xml version="1.0" encoding="UTF-8"?>
<svg id="Layer_2" data-name="Layer 2" xmlns="http://www.w3.org/2000/svg" viewBox="0 0 73.37 88.58">
  <defs>
    <style>
      .cls-1 {
        fill: #fff;
      }

      .cls-2 {
        fill: #c3362a;
      }
    </style>
  </defs>
  <g id="Layer_1-2" data-name="Layer 1">
    <g>
      <path class="cls-1" d="M61.3,88.17h2.85v-3.88l3.89-6.36h-3.17l-2.12,3.73-2.11-3.73h-3.23l3.89,6.41v3.83Zm-10.26-5.32v-2.46h1.86c.95,0,1.54,.41,1.54,1.21v.03c0,.75-.55,1.21-1.52,1.21h-1.87Zm-2.84,5.32h2.84v-3.1h1.24l2.06,3.1h3.28l-2.44-3.57c1.27-.54,2.11-1.58,2.11-3.15v-.03c0-1.01-.31-1.8-.91-2.38-.69-.7-1.77-1.11-3.34-1.11h-4.84v10.24Zm-25.03,0h2.78v-5.85l2.6,3.98h.06l2.62-4.01v5.88h2.82v-10.24h-3l-2.44,3.96-2.44-3.96h-3v10.24Zm-7.85-5.32v-2.46h1.86c.95,0,1.54,.41,1.54,1.21v.03c0,.75-.56,1.21-1.52,1.21h-1.87Zm-2.84,5.32h2.84v-3.1h1.24l2.06,3.1h3.28l-2.44-3.57c1.27-.54,2.11-1.58,2.11-3.15v-.03c0-1.01-.31-1.8-.91-2.38-.69-.7-1.77-1.11-3.33-1.11h-4.84v10.24Zm-7.93-4.04l1.15-2.91,1.14,2.91h-2.3Zm-4.55,4.04H2.98l.73-1.83h3.95l.75,1.83h3.04l-4.36-10.31h-2.74L0,88.17Z"/>
      <path class="cls-1" d="M43.84,83.07c0,1.53-1.24,2.76-2.76,2.76s-2.77-1.24-2.77-2.76,1.24-2.76,2.77-2.76,2.76,1.24,2.76,2.76m2.75,0c0-3.05-2.47-5.51-5.51-5.51s-5.52,2.47-5.52,5.51,2.47,5.51,5.52,5.51,5.51-2.47,5.51-5.51"/>
      <path class="cls-1" d="M41.07,84.49c.79,0,1.43-.64,1.43-1.43s-.64-1.43-1.43-1.43-1.43,.64-1.43,1.43,.64,1.43,1.43,1.43"/>
      <path class="cls-1" d="M34.02,0l14.28,28.02-8.9,3.24-5.38-11.36-7.84,16.17-12.94,4.71L34.02,0Zm18.7,36.69l11.26,22.1h-10.84l-7.03-13.79L.17,66.42l6.63-13.02,45.9-16.71Z"/>
      <path class="cls-2" d="M43.21,40.15c1.76-.64,11.76-4.28,13.98-5.09,2.22-.81,16.88-9.03,16.16-11.02-.73-1.99-17.24,1.13-19.46,1.94-2.22,.81-12.22,4.45-13.98,5.09-1.76,.64-5.66,3.09-5.66,3.09l.53,1.44c1.01-.51,3.98-2,5.41-2.53,1.75-.64,11.68-4.25,13.9-5.06,2.21-.8,18.25-4.94,18.68-3.76l-37.19,13.54-13.49,4.91,3.97-.38,9.86-3.59,.98,2.69s4.57-.63,6.32-1.27"/>
      <path class="cls-2" d="M45.29,75.31h3.7v-.95h-2.64v-1.02h2.29v-.95h-2.29v-.99h2.61v-.95h-3.67v4.86Zm-3.38,.08c1.31,0,2.13-.72,2.13-2.19v-2.74h-1.07v2.79c0,.77-.4,1.17-1.05,1.17s-1.05-.41-1.05-1.2v-2.75h-1.07v2.78c0,1.43,.8,2.16,2.1,2.16m-5.27,0c.89,0,1.58-.35,2.08-.77v-2.11h-2.11v.92h1.08v.69c-.27,.2-.62,.29-1.01,.29-.86,0-1.47-.65-1.47-1.54h0c0-.84,.62-1.53,1.4-1.53,.56,0,.9,.18,1.27,.49l.67-.81c-.51-.43-1.03-.67-1.91-.67-1.47,0-2.55,1.13-2.55,2.51h0c0,1.45,1.04,2.51,2.56,2.51m-6.13-2.12l.65-1.58,.65,1.58h-1.29Zm-1.92,2.03h1.09l.44-1.09h2.06l.44,1.09h1.12l-2.08-4.9h-.99l-2.08,4.9Zm-3.76-2.5v-1.4h1.06c.52,0,.84,.24,.84,.7h0c0,.42-.3,.7-.82,.7h-1.08Zm-1.07,2.5h1.07v-1.56h.84l1.04,1.56h1.25l-1.19-1.74c.62-.23,1.04-.72,1.04-1.51h0c0-.47-.14-.86-.42-1.13-.32-.32-.8-.49-1.42-.49h-2.22v4.86Zm-3.66-2.41v-1.49h.83c.54,0,.87,.26,.87,.74h0c0,.43-.31,.75-.85,.75h-.85Zm-1.07,2.41h1.07v-1.46h.81c1.09,0,1.97-.58,1.97-1.71h0c0-1.01-.7-1.69-1.86-1.69h-1.99v4.86Z"/>
    </g>
  </g>
</svg>